M48
;Layer_Color=9474304
;FILE_FORMAT=2:5
INCH,LZ
;TYPE=PLATED
T1F00S00C0.01000
T2F00S00C0.01500
T3F00S00C0.03000
T4F00S00C0.03150
T5F00S00C0.03543
T6F00S00C0.03800
T7F00S00C0.12992
%
T01
X0472Y0198
X0476
X048
X0484
X0488
X0492
X0496
X05
X0504
X0508
X0512
X05Y0206
Y021
Y0214
X0496
X0492
Y021
X0496
Y0206
X0492
X04795Y0203
X0472
X0469Y0209
X0473906Y0235
X048
X0479744Y0231307
X0475Y0244
X04965Y0242
Y0239
Y0236
X05015
Y0239
Y0242
X04805Y0271
X0477
X0479364Y0275135
X0475Y02817
X0474Y0288
X04705Y0289
X04835Y02835
X0480843Y03105
X0476458Y0306732
X0466Y0298
X0461441Y0288559
X0467Y0279
Y0275
Y0271
X04685Y02625
X04603Y02629
X04589Y02732
X044Y0267
X0445Y0261
X0442Y0254
X0434Y0244
X043
X0426
Y0256
X0422
X0418
X0414
X0412Y0244
X0408
X0425Y0233
X0423Y0211
X0419
X0415
X0411
Y0207
X0415
Y0203
Y0199
X0411
Y0195
X0415
X0419
Y0199
Y0203
Y0207
X0423
Y0203
Y0199
Y0195
X0386Y0196
X0382
Y02
Y0204
X0378
X0374
Y02
Y0196
X0378
Y02
X0386
Y0204
X0369Y0226
X0352Y02313
X0347Y0233
Y0247
X0344Y025
X0337Y0247
X0334Y0257
X0326Y0256
Y026
Y0264
X03279Y0291
X0335Y0285
X0339
X0343
X0358Y028
X0362
X0366
X0371Y0268
X0375
X0379
Y0262
X0375
X0371
X0358Y0257
X0354
X0357Y0247
X03561Y02943
X03935Y02905
X0402Y028
X0406
X041
X0414
X0418
X0422
Y0276
X0418
X0414
X041
X0406
X0402
X0391Y0271
X04104Y02973
X04235Y03055
X04305
X04375
X04445
X045Y0236
X0459Y022
X0461Y0211
X046Y0203
X0464
X0468
Y0198
X0464
X046
X0322Y0199
X0317
X0315157Y0206835
X0319488
X0323819
Y0211165
X0319488
X0315157
X0316Y0288
X0308Y0264
Y026
Y0256
Y0252
Y0248
X04235Y0316
X04305
X04375
X04445
X0481244Y0317
T02
X0393Y02525
T03
X0252Y0316
X0262
X0272
X0282
X0292
X0302
X0312
X0322
T04
X0524626Y02095
X05325
Y02295
X0524626
X0524346Y0248829
X053222
Y0268829
X0524346
X0524724Y0288529
X0532598
Y0308529
X0524724
X0554Y0289874
Y0282
Y0234
Y0226126
X0295Y0224622
Y0216748
Y0208874
Y0201
X0274
Y0208874
Y0216748
Y0224622
X0253
Y0216748
Y0208874
Y0201
T05
X0407Y0203
Y0222685
X0448
Y0203
T06
X0322Y0243
X0332
X0342
X0352
X0362
X0372
X0382
X0392
X0402
Y0303
X0392
X0382
X0372
X0362
X0352
X0342
X0332
X0322
X0312
X0302
X0292
X0282
X0272
X0262
Y0243
X0272
X0282
X0292
X0302
X0312
T07
X0551Y0202
Y0258
X0552Y0312
X0235
Y0258
Y0202
M30
