M48
;Layer_Color=9474304
;FILE_FORMAT=2:5
INCH,LZ
;TYPE=PLATED
T1F00S00C0.00787
T2F00S00C0.01500
T3F00S00C0.03000
T4F00S00C0.03150
T5F00S00C0.03543
T6F00S00C0.12992
%
T01
X0315158Y0206835
Y0211165
X0319488
Y0206835
X0323819
Y0211165
T02
X0469Y0209
X04795Y0203
X0485Y02
Y0195
X049
X0495
X05
X0505
Y02
X05
X0495
X049
X051
Y0195
X0515
Y02
X0521
X0526
X0531
Y0195
X0526
X0521
X0479744Y0231307
X048Y0235
X0473906
X0475Y0244
X0474Y0266
X0477Y0271
X04805
X0485Y0274
X04835Y02835
X04714Y02821
X0473981Y0288819
X0474Y0306
X0480843Y03105
X0469Y0263
X0468Y027
X0463Y0273
Y0277
Y0281
X045Y0282
X0446Y0283
X0442Y0277
Y0274
X0434Y0277
X043
X0426
X0428Y0289
X0442Y02943
X0445244Y0298756
X04527Y03049
X0453Y0311
X0465
X04104Y02973
X0409Y028
X0391Y0271
X0416Y0252
X042
Y0248
Y0244
X0416
Y0248
X0424367Y0242267
X0431Y0242
X0438Y0249
X0439505Y0255467
X04394Y02624
X0457Y0248
X0448034Y02355
X0421Y02325
X0466Y0221
X0461Y0211
X0365Y0208
X0361
Y0212
X0357
X0353
Y0208
X0357
Y0201
Y0197
X0361
X0365
X0369
Y0201
X0365
X0361
X0369401Y0227401
X0352Y02313
X0344Y0233
X0337Y0234
X0322Y0199
X0317
X0323Y0309
X026Y029
Y0285
Y028
Y0275
Y027
Y0265
Y026
Y0255
Y025
X0255
Y0255
Y026
Y0265
Y027
Y0275
Y028
Y0285
Y029
X0311Y0199
X0373Y0315
X04062Y03147
X0413Y0315
X04487Y03163
X0465Y0317
Y0314
X0481244Y0317
T03
X0322Y0243
X0332
X0342
X0352
X0362
X0372
X0382
X0392
X0402
Y0303
X0392
X0382
X0372
X0362
X0352
X0342
X0332
X0322
X0312
X0302
X0292
X0282
X0272
X0262
Y0243
X0272
X0282
X0292
X0302
X0312
Y0316
X0302
X0292
X0282
X0272
X0262
X0252
X0322
T04
X0524626Y02095
X05325
Y02295
X0524626
X0524346Y0248829
X053222
Y0268829
X0524346
X0524724Y0288529
X0532598
Y0308529
X0524724
X0295Y0224622
Y0216748
Y0208874
Y0201
X0274
Y0208874
Y0216748
Y0224622
X0253
Y0216748
Y0208874
Y0201
T05
X0407Y0203
Y0222685
X0448Y0223
Y0203315
T06
X0551Y0202
Y0258
X0552Y0312
X0235
Y0258
Y0202
M30
