G04 Layer_Color=65535*
%FSLAX25Y25*%
%MOIN*%
G70*
G01*
G75*
%ADD22C,0.01000*%
%ADD39C,0.00984*%
%ADD40C,0.02362*%
%ADD41C,0.00800*%
%ADD42C,0.00787*%
%ADD43C,0.01575*%
%ADD44C,0.00799*%
%ADD45C,0.00600*%
%ADD46C,0.00700*%
%ADD47C,0.00500*%
%ADD48R,0.02300X0.00650*%
%ADD49R,0.01800X0.06700*%
%ADD50R,0.02560X0.00730*%
%ADD51R,0.00650X0.02300*%
%ADD52R,0.06700X0.01800*%
%ADD53R,0.00730X0.02560*%
G36*
X450792Y280506D02*
X448690D01*
Y279809D01*
X448403D01*
Y279813D01*
Y279827D01*
X448399Y279846D01*
X448394Y279873D01*
Y279906D01*
X448385Y279943D01*
X448371Y280030D01*
X448357Y280123D01*
X448334Y280215D01*
X448306Y280298D01*
X448292Y280335D01*
X448274Y280368D01*
X448269Y280377D01*
X448255Y280396D01*
X448228Y280423D01*
X448186Y280460D01*
X448126Y280497D01*
X448089Y280516D01*
X448047Y280539D01*
X448006Y280557D01*
X447955Y280576D01*
X447895Y280594D01*
X447835Y280608D01*
Y280904D01*
X450792D01*
Y280506D01*
D02*
G37*
G36*
X447123Y280844D02*
X446777Y280557D01*
X446786Y280548D01*
X446805Y280529D01*
X446842Y280497D01*
X446879Y280455D01*
X446925Y280409D01*
X446966Y280359D01*
X447008Y280303D01*
X447045Y280248D01*
Y280243D01*
X447050Y280238D01*
X447059Y280224D01*
X447068Y280206D01*
X447077Y280183D01*
X447091Y280155D01*
X447119Y280086D01*
X447147Y280003D01*
X447170Y279906D01*
X447188Y279800D01*
X447193Y279684D01*
Y279679D01*
Y279665D01*
Y279638D01*
X447188Y279605D01*
X447184Y279569D01*
X447179Y279522D01*
X447170Y279471D01*
X447160Y279421D01*
X447133Y279305D01*
X447086Y279194D01*
X447054Y279139D01*
X447022Y279088D01*
X446985Y279037D01*
X446939Y278996D01*
X446934D01*
X446925Y278986D01*
X446911Y278977D01*
X446892Y278963D01*
X446869Y278945D01*
X446842Y278926D01*
X446772Y278889D01*
X446685Y278852D01*
X446588Y278815D01*
X446477Y278792D01*
X446421Y278788D01*
X446361Y278783D01*
X446329D01*
X446306Y278788D01*
X446273D01*
X446241Y278792D01*
X446163Y278811D01*
X446070Y278834D01*
X445973Y278871D01*
X445876Y278922D01*
X445830Y278954D01*
X445784Y278991D01*
X445779Y278996D01*
X445761Y279019D01*
X445728Y279051D01*
X445687Y279102D01*
X445636Y279167D01*
X445608Y279204D01*
X445576Y279250D01*
X445543Y279296D01*
X445506Y279351D01*
X445470Y279407D01*
X445433Y279471D01*
X445428D01*
X445423Y279462D01*
X445396Y279439D01*
X445354Y279407D01*
X445303Y279365D01*
X445243Y279324D01*
X445183Y279282D01*
X445123Y279240D01*
X445063Y279213D01*
X445054Y279208D01*
X445035Y279204D01*
X445008Y279194D01*
X444971Y279180D01*
X444924Y279167D01*
X444874Y279157D01*
X444823Y279153D01*
X444767Y279148D01*
X444740D01*
X444717Y279153D01*
X444666Y279157D01*
X444596Y279171D01*
X444518Y279194D01*
X444435Y279231D01*
X444356Y279277D01*
X444278Y279342D01*
X444273Y279347D01*
X444268Y279351D01*
X444245Y279379D01*
X444217Y279421D01*
X444180Y279485D01*
X444144Y279559D01*
X444116Y279652D01*
X444093Y279753D01*
X444083Y279873D01*
Y279878D01*
Y279887D01*
Y279906D01*
X444088Y279924D01*
Y279952D01*
X444093Y279984D01*
X444107Y280054D01*
X444130Y280132D01*
X444162Y280215D01*
X444208Y280298D01*
X444268Y280368D01*
X444278Y280377D01*
X444301Y280396D01*
X444338Y280423D01*
X444388Y280460D01*
X444453Y280492D01*
X444527Y280520D01*
X444606Y280539D01*
X444698Y280548D01*
X444726D01*
X444749Y280543D01*
X444772D01*
X444800Y280539D01*
X444869Y280525D01*
X444952Y280502D01*
X445035Y280469D01*
X445123Y280423D01*
X445211Y280363D01*
X445215Y280359D01*
X445234Y280345D01*
X445257Y280317D01*
X445294Y280280D01*
X445335Y280229D01*
X445386Y280169D01*
X445446Y280095D01*
X445506Y280007D01*
X446167Y280557D01*
X446158Y280562D01*
X446139Y280566D01*
X446112Y280576D01*
X446075Y280585D01*
X445996Y280608D01*
X445955Y280617D01*
X445922Y280627D01*
X445918D01*
X445908Y280631D01*
X445890Y280636D01*
X445862Y280640D01*
X445830Y280650D01*
X445788Y280654D01*
X445742Y280663D01*
X445691Y280673D01*
Y281028D01*
X445705D01*
X445719Y281024D01*
X445742Y281019D01*
X445770Y281014D01*
X445797Y281010D01*
X445871Y280996D01*
X445959Y280978D01*
X446052Y280955D01*
X446153Y280922D01*
X446255Y280885D01*
X446259D01*
X446264Y280881D01*
X446297Y280871D01*
X446334Y280853D01*
X446380Y280834D01*
X446421Y280816D01*
X446454Y280797D01*
X446467Y280793D01*
X446472Y280788D01*
Y280787D01*
X447123Y281319D01*
Y280844D01*
D02*
G37*
G36*
X449914Y283958D02*
X449946Y283953D01*
X449988Y283948D01*
X450034Y283939D01*
X450085Y283930D01*
X450196Y283897D01*
X450256Y283874D01*
X450316Y283851D01*
X450376Y283819D01*
X450441Y283782D01*
X450501Y283740D01*
X450561Y283694D01*
X450565Y283689D01*
X450575Y283680D01*
X450589Y283666D01*
X450607Y283643D01*
X450635Y283620D01*
X450658Y283583D01*
X450686Y283546D01*
X450713Y283500D01*
X450746Y283454D01*
X450773Y283394D01*
X450796Y283334D01*
X450819Y283269D01*
X450843Y283195D01*
X450856Y283117D01*
X450866Y283033D01*
X450870Y282946D01*
Y282941D01*
Y282927D01*
Y282904D01*
X450866Y282876D01*
X450861Y282839D01*
X450852Y282798D01*
X450843Y282752D01*
X450829Y282701D01*
X450792Y282585D01*
X450769Y282525D01*
X450736Y282465D01*
X450699Y282405D01*
X450658Y282345D01*
X450612Y282285D01*
X450556Y282225D01*
X450552Y282220D01*
X450542Y282211D01*
X450524Y282197D01*
X450496Y282179D01*
X450459Y282156D01*
X450418Y282128D01*
X450367Y282105D01*
X450307Y282077D01*
X450237Y282045D01*
X450159Y282022D01*
X450071Y281994D01*
X449974Y281971D01*
X449868Y281952D01*
X449752Y281939D01*
X449627Y281929D01*
X449494Y281925D01*
X449401D01*
X449355Y281929D01*
X449299Y281934D01*
X449235D01*
X449165Y281943D01*
X449018Y281957D01*
X448861Y281980D01*
X448703Y282013D01*
X448551Y282059D01*
X448542Y282063D01*
X448519Y282072D01*
X448482Y282086D01*
X448436Y282109D01*
X448380Y282142D01*
X448315Y282179D01*
X448251Y282220D01*
X448181Y282276D01*
X448112Y282336D01*
X448047Y282405D01*
X447983Y282479D01*
X447927Y282567D01*
X447881Y282664D01*
X447844Y282766D01*
X447821Y282881D01*
X447812Y283006D01*
Y283010D01*
Y283029D01*
Y283052D01*
X447817Y283089D01*
X447821Y283126D01*
X447826Y283172D01*
X447835Y283227D01*
X447844Y283278D01*
X447877Y283394D01*
X447923Y283509D01*
X447951Y283565D01*
X447983Y283616D01*
X448024Y283662D01*
X448071Y283703D01*
X448075Y283708D01*
X448080Y283713D01*
X448098Y283722D01*
X448117Y283736D01*
X448140Y283750D01*
X448168Y283768D01*
X448232Y283805D01*
X448315Y283837D01*
X448403Y283870D01*
X448500Y283893D01*
X448551Y283902D01*
X448602D01*
Y283528D01*
X448593D01*
X448574Y283523D01*
X448542Y283514D01*
X448500Y283500D01*
X448413Y283468D01*
X448371Y283445D01*
X448329Y283422D01*
X448320Y283417D01*
X448302Y283394D01*
X448269Y283362D01*
X448232Y283320D01*
X448200Y283260D01*
X448168Y283191D01*
X448149Y283107D01*
X448140Y283010D01*
Y283006D01*
Y282997D01*
Y282983D01*
X448144Y282960D01*
X448149Y282932D01*
X448154Y282904D01*
X448177Y282835D01*
X448209Y282752D01*
X448232Y282715D01*
X448265Y282673D01*
X448297Y282631D01*
X448334Y282590D01*
X448380Y282553D01*
X448431Y282516D01*
X448436D01*
X448445Y282507D01*
X448463Y282498D01*
X448486Y282488D01*
X448514Y282474D01*
X448551Y282456D01*
X448593Y282437D01*
X448643Y282419D01*
X448699Y282400D01*
X448764Y282382D01*
X448828Y282368D01*
X448902Y282350D01*
X448985Y282336D01*
X449073Y282322D01*
X449165Y282313D01*
X449263Y282308D01*
X449253Y282313D01*
X449230Y282331D01*
X449198Y282359D01*
X449156Y282396D01*
X449110Y282442D01*
X449064Y282498D01*
X449018Y282562D01*
X448981Y282631D01*
X448976Y282641D01*
X448967Y282664D01*
X448953Y282701D01*
X448935Y282747D01*
X448921Y282807D01*
X448907Y282876D01*
X448898Y282950D01*
X448893Y283029D01*
Y283033D01*
Y283047D01*
Y283066D01*
X448898Y283094D01*
X448902Y283126D01*
X448907Y283163D01*
X448911Y283204D01*
X448921Y283251D01*
X448953Y283352D01*
X448995Y283463D01*
X449022Y283519D01*
X449055Y283574D01*
X449092Y283629D01*
X449133Y283680D01*
X449138Y283685D01*
X449142Y283694D01*
X449156Y283708D01*
X449179Y283727D01*
X449202Y283745D01*
X449235Y283768D01*
X449272Y283796D01*
X449313Y283823D01*
X449360Y283847D01*
X449410Y283874D01*
X449470Y283897D01*
X449535Y283921D01*
X449604Y283934D01*
X449678Y283948D01*
X449757Y283958D01*
X449845Y283962D01*
X449882D01*
X449914Y283958D01*
D02*
G37*
G36*
X443377Y280437D02*
Y280040D01*
X441154Y279222D01*
Y279656D01*
X442966Y280248D01*
X441154Y280867D01*
Y281273D01*
X443377Y280437D01*
D02*
G37*
G36*
X447123Y277319D02*
X447128Y277314D01*
Y277300D01*
X447133Y277282D01*
X447142Y277240D01*
X447151Y277189D01*
Y277185D01*
Y277175D01*
X447156Y277162D01*
Y277143D01*
X447160Y277097D01*
Y277037D01*
Y277032D01*
Y277028D01*
Y277014D01*
Y276995D01*
X447151Y276949D01*
X447142Y276898D01*
X447128Y276838D01*
X447105Y276778D01*
X447073Y276727D01*
X447031Y276686D01*
X447026Y276681D01*
X447008Y276672D01*
X446976Y276658D01*
X446939Y276639D01*
X446888Y276621D01*
X446828Y276607D01*
X446759Y276598D01*
X446680Y276593D01*
X445211D01*
Y276293D01*
X444901D01*
Y276593D01*
X444287D01*
Y276967D01*
X444901D01*
Y277323D01*
X445211D01*
Y276967D01*
X446671D01*
X446689Y276972D01*
X446717Y276977D01*
X446740Y276986D01*
X446768Y277000D01*
X446791Y277018D01*
X446809Y277046D01*
X446814Y277055D01*
Y277064D01*
X446819Y277078D01*
X446823Y277101D01*
Y277125D01*
X446828Y277152D01*
Y277189D01*
Y277194D01*
Y277208D01*
Y277226D01*
Y277249D01*
Y277254D01*
Y277272D01*
X446823Y277295D01*
X446819Y277323D01*
X447123D01*
Y277319D01*
D02*
G37*
G36*
X443377Y278552D02*
X441949D01*
X441912Y278548D01*
X441866Y278543D01*
X441811Y278538D01*
X441755Y278524D01*
X441704Y278510D01*
X441653Y278487D01*
X441649D01*
X441644Y278483D01*
X441621Y278469D01*
X441589Y278441D01*
X441547Y278404D01*
X441510Y278358D01*
X441478Y278293D01*
X441455Y278219D01*
X441445Y278173D01*
Y278127D01*
Y278122D01*
Y278104D01*
Y278081D01*
X441450Y278048D01*
X441455Y277979D01*
X441464Y277942D01*
X441473Y277910D01*
Y277905D01*
X441482Y277882D01*
X441496Y277854D01*
X441515Y277818D01*
X441538Y277776D01*
X441570Y277730D01*
X441612Y277683D01*
X441658Y277637D01*
X441663Y277633D01*
X441677Y277624D01*
X441700Y277605D01*
X441727Y277587D01*
X441760Y277568D01*
X441797Y277550D01*
X441838Y277531D01*
X441884Y277517D01*
X441889D01*
X441908Y277513D01*
X441931Y277508D01*
X441968Y277503D01*
X442018Y277499D01*
X442074Y277494D01*
X442138Y277489D01*
X443377D01*
Y277115D01*
X441154D01*
Y277471D01*
X441473D01*
X441469Y277480D01*
X441445Y277499D01*
X441408Y277531D01*
X441367Y277573D01*
X441321Y277624D01*
X441275Y277679D01*
X441233Y277739D01*
X441196Y277804D01*
X441191Y277813D01*
X441182Y277836D01*
X441168Y277873D01*
X441150Y277919D01*
X441136Y277975D01*
X441122Y278044D01*
X441113Y278118D01*
X441108Y278196D01*
Y278201D01*
Y278215D01*
Y278242D01*
X441113Y278275D01*
X441117Y278312D01*
X441127Y278353D01*
X441150Y278455D01*
X441168Y278506D01*
X441191Y278561D01*
X441215Y278612D01*
X441247Y278663D01*
X441288Y278714D01*
X441330Y278760D01*
X441381Y278802D01*
X441441Y278834D01*
X441450Y278838D01*
X441473Y278848D01*
X441515Y278862D01*
X441570Y278880D01*
X441644Y278899D01*
X441732Y278912D01*
X441838Y278922D01*
X441954Y278926D01*
X443377D01*
Y278552D01*
D02*
G37*
G36*
X450792Y278584D02*
X450339D01*
Y279019D01*
X450792D01*
Y278584D01*
D02*
G37*
G36*
X447123Y289030D02*
X445696D01*
X445659Y289026D01*
X445613Y289021D01*
X445557Y289016D01*
X445502Y289002D01*
X445451Y288989D01*
X445400Y288966D01*
X445396D01*
X445391Y288961D01*
X445368Y288947D01*
X445335Y288919D01*
X445294Y288882D01*
X445257Y288836D01*
X445225Y288772D01*
X445202Y288698D01*
X445192Y288651D01*
Y288605D01*
Y288601D01*
Y288582D01*
Y288559D01*
X445197Y288527D01*
X445202Y288457D01*
X445211Y288420D01*
X445220Y288388D01*
Y288383D01*
X445229Y288360D01*
X445243Y288333D01*
X445262Y288296D01*
X445285Y288254D01*
X445317Y288208D01*
X445359Y288162D01*
X445405Y288116D01*
X445409Y288111D01*
X445423Y288102D01*
X445446Y288083D01*
X445474Y288065D01*
X445506Y288046D01*
X445543Y288028D01*
X445585Y288009D01*
X445631Y287995D01*
X445636D01*
X445654Y287991D01*
X445677Y287986D01*
X445714Y287982D01*
X445765Y287977D01*
X445821Y287972D01*
X445885Y287968D01*
X447123D01*
Y287593D01*
X444901D01*
Y287949D01*
X445220D01*
X445215Y287958D01*
X445192Y287977D01*
X445155Y288009D01*
X445114Y288051D01*
X445068Y288102D01*
X445021Y288157D01*
X444980Y288217D01*
X444943Y288282D01*
X444938Y288291D01*
X444929Y288314D01*
X444915Y288351D01*
X444897Y288397D01*
X444883Y288453D01*
X444869Y288522D01*
X444860Y288596D01*
X444855Y288674D01*
Y288679D01*
Y288693D01*
Y288721D01*
X444860Y288753D01*
X444864Y288790D01*
X444874Y288832D01*
X444897Y288933D01*
X444915Y288984D01*
X444938Y289039D01*
X444961Y289090D01*
X444994Y289141D01*
X445035Y289192D01*
X445077Y289238D01*
X445128Y289280D01*
X445188Y289312D01*
X445197Y289317D01*
X445220Y289326D01*
X445262Y289340D01*
X445317Y289358D01*
X445391Y289377D01*
X445479Y289391D01*
X445585Y289400D01*
X445701Y289405D01*
X447123D01*
Y289030D01*
D02*
G37*
G36*
X441464Y289141D02*
X443377D01*
Y288767D01*
X441464D01*
Y288457D01*
X441168D01*
Y288767D01*
X440785D01*
X440743Y288772D01*
X440692Y288781D01*
X440637Y288790D01*
X440582Y288804D01*
X440531Y288822D01*
X440485Y288845D01*
X440475Y288850D01*
X440452Y288873D01*
X440424Y288906D01*
X440387Y288956D01*
X440369Y288989D01*
X440351Y289026D01*
X440337Y289067D01*
X440323Y289113D01*
X440309Y289164D01*
X440300Y289220D01*
X440290Y289280D01*
Y289349D01*
Y289354D01*
Y289372D01*
Y289395D01*
X440295Y289423D01*
Y289428D01*
Y289446D01*
Y289474D01*
X440300Y289511D01*
X440642D01*
Y289506D01*
Y289502D01*
X440637Y289478D01*
Y289451D01*
Y289423D01*
Y289418D01*
X440632Y289409D01*
Y289377D01*
Y289368D01*
Y289349D01*
X440637Y289321D01*
X440642Y289289D01*
X440656Y289252D01*
X440669Y289220D01*
X440692Y289192D01*
X440725Y289174D01*
X440729D01*
X440743Y289169D01*
X440771Y289164D01*
X440813Y289160D01*
X440840Y289155D01*
X440873Y289150D01*
X440910D01*
X440946Y289146D01*
X440997D01*
X441048Y289141D01*
X441168D01*
Y289511D01*
X441464D01*
Y289141D01*
D02*
G37*
G36*
X443381Y291839D02*
X443386Y291830D01*
X443391Y291811D01*
X443395Y291793D01*
X443404Y291751D01*
X443414Y291710D01*
Y291701D01*
X443418Y291677D01*
X443423Y291636D01*
Y291585D01*
Y291576D01*
Y291553D01*
X443414Y291520D01*
X443404Y291479D01*
X443391Y291433D01*
X443367Y291386D01*
X443335Y291340D01*
X443289Y291303D01*
X443284D01*
X443275Y291299D01*
X443257Y291289D01*
X443233Y291280D01*
X443206Y291271D01*
X443173Y291262D01*
X443132Y291252D01*
X443086Y291243D01*
X443090Y291239D01*
X443109Y291220D01*
X443136Y291197D01*
X443173Y291160D01*
X443215Y291114D01*
X443257Y291058D01*
X443303Y290989D01*
X443344Y290915D01*
X443349Y290906D01*
X443363Y290878D01*
X443381Y290837D01*
X443400Y290777D01*
X443418Y290707D01*
X443437Y290629D01*
X443451Y290536D01*
X443455Y290444D01*
Y290439D01*
Y290430D01*
Y290416D01*
X443451Y290393D01*
Y290365D01*
X443446Y290338D01*
X443432Y290264D01*
X443409Y290185D01*
X443377Y290102D01*
X443330Y290019D01*
X443270Y289940D01*
X443261Y289931D01*
X443238Y289908D01*
X443196Y289880D01*
X443141Y289843D01*
X443072Y289806D01*
X442993Y289779D01*
X442901Y289756D01*
X442799Y289746D01*
X442771D01*
X442748Y289751D01*
X442693Y289756D01*
X442624Y289769D01*
X442545Y289792D01*
X442466Y289825D01*
X442393Y289871D01*
X442323Y289936D01*
X442314Y289945D01*
X442296Y289973D01*
X442268Y290014D01*
X442231Y290074D01*
X442194Y290144D01*
X442162Y290231D01*
X442134Y290333D01*
X442111Y290444D01*
X442037Y291035D01*
Y291040D01*
X442032Y291058D01*
X442028Y291077D01*
X442018Y291105D01*
X442004Y291132D01*
X441986Y291160D01*
X441958Y291188D01*
X441931Y291206D01*
X441926D01*
X441921Y291211D01*
X441894Y291220D01*
X441847Y291229D01*
X441787Y291234D01*
X441755D01*
X441723Y291225D01*
X441681Y291215D01*
X441640Y291202D01*
X441593Y291174D01*
X441552Y291142D01*
X441515Y291095D01*
X441510Y291091D01*
X441501Y291072D01*
X441487Y291040D01*
X441469Y290998D01*
X441455Y290943D01*
X441441Y290874D01*
X441432Y290795D01*
X441427Y290707D01*
Y290703D01*
Y290693D01*
Y290680D01*
Y290661D01*
X441436Y290610D01*
X441445Y290546D01*
X441464Y290481D01*
X441492Y290412D01*
X441533Y290347D01*
X441584Y290296D01*
X441589Y290292D01*
X441598Y290287D01*
X441621Y290273D01*
X441649Y290259D01*
X441686Y290245D01*
X441727Y290231D01*
X441778Y290218D01*
X441838Y290208D01*
Y289862D01*
X441820D01*
X441801Y289866D01*
X441774D01*
X441737Y289871D01*
X441700Y289880D01*
X441612Y289899D01*
X441519Y289931D01*
X441422Y289977D01*
X441376Y290005D01*
X441335Y290042D01*
X441298Y290079D01*
X441265Y290125D01*
Y290130D01*
X441256Y290139D01*
X441252Y290153D01*
X441238Y290171D01*
X441228Y290195D01*
X441215Y290222D01*
X441182Y290296D01*
X441154Y290379D01*
X441127Y290481D01*
X441108Y290596D01*
X441104Y290717D01*
Y290721D01*
Y290735D01*
Y290754D01*
Y290781D01*
X441108Y290814D01*
X441113Y290855D01*
X441122Y290943D01*
X441141Y291045D01*
X441168Y291151D01*
X441210Y291257D01*
X441261Y291354D01*
Y291359D01*
X441270Y291363D01*
X441288Y291391D01*
X441325Y291433D01*
X441376Y291479D01*
X441441Y291520D01*
X441519Y291562D01*
X441616Y291590D01*
X441672Y291594D01*
X441727Y291599D01*
X443007D01*
X443030Y291604D01*
X443058Y291608D01*
X443090Y291622D01*
X443095Y291627D01*
X443104Y291645D01*
X443118Y291673D01*
X443123Y291696D01*
Y291719D01*
Y291724D01*
Y291738D01*
Y291756D01*
Y291775D01*
Y291779D01*
X443118Y291798D01*
Y291816D01*
X443113Y291844D01*
X443381D01*
Y291839D01*
D02*
G37*
G36*
X447128Y287224D02*
X447133Y287215D01*
X447137Y287196D01*
X447142Y287178D01*
X447151Y287136D01*
X447160Y287094D01*
Y287085D01*
X447165Y287062D01*
X447170Y287020D01*
Y286970D01*
Y286961D01*
Y286937D01*
X447160Y286905D01*
X447151Y286863D01*
X447137Y286817D01*
X447114Y286771D01*
X447082Y286725D01*
X447036Y286688D01*
X447031D01*
X447022Y286683D01*
X447003Y286674D01*
X446980Y286665D01*
X446952Y286656D01*
X446920Y286646D01*
X446879Y286637D01*
X446832Y286628D01*
X446837Y286623D01*
X446855Y286605D01*
X446883Y286582D01*
X446920Y286545D01*
X446962Y286498D01*
X447003Y286443D01*
X447050Y286374D01*
X447091Y286300D01*
X447096Y286291D01*
X447110Y286263D01*
X447128Y286221D01*
X447147Y286161D01*
X447165Y286092D01*
X447184Y286013D01*
X447197Y285921D01*
X447202Y285829D01*
Y285824D01*
Y285815D01*
Y285801D01*
X447197Y285778D01*
Y285750D01*
X447193Y285722D01*
X447179Y285648D01*
X447156Y285570D01*
X447123Y285487D01*
X447077Y285403D01*
X447017Y285325D01*
X447008Y285316D01*
X446985Y285293D01*
X446943Y285265D01*
X446888Y285228D01*
X446819Y285191D01*
X446740Y285163D01*
X446648Y285140D01*
X446546Y285131D01*
X446518D01*
X446495Y285136D01*
X446440Y285140D01*
X446370Y285154D01*
X446292Y285177D01*
X446213Y285209D01*
X446139Y285256D01*
X446070Y285320D01*
X446061Y285330D01*
X446042Y285357D01*
X446015Y285399D01*
X445978Y285459D01*
X445941Y285528D01*
X445908Y285616D01*
X445881Y285718D01*
X445858Y285829D01*
X445784Y286420D01*
Y286425D01*
X445779Y286443D01*
X445774Y286461D01*
X445765Y286489D01*
X445751Y286517D01*
X445733Y286545D01*
X445705Y286572D01*
X445677Y286591D01*
X445673D01*
X445668Y286596D01*
X445641Y286605D01*
X445594Y286614D01*
X445534Y286619D01*
X445502D01*
X445470Y286609D01*
X445428Y286600D01*
X445386Y286586D01*
X445340Y286559D01*
X445299Y286526D01*
X445262Y286480D01*
X445257Y286475D01*
X445248Y286457D01*
X445234Y286425D01*
X445215Y286383D01*
X445202Y286328D01*
X445188Y286258D01*
X445179Y286180D01*
X445174Y286092D01*
Y286087D01*
Y286078D01*
Y286064D01*
Y286046D01*
X445183Y285995D01*
X445192Y285930D01*
X445211Y285865D01*
X445238Y285796D01*
X445280Y285732D01*
X445331Y285681D01*
X445335Y285676D01*
X445345Y285671D01*
X445368Y285658D01*
X445396Y285644D01*
X445433Y285630D01*
X445474Y285616D01*
X445525Y285602D01*
X445585Y285593D01*
Y285246D01*
X445567D01*
X445548Y285251D01*
X445520D01*
X445483Y285256D01*
X445446Y285265D01*
X445359Y285283D01*
X445266Y285316D01*
X445169Y285362D01*
X445123Y285390D01*
X445081Y285427D01*
X445045Y285464D01*
X445012Y285510D01*
Y285514D01*
X445003Y285524D01*
X444998Y285538D01*
X444984Y285556D01*
X444975Y285579D01*
X444961Y285607D01*
X444929Y285681D01*
X444901Y285764D01*
X444874Y285865D01*
X444855Y285981D01*
X444850Y286101D01*
Y286106D01*
Y286120D01*
Y286138D01*
Y286166D01*
X444855Y286198D01*
X444860Y286240D01*
X444869Y286328D01*
X444887Y286429D01*
X444915Y286535D01*
X444957Y286642D01*
X445008Y286739D01*
Y286743D01*
X445017Y286748D01*
X445035Y286776D01*
X445072Y286817D01*
X445123Y286863D01*
X445188Y286905D01*
X445266Y286947D01*
X445363Y286974D01*
X445419Y286979D01*
X445474Y286984D01*
X446754D01*
X446777Y286988D01*
X446805Y286993D01*
X446837Y287007D01*
X446842Y287011D01*
X446851Y287030D01*
X446865Y287057D01*
X446869Y287081D01*
Y287104D01*
Y287108D01*
Y287122D01*
Y287141D01*
Y287159D01*
Y287164D01*
X446865Y287182D01*
Y287201D01*
X446860Y287228D01*
X447128D01*
Y287224D01*
D02*
G37*
G36*
X441349Y284678D02*
X441381Y284674D01*
X441413Y284669D01*
X441496Y284650D01*
X441593Y284623D01*
X441695Y284577D01*
X441746Y284549D01*
X441801Y284512D01*
X441847Y284475D01*
X441898Y284429D01*
X441903Y284424D01*
X441926Y284401D01*
X441954Y284364D01*
X442000Y284309D01*
X442023Y284276D01*
X442051Y284239D01*
X442078Y284198D01*
X442111Y284152D01*
X442143Y284096D01*
X442180Y284041D01*
X442217Y283981D01*
X442254Y283911D01*
X442411Y283629D01*
X442416Y283620D01*
X442430Y283597D01*
X442453Y283560D01*
X442480Y283514D01*
X442513Y283463D01*
X442550Y283408D01*
X442591Y283357D01*
X442628Y283311D01*
X442637Y283301D01*
X442661Y283278D01*
X442697Y283241D01*
X442744Y283200D01*
X442804Y283154D01*
X442873Y283112D01*
X442947Y283075D01*
X443025Y283047D01*
Y284669D01*
X443377D01*
Y282631D01*
X443358D01*
X443340Y282636D01*
X443312D01*
X443280Y282641D01*
X443243Y282645D01*
X443201Y282650D01*
X443150Y282659D01*
X443049Y282678D01*
X442938Y282705D01*
X442827Y282742D01*
X442716Y282789D01*
X442711D01*
X442702Y282793D01*
X442688Y282803D01*
X442665Y282816D01*
X442642Y282835D01*
X442614Y282853D01*
X442577Y282881D01*
X442545Y282909D01*
X442503Y282941D01*
X442462Y282983D01*
X442420Y283024D01*
X442374Y283075D01*
X442328Y283131D01*
X442282Y283191D01*
X442240Y283255D01*
X442194Y283329D01*
X441963Y283727D01*
Y283731D01*
X441958Y283740D01*
X441949Y283754D01*
X441935Y283768D01*
X441908Y283819D01*
X441870Y283874D01*
X441834Y283934D01*
X441787Y283999D01*
X441741Y284054D01*
X441700Y284101D01*
X441690Y284110D01*
X441667Y284128D01*
X441635Y284156D01*
X441584Y284189D01*
X441529Y284216D01*
X441459Y284244D01*
X441385Y284262D01*
X441307Y284272D01*
X441265D01*
X441215Y284262D01*
X441154Y284253D01*
X441090Y284235D01*
X441020Y284207D01*
X440951Y284165D01*
X440891Y284115D01*
X440886Y284105D01*
X440868Y284087D01*
X440845Y284050D01*
X440813Y284004D01*
X440785Y283944D01*
X440762Y283874D01*
X440743Y283796D01*
X440739Y283703D01*
Y283699D01*
Y283685D01*
Y283666D01*
X440743Y283643D01*
X440748Y283611D01*
X440753Y283574D01*
X440776Y283495D01*
X440808Y283403D01*
X440831Y283362D01*
X440863Y283320D01*
X440896Y283278D01*
X440933Y283237D01*
X440979Y283204D01*
X441030Y283172D01*
X441039Y283168D01*
X441057Y283158D01*
X441094Y283149D01*
X441141Y283131D01*
X441205Y283117D01*
X441279Y283103D01*
X441362Y283094D01*
X441459Y283089D01*
Y282705D01*
X441422D01*
X441395Y282710D01*
X441362D01*
X441325Y282715D01*
X441238Y282724D01*
X441136Y282742D01*
X441034Y282766D01*
X440928Y282798D01*
X440831Y282844D01*
X440826Y282849D01*
X440813Y282858D01*
X440790Y282872D01*
X440762Y282890D01*
X440729Y282918D01*
X440692Y282955D01*
X440656Y282997D01*
X440614Y283043D01*
X440572Y283098D01*
X440535Y283163D01*
X440498Y283232D01*
X440466Y283311D01*
X440438Y283394D01*
X440415Y283491D01*
X440401Y283593D01*
X440397Y283703D01*
Y283708D01*
Y283727D01*
Y283754D01*
X440401Y283787D01*
X440406Y283828D01*
X440411Y283879D01*
X440420Y283930D01*
X440429Y283985D01*
X440466Y284110D01*
X440485Y284170D01*
X440512Y284230D01*
X440545Y284290D01*
X440582Y284346D01*
X440623Y284401D01*
X440674Y284447D01*
X440679Y284452D01*
X440688Y284456D01*
X440702Y284470D01*
X440720Y284484D01*
X440748Y284503D01*
X440780Y284521D01*
X440854Y284567D01*
X440946Y284609D01*
X441048Y284646D01*
X441164Y284674D01*
X441224Y284678D01*
X441288Y284683D01*
X441321D01*
X441349Y284678D01*
D02*
G37*
G36*
X447123Y284309D02*
X445696D01*
X445659Y284304D01*
X445613Y284299D01*
X445557Y284295D01*
X445502Y284281D01*
X445451Y284267D01*
X445400Y284244D01*
X445396D01*
X445391Y284239D01*
X445368Y284225D01*
X445335Y284198D01*
X445294Y284161D01*
X445257Y284115D01*
X445225Y284050D01*
X445202Y283976D01*
X445192Y283930D01*
Y283884D01*
Y283879D01*
Y283860D01*
Y283837D01*
X445197Y283805D01*
X445202Y283736D01*
X445211Y283699D01*
X445220Y283666D01*
Y283662D01*
X445229Y283639D01*
X445243Y283611D01*
X445262Y283574D01*
X445285Y283532D01*
X445317Y283486D01*
X445359Y283440D01*
X445405Y283394D01*
X445409Y283389D01*
X445423Y283380D01*
X445446Y283362D01*
X445474Y283343D01*
X445506Y283325D01*
X445543Y283306D01*
X445585Y283288D01*
X445631Y283274D01*
X445636D01*
X445654Y283269D01*
X445677Y283264D01*
X445714Y283260D01*
X445765Y283255D01*
X445821Y283251D01*
X445885Y283246D01*
X447123D01*
Y282872D01*
X444901D01*
Y283227D01*
X445220D01*
X445215Y283237D01*
X445192Y283255D01*
X445155Y283288D01*
X445114Y283329D01*
X445068Y283380D01*
X445021Y283435D01*
X444980Y283495D01*
X444943Y283560D01*
X444938Y283569D01*
X444929Y283593D01*
X444915Y283629D01*
X444897Y283676D01*
X444883Y283731D01*
X444869Y283800D01*
X444860Y283874D01*
X444855Y283953D01*
Y283958D01*
Y283971D01*
Y283999D01*
X444860Y284031D01*
X444864Y284068D01*
X444874Y284110D01*
X444897Y284212D01*
X444915Y284262D01*
X444938Y284318D01*
X444961Y284369D01*
X444994Y284419D01*
X445035Y284470D01*
X445077Y284517D01*
X445128Y284558D01*
X445188Y284590D01*
X445197Y284595D01*
X445220Y284604D01*
X445262Y284618D01*
X445317Y284637D01*
X445391Y284655D01*
X445479Y284669D01*
X445585Y284678D01*
X445701Y284683D01*
X447123D01*
Y284309D01*
D02*
G37*
G36*
X441349Y287039D02*
X441381Y287034D01*
X441413Y287030D01*
X441496Y287011D01*
X441593Y286984D01*
X441695Y286937D01*
X441746Y286910D01*
X441801Y286873D01*
X441847Y286836D01*
X441898Y286789D01*
X441903Y286785D01*
X441926Y286762D01*
X441954Y286725D01*
X442000Y286669D01*
X442023Y286637D01*
X442051Y286600D01*
X442078Y286559D01*
X442111Y286512D01*
X442143Y286457D01*
X442180Y286402D01*
X442217Y286341D01*
X442254Y286272D01*
X442411Y285990D01*
X442416Y285981D01*
X442430Y285958D01*
X442453Y285921D01*
X442480Y285875D01*
X442513Y285824D01*
X442550Y285769D01*
X442591Y285718D01*
X442628Y285671D01*
X442637Y285662D01*
X442661Y285639D01*
X442697Y285602D01*
X442744Y285561D01*
X442804Y285514D01*
X442873Y285473D01*
X442947Y285436D01*
X443025Y285408D01*
Y287030D01*
X443377D01*
Y284992D01*
X443358D01*
X443340Y284997D01*
X443312D01*
X443280Y285002D01*
X443243Y285006D01*
X443201Y285011D01*
X443150Y285020D01*
X443049Y285039D01*
X442938Y285066D01*
X442827Y285103D01*
X442716Y285149D01*
X442711D01*
X442702Y285154D01*
X442688Y285163D01*
X442665Y285177D01*
X442642Y285196D01*
X442614Y285214D01*
X442577Y285242D01*
X442545Y285270D01*
X442503Y285302D01*
X442462Y285344D01*
X442420Y285385D01*
X442374Y285436D01*
X442328Y285491D01*
X442282Y285551D01*
X442240Y285616D01*
X442194Y285690D01*
X441963Y286087D01*
Y286092D01*
X441958Y286101D01*
X441949Y286115D01*
X441935Y286129D01*
X441908Y286180D01*
X441870Y286235D01*
X441834Y286295D01*
X441787Y286360D01*
X441741Y286415D01*
X441700Y286461D01*
X441690Y286471D01*
X441667Y286489D01*
X441635Y286517D01*
X441584Y286549D01*
X441529Y286577D01*
X441459Y286605D01*
X441385Y286623D01*
X441307Y286632D01*
X441265D01*
X441215Y286623D01*
X441154Y286614D01*
X441090Y286596D01*
X441020Y286568D01*
X440951Y286526D01*
X440891Y286475D01*
X440886Y286466D01*
X440868Y286448D01*
X440845Y286411D01*
X440813Y286365D01*
X440785Y286304D01*
X440762Y286235D01*
X440743Y286157D01*
X440739Y286064D01*
Y286060D01*
Y286046D01*
Y286027D01*
X440743Y286004D01*
X440748Y285972D01*
X440753Y285935D01*
X440776Y285856D01*
X440808Y285764D01*
X440831Y285722D01*
X440863Y285681D01*
X440896Y285639D01*
X440933Y285598D01*
X440979Y285565D01*
X441030Y285533D01*
X441039Y285528D01*
X441057Y285519D01*
X441094Y285510D01*
X441141Y285491D01*
X441205Y285477D01*
X441279Y285464D01*
X441362Y285454D01*
X441459Y285450D01*
Y285066D01*
X441422D01*
X441395Y285071D01*
X441362D01*
X441325Y285075D01*
X441238Y285085D01*
X441136Y285103D01*
X441034Y285126D01*
X440928Y285159D01*
X440831Y285205D01*
X440826Y285209D01*
X440813Y285219D01*
X440790Y285233D01*
X440762Y285251D01*
X440729Y285279D01*
X440692Y285316D01*
X440656Y285357D01*
X440614Y285403D01*
X440572Y285459D01*
X440535Y285524D01*
X440498Y285593D01*
X440466Y285671D01*
X440438Y285755D01*
X440415Y285852D01*
X440401Y285953D01*
X440397Y286064D01*
Y286069D01*
Y286087D01*
Y286115D01*
X440401Y286147D01*
X440406Y286189D01*
X440411Y286240D01*
X440420Y286291D01*
X440429Y286346D01*
X440466Y286471D01*
X440485Y286531D01*
X440512Y286591D01*
X440545Y286651D01*
X440582Y286706D01*
X440623Y286762D01*
X440674Y286808D01*
X440679Y286813D01*
X440688Y286817D01*
X440702Y286831D01*
X440720Y286845D01*
X440748Y286863D01*
X440780Y286882D01*
X440854Y286928D01*
X440946Y286970D01*
X441048Y287007D01*
X441164Y287034D01*
X441224Y287039D01*
X441288Y287044D01*
X441321D01*
X441349Y287039D01*
D02*
G37*
G36*
X442388Y270786D02*
X442420D01*
X442443Y270791D01*
X442471D01*
X442503Y270795D01*
X442582Y270809D01*
X442670Y270827D01*
X442758Y270855D01*
X442845Y270892D01*
X442929Y270943D01*
X442938Y270952D01*
X442961Y270971D01*
X442993Y271008D01*
X443030Y271054D01*
X443067Y271118D01*
X443099Y271197D01*
X443123Y271294D01*
X443127Y271345D01*
X443132Y271400D01*
Y271405D01*
Y271414D01*
Y271428D01*
X443127Y271446D01*
X443123Y271502D01*
X443109Y271567D01*
X443086Y271641D01*
X443053Y271714D01*
X443007Y271793D01*
X442942Y271862D01*
X442938Y271867D01*
X442924Y271876D01*
X442901Y271895D01*
X442869Y271918D01*
X442832Y271941D01*
X442785Y271964D01*
X442739Y271982D01*
X442684Y272001D01*
Y272366D01*
X442688D01*
X442707Y272361D01*
X442730Y272357D01*
X442767Y272347D01*
X442804Y272334D01*
X442855Y272315D01*
X442905Y272292D01*
X442961Y272264D01*
X442966Y272260D01*
X442984Y272250D01*
X443012Y272232D01*
X443044Y272213D01*
X443086Y272186D01*
X443123Y272153D01*
X443164Y272121D01*
X443201Y272084D01*
X443210Y272075D01*
X443229Y272056D01*
X443257Y272019D01*
X443289Y271969D01*
X443326Y271908D01*
X443363Y271839D01*
X443395Y271756D01*
X443418Y271668D01*
Y271664D01*
X443423Y271645D01*
X443428Y271618D01*
X443437Y271581D01*
X443441Y271534D01*
X443451Y271483D01*
X443455Y271423D01*
Y271363D01*
Y271359D01*
Y271345D01*
Y271322D01*
X443451Y271294D01*
X443446Y271257D01*
X443441Y271220D01*
X443432Y271174D01*
X443418Y271123D01*
X443381Y271012D01*
X443358Y270957D01*
X443330Y270897D01*
X443294Y270837D01*
X443252Y270777D01*
X443206Y270721D01*
X443155Y270666D01*
X443150Y270661D01*
X443141Y270652D01*
X443123Y270638D01*
X443099Y270624D01*
X443067Y270601D01*
X443030Y270578D01*
X442989Y270550D01*
X442938Y270527D01*
X442882Y270499D01*
X442818Y270472D01*
X442748Y270449D01*
X442674Y270430D01*
X442591Y270412D01*
X442503Y270398D01*
X442411Y270389D01*
X442314Y270384D01*
X442263D01*
X442226Y270389D01*
X442180Y270393D01*
X442125Y270398D01*
X442069Y270407D01*
X442004Y270421D01*
X441866Y270453D01*
X441792Y270476D01*
X441723Y270504D01*
X441649Y270536D01*
X441579Y270578D01*
X441510Y270620D01*
X441445Y270670D01*
X441441Y270675D01*
X441432Y270684D01*
X441413Y270698D01*
X441395Y270721D01*
X441367Y270749D01*
X441339Y270786D01*
X441307Y270827D01*
X441275Y270874D01*
X441247Y270924D01*
X441215Y270980D01*
X441187Y271040D01*
X441159Y271109D01*
X441141Y271179D01*
X441122Y271257D01*
X441113Y271340D01*
X441108Y271423D01*
Y271428D01*
Y271433D01*
Y271446D01*
Y271465D01*
X441113Y271511D01*
X441122Y271567D01*
X441136Y271636D01*
X441159Y271714D01*
X441187Y271793D01*
X441224Y271876D01*
Y271881D01*
X441228Y271885D01*
X441242Y271913D01*
X441270Y271955D01*
X441302Y272001D01*
X441344Y272056D01*
X441390Y272112D01*
X441445Y272167D01*
X441510Y272213D01*
X441519Y272218D01*
X441538Y272232D01*
X441575Y272250D01*
X441621Y272273D01*
X441681Y272297D01*
X441746Y272324D01*
X441820Y272343D01*
X441903Y272361D01*
X441912D01*
X441931Y272366D01*
X441968Y272375D01*
X442018Y272380D01*
X442088Y272389D01*
X442171Y272394D01*
X442273Y272398D01*
X442388D01*
Y270786D01*
D02*
G37*
G36*
X445257Y271483D02*
X445252Y271465D01*
Y271446D01*
Y271423D01*
Y271419D01*
X445248Y271405D01*
Y271387D01*
Y271363D01*
Y271359D01*
Y271350D01*
Y271336D01*
X445252Y271317D01*
X445257Y271266D01*
X445271Y271202D01*
X445294Y271132D01*
X445326Y271058D01*
X445372Y270989D01*
X445433Y270924D01*
X445442Y270920D01*
X445465Y270901D01*
X445502Y270878D01*
X445553Y270850D01*
X445613Y270823D01*
X445682Y270800D01*
X445761Y270781D01*
X445848Y270777D01*
X447123D01*
Y270402D01*
X444901D01*
Y270758D01*
X445285D01*
X445271Y270767D01*
X445248Y270781D01*
X445215Y270800D01*
X445174Y270827D01*
X445128Y270864D01*
X445077Y270911D01*
X445017Y270971D01*
X445008Y270980D01*
X444989Y271003D01*
X444966Y271035D01*
X444934Y271086D01*
X444906Y271142D01*
X444878Y271211D01*
X444860Y271285D01*
X444855Y271363D01*
Y271368D01*
Y271373D01*
X444860Y271400D01*
Y271405D01*
Y271419D01*
Y271446D01*
X444864Y271488D01*
X445257D01*
Y271483D01*
D02*
G37*
G36*
X446135Y272089D02*
X446167D01*
X446190Y272093D01*
X446218D01*
X446250Y272098D01*
X446329Y272112D01*
X446417Y272130D01*
X446504Y272158D01*
X446592Y272195D01*
X446675Y272246D01*
X446685Y272255D01*
X446708Y272273D01*
X446740Y272310D01*
X446777Y272357D01*
X446814Y272421D01*
X446846Y272500D01*
X446869Y272597D01*
X446874Y272648D01*
X446879Y272703D01*
Y272708D01*
Y272717D01*
Y272731D01*
X446874Y272749D01*
X446869Y272805D01*
X446855Y272869D01*
X446832Y272943D01*
X446800Y273017D01*
X446754Y273096D01*
X446689Y273165D01*
X446685Y273170D01*
X446671Y273179D01*
X446648Y273198D01*
X446615Y273221D01*
X446578Y273244D01*
X446532Y273267D01*
X446486Y273285D01*
X446430Y273304D01*
Y273669D01*
X446435D01*
X446454Y273664D01*
X446477Y273659D01*
X446514Y273650D01*
X446551Y273636D01*
X446601Y273618D01*
X446652Y273595D01*
X446708Y273567D01*
X446712Y273563D01*
X446731Y273553D01*
X446759Y273535D01*
X446791Y273516D01*
X446832Y273489D01*
X446869Y273456D01*
X446911Y273424D01*
X446948Y273387D01*
X446957Y273378D01*
X446976Y273359D01*
X447003Y273322D01*
X447036Y273271D01*
X447073Y273211D01*
X447110Y273142D01*
X447142Y273059D01*
X447165Y272971D01*
Y272967D01*
X447170Y272948D01*
X447174Y272920D01*
X447184Y272883D01*
X447188Y272837D01*
X447197Y272786D01*
X447202Y272726D01*
Y272666D01*
Y272662D01*
Y272648D01*
Y272625D01*
X447197Y272597D01*
X447193Y272560D01*
X447188Y272523D01*
X447179Y272477D01*
X447165Y272426D01*
X447128Y272315D01*
X447105Y272260D01*
X447077Y272200D01*
X447040Y272140D01*
X446999Y272079D01*
X446952Y272024D01*
X446902Y271969D01*
X446897Y271964D01*
X446888Y271955D01*
X446869Y271941D01*
X446846Y271927D01*
X446814Y271904D01*
X446777Y271881D01*
X446735Y271853D01*
X446685Y271830D01*
X446629Y271802D01*
X446564Y271775D01*
X446495Y271751D01*
X446421Y271733D01*
X446338Y271714D01*
X446250Y271701D01*
X446158Y271691D01*
X446061Y271687D01*
X446010D01*
X445973Y271691D01*
X445927Y271696D01*
X445871Y271701D01*
X445816Y271710D01*
X445751Y271724D01*
X445613Y271756D01*
X445539Y271779D01*
X445470Y271807D01*
X445396Y271839D01*
X445326Y271881D01*
X445257Y271922D01*
X445192Y271973D01*
X445188Y271978D01*
X445179Y271987D01*
X445160Y272001D01*
X445142Y272024D01*
X445114Y272052D01*
X445086Y272089D01*
X445054Y272130D01*
X445021Y272177D01*
X444994Y272227D01*
X444961Y272283D01*
X444934Y272343D01*
X444906Y272412D01*
X444887Y272481D01*
X444869Y272560D01*
X444860Y272643D01*
X444855Y272726D01*
Y272731D01*
Y272736D01*
Y272749D01*
Y272768D01*
X444860Y272814D01*
X444869Y272869D01*
X444883Y272939D01*
X444906Y273017D01*
X444934Y273096D01*
X444971Y273179D01*
Y273184D01*
X444975Y273188D01*
X444989Y273216D01*
X445017Y273258D01*
X445049Y273304D01*
X445091Y273359D01*
X445137Y273415D01*
X445192Y273470D01*
X445257Y273516D01*
X445266Y273521D01*
X445285Y273535D01*
X445322Y273553D01*
X445368Y273576D01*
X445428Y273599D01*
X445493Y273627D01*
X445567Y273646D01*
X445650Y273664D01*
X445659D01*
X445677Y273669D01*
X445714Y273678D01*
X445765Y273683D01*
X445834Y273692D01*
X445918Y273696D01*
X446019Y273701D01*
X446135D01*
Y272089D01*
D02*
G37*
G36*
X449406Y272126D02*
X449457D01*
X449517Y272121D01*
X449581Y272116D01*
X449655Y272107D01*
X449734Y272098D01*
X449817Y272089D01*
X449983Y272056D01*
X450150Y272010D01*
X450228Y271982D01*
X450307Y271950D01*
X450311Y271946D01*
X450330Y271936D01*
X450357Y271922D01*
X450394Y271899D01*
X450436Y271872D01*
X450487Y271835D01*
X450538Y271793D01*
X450589Y271747D01*
X450639Y271687D01*
X450690Y271627D01*
X450741Y271557D01*
X450782Y271479D01*
X450819Y271396D01*
X450847Y271303D01*
X450866Y271202D01*
X450870Y271095D01*
Y271091D01*
Y271072D01*
X450866Y271045D01*
X450861Y271008D01*
X450856Y270966D01*
X450847Y270915D01*
X450833Y270855D01*
X450810Y270795D01*
X450787Y270735D01*
X450759Y270670D01*
X450718Y270601D01*
X450676Y270536D01*
X450621Y270472D01*
X450561Y270412D01*
X450492Y270352D01*
X450408Y270301D01*
X450404D01*
X450390Y270291D01*
X450367Y270282D01*
X450339Y270268D01*
X450297Y270250D01*
X450251Y270232D01*
X450196Y270213D01*
X450131Y270195D01*
X450062Y270176D01*
X449983Y270158D01*
X449900Y270139D01*
X449808Y270121D01*
X449706Y270107D01*
X449600Y270097D01*
X449489Y270093D01*
X449369Y270088D01*
X449286D01*
X449239Y270093D01*
X449189Y270097D01*
X449133D01*
X449068Y270107D01*
X448935Y270121D01*
X448787Y270144D01*
X448639Y270176D01*
X448500Y270218D01*
X448491Y270222D01*
X448472Y270232D01*
X448436Y270245D01*
X448394Y270264D01*
X448343Y270291D01*
X448283Y270328D01*
X448223Y270370D01*
X448158Y270416D01*
X448098Y270476D01*
X448034Y270541D01*
X447978Y270610D01*
X447927Y270693D01*
X447886Y270781D01*
X447849Y270878D01*
X447830Y270985D01*
X447821Y271100D01*
Y271105D01*
Y271123D01*
X447826Y271156D01*
X447830Y271192D01*
X447835Y271243D01*
X447844Y271294D01*
X447863Y271354D01*
X447881Y271419D01*
X447904Y271488D01*
X447937Y271553D01*
X447974Y271622D01*
X448020Y271691D01*
X448075Y271761D01*
X448140Y271821D01*
X448214Y271881D01*
X448297Y271932D01*
X448302Y271936D01*
X448315Y271941D01*
X448334Y271950D01*
X448366Y271964D01*
X448403Y271978D01*
X448449Y271996D01*
X448500Y272015D01*
X448560Y272033D01*
X448630Y272052D01*
X448703Y272066D01*
X448787Y272084D01*
X448879Y272098D01*
X448976Y272112D01*
X449078Y272121D01*
X449189Y272130D01*
X449364D01*
X449406Y272126D01*
D02*
G37*
G36*
X443377Y269617D02*
X443072D01*
X443081Y269612D01*
X443104Y269594D01*
X443141Y269566D01*
X443183Y269529D01*
X443233Y269483D01*
X443284Y269432D01*
X443326Y269372D01*
X443367Y269307D01*
X443372Y269298D01*
X443381Y269275D01*
X443395Y269238D01*
X443409Y269192D01*
X443428Y269132D01*
X443441Y269063D01*
X443451Y268989D01*
X443455Y268905D01*
Y268901D01*
Y268887D01*
Y268869D01*
X443451Y268846D01*
X443446Y268813D01*
X443437Y268776D01*
X443418Y268688D01*
X443381Y268587D01*
X443354Y268536D01*
X443326Y268480D01*
X443289Y268425D01*
X443247Y268374D01*
X443201Y268319D01*
X443146Y268268D01*
X443141Y268263D01*
X443132Y268259D01*
X443113Y268245D01*
X443090Y268226D01*
X443058Y268208D01*
X443021Y268185D01*
X442975Y268157D01*
X442924Y268134D01*
X442869Y268111D01*
X442804Y268083D01*
X442734Y268060D01*
X442661Y268042D01*
X442582Y268023D01*
X442499Y268014D01*
X442407Y268005D01*
X442314Y268000D01*
X442268D01*
X442231Y268005D01*
X442189Y268009D01*
X442143Y268014D01*
X442088Y268019D01*
X442028Y268032D01*
X441894Y268060D01*
X441755Y268102D01*
X441681Y268129D01*
X441612Y268166D01*
X441542Y268203D01*
X441473Y268245D01*
X441469Y268250D01*
X441459Y268259D01*
X441441Y268273D01*
X441418Y268291D01*
X441390Y268314D01*
X441362Y268347D01*
X441330Y268384D01*
X441293Y268425D01*
X441261Y268471D01*
X441228Y268522D01*
X441201Y268582D01*
X441173Y268642D01*
X441150Y268711D01*
X441131Y268781D01*
X441122Y268859D01*
X441117Y268942D01*
Y268947D01*
Y268952D01*
Y268966D01*
Y268984D01*
X441122Y269030D01*
X441131Y269090D01*
X441145Y269160D01*
X441164Y269229D01*
X441191Y269298D01*
X441228Y269368D01*
X441233Y269372D01*
X441242Y269386D01*
X441256Y269405D01*
X441279Y269432D01*
X441307Y269464D01*
X441344Y269506D01*
X441390Y269548D01*
X441441Y269594D01*
X440323D01*
Y269954D01*
X443377D01*
Y269617D01*
D02*
G37*
G36*
X446061Y269950D02*
X446107Y269945D01*
X446158Y269940D01*
X446218Y269931D01*
X446278Y269922D01*
X446417Y269890D01*
X446564Y269843D01*
X446638Y269816D01*
X446708Y269783D01*
X446777Y269742D01*
X446846Y269695D01*
X446851Y269691D01*
X446860Y269682D01*
X446879Y269668D01*
X446902Y269649D01*
X446925Y269622D01*
X446957Y269594D01*
X446985Y269557D01*
X447017Y269511D01*
X447050Y269464D01*
X447082Y269414D01*
X447114Y269354D01*
X447137Y269294D01*
X447160Y269224D01*
X447179Y269150D01*
X447188Y269076D01*
X447193Y268993D01*
Y268989D01*
Y268984D01*
Y268970D01*
Y268952D01*
X447188Y268905D01*
X447179Y268846D01*
X447165Y268776D01*
X447142Y268707D01*
X447114Y268633D01*
X447073Y268564D01*
X447068Y268559D01*
X447059Y268545D01*
X447040Y268527D01*
X447017Y268499D01*
X446985Y268467D01*
X446943Y268430D01*
X446897Y268388D01*
X446842Y268347D01*
X447123D01*
Y268000D01*
X444070D01*
Y268365D01*
X445174D01*
X445165Y268370D01*
X445146Y268388D01*
X445118Y268411D01*
X445086Y268448D01*
X445045Y268490D01*
X445008Y268536D01*
X444966Y268591D01*
X444934Y268651D01*
X444929Y268661D01*
X444920Y268679D01*
X444906Y268716D01*
X444887Y268762D01*
X444874Y268818D01*
X444860Y268878D01*
X444850Y268947D01*
X444846Y269021D01*
Y269026D01*
Y269040D01*
Y269063D01*
X444850Y269090D01*
X444855Y269127D01*
X444860Y269164D01*
X444869Y269210D01*
X444883Y269261D01*
X444915Y269368D01*
X444938Y269423D01*
X444966Y269483D01*
X444998Y269538D01*
X445040Y269594D01*
X445081Y269645D01*
X445132Y269695D01*
X445137Y269700D01*
X445146Y269705D01*
X445160Y269719D01*
X445188Y269737D01*
X445215Y269756D01*
X445252Y269779D01*
X445294Y269802D01*
X445345Y269825D01*
X445400Y269848D01*
X445465Y269871D01*
X445534Y269894D01*
X445608Y269913D01*
X445691Y269931D01*
X445779Y269945D01*
X445871Y269950D01*
X445973Y269954D01*
X446024D01*
X446061Y269950D01*
D02*
G37*
G36*
X450792Y268698D02*
X448690D01*
Y268000D01*
X448403D01*
Y268005D01*
Y268019D01*
X448399Y268037D01*
X448394Y268065D01*
Y268097D01*
X448385Y268134D01*
X448371Y268222D01*
X448357Y268314D01*
X448334Y268407D01*
X448306Y268490D01*
X448292Y268527D01*
X448274Y268559D01*
X448269Y268568D01*
X448255Y268587D01*
X448228Y268615D01*
X448186Y268651D01*
X448126Y268688D01*
X448089Y268707D01*
X448047Y268730D01*
X448006Y268748D01*
X447955Y268767D01*
X447895Y268785D01*
X447835Y268799D01*
Y269095D01*
X450792D01*
Y268698D01*
D02*
G37*
G36*
X440757Y276177D02*
X440332D01*
Y276552D01*
X440757D01*
Y276177D01*
D02*
G37*
G36*
X443377D02*
X441168D01*
Y276552D01*
X443377D01*
Y276177D01*
D02*
G37*
G36*
X448200Y278076D02*
X448223Y278053D01*
X448260Y278021D01*
X448311Y277979D01*
X448376Y277924D01*
X448463Y277859D01*
X448565Y277785D01*
X448620Y277744D01*
X448685Y277697D01*
X448690Y277693D01*
X448699Y277688D01*
X448717Y277674D01*
X448745Y277656D01*
X448777Y277637D01*
X448814Y277614D01*
X448856Y277587D01*
X448907Y277559D01*
X448958Y277526D01*
X449018Y277489D01*
X449142Y277420D01*
X449276Y277346D01*
X449424Y277277D01*
X449429D01*
X449443Y277268D01*
X449461Y277258D01*
X449489Y277249D01*
X449526Y277231D01*
X449563Y277217D01*
X449609Y277194D01*
X449660Y277175D01*
X449766Y277129D01*
X449886Y277087D01*
X450011Y277041D01*
X450131Y277004D01*
X450140Y277000D01*
X450154D01*
X450173Y276995D01*
X450191Y276986D01*
X450219Y276981D01*
X450251Y276972D01*
X450293Y276963D01*
X450334Y276954D01*
X450385Y276940D01*
X450436Y276930D01*
X450496Y276917D01*
X450561Y276903D01*
X450635Y276884D01*
X450709Y276870D01*
X450792Y276852D01*
Y276441D01*
X450782D01*
X450769Y276445D01*
X450755Y276450D01*
X450709Y276455D01*
X450644Y276468D01*
X450570Y276487D01*
X450478Y276510D01*
X450376Y276538D01*
X450260Y276570D01*
X450136Y276607D01*
X450006Y276653D01*
X449863Y276704D01*
X449720Y276760D01*
X449568Y276824D01*
X449410Y276893D01*
X449253Y276972D01*
X449096Y277060D01*
X449092Y277064D01*
X449073Y277074D01*
X449050Y277087D01*
X449013Y277111D01*
X448972Y277134D01*
X448921Y277166D01*
X448865Y277203D01*
X448805Y277240D01*
X448671Y277328D01*
X448528Y277429D01*
X448380Y277540D01*
X448242Y277656D01*
Y276016D01*
X447872D01*
Y278081D01*
X448195D01*
X448200Y278076D01*
D02*
G37*
G36*
X447123Y275595D02*
X445696D01*
X445659Y275591D01*
X445613Y275586D01*
X445557Y275581D01*
X445502Y275568D01*
X445451Y275554D01*
X445400Y275531D01*
X445396D01*
X445391Y275526D01*
X445368Y275512D01*
X445335Y275484D01*
X445294Y275447D01*
X445257Y275401D01*
X445225Y275337D01*
X445202Y275263D01*
X445192Y275216D01*
Y275170D01*
Y275166D01*
Y275147D01*
Y275124D01*
X445197Y275092D01*
X445202Y275022D01*
X445211Y274985D01*
X445220Y274953D01*
Y274949D01*
X445229Y274925D01*
X445243Y274898D01*
X445262Y274861D01*
X445285Y274819D01*
X445317Y274773D01*
X445359Y274727D01*
X445405Y274680D01*
X445409Y274676D01*
X445423Y274667D01*
X445446Y274648D01*
X445474Y274630D01*
X445506Y274611D01*
X445543Y274593D01*
X445585Y274574D01*
X445631Y274560D01*
X445636D01*
X445654Y274556D01*
X445677Y274551D01*
X445714Y274547D01*
X445765Y274542D01*
X445821Y274537D01*
X445885Y274533D01*
X447123D01*
Y274159D01*
X444901D01*
Y274514D01*
X445220D01*
X445215Y274523D01*
X445192Y274542D01*
X445155Y274574D01*
X445114Y274616D01*
X445068Y274667D01*
X445021Y274722D01*
X444980Y274782D01*
X444943Y274847D01*
X444938Y274856D01*
X444929Y274879D01*
X444915Y274916D01*
X444897Y274962D01*
X444883Y275018D01*
X444869Y275087D01*
X444860Y275161D01*
X444855Y275239D01*
Y275244D01*
Y275258D01*
Y275286D01*
X444860Y275318D01*
X444864Y275355D01*
X444874Y275397D01*
X444897Y275498D01*
X444915Y275549D01*
X444938Y275605D01*
X444961Y275655D01*
X444994Y275706D01*
X445035Y275757D01*
X445077Y275803D01*
X445128Y275845D01*
X445188Y275877D01*
X445197Y275882D01*
X445220Y275891D01*
X445262Y275905D01*
X445317Y275923D01*
X445391Y275942D01*
X445479Y275956D01*
X445585Y275965D01*
X445701Y275970D01*
X447123D01*
Y275595D01*
D02*
G37*
G36*
X450792Y272680D02*
X450339D01*
Y273114D01*
X450792D01*
Y272680D01*
D02*
G37*
G36*
X442785Y274570D02*
X442808D01*
X442841Y274560D01*
X442910Y274547D01*
X442989Y274519D01*
X443076Y274477D01*
X443118Y274449D01*
X443164Y274422D01*
X443206Y274385D01*
X443247Y274343D01*
Y274339D01*
X443257Y274334D01*
X443266Y274320D01*
X443280Y274302D01*
X443298Y274279D01*
X443317Y274246D01*
X443335Y274214D01*
X443354Y274172D01*
X443372Y274126D01*
X443391Y274075D01*
X443409Y274020D01*
X443428Y273955D01*
X443441Y273886D01*
X443451Y273812D01*
X443455Y273733D01*
X443460Y273650D01*
Y273646D01*
Y273627D01*
Y273604D01*
X443455Y273567D01*
Y273530D01*
X443446Y273479D01*
X443441Y273429D01*
X443432Y273373D01*
X443404Y273258D01*
X443367Y273142D01*
X443312Y273036D01*
X443275Y272985D01*
X443238Y272943D01*
X443233D01*
X443229Y272934D01*
X443215Y272925D01*
X443196Y272911D01*
X443150Y272879D01*
X443081Y272837D01*
X443002Y272800D01*
X442905Y272763D01*
X442799Y272736D01*
X442679Y272722D01*
Y273082D01*
X442688D01*
X442711Y273087D01*
X442744Y273091D01*
X442785Y273100D01*
X442827Y273110D01*
X442878Y273128D01*
X442919Y273147D01*
X442961Y273174D01*
X442970Y273184D01*
X442989Y273202D01*
X443016Y273239D01*
X443049Y273290D01*
X443081Y273359D01*
X443109Y273447D01*
X443118Y273493D01*
X443127Y273549D01*
X443136Y273609D01*
Y273673D01*
Y273678D01*
Y273683D01*
Y273710D01*
X443132Y273747D01*
X443127Y273798D01*
X443113Y273853D01*
X443099Y273918D01*
X443076Y273983D01*
X443049Y274043D01*
X443044Y274052D01*
X443030Y274071D01*
X443012Y274094D01*
X442979Y274126D01*
X442942Y274154D01*
X442896Y274182D01*
X442841Y274200D01*
X442776Y274205D01*
X442753D01*
X442725Y274200D01*
X442693Y274191D01*
X442661Y274172D01*
X442624Y274149D01*
X442591Y274117D01*
X442559Y274075D01*
Y274071D01*
X442550Y274057D01*
X442540Y274038D01*
X442531Y274006D01*
X442517Y273960D01*
X442499Y273904D01*
X442480Y273835D01*
X442457Y273752D01*
X442383Y273447D01*
Y273442D01*
X442379Y273433D01*
X442374Y273419D01*
X442370Y273401D01*
X442356Y273350D01*
X442337Y273285D01*
X442309Y273216D01*
X442282Y273147D01*
X442254Y273082D01*
X442222Y273022D01*
Y273017D01*
X442212Y273013D01*
X442194Y272985D01*
X442162Y272948D01*
X442115Y272902D01*
X442055Y272856D01*
X441981Y272819D01*
X441898Y272791D01*
X441857Y272786D01*
X441806Y272782D01*
X441774D01*
X441755Y272786D01*
X441727Y272791D01*
X441695Y272796D01*
X441626Y272809D01*
X441542Y272837D01*
X441459Y272879D01*
X441418Y272902D01*
X441376Y272934D01*
X441335Y272967D01*
X441298Y273008D01*
X441293Y273013D01*
X441288Y273017D01*
X441279Y273031D01*
X441265Y273050D01*
X441252Y273073D01*
X441233Y273100D01*
X441215Y273133D01*
X441196Y273174D01*
X441164Y273262D01*
X441131Y273368D01*
X441108Y273489D01*
X441099Y273558D01*
Y273627D01*
Y273632D01*
Y273650D01*
Y273678D01*
X441104Y273710D01*
X441108Y273752D01*
X441113Y273798D01*
X441122Y273853D01*
X441136Y273909D01*
X441173Y274029D01*
X441196Y274089D01*
X441224Y274154D01*
X441256Y274209D01*
X441298Y274265D01*
X441344Y274316D01*
X441395Y274362D01*
X441404Y274366D01*
X441427Y274385D01*
X441464Y274408D01*
X441515Y274431D01*
X441575Y274459D01*
X441644Y274477D01*
X441718Y274496D01*
X441797Y274500D01*
Y274149D01*
X441792D01*
X441774Y274145D01*
X441750Y274140D01*
X441723Y274131D01*
X441686Y274121D01*
X441649Y274103D01*
X441607Y274084D01*
X441570Y274057D01*
X441566Y274052D01*
X441547Y274029D01*
X441524Y273997D01*
X441496Y273951D01*
X441469Y273886D01*
X441445Y273807D01*
X441427Y273710D01*
X441422Y273599D01*
Y273590D01*
Y273563D01*
X441427Y273526D01*
X441432Y273479D01*
X441441Y273429D01*
X441459Y273373D01*
X441478Y273322D01*
X441506Y273276D01*
X441510Y273271D01*
X441519Y273258D01*
X441538Y273239D01*
X441561Y273221D01*
X441593Y273202D01*
X441630Y273184D01*
X441672Y273170D01*
X441718Y273165D01*
X441723D01*
X441741Y273170D01*
X441769Y273174D01*
X441801Y273184D01*
X441838Y273202D01*
X441875Y273225D01*
X441912Y273262D01*
X441945Y273308D01*
Y273313D01*
X441954Y273322D01*
X441963Y273345D01*
X441977Y273373D01*
X441991Y273405D01*
X442004Y273447D01*
X442023Y273498D01*
X442037Y273558D01*
X442097Y273807D01*
Y273812D01*
X442101Y273826D01*
X442106Y273844D01*
X442115Y273872D01*
X442120Y273904D01*
X442134Y273941D01*
X442157Y274029D01*
X442185Y274121D01*
X442217Y274209D01*
X442249Y274288D01*
X442268Y274325D01*
X442286Y274353D01*
Y274357D01*
X442291Y274362D01*
X442314Y274390D01*
X442346Y274422D01*
X442397Y274463D01*
X442457Y274505D01*
X442536Y274542D01*
X442628Y274565D01*
X442679Y274570D01*
X442734Y274574D01*
X442762D01*
X442785Y274570D01*
D02*
G37*
G36*
X448764Y275678D02*
X448796Y275674D01*
X448828Y275669D01*
X448911Y275651D01*
X449008Y275623D01*
X449110Y275577D01*
X449161Y275549D01*
X449216Y275512D01*
X449263Y275475D01*
X449313Y275429D01*
X449318Y275424D01*
X449341Y275401D01*
X449369Y275364D01*
X449415Y275309D01*
X449438Y275276D01*
X449466Y275239D01*
X449494Y275198D01*
X449526Y275152D01*
X449558Y275096D01*
X449595Y275041D01*
X449632Y274981D01*
X449669Y274911D01*
X449826Y274630D01*
X449831Y274621D01*
X449845Y274597D01*
X449868Y274560D01*
X449895Y274514D01*
X449928Y274463D01*
X449965Y274408D01*
X450006Y274357D01*
X450043Y274311D01*
X450053Y274302D01*
X450076Y274279D01*
X450113Y274242D01*
X450159Y274200D01*
X450219Y274154D01*
X450288Y274112D01*
X450362Y274075D01*
X450441Y274048D01*
Y275669D01*
X450792D01*
Y273632D01*
X450773D01*
X450755Y273636D01*
X450727D01*
X450695Y273641D01*
X450658Y273646D01*
X450616Y273650D01*
X450565Y273659D01*
X450464Y273678D01*
X450353Y273706D01*
X450242Y273743D01*
X450131Y273789D01*
X450127D01*
X450117Y273794D01*
X450103Y273803D01*
X450080Y273817D01*
X450057Y273835D01*
X450030Y273853D01*
X449993Y273881D01*
X449960Y273909D01*
X449919Y273941D01*
X449877Y273983D01*
X449835Y274025D01*
X449789Y274075D01*
X449743Y274131D01*
X449697Y274191D01*
X449655Y274255D01*
X449609Y274329D01*
X449378Y274727D01*
Y274731D01*
X449373Y274741D01*
X449364Y274754D01*
X449350Y274768D01*
X449323Y274819D01*
X449286Y274875D01*
X449249Y274935D01*
X449202Y274999D01*
X449156Y275055D01*
X449115Y275101D01*
X449106Y275110D01*
X449082Y275129D01*
X449050Y275156D01*
X448999Y275189D01*
X448944Y275216D01*
X448875Y275244D01*
X448801Y275263D01*
X448722Y275272D01*
X448680D01*
X448630Y275263D01*
X448569Y275253D01*
X448505Y275235D01*
X448436Y275207D01*
X448366Y275166D01*
X448306Y275115D01*
X448302Y275106D01*
X448283Y275087D01*
X448260Y275050D01*
X448228Y275004D01*
X448200Y274944D01*
X448177Y274875D01*
X448158Y274796D01*
X448154Y274704D01*
Y274699D01*
Y274685D01*
Y274667D01*
X448158Y274644D01*
X448163Y274611D01*
X448168Y274574D01*
X448191Y274496D01*
X448223Y274403D01*
X448246Y274362D01*
X448279Y274320D01*
X448311Y274279D01*
X448348Y274237D01*
X448394Y274205D01*
X448445Y274172D01*
X448454Y274168D01*
X448472Y274159D01*
X448510Y274149D01*
X448556Y274131D01*
X448620Y274117D01*
X448694Y274103D01*
X448777Y274094D01*
X448875Y274089D01*
Y273706D01*
X448838D01*
X448810Y273710D01*
X448777D01*
X448740Y273715D01*
X448653Y273724D01*
X448551Y273743D01*
X448449Y273766D01*
X448343Y273798D01*
X448246Y273844D01*
X448242Y273849D01*
X448228Y273858D01*
X448205Y273872D01*
X448177Y273890D01*
X448144Y273918D01*
X448107Y273955D01*
X448071Y273997D01*
X448029Y274043D01*
X447987Y274098D01*
X447951Y274163D01*
X447914Y274232D01*
X447881Y274311D01*
X447853Y274394D01*
X447830Y274491D01*
X447817Y274593D01*
X447812Y274704D01*
Y274708D01*
Y274727D01*
Y274754D01*
X447817Y274787D01*
X447821Y274828D01*
X447826Y274879D01*
X447835Y274930D01*
X447844Y274985D01*
X447881Y275110D01*
X447900Y275170D01*
X447927Y275230D01*
X447960Y275290D01*
X447997Y275346D01*
X448038Y275401D01*
X448089Y275447D01*
X448094Y275452D01*
X448103Y275457D01*
X448117Y275470D01*
X448135Y275484D01*
X448163Y275503D01*
X448195Y275521D01*
X448269Y275568D01*
X448362Y275609D01*
X448463Y275646D01*
X448579Y275674D01*
X448639Y275678D01*
X448703Y275683D01*
X448736D01*
X448764Y275678D01*
D02*
G37*
G36*
X447123Y294048D02*
X447128Y294043D01*
Y294029D01*
X447133Y294011D01*
X447142Y293969D01*
X447151Y293918D01*
Y293914D01*
Y293904D01*
X447156Y293891D01*
Y293872D01*
X447160Y293826D01*
Y293766D01*
Y293761D01*
Y293757D01*
Y293743D01*
Y293724D01*
X447151Y293678D01*
X447142Y293627D01*
X447128Y293567D01*
X447105Y293507D01*
X447073Y293456D01*
X447031Y293415D01*
X447026Y293410D01*
X447008Y293401D01*
X446976Y293387D01*
X446939Y293368D01*
X446888Y293350D01*
X446828Y293336D01*
X446759Y293327D01*
X446680Y293322D01*
X445211D01*
Y293022D01*
X444901D01*
Y293322D01*
X444287D01*
Y293696D01*
X444901D01*
Y294052D01*
X445211D01*
Y293696D01*
X446671D01*
X446689Y293701D01*
X446717Y293706D01*
X446740Y293715D01*
X446768Y293729D01*
X446791Y293747D01*
X446809Y293775D01*
X446814Y293784D01*
Y293794D01*
X446819Y293807D01*
X446823Y293830D01*
Y293853D01*
X446828Y293881D01*
Y293918D01*
Y293923D01*
Y293937D01*
Y293955D01*
Y293978D01*
Y293983D01*
Y294001D01*
X446823Y294024D01*
X446819Y294052D01*
X447123D01*
Y294048D01*
D02*
G37*
G36*
X443377Y293040D02*
X441275D01*
Y292343D01*
X440988D01*
Y292347D01*
Y292361D01*
X440983Y292380D01*
X440979Y292407D01*
Y292440D01*
X440970Y292477D01*
X440956Y292565D01*
X440942Y292657D01*
X440919Y292749D01*
X440891Y292832D01*
X440877Y292869D01*
X440859Y292902D01*
X440854Y292911D01*
X440840Y292930D01*
X440813Y292957D01*
X440771Y292994D01*
X440711Y293031D01*
X440674Y293050D01*
X440632Y293073D01*
X440591Y293091D01*
X440540Y293110D01*
X440480Y293128D01*
X440420Y293142D01*
Y293438D01*
X443377D01*
Y293040D01*
D02*
G37*
G36*
X447128Y296413D02*
X447133Y296404D01*
X447137Y296385D01*
X447142Y296367D01*
X447151Y296325D01*
X447160Y296284D01*
Y296274D01*
X447165Y296251D01*
X447170Y296210D01*
Y296159D01*
Y296150D01*
Y296127D01*
X447160Y296094D01*
X447151Y296053D01*
X447137Y296006D01*
X447114Y295960D01*
X447082Y295914D01*
X447036Y295877D01*
X447031D01*
X447022Y295872D01*
X447003Y295863D01*
X446980Y295854D01*
X446952Y295845D01*
X446920Y295835D01*
X446879Y295826D01*
X446832Y295817D01*
X446837Y295812D01*
X446855Y295794D01*
X446883Y295771D01*
X446920Y295734D01*
X446962Y295688D01*
X447003Y295632D01*
X447050Y295563D01*
X447091Y295489D01*
X447096Y295480D01*
X447110Y295452D01*
X447128Y295410D01*
X447147Y295350D01*
X447165Y295281D01*
X447184Y295203D01*
X447197Y295110D01*
X447202Y295018D01*
Y295013D01*
Y295004D01*
Y294990D01*
X447197Y294967D01*
Y294939D01*
X447193Y294912D01*
X447179Y294838D01*
X447156Y294759D01*
X447123Y294676D01*
X447077Y294593D01*
X447017Y294514D01*
X447008Y294505D01*
X446985Y294482D01*
X446943Y294454D01*
X446888Y294417D01*
X446819Y294380D01*
X446740Y294353D01*
X446648Y294329D01*
X446546Y294320D01*
X446518D01*
X446495Y294325D01*
X446440Y294329D01*
X446370Y294343D01*
X446292Y294366D01*
X446213Y294399D01*
X446139Y294445D01*
X446070Y294510D01*
X446061Y294519D01*
X446042Y294547D01*
X446015Y294588D01*
X445978Y294648D01*
X445941Y294718D01*
X445908Y294805D01*
X445881Y294907D01*
X445858Y295018D01*
X445784Y295609D01*
Y295614D01*
X445779Y295632D01*
X445774Y295651D01*
X445765Y295678D01*
X445751Y295706D01*
X445733Y295734D01*
X445705Y295762D01*
X445677Y295780D01*
X445673D01*
X445668Y295785D01*
X445641Y295794D01*
X445594Y295803D01*
X445534Y295808D01*
X445502D01*
X445470Y295798D01*
X445428Y295789D01*
X445386Y295775D01*
X445340Y295748D01*
X445299Y295715D01*
X445262Y295669D01*
X445257Y295665D01*
X445248Y295646D01*
X445234Y295614D01*
X445215Y295572D01*
X445202Y295517D01*
X445188Y295447D01*
X445179Y295369D01*
X445174Y295281D01*
Y295276D01*
Y295267D01*
Y295253D01*
Y295235D01*
X445183Y295184D01*
X445192Y295119D01*
X445211Y295055D01*
X445238Y294985D01*
X445280Y294921D01*
X445331Y294870D01*
X445335Y294865D01*
X445345Y294861D01*
X445368Y294847D01*
X445396Y294833D01*
X445433Y294819D01*
X445474Y294805D01*
X445525Y294791D01*
X445585Y294782D01*
Y294436D01*
X445567D01*
X445548Y294440D01*
X445520D01*
X445483Y294445D01*
X445446Y294454D01*
X445359Y294473D01*
X445266Y294505D01*
X445169Y294551D01*
X445123Y294579D01*
X445081Y294616D01*
X445045Y294653D01*
X445012Y294699D01*
Y294704D01*
X445003Y294713D01*
X444998Y294727D01*
X444984Y294745D01*
X444975Y294768D01*
X444961Y294796D01*
X444929Y294870D01*
X444901Y294953D01*
X444874Y295055D01*
X444855Y295170D01*
X444850Y295290D01*
Y295295D01*
Y295309D01*
Y295327D01*
Y295355D01*
X444855Y295387D01*
X444860Y295429D01*
X444869Y295517D01*
X444887Y295618D01*
X444915Y295725D01*
X444957Y295831D01*
X445008Y295928D01*
Y295933D01*
X445017Y295937D01*
X445035Y295965D01*
X445072Y296006D01*
X445123Y296053D01*
X445188Y296094D01*
X445266Y296136D01*
X445363Y296164D01*
X445419Y296168D01*
X445474Y296173D01*
X446754D01*
X446777Y296177D01*
X446805Y296182D01*
X446837Y296196D01*
X446842Y296200D01*
X446851Y296219D01*
X446865Y296247D01*
X446869Y296270D01*
Y296293D01*
Y296298D01*
Y296311D01*
Y296330D01*
Y296348D01*
Y296353D01*
X446865Y296371D01*
Y296390D01*
X446860Y296418D01*
X447128D01*
Y296413D01*
D02*
G37*
G36*
X442499Y296492D02*
X442531Y296487D01*
X442573Y296482D01*
X442619Y296473D01*
X442670Y296464D01*
X442781Y296431D01*
X442841Y296408D01*
X442901Y296385D01*
X442961Y296353D01*
X443025Y296316D01*
X443086Y296274D01*
X443146Y296228D01*
X443150Y296224D01*
X443159Y296214D01*
X443173Y296200D01*
X443192Y296177D01*
X443220Y296154D01*
X443243Y296117D01*
X443270Y296080D01*
X443298Y296034D01*
X443330Y295988D01*
X443358Y295928D01*
X443381Y295868D01*
X443404Y295803D01*
X443428Y295729D01*
X443441Y295651D01*
X443451Y295567D01*
X443455Y295480D01*
Y295475D01*
Y295461D01*
Y295438D01*
X443451Y295410D01*
X443446Y295374D01*
X443437Y295332D01*
X443428Y295286D01*
X443414Y295235D01*
X443377Y295119D01*
X443354Y295059D01*
X443321Y294999D01*
X443284Y294939D01*
X443243Y294879D01*
X443196Y294819D01*
X443141Y294759D01*
X443136Y294754D01*
X443127Y294745D01*
X443109Y294731D01*
X443081Y294713D01*
X443044Y294690D01*
X443002Y294662D01*
X442952Y294639D01*
X442892Y294611D01*
X442822Y294579D01*
X442744Y294556D01*
X442656Y294528D01*
X442559Y294505D01*
X442453Y294486D01*
X442337Y294473D01*
X442212Y294463D01*
X442078Y294459D01*
X441986D01*
X441940Y294463D01*
X441884Y294468D01*
X441820D01*
X441750Y294477D01*
X441603Y294491D01*
X441445Y294514D01*
X441288Y294547D01*
X441136Y294593D01*
X441127Y294597D01*
X441104Y294607D01*
X441067Y294620D01*
X441020Y294643D01*
X440965Y294676D01*
X440900Y294713D01*
X440836Y294754D01*
X440766Y294810D01*
X440697Y294870D01*
X440632Y294939D01*
X440568Y295013D01*
X440512Y295101D01*
X440466Y295198D01*
X440429Y295300D01*
X440406Y295415D01*
X440397Y295540D01*
Y295544D01*
Y295563D01*
Y295586D01*
X440401Y295623D01*
X440406Y295660D01*
X440411Y295706D01*
X440420Y295762D01*
X440429Y295812D01*
X440461Y295928D01*
X440508Y296043D01*
X440535Y296099D01*
X440568Y296150D01*
X440609Y296196D01*
X440656Y296237D01*
X440660Y296242D01*
X440665Y296247D01*
X440683Y296256D01*
X440702Y296270D01*
X440725Y296284D01*
X440753Y296302D01*
X440817Y296339D01*
X440900Y296371D01*
X440988Y296404D01*
X441085Y296427D01*
X441136Y296436D01*
X441187D01*
Y296062D01*
X441178D01*
X441159Y296057D01*
X441127Y296048D01*
X441085Y296034D01*
X440997Y296002D01*
X440956Y295979D01*
X440914Y295956D01*
X440905Y295951D01*
X440886Y295928D01*
X440854Y295896D01*
X440817Y295854D01*
X440785Y295794D01*
X440753Y295725D01*
X440734Y295641D01*
X440725Y295544D01*
Y295540D01*
Y295531D01*
Y295517D01*
X440729Y295494D01*
X440734Y295466D01*
X440739Y295438D01*
X440762Y295369D01*
X440794Y295286D01*
X440817Y295249D01*
X440849Y295207D01*
X440882Y295166D01*
X440919Y295124D01*
X440965Y295087D01*
X441016Y295050D01*
X441020D01*
X441030Y295041D01*
X441048Y295032D01*
X441071Y295022D01*
X441099Y295008D01*
X441136Y294990D01*
X441178Y294972D01*
X441228Y294953D01*
X441284Y294935D01*
X441349Y294916D01*
X441413Y294902D01*
X441487Y294884D01*
X441570Y294870D01*
X441658Y294856D01*
X441750Y294847D01*
X441847Y294842D01*
X441838Y294847D01*
X441815Y294865D01*
X441783Y294893D01*
X441741Y294930D01*
X441695Y294976D01*
X441649Y295032D01*
X441603Y295096D01*
X441566Y295166D01*
X441561Y295175D01*
X441552Y295198D01*
X441538Y295235D01*
X441519Y295281D01*
X441506Y295341D01*
X441492Y295410D01*
X441482Y295484D01*
X441478Y295563D01*
Y295567D01*
Y295581D01*
Y295600D01*
X441482Y295628D01*
X441487Y295660D01*
X441492Y295697D01*
X441496Y295739D01*
X441506Y295785D01*
X441538Y295886D01*
X441579Y295997D01*
X441607Y296053D01*
X441640Y296108D01*
X441677Y296164D01*
X441718Y296214D01*
X441723Y296219D01*
X441727Y296228D01*
X441741Y296242D01*
X441764Y296260D01*
X441787Y296279D01*
X441820Y296302D01*
X441857Y296330D01*
X441898Y296358D01*
X441945Y296381D01*
X441995Y296408D01*
X442055Y296431D01*
X442120Y296455D01*
X442189Y296468D01*
X442263Y296482D01*
X442342Y296492D01*
X442430Y296496D01*
X442466D01*
X442499Y296492D01*
D02*
G37*
G36*
X438000Y241000D02*
X418716D01*
Y300000D01*
X438000D01*
Y241000D01*
D02*
G37*
G36*
X447123Y292310D02*
X444915D01*
Y292685D01*
X447123D01*
Y292310D01*
D02*
G37*
G36*
Y291419D02*
X446819D01*
X446828Y291414D01*
X446851Y291396D01*
X446888Y291368D01*
X446929Y291331D01*
X446980Y291285D01*
X447031Y291234D01*
X447073Y291174D01*
X447114Y291109D01*
X447119Y291100D01*
X447128Y291077D01*
X447142Y291040D01*
X447156Y290994D01*
X447174Y290934D01*
X447188Y290864D01*
X447197Y290791D01*
X447202Y290707D01*
Y290703D01*
Y290689D01*
Y290670D01*
X447197Y290647D01*
X447193Y290615D01*
X447184Y290578D01*
X447165Y290490D01*
X447128Y290388D01*
X447100Y290338D01*
X447073Y290282D01*
X447036Y290227D01*
X446994Y290176D01*
X446948Y290121D01*
X446892Y290070D01*
X446888Y290065D01*
X446879Y290060D01*
X446860Y290047D01*
X446837Y290028D01*
X446805Y290010D01*
X446768Y289987D01*
X446722Y289959D01*
X446671Y289936D01*
X446615Y289913D01*
X446551Y289885D01*
X446481Y289862D01*
X446407Y289843D01*
X446329Y289825D01*
X446246Y289816D01*
X446153Y289806D01*
X446061Y289802D01*
X446015D01*
X445978Y289806D01*
X445936Y289811D01*
X445890Y289816D01*
X445834Y289820D01*
X445774Y289834D01*
X445641Y289862D01*
X445502Y289903D01*
X445428Y289931D01*
X445359Y289968D01*
X445289Y290005D01*
X445220Y290047D01*
X445215Y290051D01*
X445206Y290060D01*
X445188Y290074D01*
X445165Y290093D01*
X445137Y290116D01*
X445109Y290148D01*
X445077Y290185D01*
X445040Y290227D01*
X445008Y290273D01*
X444975Y290324D01*
X444947Y290384D01*
X444920Y290444D01*
X444897Y290513D01*
X444878Y290583D01*
X444869Y290661D01*
X444864Y290744D01*
Y290749D01*
Y290754D01*
Y290767D01*
Y290786D01*
X444869Y290832D01*
X444878Y290892D01*
X444892Y290961D01*
X444910Y291031D01*
X444938Y291100D01*
X444975Y291169D01*
X444980Y291174D01*
X444989Y291188D01*
X445003Y291206D01*
X445026Y291234D01*
X445054Y291266D01*
X445091Y291308D01*
X445137Y291350D01*
X445188Y291396D01*
X444070D01*
Y291756D01*
X447123D01*
Y291419D01*
D02*
G37*
G36*
X444504Y292310D02*
X444079D01*
Y292685D01*
X444504D01*
Y292310D01*
D02*
G37*
%LPC*%
G36*
X446472Y280787D02*
X446467Y280784D01*
X446472D01*
Y280787D01*
D02*
G37*
G36*
X444726Y280201D02*
X444703D01*
X444679Y280197D01*
X444647Y280192D01*
X444610Y280178D01*
X444573Y280165D01*
X444532Y280141D01*
X444495Y280109D01*
X444490Y280104D01*
X444481Y280095D01*
X444462Y280072D01*
X444444Y280049D01*
X444430Y280012D01*
X444412Y279975D01*
X444402Y279924D01*
X444398Y279873D01*
Y279869D01*
Y279864D01*
Y279836D01*
X444407Y279795D01*
X444416Y279749D01*
X444435Y279693D01*
X444462Y279642D01*
X444504Y279592D01*
X444555Y279555D01*
X444559D01*
X444569Y279550D01*
X444583Y279541D01*
X444606Y279536D01*
X444656Y279518D01*
X444726Y279513D01*
X444749D01*
X444772Y279518D01*
X444804Y279522D01*
X444841Y279532D01*
X444878Y279541D01*
X444924Y279559D01*
X444966Y279582D01*
X444971Y279587D01*
X444984Y279596D01*
X445012Y279615D01*
X445045Y279638D01*
X445091Y279670D01*
X445142Y279707D01*
X445197Y279758D01*
X445262Y279813D01*
X445257Y279823D01*
X445238Y279846D01*
X445215Y279878D01*
X445183Y279920D01*
X445109Y280007D01*
X445072Y280049D01*
X445040Y280081D01*
X445035Y280086D01*
X445017Y280100D01*
X444984Y280118D01*
X444947Y280141D01*
X444901Y280165D01*
X444846Y280183D01*
X444790Y280197D01*
X444726Y280201D01*
D02*
G37*
G36*
X446527Y280359D02*
X445687Y279679D01*
Y279675D01*
X445696Y279665D01*
X445705Y279652D01*
X445719Y279633D01*
X445751Y279582D01*
X445797Y279522D01*
X445844Y279458D01*
X445895Y279393D01*
X445945Y279338D01*
X445964Y279314D01*
X445987Y279296D01*
X445992Y279291D01*
X446015Y279277D01*
X446047Y279254D01*
X446093Y279231D01*
X446144Y279204D01*
X446209Y279185D01*
X446283Y279167D01*
X446366Y279162D01*
X446375D01*
X446407Y279167D01*
X446449Y279171D01*
X446500Y279185D01*
X446560Y279204D01*
X446625Y279236D01*
X446680Y279277D01*
X446735Y279338D01*
X446740Y279347D01*
X446754Y279370D01*
X446777Y279402D01*
X446800Y279448D01*
X446823Y279508D01*
X446846Y279569D01*
X446860Y279638D01*
X446865Y279712D01*
Y279716D01*
Y279721D01*
Y279749D01*
X446860Y279795D01*
X446851Y279846D01*
X446842Y279910D01*
X446823Y279975D01*
X446796Y280040D01*
X446763Y280104D01*
X446759Y280114D01*
X446745Y280132D01*
X446722Y280160D01*
X446694Y280197D01*
X446657Y280238D01*
X446620Y280280D01*
X446574Y280322D01*
X446527Y280359D01*
D02*
G37*
G36*
X449877Y283569D02*
X449840D01*
X449794Y283565D01*
X449738Y283551D01*
X449669Y283537D01*
X449600Y283514D01*
X449521Y283482D01*
X449443Y283435D01*
X449438D01*
X449434Y283431D01*
X449410Y283408D01*
X449378Y283375D01*
X449336Y283329D01*
X449299Y283264D01*
X449267Y283181D01*
X449253Y283131D01*
X449244Y283080D01*
X449235Y283024D01*
Y282960D01*
Y282955D01*
Y282950D01*
Y282937D01*
X449239Y282918D01*
X449244Y282876D01*
X449253Y282816D01*
X449276Y282752D01*
X449304Y282682D01*
X449341Y282608D01*
X449397Y282539D01*
X449406Y282530D01*
X449424Y282511D01*
X449461Y282484D01*
X449517Y282451D01*
X449581Y282414D01*
X449664Y282387D01*
X449761Y282368D01*
X449877Y282359D01*
X449905D01*
X449923Y282364D01*
X449974Y282368D01*
X450043Y282377D01*
X450117Y282400D01*
X450196Y282428D01*
X450274Y282465D01*
X450348Y282521D01*
X450357Y282530D01*
X450376Y282553D01*
X450408Y282590D01*
X450441Y282641D01*
X450478Y282705D01*
X450510Y282784D01*
X450528Y282876D01*
X450538Y282978D01*
Y282983D01*
Y282992D01*
Y283006D01*
X450533Y283029D01*
X450528Y283080D01*
X450515Y283144D01*
X450492Y283218D01*
X450455Y283292D01*
X450408Y283362D01*
X450344Y283422D01*
X450339D01*
X450334Y283426D01*
X450307Y283445D01*
X450265Y283468D01*
X450210Y283495D01*
X450140Y283523D01*
X450062Y283546D01*
X449974Y283565D01*
X449877Y283569D01*
D02*
G37*
G36*
X442550Y291225D02*
X442249D01*
Y291220D01*
X442259Y291211D01*
X442268Y291197D01*
X442277Y291178D01*
X442291Y291151D01*
X442305Y291119D01*
X442333Y291045D01*
Y291040D01*
X442337Y291026D01*
X442342Y291008D01*
X442346Y290980D01*
X442356Y290948D01*
X442360Y290911D01*
X442370Y290837D01*
X442397Y290610D01*
Y290601D01*
X442402Y290578D01*
X442407Y290541D01*
X442416Y290495D01*
X442430Y290449D01*
X442443Y290398D01*
X442457Y290347D01*
X442480Y290305D01*
X442485Y290296D01*
X442499Y290278D01*
X442522Y290250D01*
X442554Y290222D01*
X442596Y290190D01*
X442651Y290162D01*
X442711Y290144D01*
X442785Y290134D01*
X442813D01*
X442841Y290139D01*
X442878Y290148D01*
X442919Y290162D01*
X442961Y290185D01*
X443002Y290213D01*
X443039Y290250D01*
X443044Y290254D01*
X443053Y290273D01*
X443067Y290296D01*
X443086Y290329D01*
X443104Y290370D01*
X443118Y290421D01*
X443127Y290472D01*
X443132Y290532D01*
Y290541D01*
Y290564D01*
X443127Y290601D01*
X443123Y290652D01*
X443109Y290712D01*
X443095Y290772D01*
X443072Y290841D01*
X443044Y290911D01*
Y290915D01*
X443035Y290924D01*
X443025Y290938D01*
X443016Y290961D01*
X442979Y291012D01*
X442924Y291068D01*
X442855Y291128D01*
X442771Y291174D01*
X442721Y291197D01*
X442670Y291211D01*
X442610Y291220D01*
X442550Y291225D01*
D02*
G37*
G36*
X446297Y286609D02*
X445996D01*
Y286605D01*
X446005Y286596D01*
X446015Y286582D01*
X446024Y286563D01*
X446038Y286535D01*
X446052Y286503D01*
X446079Y286429D01*
Y286425D01*
X446084Y286411D01*
X446089Y286392D01*
X446093Y286365D01*
X446103Y286332D01*
X446107Y286295D01*
X446116Y286221D01*
X446144Y285995D01*
Y285986D01*
X446149Y285963D01*
X446153Y285926D01*
X446163Y285879D01*
X446176Y285833D01*
X446190Y285782D01*
X446204Y285732D01*
X446227Y285690D01*
X446232Y285681D01*
X446246Y285662D01*
X446269Y285634D01*
X446301Y285607D01*
X446343Y285575D01*
X446398Y285547D01*
X446458Y285528D01*
X446532Y285519D01*
X446560D01*
X446588Y285524D01*
X446625Y285533D01*
X446666Y285547D01*
X446708Y285570D01*
X446749Y285598D01*
X446786Y285634D01*
X446791Y285639D01*
X446800Y285658D01*
X446814Y285681D01*
X446832Y285713D01*
X446851Y285755D01*
X446865Y285806D01*
X446874Y285856D01*
X446879Y285916D01*
Y285926D01*
Y285949D01*
X446874Y285986D01*
X446869Y286036D01*
X446855Y286097D01*
X446842Y286157D01*
X446819Y286226D01*
X446791Y286295D01*
Y286300D01*
X446782Y286309D01*
X446772Y286323D01*
X446763Y286346D01*
X446726Y286397D01*
X446671Y286452D01*
X446601Y286512D01*
X446518Y286559D01*
X446467Y286582D01*
X446417Y286596D01*
X446357Y286605D01*
X446297Y286609D01*
D02*
G37*
G36*
X442092Y272015D02*
X442083D01*
X442069Y272010D01*
X442051D01*
X442009Y272006D01*
X441954Y271992D01*
X441894Y271978D01*
X441829Y271959D01*
X441764Y271936D01*
X441704Y271908D01*
X441700D01*
X441690Y271899D01*
X441681Y271890D01*
X441663Y271881D01*
X441616Y271844D01*
X441566Y271788D01*
X441519Y271719D01*
X441473Y271631D01*
X441455Y271581D01*
X441445Y271525D01*
X441436Y271465D01*
X441432Y271400D01*
Y271396D01*
Y271391D01*
Y271377D01*
X441436Y271359D01*
X441441Y271312D01*
X441455Y271252D01*
X441478Y271183D01*
X441510Y271114D01*
X441556Y271045D01*
X441621Y270975D01*
X441630Y270966D01*
X441653Y270948D01*
X441695Y270920D01*
X441750Y270887D01*
X441815Y270855D01*
X441898Y270827D01*
X441991Y270804D01*
X442092Y270795D01*
Y272015D01*
D02*
G37*
G36*
X445839Y273318D02*
X445830D01*
X445816Y273313D01*
X445797D01*
X445756Y273308D01*
X445701Y273294D01*
X445641Y273281D01*
X445576Y273262D01*
X445511Y273239D01*
X445451Y273211D01*
X445446D01*
X445437Y273202D01*
X445428Y273193D01*
X445409Y273184D01*
X445363Y273147D01*
X445312Y273091D01*
X445266Y273022D01*
X445220Y272934D01*
X445202Y272883D01*
X445192Y272828D01*
X445183Y272768D01*
X445179Y272703D01*
Y272698D01*
Y272694D01*
Y272680D01*
X445183Y272662D01*
X445188Y272615D01*
X445202Y272555D01*
X445225Y272486D01*
X445257Y272417D01*
X445303Y272347D01*
X445368Y272278D01*
X445377Y272269D01*
X445400Y272250D01*
X445442Y272223D01*
X445497Y272190D01*
X445562Y272158D01*
X445645Y272130D01*
X445738Y272107D01*
X445839Y272098D01*
Y273318D01*
D02*
G37*
G36*
X449443Y271728D02*
X449235D01*
X449193Y271724D01*
X449142D01*
X449087Y271719D01*
X449027Y271714D01*
X448893Y271696D01*
X448754Y271677D01*
X448620Y271645D01*
X448491Y271604D01*
X448486D01*
X448477Y271599D01*
X448459Y271590D01*
X448440Y271581D01*
X448389Y271544D01*
X448325Y271497D01*
X448265Y271433D01*
X448237Y271391D01*
X448214Y271345D01*
X448195Y271299D01*
X448177Y271243D01*
X448168Y271183D01*
X448163Y271118D01*
Y271114D01*
Y271105D01*
Y271086D01*
X448168Y271063D01*
X448172Y271040D01*
X448181Y271008D01*
X448200Y270934D01*
X448237Y270855D01*
X448265Y270818D01*
X448292Y270777D01*
X448329Y270740D01*
X448371Y270703D01*
X448417Y270670D01*
X448472Y270638D01*
X448477D01*
X448486Y270633D01*
X448505Y270624D01*
X448528Y270615D01*
X448560Y270606D01*
X448602Y270592D01*
X448648Y270578D01*
X448703Y270564D01*
X448764Y270550D01*
X448833Y270536D01*
X448907Y270522D01*
X448985Y270513D01*
X449078Y270504D01*
X449170Y270495D01*
X449272Y270490D01*
X449457D01*
X449498Y270495D01*
X449540D01*
X449591Y270499D01*
X449641Y270504D01*
X449761Y270513D01*
X449882Y270532D01*
X450002Y270555D01*
X450113Y270587D01*
X450117D01*
X450131Y270596D01*
X450150Y270601D01*
X450177Y270615D01*
X450210Y270633D01*
X450242Y270652D01*
X450320Y270707D01*
X450394Y270777D01*
X450431Y270818D01*
X450464Y270864D01*
X450492Y270915D01*
X450510Y270971D01*
X450524Y271031D01*
X450528Y271095D01*
Y271100D01*
Y271109D01*
Y271123D01*
X450524Y271142D01*
X450515Y271197D01*
X450496Y271262D01*
X450468Y271331D01*
X450422Y271410D01*
X450390Y271446D01*
X450357Y271483D01*
X450320Y271520D01*
X450274Y271553D01*
X450270D01*
X450260Y271562D01*
X450247Y271571D01*
X450223Y271581D01*
X450196Y271594D01*
X450159Y271608D01*
X450113Y271622D01*
X450057Y271641D01*
X449997Y271659D01*
X449928Y271673D01*
X449849Y271687D01*
X449761Y271701D01*
X449669Y271714D01*
X449563Y271719D01*
X449443Y271728D01*
D02*
G37*
G36*
X442346Y269603D02*
X442226D01*
X442199Y269599D01*
X442166D01*
X442125Y269594D01*
X442032Y269580D01*
X441931Y269562D01*
X441829Y269529D01*
X441727Y269488D01*
X441686Y269464D01*
X441644Y269432D01*
X441640D01*
X441635Y269423D01*
X441612Y269400D01*
X441579Y269363D01*
X441542Y269317D01*
X441506Y269257D01*
X441473Y269183D01*
X441450Y269100D01*
X441441Y269058D01*
Y269012D01*
Y269007D01*
Y268998D01*
Y268984D01*
X441445Y268966D01*
X441450Y268915D01*
X441469Y268850D01*
X441492Y268781D01*
X441533Y268707D01*
X441584Y268633D01*
X441621Y268596D01*
X441658Y268564D01*
X441663D01*
X441667Y268554D01*
X441681Y268550D01*
X441700Y268536D01*
X441723Y268522D01*
X441750Y268508D01*
X441783Y268494D01*
X441820Y268480D01*
X441861Y268462D01*
X441908Y268448D01*
X441963Y268434D01*
X442018Y268420D01*
X442078Y268407D01*
X442148Y268402D01*
X442217Y268393D01*
X442328D01*
X442356Y268397D01*
X442383D01*
X442420Y268402D01*
X442503Y268411D01*
X442596Y268430D01*
X442697Y268457D01*
X442795Y268490D01*
X442892Y268541D01*
X442896D01*
X442901Y268550D01*
X442929Y268568D01*
X442966Y268605D01*
X443012Y268656D01*
X443058Y268721D01*
X443095Y268804D01*
X443123Y268901D01*
X443127Y268956D01*
X443132Y269016D01*
Y269021D01*
Y269026D01*
Y269040D01*
X443127Y269058D01*
X443118Y269104D01*
X443104Y269164D01*
X443076Y269229D01*
X443039Y269303D01*
X442984Y269372D01*
X442947Y269405D01*
X442910Y269437D01*
X442905D01*
X442901Y269446D01*
X442887Y269451D01*
X442869Y269464D01*
X442845Y269474D01*
X442818Y269488D01*
X442785Y269506D01*
X442748Y269520D01*
X442702Y269534D01*
X442656Y269552D01*
X442605Y269566D01*
X442545Y269575D01*
X442485Y269589D01*
X442416Y269594D01*
X442346Y269603D01*
D02*
G37*
G36*
X445992Y269571D02*
X445931D01*
X445904Y269566D01*
X445867Y269562D01*
X445788Y269552D01*
X445696Y269534D01*
X445599Y269506D01*
X445502Y269469D01*
X445409Y269418D01*
X445405D01*
X445400Y269414D01*
X445372Y269391D01*
X445335Y269358D01*
X445294Y269307D01*
X445252Y269247D01*
X445215Y269169D01*
X445188Y269081D01*
X445183Y269030D01*
X445179Y268975D01*
Y268970D01*
Y268966D01*
Y268952D01*
X445183Y268933D01*
X445188Y268882D01*
X445202Y268822D01*
X445225Y268753D01*
X445257Y268679D01*
X445303Y268605D01*
X445368Y268531D01*
X445377Y268522D01*
X445386Y268513D01*
X445405Y268504D01*
X445423Y268490D01*
X445451Y268471D01*
X445483Y268453D01*
X445516Y268439D01*
X445557Y268420D01*
X445604Y268402D01*
X445654Y268388D01*
X445710Y268370D01*
X445774Y268360D01*
X445839Y268351D01*
X445913Y268342D01*
X446042D01*
X446070Y268347D01*
X446103D01*
X446172Y268351D01*
X446255Y268360D01*
X446338Y268374D01*
X446421Y268393D01*
X446500Y268420D01*
X446504D01*
X446514Y268430D01*
X446532Y268434D01*
X446555Y268448D01*
X446615Y268485D01*
X446648Y268513D01*
X446680Y268541D01*
X446717Y268578D01*
X446749Y268615D01*
X446782Y268661D01*
X446809Y268711D01*
X446832Y268767D01*
X446851Y268827D01*
X446860Y268892D01*
X446865Y268966D01*
Y268970D01*
Y268979D01*
Y268993D01*
X446860Y269016D01*
X446851Y269072D01*
X446832Y269137D01*
X446805Y269210D01*
X446763Y269284D01*
X446735Y269321D01*
X446703Y269358D01*
X446666Y269391D01*
X446625Y269418D01*
X446620D01*
X446615Y269423D01*
X446601Y269432D01*
X446583Y269441D01*
X446555Y269455D01*
X446527Y269464D01*
X446495Y269478D01*
X446454Y269497D01*
X446366Y269525D01*
X446255Y269548D01*
X446130Y269566D01*
X445992Y269571D01*
D02*
G37*
G36*
X446297Y295798D02*
X445996D01*
Y295794D01*
X446005Y295785D01*
X446015Y295771D01*
X446024Y295752D01*
X446038Y295725D01*
X446052Y295692D01*
X446079Y295618D01*
Y295614D01*
X446084Y295600D01*
X446089Y295581D01*
X446093Y295554D01*
X446103Y295521D01*
X446107Y295484D01*
X446116Y295410D01*
X446144Y295184D01*
Y295175D01*
X446149Y295152D01*
X446153Y295115D01*
X446163Y295069D01*
X446176Y295022D01*
X446190Y294972D01*
X446204Y294921D01*
X446227Y294879D01*
X446232Y294870D01*
X446246Y294851D01*
X446269Y294824D01*
X446301Y294796D01*
X446343Y294764D01*
X446398Y294736D01*
X446458Y294718D01*
X446532Y294708D01*
X446560D01*
X446588Y294713D01*
X446625Y294722D01*
X446666Y294736D01*
X446708Y294759D01*
X446749Y294787D01*
X446786Y294824D01*
X446791Y294828D01*
X446800Y294847D01*
X446814Y294870D01*
X446832Y294902D01*
X446851Y294944D01*
X446865Y294995D01*
X446874Y295045D01*
X446879Y295106D01*
Y295115D01*
Y295138D01*
X446874Y295175D01*
X446869Y295226D01*
X446855Y295286D01*
X446842Y295346D01*
X446819Y295415D01*
X446791Y295484D01*
Y295489D01*
X446782Y295498D01*
X446772Y295512D01*
X446763Y295535D01*
X446726Y295586D01*
X446671Y295641D01*
X446601Y295702D01*
X446518Y295748D01*
X446467Y295771D01*
X446417Y295785D01*
X446357Y295794D01*
X446297Y295798D01*
D02*
G37*
G36*
X442462Y296104D02*
X442425D01*
X442379Y296099D01*
X442323Y296085D01*
X442254Y296071D01*
X442185Y296048D01*
X442106Y296016D01*
X442028Y295970D01*
X442023D01*
X442018Y295965D01*
X441995Y295942D01*
X441963Y295909D01*
X441921Y295863D01*
X441884Y295798D01*
X441852Y295715D01*
X441838Y295665D01*
X441829Y295614D01*
X441820Y295558D01*
Y295494D01*
Y295489D01*
Y295484D01*
Y295470D01*
X441824Y295452D01*
X441829Y295410D01*
X441838Y295350D01*
X441861Y295286D01*
X441889Y295216D01*
X441926Y295143D01*
X441981Y295073D01*
X441991Y295064D01*
X442009Y295045D01*
X442046Y295018D01*
X442101Y294985D01*
X442166Y294949D01*
X442249Y294921D01*
X442346Y294902D01*
X442462Y294893D01*
X442490D01*
X442508Y294898D01*
X442559Y294902D01*
X442628Y294912D01*
X442702Y294935D01*
X442781Y294962D01*
X442859Y294999D01*
X442933Y295055D01*
X442942Y295064D01*
X442961Y295087D01*
X442993Y295124D01*
X443025Y295175D01*
X443062Y295239D01*
X443095Y295318D01*
X443113Y295410D01*
X443123Y295512D01*
Y295517D01*
Y295526D01*
Y295540D01*
X443118Y295563D01*
X443113Y295614D01*
X443099Y295678D01*
X443076Y295752D01*
X443039Y295826D01*
X442993Y295896D01*
X442929Y295956D01*
X442924D01*
X442919Y295960D01*
X442892Y295979D01*
X442850Y296002D01*
X442795Y296029D01*
X442725Y296057D01*
X442647Y296080D01*
X442559Y296099D01*
X442462Y296104D01*
D02*
G37*
G36*
X429667Y283453D02*
X429551D01*
X429317Y283441D01*
X429097Y283428D01*
X428890Y283389D01*
X428695Y283350D01*
X428514Y283298D01*
X428345Y283246D01*
X428203Y283181D01*
X428060Y283130D01*
X427944Y283065D01*
X427840Y283000D01*
X427749Y282948D01*
X427671Y282896D01*
X427620Y282857D01*
X427581Y282819D01*
X427555Y282805D01*
X427542Y282793D01*
X427412Y282663D01*
X427296Y282520D01*
X427205Y282378D01*
X427127Y282222D01*
X426998Y281924D01*
X426907Y281626D01*
X426855Y281367D01*
X426842Y281250D01*
X426829Y281160D01*
X426816Y281082D01*
Y281017D01*
Y280978D01*
Y280965D01*
X426829Y280745D01*
X426842Y280525D01*
X426881Y280317D01*
X426933Y280136D01*
X426985Y279954D01*
X427049Y279799D01*
X427127Y279643D01*
X427192Y279514D01*
X427257Y279397D01*
X427334Y279293D01*
X427399Y279203D01*
X427451Y279125D01*
X427503Y279073D01*
X427529Y279034D01*
X427555Y279008D01*
X427568Y278995D01*
X427710Y278866D01*
X427866Y278762D01*
X428034Y278671D01*
X428203Y278581D01*
X428540Y278451D01*
X428877Y278373D01*
X429032Y278347D01*
X429175Y278321D01*
X429304Y278308D01*
X429408Y278295D01*
X429499Y278282D01*
X429628D01*
X429849Y278295D01*
X430056Y278308D01*
X430445Y278386D01*
X430626Y278438D01*
X430782Y278503D01*
X430924Y278568D01*
X431067Y278632D01*
X431184Y278684D01*
X431287Y278749D01*
X431378Y278814D01*
X431456Y278866D01*
X431507Y278905D01*
X431546Y278943D01*
X431572Y278956D01*
X431585Y278969D01*
X431715Y279112D01*
X431819Y279255D01*
X431922Y279397D01*
X432000Y279553D01*
X432130Y279864D01*
X432220Y280162D01*
X432246Y280304D01*
X432272Y280434D01*
X432285Y280551D01*
X432298Y280641D01*
X432311Y280719D01*
Y280784D01*
Y280823D01*
Y280836D01*
X432298Y281056D01*
X432272Y281263D01*
X432246Y281458D01*
X432194Y281639D01*
X432143Y281808D01*
X432078Y281963D01*
X432000Y282106D01*
X431935Y282235D01*
X431870Y282352D01*
X431793Y282456D01*
X431728Y282533D01*
X431676Y282611D01*
X431624Y282663D01*
X431585Y282702D01*
X431572Y282728D01*
X431559Y282741D01*
X431417Y282870D01*
X431261Y282974D01*
X431093Y283078D01*
X430924Y283155D01*
X430587Y283285D01*
X430276Y283363D01*
X430121Y283389D01*
X429991Y283415D01*
X429862Y283428D01*
X429758Y283441D01*
X429667Y283453D01*
D02*
G37*
G36*
X432194Y269820D02*
X428980D01*
X428605Y269807D01*
X428280Y269755D01*
X428008Y269677D01*
X427788Y269599D01*
X427607Y269509D01*
X427477Y269444D01*
X427399Y269392D01*
X427373Y269366D01*
X427270Y269275D01*
X427192Y269185D01*
X427049Y268964D01*
X426946Y268744D01*
X426881Y268537D01*
X426842Y268342D01*
X426829Y268187D01*
X426816Y268122D01*
Y268083D01*
Y268057D01*
Y268044D01*
X426829Y267837D01*
X426855Y267642D01*
X426907Y267461D01*
X426972Y267305D01*
X427049Y267150D01*
X427127Y267007D01*
X427218Y266878D01*
X427309Y266761D01*
X427412Y266657D01*
X427503Y266567D01*
X427581Y266489D01*
X427658Y266437D01*
X427723Y266385D01*
X427775Y266346D01*
X427801Y266333D01*
X427814Y266320D01*
Y266295D01*
X426933D01*
Y265452D01*
X432194D01*
Y266295D01*
X429201D01*
X428941Y266307D01*
X428708Y266359D01*
X428501Y266424D01*
X428332Y266502D01*
X428190Y266580D01*
X428086Y266644D01*
X428034Y266696D01*
X428008Y266709D01*
X427853Y266878D01*
X427736Y267046D01*
X427645Y267228D01*
X427594Y267396D01*
X427555Y267539D01*
X427542Y267655D01*
X427529Y267733D01*
Y267746D01*
Y267759D01*
X427542Y267979D01*
X427607Y268161D01*
X427684Y268329D01*
X427788Y268459D01*
X427918Y268575D01*
X428060Y268679D01*
X428203Y268757D01*
X428358Y268822D01*
X428514Y268874D01*
X428669Y268912D01*
X428812Y268938D01*
X428941Y268964D01*
X429045D01*
X429123Y268977D01*
X432194D01*
Y269820D01*
D02*
G37*
G36*
X427788Y277725D02*
X426920D01*
X426894Y277660D01*
X426868Y277570D01*
X426855Y277414D01*
X426842Y277336D01*
Y277272D01*
Y277233D01*
Y277220D01*
X426855Y277051D01*
X426894Y276896D01*
X426946Y276753D01*
X426998Y276637D01*
X427049Y276533D01*
X427101Y276455D01*
X427140Y276403D01*
X427153Y276390D01*
X427283Y276261D01*
X427425Y276157D01*
X427568Y276053D01*
X427697Y275989D01*
X427827Y275924D01*
X427931Y275885D01*
X427995Y275859D01*
X428008Y275846D01*
X428021D01*
Y275820D01*
X426933D01*
Y274978D01*
X432194D01*
Y275820D01*
X429525D01*
X429214Y275833D01*
X428941Y275872D01*
X428695Y275937D01*
X428501Y276002D01*
X428345Y276066D01*
X428229Y276131D01*
X428164Y276170D01*
X428138Y276183D01*
X427970Y276325D01*
X427840Y276481D01*
X427749Y276624D01*
X427684Y276779D01*
X427645Y276896D01*
X427633Y276999D01*
X427620Y277064D01*
Y277090D01*
X427633Y277233D01*
X427645Y277362D01*
X427671Y277479D01*
X427697Y277570D01*
X427736Y277635D01*
X427762Y277686D01*
X427775Y277712D01*
X427788Y277725D01*
D02*
G37*
G36*
X432156Y273863D02*
X431430D01*
X431482Y273772D01*
X431521Y273682D01*
X431572Y273500D01*
X431585Y273423D01*
X431598Y273358D01*
Y273319D01*
Y273306D01*
X431585Y273163D01*
X431559Y273034D01*
X431533Y272930D01*
X431482Y272852D01*
X431443Y272787D01*
X431417Y272749D01*
X431391Y272723D01*
X431378Y272710D01*
X431287Y272645D01*
X431171Y272606D01*
X430924Y272554D01*
X430808Y272541D01*
X430717Y272528D01*
X427658D01*
Y273863D01*
X426933D01*
Y272528D01*
X425378D01*
X425650Y271686D01*
X426933D01*
Y270792D01*
X427658D01*
Y271686D01*
X430769D01*
X431041Y271699D01*
X431274Y271751D01*
X431482Y271815D01*
X431650Y271906D01*
X431806Y272010D01*
X431922Y272127D01*
X432026Y272256D01*
X432104Y272386D01*
X432168Y272515D01*
X432220Y272632D01*
X432246Y272749D01*
X432272Y272852D01*
X432285Y272943D01*
X432298Y273008D01*
Y273060D01*
Y273073D01*
X432285Y273254D01*
X432272Y273410D01*
X432246Y273539D01*
X432220Y273656D01*
X432194Y273746D01*
X432182Y273811D01*
X432156Y273850D01*
Y273863D01*
D02*
G37*
G36*
X429784Y294145D02*
X429123D01*
X428916Y294120D01*
X428734Y294094D01*
X428553Y294055D01*
X428384Y294016D01*
X428229Y293964D01*
X428099Y293912D01*
X427970Y293860D01*
X427853Y293809D01*
X427762Y293757D01*
X427684Y293705D01*
X427607Y293666D01*
X427555Y293627D01*
X427516Y293601D01*
X427503Y293588D01*
X427490Y293575D01*
X427373Y293459D01*
X427270Y293342D01*
X427179Y293212D01*
X427101Y293083D01*
X426985Y292824D01*
X426894Y292564D01*
X426855Y292331D01*
X426842Y292240D01*
X426829Y292150D01*
X426816Y292085D01*
Y292033D01*
Y291994D01*
Y291981D01*
X426829Y291787D01*
X426855Y291605D01*
X426894Y291437D01*
X426933Y291268D01*
X427062Y290970D01*
X427205Y290724D01*
X427283Y290620D01*
X427347Y290517D01*
X427412Y290439D01*
X427477Y290374D01*
X427516Y290322D01*
X427555Y290283D01*
X427581Y290258D01*
X427594Y290245D01*
X427736Y290128D01*
X427905Y290024D01*
X428060Y289921D01*
X428229Y289843D01*
X428566Y289726D01*
X428877Y289648D01*
X429019Y289610D01*
X429162Y289597D01*
X429278Y289584D01*
X429382Y289571D01*
X429473Y289558D01*
X429590D01*
X429823Y289571D01*
X430043Y289584D01*
X430250Y289622D01*
X430445Y289661D01*
X430626Y289700D01*
X430795Y289765D01*
X430950Y289817D01*
X431080Y289882D01*
X431196Y289933D01*
X431300Y289998D01*
X431391Y290050D01*
X431469Y290089D01*
X431521Y290141D01*
X431559Y290167D01*
X431585Y290180D01*
X431598Y290193D01*
X431728Y290322D01*
X431832Y290452D01*
X431922Y290595D01*
X432013Y290737D01*
X432143Y291022D01*
X432220Y291307D01*
X432272Y291553D01*
X432285Y291670D01*
X432298Y291761D01*
X432311Y291839D01*
Y291891D01*
Y291929D01*
Y291942D01*
X432285Y292344D01*
X432233Y292707D01*
X432156Y293018D01*
X432117Y293161D01*
X432065Y293290D01*
X432013Y293394D01*
X431974Y293497D01*
X431935Y293575D01*
X431896Y293640D01*
X431857Y293705D01*
X431845Y293744D01*
X431819Y293757D01*
Y293770D01*
X431028D01*
X431132Y293627D01*
X431222Y293485D01*
X431365Y293199D01*
X431469Y292927D01*
X431533Y292681D01*
X431585Y292461D01*
X431598Y292370D01*
Y292292D01*
X431611Y292227D01*
Y292176D01*
Y292150D01*
Y292137D01*
X431585Y291852D01*
X431533Y291605D01*
X431469Y291398D01*
X431378Y291217D01*
X431287Y291074D01*
X431222Y290970D01*
X431171Y290918D01*
X431145Y290893D01*
X430950Y290750D01*
X430730Y290633D01*
X430497Y290556D01*
X430289Y290491D01*
X430082Y290452D01*
X430004D01*
X429926Y290439D01*
X429862Y290426D01*
X429784D01*
Y294145D01*
D02*
G37*
G36*
X427788Y298163D02*
X426920D01*
X426894Y298098D01*
X426868Y298008D01*
X426855Y297852D01*
X426842Y297774D01*
Y297709D01*
Y297671D01*
Y297658D01*
X426855Y297489D01*
X426894Y297334D01*
X426946Y297191D01*
X426998Y297075D01*
X427049Y296971D01*
X427101Y296893D01*
X427140Y296841D01*
X427153Y296828D01*
X427283Y296699D01*
X427425Y296595D01*
X427568Y296491D01*
X427697Y296427D01*
X427827Y296362D01*
X427931Y296323D01*
X427995Y296297D01*
X428008Y296284D01*
X428021D01*
Y296258D01*
X426933D01*
Y295416D01*
X432194D01*
Y296258D01*
X429525D01*
X429214Y296271D01*
X428941Y296310D01*
X428695Y296375D01*
X428501Y296439D01*
X428345Y296504D01*
X428229Y296569D01*
X428164Y296608D01*
X428138Y296621D01*
X427970Y296763D01*
X427840Y296919D01*
X427749Y297061D01*
X427684Y297217D01*
X427645Y297334D01*
X427633Y297437D01*
X427620Y297502D01*
Y297528D01*
X427633Y297671D01*
X427645Y297800D01*
X427671Y297917D01*
X427697Y298008D01*
X427736Y298072D01*
X427762Y298124D01*
X427775Y298150D01*
X427788Y298163D01*
D02*
G37*
G36*
X432194Y285644D02*
X424405D01*
Y284801D01*
X432194D01*
Y285644D01*
D02*
G37*
G36*
Y288197D02*
X424405D01*
Y287354D01*
X432194D01*
Y288197D01*
D02*
G37*
G36*
X429667Y264104D02*
X429551D01*
X429317Y264091D01*
X429097Y264078D01*
X428890Y264039D01*
X428695Y264001D01*
X428514Y263949D01*
X428345Y263897D01*
X428203Y263832D01*
X428060Y263780D01*
X427944Y263715D01*
X427840Y263651D01*
X427749Y263599D01*
X427671Y263547D01*
X427620Y263508D01*
X427581Y263469D01*
X427555Y263456D01*
X427542Y263443D01*
X427412Y263314D01*
X427296Y263171D01*
X427205Y263029D01*
X427127Y262873D01*
X426998Y262575D01*
X426907Y262277D01*
X426855Y262018D01*
X426842Y261901D01*
X426829Y261810D01*
X426816Y261733D01*
Y261668D01*
Y261629D01*
Y261616D01*
X426829Y261396D01*
X426842Y261175D01*
X426881Y260968D01*
X426933Y260787D01*
X426985Y260605D01*
X427049Y260450D01*
X427127Y260294D01*
X427192Y260164D01*
X427257Y260048D01*
X427334Y259944D01*
X427399Y259853D01*
X427451Y259776D01*
X427503Y259724D01*
X427529Y259685D01*
X427555Y259659D01*
X427568Y259646D01*
X427710Y259516D01*
X427866Y259413D01*
X428034Y259322D01*
X428203Y259231D01*
X428540Y259102D01*
X428877Y259024D01*
X429032Y258998D01*
X429175Y258972D01*
X429304Y258959D01*
X429408Y258946D01*
X429499Y258933D01*
X429628D01*
X429849Y258946D01*
X430056Y258959D01*
X430445Y259037D01*
X430626Y259089D01*
X430782Y259154D01*
X430924Y259218D01*
X431067Y259283D01*
X431184Y259335D01*
X431287Y259400D01*
X431378Y259465D01*
X431456Y259516D01*
X431507Y259555D01*
X431546Y259594D01*
X431572Y259607D01*
X431585Y259620D01*
X431715Y259763D01*
X431819Y259905D01*
X431922Y260048D01*
X432000Y260203D01*
X432130Y260514D01*
X432220Y260812D01*
X432246Y260955D01*
X432272Y261085D01*
X432285Y261201D01*
X432298Y261292D01*
X432311Y261370D01*
Y261435D01*
Y261473D01*
Y261486D01*
X432298Y261707D01*
X432272Y261914D01*
X432246Y262108D01*
X432194Y262290D01*
X432143Y262458D01*
X432078Y262614D01*
X432000Y262756D01*
X431935Y262886D01*
X431870Y263003D01*
X431793Y263106D01*
X431728Y263184D01*
X431676Y263262D01*
X431624Y263314D01*
X431585Y263353D01*
X431572Y263379D01*
X431559Y263391D01*
X431417Y263521D01*
X431261Y263625D01*
X431093Y263728D01*
X430924Y263806D01*
X430587Y263936D01*
X430276Y264014D01*
X430121Y264039D01*
X429991Y264065D01*
X429862Y264078D01*
X429758Y264091D01*
X429667Y264104D01*
D02*
G37*
G36*
X432194Y243653D02*
X424405D01*
Y242811D01*
X432194D01*
Y243653D01*
D02*
G37*
G36*
X429551Y250211D02*
X429201D01*
X428993Y250185D01*
X428617Y250120D01*
X428449Y250081D01*
X428294Y250030D01*
X428151Y249978D01*
X428021Y249926D01*
X427918Y249861D01*
X427814Y249809D01*
X427723Y249758D01*
X427658Y249719D01*
X427607Y249680D01*
X427555Y249654D01*
X427542Y249641D01*
X427529Y249628D01*
X427399Y249511D01*
X427296Y249395D01*
X427192Y249265D01*
X427114Y249135D01*
X426985Y248876D01*
X426907Y248630D01*
X426855Y248397D01*
X426842Y248293D01*
X426829Y248215D01*
X426816Y248150D01*
Y248086D01*
Y248060D01*
Y248047D01*
X426829Y247827D01*
X426855Y247632D01*
X426907Y247438D01*
X426985Y247256D01*
X427062Y247101D01*
X427153Y246945D01*
X427244Y246816D01*
X427334Y246699D01*
X427438Y246582D01*
X427529Y246492D01*
X427620Y246414D01*
X427697Y246349D01*
X427762Y246297D01*
X427814Y246258D01*
X427853Y246245D01*
X427866Y246232D01*
Y246206D01*
X424405D01*
Y245364D01*
X432194D01*
Y246206D01*
X431443D01*
Y246232D01*
X431598Y246336D01*
X431728Y246453D01*
X431845Y246582D01*
X431948Y246699D01*
X432026Y246829D01*
X432104Y246971D01*
X432207Y247217D01*
X432259Y247451D01*
X432285Y247554D01*
X432298Y247645D01*
X432311Y247710D01*
Y247762D01*
Y247801D01*
Y247814D01*
X432298Y248021D01*
X432272Y248215D01*
X432233Y248384D01*
X432182Y248552D01*
X432065Y248863D01*
X431987Y248993D01*
X431909Y249110D01*
X431845Y249213D01*
X431767Y249304D01*
X431702Y249382D01*
X431637Y249447D01*
X431598Y249498D01*
X431559Y249537D01*
X431533Y249550D01*
X431521Y249563D01*
X431365Y249680D01*
X431196Y249783D01*
X431028Y249861D01*
X430860Y249939D01*
X430510Y250056D01*
X430173Y250133D01*
X430017Y250159D01*
X429875Y250172D01*
X429745Y250198D01*
X429641D01*
X429551Y250211D01*
D02*
G37*
G36*
X427931Y258026D02*
X427075D01*
X426985Y257819D01*
X426920Y257611D01*
X426881Y257404D01*
X426842Y257223D01*
X426829Y257054D01*
X426816Y256924D01*
Y256873D01*
Y256834D01*
Y256821D01*
Y256808D01*
X426829Y256575D01*
X426855Y256367D01*
X426894Y256160D01*
X426933Y255965D01*
X426998Y255797D01*
X427062Y255628D01*
X427140Y255486D01*
X427205Y255343D01*
X427283Y255227D01*
X427360Y255110D01*
X427425Y255019D01*
X427477Y254955D01*
X427529Y254890D01*
X427568Y254851D01*
X427594Y254825D01*
X427607Y254812D01*
X427762Y254682D01*
X427918Y254566D01*
X428086Y254475D01*
X428268Y254384D01*
X428436Y254319D01*
X428617Y254255D01*
X428941Y254164D01*
X429097Y254138D01*
X429240Y254112D01*
X429369Y254099D01*
X429473Y254086D01*
X429564Y254073D01*
X429693D01*
X429901Y254086D01*
X430108Y254099D01*
X430484Y254177D01*
X430808Y254293D01*
X430950Y254358D01*
X431080Y254423D01*
X431196Y254475D01*
X431300Y254540D01*
X431378Y254605D01*
X431456Y254656D01*
X431507Y254695D01*
X431546Y254734D01*
X431572Y254747D01*
X431585Y254760D01*
X431715Y254890D01*
X431819Y255032D01*
X431922Y255188D01*
X432000Y255330D01*
X432130Y255641D01*
X432220Y255926D01*
X432272Y256186D01*
X432285Y256289D01*
X432298Y256393D01*
X432311Y256471D01*
Y256523D01*
Y256561D01*
Y256575D01*
X432298Y256873D01*
X432259Y257145D01*
X432194Y257391D01*
X432130Y257611D01*
X432078Y257780D01*
X432013Y257909D01*
X431987Y257948D01*
X431974Y257987D01*
X431961Y258000D01*
Y258013D01*
X431158D01*
X431313Y257780D01*
X431417Y257559D01*
X431495Y257339D01*
X431559Y257132D01*
X431585Y256963D01*
X431598Y256834D01*
X431611Y256782D01*
Y256743D01*
Y256730D01*
Y256717D01*
X431585Y256432D01*
X431533Y256173D01*
X431443Y255939D01*
X431339Y255758D01*
X431248Y255603D01*
X431158Y255499D01*
X431106Y255434D01*
X431080Y255408D01*
X430860Y255253D01*
X430626Y255136D01*
X430380Y255045D01*
X430147Y254993D01*
X429939Y254955D01*
X429849Y254942D01*
X429771D01*
X429706Y254929D01*
X429615D01*
X429278Y254955D01*
X428980Y255006D01*
X428734Y255097D01*
X428514Y255188D01*
X428345Y255278D01*
X428216Y255369D01*
X428138Y255421D01*
X428112Y255447D01*
X428008Y255551D01*
X427918Y255654D01*
X427775Y255875D01*
X427671Y256095D01*
X427607Y256302D01*
X427555Y256484D01*
X427542Y256639D01*
X427529Y256691D01*
Y256730D01*
Y256756D01*
Y256769D01*
X427542Y257015D01*
X427594Y257248D01*
X427658Y257469D01*
X427723Y257650D01*
X427801Y257806D01*
X427866Y257922D01*
X427918Y258000D01*
X427931Y258026D01*
D02*
G37*
%LPD*%
G36*
X429926Y282585D02*
X430225Y282533D01*
X430484Y282456D01*
X430704Y282378D01*
X430872Y282300D01*
X430989Y282222D01*
X431067Y282171D01*
X431093Y282157D01*
X431261Y281976D01*
X431391Y281782D01*
X431482Y281561D01*
X431546Y281367D01*
X431585Y281186D01*
X431598Y281030D01*
X431611Y280978D01*
Y280939D01*
Y280913D01*
Y280900D01*
X431585Y280615D01*
X431533Y280356D01*
X431443Y280136D01*
X431339Y279954D01*
X431248Y279812D01*
X431158Y279708D01*
X431106Y279643D01*
X431080Y279617D01*
X430860Y279462D01*
X430613Y279345D01*
X430367Y279255D01*
X430134Y279203D01*
X429926Y279164D01*
X429836Y279151D01*
X429758D01*
X429693Y279138D01*
X429602D01*
X429252Y279164D01*
X428954Y279216D01*
X428695Y279280D01*
X428475Y279371D01*
X428306Y279462D01*
X428190Y279527D01*
X428112Y279578D01*
X428086Y279604D01*
X427982Y279695D01*
X427905Y279799D01*
X427762Y280006D01*
X427658Y280226D01*
X427594Y280434D01*
X427555Y280615D01*
X427542Y280771D01*
X427529Y280823D01*
Y280861D01*
Y280887D01*
Y280900D01*
X427555Y281186D01*
X427607Y281445D01*
X427697Y281652D01*
X427788Y281834D01*
X427892Y281976D01*
X427982Y282080D01*
X428034Y282132D01*
X428060Y282157D01*
X428280Y282300D01*
X428527Y282417D01*
X428773Y282494D01*
X429019Y282546D01*
X429240Y282572D01*
X429330Y282585D01*
X429408Y282598D01*
X429576D01*
X429926Y282585D01*
D02*
G37*
G36*
X429071Y290439D02*
X428825Y290491D01*
X428605Y290556D01*
X428410Y290633D01*
X428255Y290724D01*
X428125Y290815D01*
X428034Y290880D01*
X427970Y290931D01*
X427956Y290944D01*
X427814Y291113D01*
X427710Y291281D01*
X427633Y291463D01*
X427581Y291618D01*
X427555Y291761D01*
X427529Y291865D01*
Y291942D01*
Y291968D01*
X427542Y292189D01*
X427594Y292370D01*
X427658Y292538D01*
X427723Y292681D01*
X427801Y292785D01*
X427866Y292863D01*
X427918Y292914D01*
X427931Y292927D01*
X428099Y293044D01*
X428280Y293135D01*
X428462Y293186D01*
X428656Y293238D01*
X428812Y293264D01*
X428954Y293277D01*
X429071D01*
Y290439D01*
D02*
G37*
G36*
X429926Y263236D02*
X430225Y263184D01*
X430484Y263106D01*
X430704Y263029D01*
X430872Y262951D01*
X430989Y262873D01*
X431067Y262821D01*
X431093Y262808D01*
X431261Y262627D01*
X431391Y262432D01*
X431482Y262212D01*
X431546Y262018D01*
X431585Y261836D01*
X431598Y261681D01*
X431611Y261629D01*
Y261590D01*
Y261564D01*
Y261551D01*
X431585Y261266D01*
X431533Y261007D01*
X431443Y260787D01*
X431339Y260605D01*
X431248Y260462D01*
X431158Y260359D01*
X431106Y260294D01*
X431080Y260268D01*
X430860Y260113D01*
X430613Y259996D01*
X430367Y259905D01*
X430134Y259853D01*
X429926Y259815D01*
X429836Y259802D01*
X429758D01*
X429693Y259789D01*
X429602D01*
X429252Y259815D01*
X428954Y259866D01*
X428695Y259931D01*
X428475Y260022D01*
X428306Y260113D01*
X428190Y260177D01*
X428112Y260229D01*
X428086Y260255D01*
X427982Y260346D01*
X427905Y260450D01*
X427762Y260657D01*
X427658Y260877D01*
X427594Y261085D01*
X427555Y261266D01*
X427542Y261421D01*
X427529Y261473D01*
Y261512D01*
Y261538D01*
Y261551D01*
X427555Y261836D01*
X427607Y262095D01*
X427697Y262303D01*
X427788Y262484D01*
X427892Y262627D01*
X427982Y262731D01*
X428034Y262782D01*
X428060Y262808D01*
X428280Y262951D01*
X428527Y263067D01*
X428773Y263145D01*
X429019Y263197D01*
X429240Y263223D01*
X429330Y263236D01*
X429408Y263249D01*
X429576D01*
X429926Y263236D01*
D02*
G37*
G36*
X429771Y249330D02*
X430095Y249278D01*
X430367Y249200D01*
X430600Y249123D01*
X430782Y249045D01*
X430860Y249006D01*
X430924Y248967D01*
X430963Y248941D01*
X431002Y248915D01*
X431015Y248902D01*
X431028D01*
X431132Y248824D01*
X431222Y248734D01*
X431365Y248539D01*
X431469Y248332D01*
X431533Y248150D01*
X431585Y247969D01*
X431598Y247839D01*
X431611Y247788D01*
Y247749D01*
Y247723D01*
Y247710D01*
X431585Y247477D01*
X431533Y247269D01*
X431469Y247088D01*
X431378Y246932D01*
X431300Y246803D01*
X431222Y246712D01*
X431171Y246660D01*
X431158Y246634D01*
X430976Y246492D01*
X430795Y246388D01*
X430613Y246310D01*
X430432Y246258D01*
X430289Y246232D01*
X430160Y246219D01*
X430082Y246206D01*
X429317D01*
X429045Y246219D01*
X428799Y246271D01*
X428579Y246349D01*
X428397Y246427D01*
X428242Y246505D01*
X428138Y246582D01*
X428073Y246634D01*
X428047Y246647D01*
X427879Y246829D01*
X427749Y247023D01*
X427658Y247230D01*
X427594Y247412D01*
X427555Y247580D01*
X427542Y247723D01*
X427529Y247775D01*
Y247814D01*
Y247827D01*
Y247839D01*
X427555Y248086D01*
X427607Y248306D01*
X427684Y248500D01*
X427775Y248656D01*
X427879Y248773D01*
X427956Y248863D01*
X428008Y248928D01*
X428034Y248941D01*
X428229Y249071D01*
X428449Y249174D01*
X428682Y249239D01*
X428903Y249291D01*
X429097Y249317D01*
X429175Y249330D01*
X429252Y249343D01*
X429395D01*
X429771Y249330D01*
D02*
G37*
%LPC*%
G36*
X446093Y291405D02*
X445973D01*
X445945Y291400D01*
X445913D01*
X445871Y291396D01*
X445779Y291382D01*
X445677Y291363D01*
X445576Y291331D01*
X445474Y291289D01*
X445433Y291266D01*
X445391Y291234D01*
X445386D01*
X445382Y291225D01*
X445359Y291202D01*
X445326Y291165D01*
X445289Y291119D01*
X445252Y291058D01*
X445220Y290985D01*
X445197Y290901D01*
X445188Y290860D01*
Y290814D01*
Y290809D01*
Y290800D01*
Y290786D01*
X445192Y290767D01*
X445197Y290717D01*
X445215Y290652D01*
X445238Y290583D01*
X445280Y290509D01*
X445331Y290435D01*
X445368Y290398D01*
X445405Y290365D01*
X445409D01*
X445414Y290356D01*
X445428Y290352D01*
X445446Y290338D01*
X445470Y290324D01*
X445497Y290310D01*
X445530Y290296D01*
X445567Y290282D01*
X445608Y290264D01*
X445654Y290250D01*
X445710Y290236D01*
X445765Y290222D01*
X445825Y290208D01*
X445895Y290204D01*
X445964Y290195D01*
X446075D01*
X446103Y290199D01*
X446130D01*
X446167Y290204D01*
X446250Y290213D01*
X446343Y290231D01*
X446444Y290259D01*
X446541Y290292D01*
X446638Y290342D01*
X446643D01*
X446648Y290352D01*
X446675Y290370D01*
X446712Y290407D01*
X446759Y290458D01*
X446805Y290523D01*
X446842Y290606D01*
X446869Y290703D01*
X446874Y290758D01*
X446879Y290818D01*
Y290823D01*
Y290827D01*
Y290841D01*
X446874Y290860D01*
X446865Y290906D01*
X446851Y290966D01*
X446823Y291031D01*
X446786Y291105D01*
X446731Y291174D01*
X446694Y291206D01*
X446657Y291239D01*
X446652D01*
X446648Y291248D01*
X446634Y291252D01*
X446615Y291266D01*
X446592Y291276D01*
X446564Y291289D01*
X446532Y291308D01*
X446495Y291322D01*
X446449Y291336D01*
X446403Y291354D01*
X446352Y291368D01*
X446292Y291377D01*
X446232Y291391D01*
X446163Y291396D01*
X446093Y291405D01*
D02*
G37*
%LPD*%
D22*
X411000Y211385D02*
G03*
X403000Y211385I-4000J-13000D01*
G01*
X426685Y212842D02*
G03*
X426685Y212842I-19685J0D01*
G01*
X467685Y212842D02*
G03*
X467685Y212842I-19685J0D01*
G01*
X452000Y211385D02*
G03*
X444000Y211385I-4000J-13000D01*
G01*
X238000Y259000D02*
Y284000D01*
X243000D01*
X238000Y259000D02*
X243000D01*
X257000Y238000D02*
X408000D01*
Y243000D01*
X257000Y238000D02*
Y243000D01*
X408000Y303000D02*
Y308000D01*
X257000Y303000D02*
Y308000D01*
X408000D01*
X257000Y311000D02*
Y321000D01*
X247000Y311000D02*
X327000D01*
Y321000D01*
X247000D02*
X327000D01*
X247000Y311000D02*
Y321000D01*
X407000Y213924D02*
Y217424D01*
Y208424D02*
Y211924D01*
X403000Y213924D02*
X411000D01*
X444000D02*
X452000D01*
X448000Y208424D02*
Y211924D01*
Y213924D02*
Y217424D01*
X246498Y279500D02*
X241500D01*
X240500Y278500D01*
Y276501D01*
X241500Y275501D01*
X246498D01*
X245498Y269503D02*
X246498Y270503D01*
Y272502D01*
X245498Y273502D01*
X244499D01*
X243499Y272502D01*
Y270503D01*
X242499Y269503D01*
X241500D01*
X240500Y270503D01*
Y272502D01*
X241500Y273502D01*
X246498Y267504D02*
X240500D01*
Y264505D01*
X241500Y263505D01*
X242499D01*
X243499Y264505D01*
Y267504D01*
Y264505D01*
X244499Y263505D01*
X245498D01*
X246498Y264505D01*
Y267504D01*
D39*
X377492Y213579D02*
G03*
X377492Y213579I-492J0D01*
G01*
X509279Y240949D02*
G03*
X509279Y240949I-492J0D01*
G01*
X508559Y201374D02*
G03*
X508559Y201374I-492J0D01*
G01*
X509657Y280650D02*
G03*
X509657Y280650I-492J0D01*
G01*
X330827Y219728D02*
G03*
X330827Y219728I-492J0D01*
G01*
D40*
X501307Y246264D02*
G03*
X501307Y246264I-1181J0D01*
G01*
X500587Y206689D02*
G03*
X500587Y206689I-1181J0D01*
G01*
X501685Y285964D02*
G03*
X501685Y285964I-1181J0D01*
G01*
D41*
X362908Y317600D02*
G03*
X362058Y318450I-850J0D01*
G01*
Y312550D02*
G03*
X362908Y313400I0J850D01*
G01*
X351147Y318450D02*
G03*
X350296Y317600I0J-850D01*
G01*
Y313400D02*
G03*
X351147Y312550I850J0D01*
G01*
X434459Y237466D02*
G03*
X433609Y238316I-850J0D01*
G01*
Y232416D02*
G03*
X434459Y233266I0J850D01*
G01*
X422698Y238316D02*
G03*
X421848Y237466I0J-850D01*
G01*
Y233266D02*
G03*
X422698Y232416I850J0D01*
G01*
X442413Y317776D02*
G03*
X441563Y316926I0J-850D01*
G01*
X447463D02*
G03*
X446613Y317776I-850J0D01*
G01*
X441563Y306014D02*
G03*
X442413Y305164I850J0D01*
G01*
X446613D02*
G03*
X447463Y306014I0J850D01*
G01*
X435425Y317776D02*
G03*
X434575Y316926I0J-850D01*
G01*
X440475D02*
G03*
X439625Y317776I-850J0D01*
G01*
X434575Y306014D02*
G03*
X435425Y305164I850J0D01*
G01*
X439625D02*
G03*
X440475Y306014I0J850D01*
G01*
X428438Y317776D02*
G03*
X427588Y316926I0J-850D01*
G01*
X433488D02*
G03*
X432638Y317776I-850J0D01*
G01*
X427588Y306014D02*
G03*
X428438Y305164I850J0D01*
G01*
X432638D02*
G03*
X433488Y306014I0J850D01*
G01*
X421450Y317775D02*
G03*
X420600Y316925I0J-850D01*
G01*
X426500D02*
G03*
X425650Y317775I-850J0D01*
G01*
X420600Y306013D02*
G03*
X421450Y305164I850J0D01*
G01*
X425650D02*
G03*
X426500Y306013I0J850D01*
G01*
X362908Y313400D02*
Y317600D01*
X350297Y313400D02*
Y317600D01*
X351147Y318450D02*
X362058D01*
X351147Y312550D02*
X362058D01*
X434459Y233266D02*
Y237466D01*
X421848Y233266D02*
Y237466D01*
X422698Y238316D02*
X433609D01*
X422698Y232416D02*
X433609D01*
X442413Y317776D02*
X446613D01*
X442413Y305164D02*
X446613D01*
X441563Y306014D02*
Y316926D01*
X447463Y306014D02*
Y316926D01*
X435425Y317776D02*
X439625D01*
X435425Y305164D02*
X439625D01*
X434575Y306014D02*
Y316926D01*
X440475Y306014D02*
Y316926D01*
X428438Y317776D02*
X432638D01*
X428438Y305164D02*
X432638D01*
X427588Y306014D02*
Y316926D01*
X433488Y306014D02*
Y316926D01*
X421450Y317775D02*
X425650D01*
X421450Y305164D02*
X425650D01*
X420600Y306014D02*
Y316925D01*
X426500Y306014D02*
Y316925D01*
X517047Y281745D02*
Y299529D01*
X540472D01*
X532598Y281745D02*
X540472D01*
X524724Y283714D02*
X532598D01*
Y281745D02*
Y283714D01*
X524724Y281745D02*
Y283714D01*
X540472Y281745D02*
Y299529D01*
X540374Y202716D02*
Y220500D01*
X524626Y202716D02*
Y204684D01*
X532500Y202716D02*
Y204684D01*
X524626D02*
X532500D01*
Y202716D02*
X540374D01*
X516949Y220500D02*
X540374D01*
X516949Y202716D02*
Y220500D01*
X516669Y242044D02*
Y259829D01*
X540094D01*
X532220Y242044D02*
X540094D01*
X524346Y244013D02*
X532220D01*
Y242044D02*
Y244013D01*
X524346Y242044D02*
Y244013D01*
X540094Y242044D02*
Y259829D01*
X540472Y301745D02*
Y319529D01*
X524724Y301745D02*
Y303714D01*
X532598Y301745D02*
Y303714D01*
X524724D02*
X532598D01*
Y301745D02*
X540472D01*
X517047Y319529D02*
X540472D01*
X517047Y301745D02*
Y319529D01*
X516949Y222716D02*
Y240500D01*
X540374D01*
X532500Y222716D02*
X540374D01*
X524626Y224684D02*
X532500D01*
Y222716D02*
Y224684D01*
X524626Y222716D02*
Y224684D01*
X540374Y222716D02*
Y240500D01*
X540094Y262044D02*
Y279829D01*
X524346Y262044D02*
Y264013D01*
X532220Y262044D02*
Y264013D01*
X524346D02*
X532220D01*
Y262044D02*
X540094D01*
X516669Y279829D02*
X540094D01*
X516669Y262044D02*
Y279829D01*
X246216Y193126D02*
X264000D01*
X246216Y216748D02*
X248184D01*
X246216Y208874D02*
X248184D01*
Y216748D01*
X246216Y193126D02*
Y208874D01*
X264000Y193126D02*
Y232299D01*
X246216D02*
X264000D01*
X267216D02*
X285000D01*
Y193126D02*
Y232299D01*
X267216Y193126D02*
Y208874D01*
X269184D02*
Y216748D01*
X267216Y208874D02*
X269184D01*
X267216Y216748D02*
X269184D01*
X267216Y193126D02*
X285000D01*
X288216D02*
X306000D01*
X288216Y216748D02*
X290184D01*
X288216Y208874D02*
X290184D01*
Y216748D01*
X288216Y193126D02*
Y208874D01*
X306000Y193126D02*
Y232299D01*
X288216D02*
X306000D01*
X543000Y274323D02*
X560784D01*
X543000D02*
Y297748D01*
X560784Y289874D02*
Y297748D01*
X558816Y282000D02*
Y289874D01*
X560784D01*
X558816Y282000D02*
X560784D01*
X543000Y297748D02*
X560784D01*
X543000Y218449D02*
X560784D01*
X543000D02*
Y241874D01*
X560784Y234000D02*
Y241874D01*
X558816Y226126D02*
Y234000D01*
X560784D01*
X558816Y226126D02*
X560784D01*
X543000Y241874D02*
X560784D01*
D42*
X368559Y316878D02*
X368953D01*
X368559Y314122D02*
X368953D01*
X440803Y233622D02*
X441197D01*
X440803Y236378D02*
X441197D01*
X466622Y295803D02*
Y296197D01*
X469378Y295803D02*
Y296197D01*
X312866Y228803D02*
Y229197D01*
X310110Y228803D02*
Y229197D01*
X329866Y228803D02*
Y229197D01*
X327110Y228803D02*
Y229197D01*
X371488Y216532D02*
Y234248D01*
X382512Y216532D02*
Y234248D01*
X371488Y216532D02*
X372571D01*
X371488Y234248D02*
X372571D01*
X381429Y216532D02*
X382512D01*
X381429Y234248D02*
X382512D01*
X343945Y204921D02*
Y205906D01*
X362055Y204921D02*
Y205906D01*
X343945Y194094D02*
Y195079D01*
X362055Y194094D02*
Y195079D01*
X343945Y205906D02*
X362055D01*
X343945Y194094D02*
X362055D01*
X332622Y200559D02*
Y200953D01*
X335378Y200559D02*
Y200953D01*
X318533Y228803D02*
Y229197D01*
X315777Y228803D02*
Y229197D01*
X372276Y202323D02*
Y206654D01*
X381724Y202323D02*
Y206654D01*
X324199Y228803D02*
Y229197D01*
X321444Y228803D02*
Y229197D01*
X364567Y208220D02*
Y213437D01*
X335433Y208220D02*
Y213437D01*
X364567Y230563D02*
Y235780D01*
X335433Y230563D02*
Y235780D01*
Y208220D02*
X364567D01*
X335433Y235780D02*
X364567D01*
X343878Y315559D02*
Y315953D01*
X341122Y315559D02*
Y315953D01*
X336378Y315547D02*
Y315941D01*
X333622Y315547D02*
Y315941D01*
X484378Y273823D02*
X504063D01*
X484378Y242327D02*
X504063D01*
X484378D02*
Y273823D01*
X504063Y242327D02*
Y273823D01*
X483657Y234248D02*
X503343D01*
X483657Y202752D02*
X503343D01*
X483657D02*
Y234248D01*
X503343Y202752D02*
Y234248D01*
X484756Y313524D02*
X504441D01*
X484756Y282028D02*
X504441D01*
X484756D02*
Y313524D01*
X504441Y282028D02*
Y313524D01*
X475598Y256378D02*
Y256772D01*
X472843Y256378D02*
Y256772D01*
X474878Y216803D02*
Y217197D01*
X472122Y216803D02*
Y217197D01*
X475378Y295803D02*
Y296197D01*
X472622Y295803D02*
Y296197D01*
X466929Y278921D02*
X471260D01*
X466929Y269079D02*
X471260D01*
X465835Y239921D02*
X470165D01*
X465835Y230079D02*
X470165D01*
X466835Y318921D02*
X471165D01*
X466835Y309079D02*
X471165D01*
X329331Y202701D02*
Y215299D01*
X309646Y202701D02*
Y215299D01*
D43*
X338236Y194252D02*
Y205748D01*
D44*
X517047Y281745D02*
X524724D01*
X516949Y202716D02*
X524626D01*
X516669Y242044D02*
X524346D01*
X517047Y301745D02*
X524724D01*
X516949Y222716D02*
X524626D01*
X516669Y262044D02*
X524346D01*
X246216Y216748D02*
Y232299D01*
X267216Y216748D02*
Y232299D01*
X288216Y216748D02*
Y232299D01*
X560784Y274323D02*
Y282000D01*
Y218449D02*
Y226126D01*
D45*
X402000Y310000D02*
Y311999D01*
X402666Y311333D01*
X403333Y311999D01*
Y310000D01*
X405332Y311666D02*
X404999Y311999D01*
X404333D01*
X403999Y311666D01*
Y310333D01*
X404333Y310000D01*
X404999D01*
X405332Y310333D01*
X405999Y311999D02*
Y310333D01*
X406332Y310000D01*
X406998D01*
X407332Y310333D01*
Y311999D01*
X331000Y207999D02*
Y206333D01*
X331333Y206000D01*
X332000D01*
X332333Y206333D01*
Y207999D01*
X334332Y206000D02*
X332999D01*
X334332Y207333D01*
Y207666D01*
X333999Y207999D01*
X333333D01*
X332999Y207666D01*
X327000Y235000D02*
Y236999D01*
X328000D01*
X328333Y236666D01*
Y236000D01*
X328000Y235666D01*
X327000D01*
X327666D02*
X328333Y235000D01*
X328999D02*
X329666D01*
X329333D01*
Y236999D01*
X328999Y236666D01*
X330665D02*
X330999Y236999D01*
X331665D01*
X331998Y236666D01*
Y235333D01*
X331665Y235000D01*
X330999D01*
X330665Y235333D01*
Y236666D01*
X310000Y235000D02*
Y236999D01*
X311000D01*
X311333Y236666D01*
Y236000D01*
X311000Y235666D01*
X310000D01*
X310666D02*
X311333Y235000D01*
X311999Y236666D02*
X312333Y236999D01*
X312999D01*
X313332Y236666D01*
Y236333D01*
X312999Y236000D01*
X313332Y235666D01*
Y235333D01*
X312999Y235000D01*
X312333D01*
X311999Y235333D01*
Y235666D01*
X312333Y236000D01*
X311999Y236333D01*
Y236666D01*
X312333Y236000D02*
X312999D01*
X369000Y231780D02*
Y233780D01*
X368000D01*
X367667Y233446D01*
Y232114D01*
X368000Y231780D01*
X369000D01*
X365668D02*
X366334Y232114D01*
X367001Y232780D01*
Y233446D01*
X366667Y233780D01*
X366001D01*
X365668Y233446D01*
Y233113D01*
X366001Y232780D01*
X367001D01*
X367000Y193001D02*
Y195000D01*
X366000D01*
X365667Y194667D01*
Y193334D01*
X366000Y193001D01*
X367000D01*
X363668D02*
X365001D01*
Y194000D01*
X364334Y193667D01*
X364001D01*
X363668Y194000D01*
Y194667D01*
X364001Y195000D01*
X364667D01*
X365001Y194667D01*
X333333Y194666D02*
X333000Y194999D01*
X332333D01*
X332000Y194666D01*
Y193333D01*
X332333Y193000D01*
X333000D01*
X333333Y193333D01*
X335332Y194999D02*
X334666Y194666D01*
X333999Y194000D01*
Y193333D01*
X334333Y193000D01*
X334999D01*
X335332Y193333D01*
Y193667D01*
X334999Y194000D01*
X333999D01*
X316333Y236666D02*
X316000Y236999D01*
X315333D01*
X315000Y236666D01*
Y235333D01*
X315333Y235000D01*
X316000D01*
X316333Y235333D01*
X316999Y236666D02*
X317333Y236999D01*
X317999D01*
X318332Y236666D01*
Y236333D01*
X317999Y236000D01*
X318332Y235666D01*
Y235333D01*
X317999Y235000D01*
X317333D01*
X316999Y235333D01*
Y235666D01*
X317333Y236000D01*
X316999Y236333D01*
Y236666D01*
X317333Y236000D02*
X317999D01*
X368667Y203334D02*
X369000Y203001D01*
X369667D01*
X370000Y203334D01*
Y204667D01*
X369667Y205000D01*
X369000D01*
X368667Y204667D01*
X368001D02*
X367667Y205000D01*
X367001D01*
X366668Y204667D01*
Y203334D01*
X367001Y203001D01*
X367667D01*
X368001Y203334D01*
Y203667D01*
X367667Y204000D01*
X366668D01*
X321000Y235000D02*
Y236999D01*
X322000D01*
X322333Y236666D01*
Y236000D01*
X322000Y235666D01*
X321000D01*
X321666D02*
X322333Y235000D01*
X322999D02*
X323666D01*
X323333D01*
Y236999D01*
X322999Y236666D01*
X324665Y235000D02*
X325332D01*
X324999D01*
Y236999D01*
X324665Y236666D01*
X332850Y241849D02*
Y239850D01*
X334183D01*
X334849D02*
X335516D01*
X335183D01*
Y241849D01*
X334849Y241516D01*
X241333Y316999D02*
X240666D01*
X241000D01*
Y315333D01*
X240666Y315000D01*
X240333D01*
X240000Y315333D01*
X241999Y315000D02*
Y316999D01*
X242999D01*
X243332Y316666D01*
Y316000D01*
X242999Y315666D01*
X241999D01*
X243999Y316666D02*
X244332Y316999D01*
X244998D01*
X245332Y316666D01*
Y316333D01*
X244998Y316000D01*
X245332Y315666D01*
Y315333D01*
X244998Y315000D01*
X244332D01*
X243999Y315333D01*
Y315666D01*
X244332Y316000D01*
X243999Y316333D01*
Y316666D01*
X244332Y316000D02*
X244998D01*
X368000Y310000D02*
Y311999D01*
X369000D01*
X369333Y311666D01*
Y311000D01*
X369000Y310666D01*
X368000D01*
X368666D02*
X369333Y310000D01*
X369999D02*
X370666D01*
X370333D01*
Y311999D01*
X369999Y311666D01*
X372665Y310000D02*
Y311999D01*
X371666Y311000D01*
X372998D01*
X444898Y232000D02*
Y230001D01*
X443898D01*
X443565Y230334D01*
Y231000D01*
X443898Y231334D01*
X444898D01*
X444231D02*
X443565Y232000D01*
X442898D02*
X442232D01*
X442565D01*
Y230001D01*
X442898Y230334D01*
X441232D02*
X440899Y230001D01*
X440232D01*
X439899Y230334D01*
Y230667D01*
X440232Y231000D01*
X440566D01*
X440232D01*
X439899Y231334D01*
Y231667D01*
X440232Y232000D01*
X440899D01*
X441232Y231667D01*
X466000Y288000D02*
Y289999D01*
X467000D01*
X467333Y289666D01*
Y289000D01*
X467000Y288666D01*
X466000D01*
X466666D02*
X467333Y288000D01*
X467999Y289999D02*
X469332D01*
Y289666D01*
X467999Y288333D01*
Y288000D01*
X338000Y309000D02*
Y310999D01*
X339000D01*
X339333Y310666D01*
Y310000D01*
X339000Y309666D01*
X338000D01*
X338666D02*
X339333Y309000D01*
X341332D02*
X339999D01*
X341332Y310333D01*
Y310666D01*
X340999Y310999D01*
X340333D01*
X339999Y310666D01*
X331000Y309000D02*
Y310999D01*
X332000D01*
X332333Y310666D01*
Y310000D01*
X332000Y309666D01*
X331000D01*
X331666D02*
X332333Y309000D01*
X332999D02*
X333666D01*
X333333D01*
Y310999D01*
X332999Y310666D01*
X514999Y270754D02*
X513000D01*
Y269754D01*
X513333Y269421D01*
X513666D01*
X514000Y269754D01*
Y270754D01*
Y269754D01*
X514333Y269421D01*
X514666D01*
X514999Y269754D01*
Y270754D01*
X512667Y268755D02*
Y267422D01*
X513000Y266755D02*
X514999D01*
X514333Y266089D01*
X514999Y265422D01*
X513000D01*
X514999Y264756D02*
Y264089D01*
Y264423D01*
X513000D01*
Y264756D01*
Y264089D01*
X514999Y263090D02*
X513000D01*
Y262090D01*
X513333Y261757D01*
X514666D01*
X514999Y262090D01*
Y263090D01*
Y236000D02*
X513000D01*
Y235000D01*
X513333Y234667D01*
X513666D01*
X514000Y235000D01*
Y236000D01*
Y235000D01*
X514333Y234667D01*
X514666D01*
X514999Y235000D01*
Y236000D01*
X512667Y234001D02*
Y232668D01*
X514999Y230668D02*
Y232001D01*
X514000D01*
Y231335D01*
Y232001D01*
X513000D01*
Y230002D02*
X514999D01*
Y229002D01*
X514666Y228669D01*
X514000D01*
X513666Y229002D01*
Y230002D01*
Y229335D02*
X513000Y228669D01*
X514999Y227003D02*
Y227669D01*
X514666Y228003D01*
X513333D01*
X513000Y227669D01*
Y227003D01*
X513333Y226670D01*
X514666D01*
X514999Y227003D01*
X513000Y226003D02*
X514999D01*
X513000Y224670D01*
X514999D01*
Y224004D02*
Y222671D01*
Y223337D01*
X513000D01*
X514999Y313754D02*
X513000D01*
Y312754D01*
X513333Y312421D01*
X513666D01*
X514000Y312754D01*
Y313754D01*
Y312754D01*
X514333Y312421D01*
X514666D01*
X514999Y312754D01*
Y313754D01*
X512667Y311754D02*
Y310422D01*
X514999Y309755D02*
X513000D01*
Y308755D01*
X513333Y308422D01*
X513666D01*
X514000Y308755D01*
Y309755D01*
Y308755D01*
X514333Y308422D01*
X514666D01*
X514999Y308755D01*
Y309755D01*
X513000Y307756D02*
X514333D01*
X514999Y307089D01*
X514333Y306423D01*
X513000D01*
X514000D01*
Y307756D01*
X514666Y304424D02*
X514999Y304757D01*
Y305423D01*
X514666Y305756D01*
X513333D01*
X513000Y305423D01*
Y304757D01*
X513333Y304424D01*
X514999Y303757D02*
X513000D01*
X513666D01*
X514999Y302424D01*
X514000Y303424D01*
X513000Y302424D01*
Y251754D02*
X514333D01*
X514999Y251087D01*
X514333Y250421D01*
X513000D01*
X514000D01*
Y251754D01*
X512667Y249755D02*
Y248422D01*
X513000Y247755D02*
X514999D01*
X514333Y247089D01*
X514999Y246422D01*
X513000D01*
X514999Y245756D02*
Y245089D01*
Y245423D01*
X513000D01*
Y245756D01*
Y245089D01*
X514999Y244090D02*
X513000D01*
Y243090D01*
X513333Y242757D01*
X514666D01*
X514999Y243090D01*
Y244090D01*
X513000Y216000D02*
X514333D01*
X514999Y215334D01*
X514333Y214667D01*
X513000D01*
X514000D01*
Y216000D01*
X512667Y214001D02*
Y212668D01*
X514999Y210668D02*
Y212001D01*
X514000D01*
Y211335D01*
Y212001D01*
X513000D01*
Y210002D02*
X514999D01*
Y209002D01*
X514666Y208669D01*
X514000D01*
X513666Y209002D01*
Y210002D01*
Y209335D02*
X513000Y208669D01*
X514999Y207003D02*
Y207669D01*
X514666Y208003D01*
X513333D01*
X513000Y207669D01*
Y207003D01*
X513333Y206670D01*
X514666D01*
X514999Y207003D01*
X513000Y206003D02*
X514999D01*
X513000Y204670D01*
X514999D01*
Y204004D02*
Y202671D01*
Y203337D01*
X513000D01*
X513165Y293691D02*
X514498D01*
X515165Y293024D01*
X514498Y292358D01*
X513165D01*
X514165D01*
Y293691D01*
X512832Y291691D02*
Y290359D01*
X515165Y289692D02*
X513165D01*
Y288692D01*
X513499Y288359D01*
X513832D01*
X514165Y288692D01*
Y289692D01*
Y288692D01*
X514498Y288359D01*
X514831D01*
X515165Y288692D01*
Y289692D01*
X513165Y287693D02*
X514498D01*
X515165Y287026D01*
X514498Y286360D01*
X513165D01*
X514165D01*
Y287693D01*
X514831Y284361D02*
X515165Y284694D01*
Y285360D01*
X514831Y285693D01*
X513499D01*
X513165Y285360D01*
Y284694D01*
X513499Y284361D01*
X515165Y283694D02*
X513165D01*
X513832D01*
X515165Y282361D01*
X514165Y283361D01*
X513165Y282361D01*
X290499Y235999D02*
X289833D01*
X290166D01*
Y234333D01*
X289833Y234000D01*
X289500D01*
X289167Y234333D01*
X291166Y234000D02*
Y235999D01*
X292166D01*
X292499Y235666D01*
Y235000D01*
X292166Y234666D01*
X291166D01*
X293165Y235666D02*
X293498Y235999D01*
X294165D01*
X294498Y235666D01*
Y235333D01*
X294165Y235000D01*
X293832D01*
X294165D01*
X294498Y234666D01*
Y234333D01*
X294165Y234000D01*
X293498D01*
X293165Y234333D01*
X269416Y235999D02*
X268750D01*
X269083D01*
Y234333D01*
X268750Y234000D01*
X268417D01*
X268083Y234333D01*
X270083Y234000D02*
Y235999D01*
X271082D01*
X271416Y235666D01*
Y235000D01*
X271082Y234666D01*
X270083D01*
X273415Y234000D02*
X272082D01*
X273415Y235333D01*
Y235666D01*
X273082Y235999D01*
X272415D01*
X272082Y235666D01*
X248333Y235873D02*
X247666D01*
X248000D01*
Y234207D01*
X247666Y233874D01*
X247333D01*
X247000Y234207D01*
X248999Y233874D02*
Y235873D01*
X249999D01*
X250332Y235540D01*
Y234874D01*
X249999Y234541D01*
X248999D01*
X250999Y233874D02*
X251665D01*
X251332D01*
Y235873D01*
X250999Y235540D01*
X489000Y240999D02*
Y239000D01*
X490000D01*
X490333Y239333D01*
Y240666D01*
X490000Y240999D01*
X489000D01*
X490999Y239000D02*
Y240999D01*
X491999D01*
X492332Y240666D01*
Y240000D01*
X491999Y239666D01*
X490999D01*
X491666D02*
X492332Y239000D01*
X492999Y240999D02*
X493665D01*
X493332D01*
Y239000D01*
X492999D01*
X493665D01*
X494665Y240999D02*
Y239666D01*
X495331Y239000D01*
X495998Y239666D01*
Y240999D01*
X497997D02*
X496664D01*
Y239000D01*
X497997D01*
X496664Y240000D02*
X497331D01*
X498664Y239000D02*
Y240999D01*
X499663D01*
X499996Y240666D01*
Y240000D01*
X499663Y239666D01*
X498664D01*
X499330D02*
X499996Y239000D01*
X500663Y238667D02*
X501996D01*
X502662Y239000D02*
Y240999D01*
X503329Y240333D01*
X503995Y240999D01*
Y239000D01*
X504662Y240999D02*
X505328D01*
X504995D01*
Y239000D01*
X504662D01*
X505328D01*
X506328Y240999D02*
Y239000D01*
X507327D01*
X507661Y239333D01*
Y240666D01*
X507327Y240999D01*
X506328D01*
X489000Y200999D02*
Y199000D01*
X490000D01*
X490333Y199333D01*
Y200666D01*
X490000Y200999D01*
X489000D01*
X490999Y199000D02*
Y200999D01*
X491999D01*
X492332Y200666D01*
Y200000D01*
X491999Y199667D01*
X490999D01*
X491666D02*
X492332Y199000D01*
X492999Y200999D02*
X493665D01*
X493332D01*
Y199000D01*
X492999D01*
X493665D01*
X494665Y200999D02*
Y199667D01*
X495331Y199000D01*
X495998Y199667D01*
Y200999D01*
X497997D02*
X496664D01*
Y199000D01*
X497997D01*
X496664Y200000D02*
X497331D01*
X498664Y199000D02*
Y200999D01*
X499663D01*
X499996Y200666D01*
Y200000D01*
X499663Y199667D01*
X498664D01*
X499330D02*
X499996Y199000D01*
X500663Y198667D02*
X501996D01*
X503995Y200999D02*
X502662D01*
Y200000D01*
X503329D01*
X502662D01*
Y199000D01*
X504662D02*
Y200999D01*
X505661D01*
X505995Y200666D01*
Y200000D01*
X505661Y199667D01*
X504662D01*
X505328D02*
X505995Y199000D01*
X507661Y200999D02*
X506994D01*
X506661Y200666D01*
Y199333D01*
X506994Y199000D01*
X507661D01*
X507994Y199333D01*
Y200666D01*
X507661Y200999D01*
X508660Y199000D02*
Y200999D01*
X509993Y199000D01*
Y200999D01*
X510660D02*
X511993D01*
X511326D01*
Y199000D01*
X490000Y279999D02*
Y278000D01*
X491000D01*
X491333Y278333D01*
Y279666D01*
X491000Y279999D01*
X490000D01*
X491999Y278000D02*
Y279999D01*
X492999D01*
X493332Y279666D01*
Y279000D01*
X492999Y278666D01*
X491999D01*
X492666D02*
X493332Y278000D01*
X493999Y279999D02*
X494665D01*
X494332D01*
Y278000D01*
X493999D01*
X494665D01*
X495665Y279999D02*
Y278666D01*
X496331Y278000D01*
X496998Y278666D01*
Y279999D01*
X498997D02*
X497664D01*
Y278000D01*
X498997D01*
X497664Y279000D02*
X498331D01*
X499663Y278000D02*
Y279999D01*
X500663D01*
X500996Y279666D01*
Y279000D01*
X500663Y278666D01*
X499663D01*
X500330D02*
X500996Y278000D01*
X501663Y277667D02*
X502996D01*
X503662Y279999D02*
Y278000D01*
X504662D01*
X504995Y278333D01*
Y278666D01*
X504662Y279000D01*
X503662D01*
X504662D01*
X504995Y279333D01*
Y279666D01*
X504662Y279999D01*
X503662D01*
X505662Y278000D02*
Y279333D01*
X506328Y279999D01*
X506994Y279333D01*
Y278000D01*
Y279000D01*
X505662D01*
X508994Y279666D02*
X508661Y279999D01*
X507994D01*
X507661Y279666D01*
Y278333D01*
X507994Y278000D01*
X508661D01*
X508994Y278333D01*
X509660Y279999D02*
Y278000D01*
Y278666D01*
X510993Y279999D01*
X509994Y279000D01*
X510993Y278000D01*
X351000Y310999D02*
Y309000D01*
X352000D01*
X352333Y309333D01*
Y310666D01*
X352000Y310999D01*
X351000D01*
X352999Y309000D02*
X353666D01*
X353333D01*
Y310999D01*
X352999Y310666D01*
X354665Y309000D02*
X355332D01*
X354999D01*
Y310999D01*
X354665Y310666D01*
X426000Y230999D02*
Y229000D01*
X427000D01*
X427333Y229333D01*
Y230666D01*
X427000Y230999D01*
X426000D01*
X427999Y229000D02*
X428666D01*
X428333D01*
Y230999D01*
X427999Y230666D01*
X429666D02*
X429999Y230999D01*
X430665D01*
X430998Y230666D01*
Y229333D01*
X430665Y229000D01*
X429999D01*
X429666Y229333D01*
Y230666D01*
X442000Y303999D02*
Y302000D01*
X443000D01*
X443333Y302333D01*
Y303666D01*
X443000Y303999D01*
X442000D01*
X444999Y302000D02*
Y303999D01*
X443999Y303000D01*
X445332D01*
X435000Y303999D02*
Y302000D01*
X436000D01*
X436333Y302333D01*
Y303666D01*
X436000Y303999D01*
X435000D01*
X436999Y303666D02*
X437333Y303999D01*
X437999D01*
X438332Y303666D01*
Y303333D01*
X437999Y303000D01*
X437666D01*
X437999D01*
X438332Y302666D01*
Y302333D01*
X437999Y302000D01*
X437333D01*
X436999Y302333D01*
X428000Y303999D02*
Y302000D01*
X429000D01*
X429333Y302333D01*
Y303666D01*
X429000Y303999D01*
X428000D01*
X431332Y302000D02*
X429999D01*
X431332Y303333D01*
Y303666D01*
X430999Y303999D01*
X430333D01*
X429999Y303666D01*
X421000Y303999D02*
Y302000D01*
X422000D01*
X422333Y302333D01*
Y303666D01*
X422000Y303999D01*
X421000D01*
X422999Y302000D02*
X423666D01*
X423333D01*
Y303999D01*
X422999Y303666D01*
X462333Y256666D02*
X462000Y256999D01*
X461333D01*
X461000Y256666D01*
Y255333D01*
X461333Y255000D01*
X462000D01*
X462333Y255333D01*
X463999Y255000D02*
Y256999D01*
X462999Y256000D01*
X464332D01*
X464999Y254667D02*
X466332D01*
X466998Y255000D02*
Y256999D01*
X467664Y256333D01*
X468331Y256999D01*
Y255000D01*
X468997Y256999D02*
X469664D01*
X469331D01*
Y255000D01*
X468997D01*
X469664D01*
X470663Y256999D02*
Y255000D01*
X471663D01*
X471996Y255333D01*
Y256666D01*
X471663Y256999D01*
X470663D01*
X473666Y209667D02*
X473999Y210000D01*
Y210667D01*
X473666Y211000D01*
X472333D01*
X472000Y210667D01*
Y210000D01*
X472333Y209667D01*
X472000Y208001D02*
X473999D01*
X473000Y209001D01*
Y207668D01*
X471667Y207001D02*
Y205668D01*
X473999Y203669D02*
Y205002D01*
X473000D01*
Y204335D01*
Y205002D01*
X472000D01*
Y203003D02*
X473999D01*
Y202003D01*
X473666Y201670D01*
X473000D01*
X472666Y202003D01*
Y203003D01*
Y202336D02*
X472000Y201670D01*
X473999Y200004D02*
Y200670D01*
X473666Y201003D01*
X472333D01*
X472000Y200670D01*
Y200004D01*
X472333Y199670D01*
X473666D01*
X473999Y200004D01*
X472000Y199004D02*
X473999D01*
X472000Y197671D01*
X473999D01*
Y197004D02*
Y195672D01*
Y196338D01*
X472000D01*
X464333Y303280D02*
X464000Y303613D01*
X463333D01*
X463000Y303280D01*
Y301947D01*
X463333Y301614D01*
X464000D01*
X464333Y301947D01*
X465999Y301614D02*
Y303613D01*
X464999Y302614D01*
X466332D01*
X466999Y301281D02*
X468332D01*
X468998Y303613D02*
Y301614D01*
X469998D01*
X470331Y301947D01*
Y302281D01*
X469998Y302614D01*
X468998D01*
X469998D01*
X470331Y302947D01*
Y303280D01*
X469998Y303613D01*
X468998D01*
X470997Y301614D02*
Y302947D01*
X471664Y303613D01*
X472330Y302947D01*
Y301614D01*
Y302614D01*
X470997D01*
X474330Y303280D02*
X473996Y303613D01*
X473330D01*
X472997Y303280D01*
Y301947D01*
X473330Y301614D01*
X473996D01*
X474330Y301947D01*
X474996Y303613D02*
Y301614D01*
Y302281D01*
X476329Y303613D01*
X475329Y302614D01*
X476329Y301614D01*
X462333Y266666D02*
X462000Y266999D01*
X461333D01*
X461000Y266666D01*
Y265333D01*
X461333Y265000D01*
X462000D01*
X462333Y265333D01*
X462999Y266666D02*
X463333Y266999D01*
X463999D01*
X464332Y266666D01*
Y266333D01*
X463999Y266000D01*
X463666D01*
X463999D01*
X464332Y265666D01*
Y265333D01*
X463999Y265000D01*
X463333D01*
X462999Y265333D01*
X464999Y264667D02*
X466332D01*
X466998Y265000D02*
Y266999D01*
X467664Y266333D01*
X468331Y266999D01*
Y265000D01*
X468997Y266999D02*
X469664D01*
X469331D01*
Y265000D01*
X468997D01*
X469664D01*
X470663Y266999D02*
Y265000D01*
X471663D01*
X471996Y265333D01*
Y266666D01*
X471663Y266999D01*
X470663D01*
X458333Y243666D02*
X458000Y243999D01*
X457333D01*
X457000Y243666D01*
Y242333D01*
X457333Y242000D01*
X458000D01*
X458333Y242333D01*
X458999Y243666D02*
X459333Y243999D01*
X459999D01*
X460332Y243666D01*
Y243333D01*
X459999Y243000D01*
X459666D01*
X459999D01*
X460332Y242666D01*
Y242333D01*
X459999Y242000D01*
X459333D01*
X458999Y242333D01*
X460999Y241667D02*
X462332D01*
X464331Y243999D02*
X462998D01*
Y243000D01*
X463664D01*
X462998D01*
Y242000D01*
X464997D02*
Y243999D01*
X465997D01*
X466330Y243666D01*
Y243000D01*
X465997Y242666D01*
X464997D01*
X465664D02*
X466330Y242000D01*
X467996Y243999D02*
X467330D01*
X466997Y243666D01*
Y242333D01*
X467330Y242000D01*
X467996D01*
X468330Y242333D01*
Y243666D01*
X467996Y243999D01*
X468996Y242000D02*
Y243999D01*
X470329Y242000D01*
Y243999D01*
X470995D02*
X472328D01*
X471662D01*
Y242000D01*
X459333Y306666D02*
X459000Y306999D01*
X458333D01*
X458000Y306666D01*
Y305333D01*
X458333Y305000D01*
X459000D01*
X459333Y305333D01*
X459999Y306666D02*
X460333Y306999D01*
X460999D01*
X461332Y306666D01*
Y306333D01*
X460999Y306000D01*
X460666D01*
X460999D01*
X461332Y305666D01*
Y305333D01*
X460999Y305000D01*
X460333D01*
X459999Y305333D01*
X461999Y304667D02*
X463332D01*
X463998Y306999D02*
Y305000D01*
X464998D01*
X465331Y305333D01*
Y305666D01*
X464998Y306000D01*
X463998D01*
X464998D01*
X465331Y306333D01*
Y306666D01*
X464998Y306999D01*
X463998D01*
X465997Y305000D02*
Y306333D01*
X466664Y306999D01*
X467330Y306333D01*
Y305000D01*
Y306000D01*
X465997D01*
X469330Y306666D02*
X468996Y306999D01*
X468330D01*
X467997Y306666D01*
Y305333D01*
X468330Y305000D01*
X468996D01*
X469330Y305333D01*
X469996Y306999D02*
Y305000D01*
Y305666D01*
X471329Y306999D01*
X470329Y306000D01*
X471329Y305000D01*
X419833Y195351D02*
X419500Y195684D01*
X418833D01*
X418500Y195351D01*
Y194018D01*
X418833Y193685D01*
X419500D01*
X419833Y194018D01*
X421832Y193685D02*
X420499D01*
X421832Y195018D01*
Y195351D01*
X421499Y195684D01*
X420833D01*
X420499Y195351D01*
X460833Y195166D02*
X460500Y195499D01*
X459833D01*
X459500Y195166D01*
Y193833D01*
X459833Y193500D01*
X460500D01*
X460833Y193833D01*
X461499Y193500D02*
X462166D01*
X461833D01*
Y195499D01*
X461499Y195166D01*
X544333Y216999D02*
X543666D01*
X544000D01*
Y215333D01*
X543666Y215000D01*
X543333D01*
X543000Y215333D01*
X544999Y215000D02*
Y216999D01*
X545999D01*
X546332Y216666D01*
Y216000D01*
X545999Y215666D01*
X544999D01*
X547998Y215000D02*
Y216999D01*
X546999Y216000D01*
X548332D01*
D46*
X544333Y272936D02*
X543666D01*
X544000D01*
Y271270D01*
X543666Y270937D01*
X543333D01*
X543000Y271270D01*
X544999Y270937D02*
Y272936D01*
X545999D01*
X546332Y272603D01*
Y271937D01*
X545999Y271603D01*
X544999D01*
X548332Y272936D02*
X546999D01*
Y271937D01*
X547665Y272270D01*
X547998D01*
X548332Y271937D01*
Y271270D01*
X547998Y270937D01*
X547332D01*
X546999Y271270D01*
D47*
X406000Y197685D02*
Y196352D01*
Y230685D02*
Y229352D01*
X406666Y230019D02*
X405333D01*
X447000Y230685D02*
Y229352D01*
X447666Y230019D02*
X446333D01*
X447000Y197685D02*
Y196352D01*
D48*
X362469Y318525D02*
D03*
X434020Y238391D02*
D03*
D49*
X363469Y315500D02*
D03*
X435020Y235366D02*
D03*
D50*
X362339Y312515D02*
D03*
X433890Y232381D02*
D03*
D51*
X441486Y317336D02*
D03*
X434500Y317336D02*
D03*
X427511Y317336D02*
D03*
X420525Y317338D02*
D03*
D52*
X444511Y318336D02*
D03*
X437525Y318336D02*
D03*
X430536Y318336D02*
D03*
X423550Y318338D02*
D03*
D53*
X447496Y317206D02*
D03*
X440510Y317206D02*
D03*
X433521Y317206D02*
D03*
X426535Y317209D02*
D03*
M02*
