G04 Layer_Physical_Order=1*
G04 Layer_Color=255*
%FSLAX25Y25*%
%MOIN*%
G70*
G01*
G75*
%ADD10R,0.13583X0.10079*%
%ADD11R,0.02362X0.05709*%
%ADD12R,0.03543X0.02756*%
%ADD13R,0.05709X0.08071*%
%ADD14R,0.09843X0.06693*%
%ADD15R,0.10236X0.03740*%
%ADD16R,0.11417X0.13976*%
%ADD17R,0.03543X0.03937*%
%ADD18R,0.03937X0.03543*%
%ADD19O,0.06299X0.01772*%
%ADD20R,0.03937X0.03937*%
%ADD21R,0.03937X0.03937*%
%ADD22R,0.04528X0.10630*%
%ADD23C,0.01000*%
%ADD24C,0.02000*%
%ADD25C,0.01500*%
%ADD26C,0.06000*%
%ADD27R,0.06000X0.06000*%
%ADD28C,0.06300*%
%ADD29C,0.07874*%
%ADD30C,0.15748*%
%ADD31C,0.03000*%
%ADD32C,0.02800*%
%ADD33C,0.01969*%
G36*
X550613Y320378D02*
X550339Y320351D01*
X548741Y319867D01*
X547269Y319080D01*
X545979Y318021D01*
X544920Y316731D01*
X544133Y315259D01*
X543649Y313661D01*
X543485Y312000D01*
X543649Y310339D01*
X544133Y308741D01*
X544920Y307269D01*
X545979Y305979D01*
X547269Y304920D01*
X548741Y304133D01*
X550339Y303649D01*
X552000Y303485D01*
X553661Y303649D01*
X555259Y304133D01*
X556731Y304920D01*
X558021Y305979D01*
X559080Y307269D01*
X559378Y307828D01*
X559878Y307702D01*
Y259411D01*
X559378Y259387D01*
X559351Y259661D01*
X558867Y261259D01*
X558080Y262731D01*
X557021Y264021D01*
X555731Y265080D01*
X554259Y265867D01*
X552661Y266351D01*
X551000Y266515D01*
X549339Y266351D01*
X547741Y265867D01*
X546269Y265080D01*
X544979Y264021D01*
X543920Y262731D01*
X543133Y261259D01*
X542649Y259661D01*
X542485Y258000D01*
X542649Y256339D01*
X543133Y254741D01*
X543920Y253269D01*
X544979Y251979D01*
X546269Y250920D01*
X547741Y250133D01*
X549339Y249649D01*
X551000Y249485D01*
X552661Y249649D01*
X554259Y250133D01*
X555731Y250920D01*
X557021Y251979D01*
X558080Y253269D01*
X558867Y254741D01*
X559351Y256339D01*
X559378Y256613D01*
X559878Y256589D01*
Y203411D01*
X559378Y203387D01*
X559351Y203661D01*
X558867Y205259D01*
X558080Y206731D01*
X557021Y208021D01*
X555731Y209080D01*
X554259Y209867D01*
X552661Y210351D01*
X551000Y210515D01*
X549339Y210351D01*
X547741Y209867D01*
X546269Y209080D01*
X544979Y208021D01*
X543920Y206731D01*
X543133Y205259D01*
X542649Y203661D01*
X542485Y202000D01*
X542649Y200339D01*
X543133Y198741D01*
X543920Y197269D01*
X544979Y195979D01*
X546269Y194920D01*
X547741Y194133D01*
X549339Y193649D01*
X549613Y193622D01*
X549589Y193122D01*
X350361D01*
X350170Y193584D01*
X353793Y197207D01*
X353793Y197207D01*
X354036Y197571D01*
X354122Y198000D01*
X354121Y198000D01*
Y202485D01*
X354962Y203325D01*
X379892D01*
X379892Y203325D01*
X380321Y203410D01*
X380685Y203653D01*
X398595Y221564D01*
X402571D01*
X402580Y221501D01*
X403037Y220397D01*
X403764Y219449D01*
X404712Y218722D01*
X405816Y218265D01*
X407000Y218109D01*
X408184Y218265D01*
X409288Y218722D01*
X410236Y219449D01*
X410963Y220397D01*
X411420Y221501D01*
X411576Y222685D01*
X411420Y223869D01*
X410963Y224973D01*
X410236Y225921D01*
X409640Y226378D01*
X409809Y226878D01*
X416429D01*
X435748Y207559D01*
X436112Y207316D01*
X436541Y207230D01*
X436541Y207230D01*
X456921D01*
X464444Y199707D01*
X464444Y199707D01*
X464808Y199464D01*
X465237Y199378D01*
X480536D01*
X480536Y199378D01*
X480965Y199464D01*
X481329Y199707D01*
X483976Y202354D01*
X483976Y202354D01*
X484219Y202718D01*
X484304Y203147D01*
X484304Y203147D01*
Y212925D01*
X484219Y213354D01*
X483976Y213718D01*
X483976Y213718D01*
X482632Y215061D01*
X482596Y215241D01*
X482268Y215733D01*
Y216149D01*
X482596Y216641D01*
X482632Y216820D01*
X490193Y224381D01*
X490193Y224381D01*
X490436Y224745D01*
X490522Y225174D01*
X490522Y225174D01*
Y252800D01*
X490522Y252800D01*
X490436Y253229D01*
X490193Y253593D01*
X490193Y253593D01*
X486198Y257588D01*
X485834Y257831D01*
X485405Y257917D01*
X485405Y257917D01*
X482913D01*
X482497Y258195D01*
X481917Y258310D01*
X477390D01*
X476810Y258195D01*
X476319Y257867D01*
X475990Y257375D01*
X475875Y256795D01*
X475974Y256297D01*
X475728Y255797D01*
X471849D01*
Y254940D01*
X470646D01*
X450586Y275000D01*
X455793Y280207D01*
X455793Y280207D01*
X466065Y290479D01*
X470569D01*
Y291729D01*
X471628D01*
Y291266D01*
X472783D01*
X472843Y291183D01*
X472722Y290503D01*
X472467Y290333D01*
X472003Y289638D01*
X471840Y288819D01*
X472003Y287999D01*
X472149Y287781D01*
X471913Y287340D01*
X471219D01*
X471219Y287340D01*
X470790Y287255D01*
X470426Y287012D01*
X467207Y283793D01*
X466964Y283429D01*
X466878Y283000D01*
X466878Y283000D01*
Y271776D01*
X466486Y271514D01*
X466022Y270819D01*
X465859Y270000D01*
X466022Y269181D01*
X466486Y268486D01*
X467181Y268022D01*
X468000Y267859D01*
X468819Y268022D01*
X469514Y268486D01*
X469978Y269181D01*
X470141Y270000D01*
X469978Y270819D01*
X469514Y271514D01*
X469122Y271776D01*
Y280830D01*
X469622Y280982D01*
X469886Y280586D01*
X470581Y280122D01*
X471400Y279959D01*
X471677Y280014D01*
X472136Y279650D01*
Y268085D01*
X472441D01*
X472592Y267585D01*
X472486Y267514D01*
X472022Y266819D01*
X471859Y266000D01*
X472022Y265181D01*
X472155Y264982D01*
X471919Y264541D01*
X470474D01*
X469819Y264978D01*
X469000Y265141D01*
X468181Y264978D01*
X467486Y264514D01*
X467022Y263819D01*
X466859Y263000D01*
X467022Y262181D01*
X467486Y261486D01*
X468181Y261022D01*
X469000Y260859D01*
X469819Y261022D01*
X470514Y261486D01*
X470978Y262181D01*
X471001Y262297D01*
X472827D01*
X472923Y262278D01*
X472923Y262279D01*
X475575D01*
X475875Y261913D01*
X475990Y261334D01*
X476319Y260842D01*
X476810Y260514D01*
X477390Y260399D01*
X481917D01*
X482497Y260514D01*
X482913Y260792D01*
X483200D01*
X483200Y260792D01*
X483629Y260877D01*
X483993Y261120D01*
X484893Y262020D01*
X484893Y262020D01*
X485136Y262384D01*
X485222Y262813D01*
Y271903D01*
X485819Y272022D01*
X486514Y272486D01*
X486978Y273181D01*
X487141Y274000D01*
X486978Y274819D01*
X486514Y275514D01*
X485819Y275978D01*
X485000Y276141D01*
X484181Y275978D01*
X483486Y275514D01*
X483022Y274819D01*
X482859Y274000D01*
X482880Y273895D01*
X482671Y273707D01*
X482436Y273561D01*
X481917Y273664D01*
X477864D01*
Y279878D01*
X485000D01*
X485000Y279878D01*
X485429Y279964D01*
X485793Y280207D01*
X486793Y281207D01*
X486793Y281207D01*
X487036Y281571D01*
X487122Y282000D01*
Y288700D01*
X487036Y289129D01*
X486793Y289493D01*
X486793Y289493D01*
X484115Y292171D01*
X483751Y292414D01*
X483628Y292439D01*
X483545Y292574D01*
X483446Y292985D01*
X483695Y293357D01*
X483810Y293937D01*
X483695Y294517D01*
X483366Y295008D01*
Y295425D01*
X483695Y295916D01*
X483810Y296496D01*
X483695Y297076D01*
X483366Y297567D01*
X482875Y297896D01*
X482295Y298011D01*
X477768D01*
X477188Y297896D01*
X476696Y297567D01*
X476532Y297322D01*
X471320D01*
X470569Y298073D01*
Y300277D01*
X470831Y300493D01*
X470831Y300493D01*
X476772D01*
X477188Y300215D01*
X477768Y300099D01*
X482295D01*
X482875Y300215D01*
X483366Y300543D01*
X483695Y301034D01*
X483810Y301614D01*
X483695Y302194D01*
X483452Y302558D01*
X483399Y302894D01*
X483452Y303230D01*
X483695Y303593D01*
X483810Y304173D01*
X483695Y304753D01*
X483366Y305244D01*
Y305661D01*
X483695Y306153D01*
X483810Y306732D01*
X483695Y307312D01*
X483452Y307676D01*
X483399Y308012D01*
X483452Y308348D01*
X483695Y308712D01*
X483810Y309291D01*
X483695Y309871D01*
X483366Y310363D01*
Y310779D01*
X483695Y311271D01*
X483810Y311850D01*
X483695Y312430D01*
X483366Y312922D01*
X482875Y313250D01*
X482295Y313365D01*
X482219D01*
Y315246D01*
X482686Y315558D01*
X483128Y316220D01*
X483283Y317000D01*
X483128Y317780D01*
X482686Y318442D01*
X482024Y318884D01*
X481440Y319000D01*
X481369Y319047D01*
X480843Y319152D01*
X480316Y319047D01*
X479869Y318749D01*
X479571Y318302D01*
X479513Y318008D01*
X479360Y317780D01*
X479205Y317000D01*
X479360Y316220D01*
X479466Y316061D01*
Y313365D01*
X477769D01*
Y319915D01*
X472042D01*
Y308085D01*
X472441D01*
X472592Y307585D01*
X472486Y307514D01*
X472022Y306819D01*
X471859Y306000D01*
X472022Y305181D01*
X471767Y304662D01*
X471571Y304621D01*
X471516Y304657D01*
X471087Y304743D01*
X471087Y304743D01*
X462843D01*
X457522Y310065D01*
Y312600D01*
X457436Y313029D01*
X457193Y313393D01*
X457193Y313393D01*
X450293Y320293D01*
X450165Y320378D01*
X450317Y320879D01*
X550589D01*
X550613Y320378D01*
D02*
G37*
G36*
X352042Y221207D02*
X352042Y221207D01*
X352406Y220964D01*
X352835Y220878D01*
X352835Y220879D01*
X355109D01*
Y214412D01*
X355852D01*
X356000Y214351D01*
X364731D01*
X373052Y206030D01*
X372860Y205568D01*
X354497D01*
X354497Y205568D01*
X354068Y205483D01*
X353704Y205240D01*
X353704Y205240D01*
X352207Y203742D01*
X351964Y203379D01*
X351878Y202949D01*
X351878Y202949D01*
Y198465D01*
X350109Y196695D01*
X349647Y196887D01*
Y201995D01*
X349649Y202000D01*
Y204000D01*
X349459Y204459D01*
X344649Y209269D01*
Y214412D01*
X344891D01*
Y227704D01*
X345353Y227896D01*
X352042Y221207D01*
D02*
G37*
G36*
X375879Y223015D02*
Y221000D01*
X375964Y220571D01*
X376207Y220207D01*
X376571Y219964D01*
X377000Y219879D01*
X382000D01*
Y208141D01*
X379859Y206000D01*
X374000D01*
X365000Y215000D01*
X356000D01*
Y220879D01*
X361417D01*
X361846Y220964D01*
X362210Y221207D01*
X362454Y221571D01*
X362539Y222000D01*
X362454Y222429D01*
X362210Y222793D01*
X361846Y223036D01*
X361417Y223122D01*
X356000D01*
Y225000D01*
X373894D01*
X375879Y223015D01*
D02*
G37*
G36*
X344000Y215000D02*
Y209000D01*
X349000Y204000D01*
Y202000D01*
X333000D01*
Y215000D01*
X331000Y217000D01*
X326000D01*
Y223000D01*
X344000D01*
Y215000D01*
D02*
G37*
G36*
X332628Y320478D02*
Y319621D01*
X324500D01*
X324071Y319536D01*
X323707Y319293D01*
X323707Y319293D01*
X323634Y319220D01*
X322940Y319507D01*
X322000Y319631D01*
X321060Y319507D01*
X320184Y319145D01*
X319432Y318567D01*
X318855Y317815D01*
X318493Y316940D01*
X318369Y316000D01*
X318493Y315060D01*
X318855Y314184D01*
X319432Y313433D01*
X320184Y312855D01*
X321060Y312493D01*
X322000Y312369D01*
X322940Y312493D01*
X323815Y312855D01*
X324568Y313433D01*
X325145Y314184D01*
X325507Y315060D01*
X325631Y316000D01*
X325515Y316878D01*
X325568Y317068D01*
X325776Y317378D01*
X332628D01*
Y316522D01*
X337372D01*
Y317378D01*
X338700D01*
X338700Y317378D01*
X338759Y317390D01*
X340128D01*
Y316534D01*
X344872D01*
Y317390D01*
X349780D01*
X350688Y316482D01*
Y312931D01*
X354238D01*
X354978Y312191D01*
Y305780D01*
X354479Y305636D01*
X353816Y306145D01*
X352940Y306507D01*
X352000Y306631D01*
X351060Y306507D01*
X350184Y306145D01*
X349432Y305568D01*
X348855Y304816D01*
X348493Y303940D01*
X348369Y303000D01*
X348493Y302060D01*
X348855Y301185D01*
X349432Y300432D01*
X350184Y299855D01*
X351060Y299493D01*
X352000Y299369D01*
X352940Y299493D01*
X353816Y299855D01*
X354568Y300432D01*
X355145Y301185D01*
X355314Y301594D01*
X355904Y301712D01*
X361409Y296207D01*
X361772Y295964D01*
X362202Y295878D01*
X362202Y295879D01*
X391535D01*
X407036Y280378D01*
X406961Y280000D01*
X407116Y279220D01*
X407558Y278558D01*
X408220Y278116D01*
X409000Y277961D01*
X409780Y278116D01*
X410442Y278558D01*
X410656Y278878D01*
X443535D01*
X448207Y274207D01*
X448207Y274207D01*
X450073Y272341D01*
X449754Y271953D01*
X449629Y272036D01*
X449200Y272122D01*
X449200Y272122D01*
X392776D01*
X392514Y272514D01*
X391819Y272978D01*
X391000Y273141D01*
X390181Y272978D01*
X389486Y272514D01*
X389022Y271819D01*
X388859Y271000D01*
X389022Y270181D01*
X389486Y269486D01*
X390181Y269022D01*
X391000Y268859D01*
X391819Y269022D01*
X392514Y269486D01*
X392776Y269879D01*
X448735D01*
X467874Y250740D01*
X467667Y250240D01*
X462609D01*
X447056Y265793D01*
X446692Y266036D01*
X446263Y266122D01*
X446263Y266122D01*
X438323D01*
X437894Y266036D01*
X437530Y265793D01*
X437530Y265793D01*
X427358Y255622D01*
X333500D01*
X333500Y255622D01*
X333071Y255536D01*
X332707Y255293D01*
X332707Y255293D01*
X323634Y246220D01*
X322940Y246507D01*
X322000Y246631D01*
X321060Y246507D01*
X320184Y246145D01*
X319432Y245567D01*
X318855Y244815D01*
X318493Y243940D01*
X318369Y243000D01*
X318493Y242060D01*
X318855Y241184D01*
X319432Y240433D01*
X320184Y239855D01*
X321060Y239493D01*
X322000Y239369D01*
X322940Y239493D01*
X323815Y239855D01*
X324568Y240433D01*
X325145Y241184D01*
X325507Y242060D01*
X325631Y243000D01*
X325507Y243940D01*
X325220Y244634D01*
X333965Y253379D01*
X427823D01*
X427823Y253378D01*
X428252Y253464D01*
X428616Y253707D01*
X436892Y261983D01*
X437371Y261838D01*
X437422Y261581D01*
X437886Y260886D01*
X438581Y260422D01*
X439400Y260259D01*
X440219Y260422D01*
X440914Y260886D01*
X441176Y261279D01*
X446135D01*
X456802Y250612D01*
X456638Y250069D01*
X456181Y249978D01*
X455486Y249514D01*
X455224Y249121D01*
X451356D01*
X444217Y256260D01*
X443853Y256504D01*
X443424Y256589D01*
X443424Y256589D01*
X441281D01*
X441019Y256981D01*
X440324Y257446D01*
X439505Y257609D01*
X438686Y257446D01*
X437991Y256981D01*
X437527Y256287D01*
X437364Y255467D01*
X437527Y254648D01*
X437991Y253953D01*
X438686Y253489D01*
X439505Y253326D01*
X440324Y253489D01*
X441019Y253953D01*
X441281Y254346D01*
X442959D01*
X450098Y247207D01*
X450098Y247207D01*
X450462Y246964D01*
X450891Y246878D01*
X450891Y246879D01*
X455224D01*
X455486Y246486D01*
X456181Y246022D01*
X457000Y245859D01*
X457819Y246022D01*
X458514Y246486D01*
X458978Y247181D01*
X459069Y247638D01*
X459612Y247802D01*
X461648Y245766D01*
X461648Y245766D01*
X462012Y245523D01*
X462441Y245437D01*
X462441Y245437D01*
X473025D01*
X473260Y244997D01*
X473116Y244780D01*
X472961Y244000D01*
X473116Y243220D01*
X473558Y242558D01*
X474220Y242116D01*
X475000Y241961D01*
X475780Y242116D01*
X476442Y242558D01*
X476575Y242757D01*
X476810Y242600D01*
X477390Y242485D01*
X481917D01*
X482497Y242600D01*
X482989Y242929D01*
X483317Y243420D01*
X483432Y244000D01*
X483317Y244580D01*
X482989Y245071D01*
Y245488D01*
X483317Y245979D01*
X483432Y246559D01*
X483317Y247139D01*
X483074Y247503D01*
X483021Y247839D01*
X483074Y248175D01*
X483317Y248538D01*
X483432Y249118D01*
X483317Y249698D01*
X482989Y250189D01*
Y250606D01*
X483317Y251097D01*
X483432Y251677D01*
X483317Y252257D01*
X483074Y252621D01*
X483021Y252957D01*
X483074Y253293D01*
X483317Y253657D01*
X483432Y254236D01*
X483317Y254816D01*
X483078Y255174D01*
X483249Y255614D01*
X483299Y255674D01*
X484940D01*
X488278Y252335D01*
Y225639D01*
X481345Y218706D01*
X481197Y218735D01*
X476669D01*
X476089Y218620D01*
X475598Y218292D01*
X475299Y217844D01*
X471273D01*
X470844Y217758D01*
X470480Y217515D01*
X470480Y217515D01*
X468086Y215122D01*
X447465D01*
X430251Y232336D01*
X430442Y232798D01*
X434068D01*
Y234244D01*
X435376D01*
Y232798D01*
X440120D01*
Y237934D01*
X435376D01*
Y236488D01*
X434068D01*
Y237934D01*
X430815D01*
X430624Y238396D01*
X431847Y239620D01*
X431847Y239620D01*
X432090Y239984D01*
X432140Y240236D01*
X432514Y240486D01*
X432978Y241181D01*
X433141Y242000D01*
X432978Y242819D01*
X432514Y243514D01*
X431819Y243978D01*
X431000Y244141D01*
X430181Y243978D01*
X429486Y243514D01*
X429022Y242819D01*
X428859Y242000D01*
X429022Y241181D01*
X429486Y240486D01*
X429491Y240436D01*
X427638Y238583D01*
X427395Y238219D01*
X427339Y237934D01*
X422328D01*
X422037Y238351D01*
X423904Y240218D01*
X424367Y240126D01*
X425186Y240289D01*
X425881Y240753D01*
X426345Y241448D01*
X426508Y242267D01*
X426345Y243086D01*
X425881Y243781D01*
X425186Y244245D01*
X424367Y244408D01*
X423548Y244245D01*
X422853Y243781D01*
X422389Y243086D01*
X422226Y242267D01*
X422318Y241804D01*
X417707Y237193D01*
X417464Y236829D01*
X417378Y236400D01*
X417378Y236400D01*
Y231465D01*
X417378Y231465D01*
X417464Y231035D01*
X417707Y230671D01*
X438443Y209935D01*
X438252Y209473D01*
X437006D01*
X417686Y228793D01*
X417322Y229036D01*
X416893Y229122D01*
X416893Y229121D01*
X401183D01*
X400753Y229036D01*
X400390Y228793D01*
X400390Y228793D01*
X393718Y222122D01*
X382718D01*
Y223470D01*
X378121D01*
Y223480D01*
X378036Y223909D01*
X377793Y224273D01*
X377793Y224273D01*
X371122Y230944D01*
Y239105D01*
X371498Y239435D01*
X372000Y239369D01*
X372940Y239493D01*
X373815Y239855D01*
X374568Y240433D01*
X375145Y241184D01*
X375507Y242060D01*
X375631Y243000D01*
X375507Y243940D01*
X375145Y244815D01*
X374568Y245567D01*
X373815Y246145D01*
X372940Y246507D01*
X372000Y246631D01*
X371060Y246507D01*
X370184Y246145D01*
X369432Y245567D01*
X368855Y244815D01*
X368493Y243940D01*
X368369Y243000D01*
X368493Y242060D01*
X368855Y241184D01*
X368903Y241123D01*
X368878Y241000D01*
X368879Y241000D01*
Y231361D01*
X368417Y231170D01*
X363122Y236465D01*
Y239568D01*
X363815Y239855D01*
X364567Y240433D01*
X365145Y241184D01*
X365507Y242060D01*
X365631Y243000D01*
X365507Y243940D01*
X365145Y244815D01*
X364567Y245567D01*
X363815Y246145D01*
X362940Y246507D01*
X362000Y246631D01*
X361060Y246507D01*
X360185Y246145D01*
X359433Y245567D01*
X358855Y244815D01*
X358493Y243940D01*
X358369Y243000D01*
X358493Y242060D01*
X358855Y241184D01*
X359433Y240433D01*
X360185Y239855D01*
X360878Y239568D01*
Y236000D01*
X360878Y236000D01*
X360964Y235571D01*
X361207Y235207D01*
X366364Y230050D01*
X366172Y229588D01*
X355109D01*
Y223122D01*
X353300D01*
X345540Y230881D01*
X345525Y230892D01*
X345514Y231485D01*
X345520Y231496D01*
X345978Y232181D01*
X346141Y233000D01*
X345978Y233819D01*
X345514Y234514D01*
X344819Y234978D01*
X344000Y235141D01*
X343622Y235066D01*
X343122Y235476D01*
Y239568D01*
X343815Y239855D01*
X344567Y240433D01*
X345145Y241184D01*
X345507Y242060D01*
X345631Y243000D01*
X345507Y243940D01*
X345145Y244815D01*
X344567Y245567D01*
X343815Y246145D01*
X342940Y246507D01*
X342000Y246631D01*
X341060Y246507D01*
X340184Y246145D01*
X339433Y245567D01*
X338855Y244815D01*
X338493Y243940D01*
X338369Y243000D01*
X338493Y242060D01*
X338855Y241184D01*
X339433Y240433D01*
X340184Y239855D01*
X340879Y239568D01*
Y234200D01*
X340878Y234200D01*
X340964Y233771D01*
X341207Y233407D01*
X341920Y232694D01*
X342022Y232181D01*
X342337Y231710D01*
X342069Y231210D01*
X337783D01*
X337537Y231505D01*
X337701Y231998D01*
X337819Y232022D01*
X338514Y232486D01*
X338978Y233181D01*
X339141Y234000D01*
X338978Y234819D01*
X338514Y235514D01*
X338122Y235776D01*
Y239000D01*
X338036Y239429D01*
X337793Y239793D01*
X337793Y239793D01*
X335509Y242077D01*
X335631Y243000D01*
X335507Y243940D01*
X335145Y244815D01*
X334567Y245567D01*
X333816Y246145D01*
X332940Y246507D01*
X332000Y246631D01*
X331060Y246507D01*
X330185Y246145D01*
X329433Y245567D01*
X328855Y244815D01*
X328493Y243940D01*
X328369Y243000D01*
X328493Y242060D01*
X328855Y241184D01*
X329433Y240433D01*
X330185Y239855D01*
X331060Y239493D01*
X332000Y239369D01*
X332940Y239493D01*
X333816Y239855D01*
X334236Y240178D01*
X335878Y238535D01*
Y235776D01*
X335486Y235514D01*
X335022Y234819D01*
X334971Y234562D01*
X334492Y234417D01*
X333882Y235027D01*
X333518Y235270D01*
X333089Y235355D01*
X333089Y235355D01*
X313966D01*
X313537Y235270D01*
X313173Y235027D01*
X313173Y235027D01*
X311880Y233734D01*
X309117D01*
Y230970D01*
X304207Y226061D01*
X303964Y225697D01*
X303878Y225268D01*
X303878Y225268D01*
Y219339D01*
X296749Y212209D01*
X295979Y212527D01*
X295741Y212559D01*
Y213063D01*
X295979Y213094D01*
X296891Y213472D01*
X297674Y214073D01*
X298276Y214857D01*
X298654Y215769D01*
X298782Y216748D01*
X298654Y217727D01*
X298335Y218497D01*
X300043Y220205D01*
X300043Y220205D01*
X300286Y220569D01*
X300372Y220998D01*
X300372Y220998D01*
Y239328D01*
X300787Y239606D01*
X301060Y239493D01*
X302000Y239369D01*
X302940Y239493D01*
X303816Y239855D01*
X304568Y240433D01*
X305145Y241184D01*
X305507Y242060D01*
X305631Y243000D01*
X305507Y243940D01*
X305145Y244815D01*
X304568Y245567D01*
X303816Y246145D01*
X302940Y246507D01*
X302000Y246631D01*
X301060Y246507D01*
X300184Y246145D01*
X299521Y245636D01*
X299022Y245780D01*
Y259435D01*
X339764Y300178D01*
X340184Y299855D01*
X341060Y299493D01*
X342000Y299369D01*
X342940Y299493D01*
X343815Y299855D01*
X344567Y300432D01*
X345145Y301185D01*
X345507Y302060D01*
X345631Y303000D01*
X345507Y303940D01*
X345145Y304816D01*
X344567Y305568D01*
X343815Y306145D01*
X343122Y306432D01*
Y311022D01*
X344872D01*
Y314978D01*
X340128D01*
Y311022D01*
X340879D01*
Y306432D01*
X340184Y306145D01*
X339433Y305568D01*
X338855Y304816D01*
X338493Y303940D01*
X338369Y303000D01*
X338491Y302077D01*
X297684Y261270D01*
X297221Y261461D01*
Y266635D01*
X330366Y299780D01*
X331060Y299493D01*
X332000Y299369D01*
X332940Y299493D01*
X333816Y299855D01*
X334567Y300432D01*
X335145Y301185D01*
X335507Y302060D01*
X335631Y303000D01*
X335507Y303940D01*
X335145Y304816D01*
X334567Y305568D01*
X333816Y306145D01*
X333121Y306432D01*
Y309524D01*
X334608Y311010D01*
X337372D01*
Y314966D01*
X332628D01*
Y312203D01*
X331207Y310781D01*
X330964Y310417D01*
X330878Y309988D01*
X330878Y309988D01*
Y306432D01*
X330185Y306145D01*
X329433Y305568D01*
X328855Y304816D01*
X328493Y303940D01*
X328369Y303000D01*
X328493Y302060D01*
X328780Y301366D01*
X295307Y267893D01*
X295064Y267529D01*
X294978Y267100D01*
X294978Y267100D01*
Y245780D01*
X294479Y245636D01*
X293815Y246145D01*
X292940Y246507D01*
X292000Y246631D01*
X291060Y246507D01*
X290184Y246145D01*
X289433Y245567D01*
X288855Y244815D01*
X288493Y243940D01*
X288369Y243000D01*
X288493Y242060D01*
X288855Y241184D01*
X289433Y240433D01*
X290184Y239855D01*
X291060Y239493D01*
X292000Y239369D01*
X292940Y239493D01*
X293815Y239855D01*
X294479Y240364D01*
X294978Y240220D01*
Y228401D01*
X294021Y228275D01*
X293109Y227898D01*
X292325Y227296D01*
X291724Y226513D01*
X291458Y225869D01*
X277542D01*
X277276Y226513D01*
X276675Y227296D01*
X275891Y227898D01*
X274979Y228275D01*
X274000Y228404D01*
X273021Y228275D01*
X272109Y227898D01*
X271326Y227296D01*
X270725Y226513D01*
X270458Y225869D01*
X256542D01*
X256276Y226513D01*
X255675Y227296D01*
X254891Y227898D01*
X253979Y228275D01*
X253000Y228404D01*
X252021Y228275D01*
X251109Y227898D01*
X250325Y227296D01*
X249724Y226513D01*
X249346Y225601D01*
X249218Y224622D01*
X249346Y223643D01*
X249724Y222731D01*
X250325Y221948D01*
X251109Y221346D01*
X252021Y220969D01*
X252259Y220937D01*
Y220433D01*
X252021Y220402D01*
X251109Y220024D01*
X250325Y219423D01*
X249724Y218639D01*
X249346Y217727D01*
X249218Y216748D01*
X249346Y215769D01*
X249724Y214857D01*
X250325Y214073D01*
X251109Y213472D01*
X252021Y213094D01*
X252259Y213063D01*
Y212559D01*
X252021Y212527D01*
X251109Y212150D01*
X250325Y211548D01*
X249724Y210765D01*
X249346Y209853D01*
X249218Y208874D01*
X249346Y207895D01*
X249724Y206983D01*
X250325Y206200D01*
X251109Y205598D01*
X252021Y205221D01*
X253000Y205092D01*
X253979Y205221D01*
X254891Y205598D01*
X255675Y206200D01*
X256276Y206983D01*
X256647Y207878D01*
X270354D01*
X270725Y206983D01*
X271326Y206200D01*
X272109Y205598D01*
X273021Y205221D01*
X274000Y205092D01*
X274979Y205221D01*
X275891Y205598D01*
X276675Y206200D01*
X277276Y206983D01*
X277647Y207878D01*
X291353D01*
X291724Y206983D01*
X292325Y206200D01*
X293109Y205598D01*
X294021Y205221D01*
X295000Y205092D01*
X295979Y205221D01*
X296891Y205598D01*
X297674Y206200D01*
X298276Y206983D01*
X298654Y207895D01*
X298782Y208874D01*
X298654Y209853D01*
X298335Y210623D01*
X305793Y218081D01*
X305793Y218081D01*
X306036Y218445D01*
X306122Y218874D01*
X306121Y218874D01*
Y224803D01*
X308655Y227336D01*
X309117Y227145D01*
Y224266D01*
X309367D01*
Y221228D01*
X309367Y221228D01*
X309452Y220799D01*
X309695Y220435D01*
X310207Y219923D01*
Y216274D01*
X313769D01*
Y223183D01*
X311610D01*
Y224266D01*
X313860D01*
Y227878D01*
X314783D01*
Y224266D01*
X315867D01*
Y223183D01*
X315207D01*
Y216274D01*
X318769D01*
Y223183D01*
X318110D01*
Y224266D01*
X319527D01*
Y227878D01*
X325732D01*
X325732Y227878D01*
X326162Y227964D01*
X326525Y228207D01*
X328096Y229778D01*
X330860D01*
Y233112D01*
X332625D01*
X335687Y230050D01*
X335495Y229588D01*
X332274D01*
Y223649D01*
X326000D01*
X325541Y223459D01*
X325426Y223183D01*
X325207D01*
Y216274D01*
X328769D01*
Y216351D01*
X330731D01*
X332274Y214808D01*
Y214412D01*
X332351D01*
Y202000D01*
X332541Y201541D01*
X333000Y201351D01*
X338605D01*
Y196054D01*
X348814D01*
X349006Y195592D01*
X348180Y194766D01*
X329248D01*
X328769Y194817D01*
Y197150D01*
X332628D01*
Y196022D01*
X337372D01*
Y199978D01*
X332628D01*
Y199393D01*
X328769D01*
Y201726D01*
X325207D01*
Y196701D01*
X324745Y196510D01*
X323769Y197486D01*
Y198048D01*
X323884Y198220D01*
X324039Y199000D01*
X323884Y199780D01*
X323769Y199952D01*
Y201726D01*
X320207D01*
Y199917D01*
X320116Y199780D01*
X319961Y199000D01*
X320116Y198220D01*
X320207Y198083D01*
Y194817D01*
X323265D01*
X324499Y193584D01*
X324308Y193122D01*
X236411D01*
X236387Y193622D01*
X236661Y193649D01*
X238259Y194133D01*
X239731Y194920D01*
X241021Y195979D01*
X242080Y197269D01*
X242867Y198741D01*
X243351Y200339D01*
X243515Y202000D01*
X243351Y203661D01*
X242867Y205259D01*
X242080Y206731D01*
X241021Y208021D01*
X239731Y209080D01*
X238259Y209867D01*
X236661Y210351D01*
X235000Y210515D01*
X233339Y210351D01*
X231741Y209867D01*
X230269Y209080D01*
X228979Y208021D01*
X227920Y206731D01*
X227133Y205259D01*
X226649Y203661D01*
X226622Y203387D01*
X226121Y203411D01*
Y256589D01*
X226622Y256613D01*
X226649Y256339D01*
X227133Y254741D01*
X227920Y253269D01*
X228979Y251979D01*
X230269Y250920D01*
X231741Y250133D01*
X233339Y249649D01*
X235000Y249485D01*
X236661Y249649D01*
X238259Y250133D01*
X239731Y250920D01*
X241021Y251979D01*
X242080Y253269D01*
X242867Y254741D01*
X243351Y256339D01*
X243515Y258000D01*
X243351Y259661D01*
X242867Y261259D01*
X242080Y262731D01*
X241021Y264021D01*
X239731Y265080D01*
X238259Y265867D01*
X236661Y266351D01*
X235000Y266515D01*
X233339Y266351D01*
X231741Y265867D01*
X230269Y265080D01*
X228979Y264021D01*
X227920Y262731D01*
X227133Y261259D01*
X226649Y259661D01*
X226622Y259387D01*
X226121Y259411D01*
Y310589D01*
X226622Y310613D01*
X226649Y310339D01*
X227133Y308741D01*
X227920Y307269D01*
X228979Y305979D01*
X230269Y304920D01*
X231741Y304133D01*
X233339Y303649D01*
X235000Y303485D01*
X236661Y303649D01*
X238259Y304133D01*
X239731Y304920D01*
X241021Y305979D01*
X242080Y307269D01*
X242867Y308741D01*
X243351Y310339D01*
X243515Y312000D01*
X243351Y313661D01*
X242867Y315259D01*
X242080Y316731D01*
X241021Y318021D01*
X239731Y319080D01*
X238259Y319867D01*
X236661Y320351D01*
X236387Y320378D01*
X236411Y320879D01*
X332388D01*
X332628Y320478D01*
D02*
G37*
G36*
X380235Y320378D02*
X380107Y320293D01*
X380107Y320293D01*
X376207Y316393D01*
X375964Y316029D01*
X375878Y315600D01*
X375879Y315600D01*
Y301265D01*
X374535Y299921D01*
X366665D01*
X365220Y301366D01*
X365507Y302060D01*
X365631Y303000D01*
X365507Y303940D01*
X365145Y304816D01*
X364567Y305568D01*
X363815Y306145D01*
X362940Y306507D01*
X362000Y306631D01*
X361060Y306507D01*
X360185Y306145D01*
X359433Y305568D01*
X358855Y304816D01*
X358493Y303940D01*
X358384Y303111D01*
X357928Y302859D01*
X357222Y303566D01*
Y312497D01*
X357296Y312701D01*
X357677Y312931D01*
X362517D01*
Y314378D01*
X363235D01*
Y312931D01*
X367978D01*
Y318069D01*
X363235D01*
Y316621D01*
X362517D01*
Y318069D01*
X357381D01*
Y313619D01*
X356934Y313463D01*
X356880Y313462D01*
X355824Y314518D01*
Y318069D01*
X352274D01*
X351037Y319305D01*
X350673Y319548D01*
X350244Y319633D01*
X350244Y319633D01*
X345225D01*
X344872Y319987D01*
Y320490D01*
X345140Y320879D01*
X380083D01*
X380235Y320378D01*
D02*
G37*
%LPC*%
G36*
X507280Y234206D02*
X506694Y234090D01*
X505803D01*
X505223Y233974D01*
X504732Y233646D01*
X504403Y233155D01*
X504288Y232575D01*
X504403Y231995D01*
X504732Y231504D01*
Y231087D01*
X504403Y230595D01*
X504288Y230016D01*
X504403Y229436D01*
X504732Y228944D01*
X505223Y228616D01*
X505803Y228501D01*
X506695D01*
X507280Y228384D01*
X521029D01*
X521350Y227609D01*
X521951Y226825D01*
X522735Y226224D01*
X523647Y225847D01*
X524626Y225718D01*
X525605Y225847D01*
X526517Y226224D01*
X527301Y226825D01*
X527902Y227609D01*
X528279Y228521D01*
X528311Y228759D01*
X528815D01*
X528847Y228521D01*
X529224Y227609D01*
X529258Y227565D01*
X523104Y221411D01*
X512053D01*
X511761Y221911D01*
X511846Y222339D01*
X511730Y222918D01*
X511402Y223410D01*
X510911Y223738D01*
X510331Y223853D01*
X507865D01*
X507280Y223970D01*
X506694Y223853D01*
X505803D01*
X505223Y223738D01*
X504732Y223410D01*
X504403Y222918D01*
X504288Y222339D01*
X504403Y221759D01*
X504732Y221267D01*
Y220851D01*
X504403Y220359D01*
X504288Y219779D01*
X504403Y219200D01*
X504647Y218836D01*
X504699Y218500D01*
X504647Y218164D01*
X504403Y217800D01*
X504288Y217220D01*
X504403Y216641D01*
X504732Y216149D01*
Y215733D01*
X504403Y215241D01*
X504288Y214661D01*
X504403Y214082D01*
X504732Y213590D01*
X505223Y213262D01*
X505803Y213146D01*
X506694D01*
X507280Y213030D01*
X507865Y213146D01*
X510331D01*
X510911Y213262D01*
X511402Y213590D01*
X511730Y214082D01*
X511846Y214661D01*
X511804Y214869D01*
X512201Y215369D01*
X524324D01*
X526276Y213417D01*
X525993Y212993D01*
X525605Y213154D01*
X524626Y213282D01*
X523647Y213154D01*
X522735Y212776D01*
X521951Y212175D01*
X521350Y211391D01*
X520972Y210479D01*
X520844Y209500D01*
X520884Y209191D01*
X520308Y208615D01*
X507280D01*
X506695Y208499D01*
X505803D01*
X505223Y208384D01*
X504732Y208055D01*
X504403Y207564D01*
X504288Y206984D01*
X504403Y206404D01*
X504732Y205913D01*
Y205496D01*
X504403Y205005D01*
X504288Y204425D01*
X504403Y203846D01*
X504732Y203354D01*
X505223Y203026D01*
X505803Y202910D01*
X506694D01*
X507280Y202794D01*
X507865Y202910D01*
X510331D01*
X510911Y203026D01*
X511402Y203354D01*
X511730Y203846D01*
X511846Y204425D01*
X511761Y204853D01*
X512053Y205353D01*
X520984D01*
X521608Y205477D01*
X522138Y205831D01*
X522620Y206313D01*
X522735Y206224D01*
X523647Y205847D01*
X524626Y205718D01*
X525605Y205847D01*
X526517Y206224D01*
X527301Y206825D01*
X527902Y207609D01*
X528279Y208521D01*
X528311Y208759D01*
X528815D01*
X528847Y208521D01*
X529224Y207609D01*
X529825Y206825D01*
X530609Y206224D01*
X531521Y205847D01*
X532500Y205718D01*
X533479Y205847D01*
X534391Y206224D01*
X535175Y206825D01*
X535776Y207609D01*
X536154Y208521D01*
X536282Y209500D01*
X536154Y210479D01*
X535776Y211391D01*
X535175Y212175D01*
X534391Y212776D01*
X533479Y213154D01*
X532500Y213282D01*
X531521Y213154D01*
X531261Y213046D01*
X526154Y218154D01*
X525624Y218507D01*
X525538Y218524D01*
X525374Y219067D01*
X532080Y225773D01*
X532500Y225718D01*
X533479Y225847D01*
X534391Y226224D01*
X535175Y226825D01*
X535776Y227609D01*
X536154Y228521D01*
X536282Y229500D01*
X536154Y230479D01*
X535776Y231391D01*
X535175Y232174D01*
X534391Y232776D01*
X533479Y233154D01*
X532500Y233282D01*
X531521Y233154D01*
X530609Y232776D01*
X529825Y232174D01*
X529224Y231391D01*
X528847Y230479D01*
X528815Y230241D01*
X528311D01*
X528279Y230479D01*
X527902Y231391D01*
X527301Y232174D01*
X526517Y232776D01*
X525605Y233154D01*
X524626Y233282D01*
X523647Y233154D01*
X522735Y232776D01*
X521951Y232174D01*
X521547Y231647D01*
X512053D01*
X511761Y232147D01*
X511846Y232575D01*
X511730Y233155D01*
X511402Y233646D01*
X510911Y233974D01*
X510331Y234090D01*
X507865D01*
X507280Y234206D01*
D02*
G37*
G36*
X508378Y313482D02*
X507793Y313365D01*
X506902D01*
X506322Y313250D01*
X505830Y312922D01*
X505502Y312430D01*
X505387Y311850D01*
X505502Y311271D01*
X505830Y310779D01*
Y310363D01*
X505502Y309871D01*
X505387Y309291D01*
X505502Y308712D01*
X505830Y308220D01*
X506322Y307892D01*
X506902Y307776D01*
X508415D01*
X509000Y307660D01*
X509585Y307776D01*
X509899D01*
X510484Y307660D01*
X511069Y307776D01*
X511429D01*
X512009Y307892D01*
X512500Y308220D01*
X512600Y308369D01*
X520963D01*
X521071Y307551D01*
X521449Y306638D01*
X522050Y305855D01*
X522833Y305254D01*
X523745Y304876D01*
X524724Y304747D01*
X525703Y304876D01*
X526616Y305254D01*
X527399Y305855D01*
X528000Y306638D01*
X528378Y307551D01*
X528409Y307789D01*
X528914D01*
X528945Y307551D01*
X529323Y306638D01*
X529326Y306633D01*
X524324Y301631D01*
X512941D01*
X512829Y302194D01*
X512500Y302685D01*
X512009Y303014D01*
X511429Y303129D01*
X508963D01*
X508378Y303246D01*
X507793Y303129D01*
X506902D01*
X506322Y303014D01*
X505830Y302685D01*
X505502Y302194D01*
X505387Y301614D01*
X505502Y301034D01*
X505830Y300543D01*
Y300126D01*
X505502Y299635D01*
X505387Y299055D01*
X505502Y298475D01*
X505745Y298112D01*
X505798Y297776D01*
X505745Y297440D01*
X505502Y297076D01*
X505387Y296496D01*
X505502Y295916D01*
X505830Y295425D01*
Y295008D01*
X505502Y294517D01*
X505387Y293937D01*
X505502Y293357D01*
X505830Y292866D01*
X506322Y292537D01*
X506902Y292422D01*
X507793D01*
X508378Y292306D01*
X508963Y292422D01*
X511429D01*
X512009Y292537D01*
X512500Y292866D01*
X512829Y293357D01*
X512944Y293937D01*
X512944Y293937D01*
X513261Y294324D01*
X525369D01*
X529308Y290385D01*
X528945Y289508D01*
X528914Y289270D01*
X528409D01*
X528378Y289508D01*
X528000Y290421D01*
X527399Y291204D01*
X526616Y291805D01*
X525703Y292183D01*
X524724Y292312D01*
X523745Y292183D01*
X522833Y291805D01*
X522050Y291204D01*
X521449Y290421D01*
X521443Y290407D01*
X516776D01*
X516151Y290283D01*
X515622Y289929D01*
X513584Y287891D01*
X508378D01*
X507793Y287775D01*
X506902D01*
X506322Y287659D01*
X505830Y287331D01*
X505502Y286840D01*
X505387Y286260D01*
X505502Y285680D01*
X505830Y285189D01*
Y284772D01*
X505502Y284280D01*
X505387Y283701D01*
X505502Y283121D01*
X505830Y282629D01*
X506322Y282301D01*
X506902Y282186D01*
X507793D01*
X508378Y282069D01*
X508963Y282186D01*
X511429D01*
X512009Y282301D01*
X512500Y282629D01*
X512829Y283121D01*
X512944Y283701D01*
X512859Y284128D01*
X513152Y284629D01*
X514260D01*
X514884Y284753D01*
X515413Y285106D01*
X517451Y287144D01*
X521239D01*
X521449Y286638D01*
X522050Y285855D01*
X522833Y285254D01*
X523745Y284876D01*
X524724Y284747D01*
X525703Y284876D01*
X526616Y285254D01*
X527399Y285855D01*
X528000Y286638D01*
X528378Y287550D01*
X528409Y287789D01*
X528914D01*
X528945Y287550D01*
X529323Y286638D01*
X529924Y285855D01*
X530707Y285254D01*
X531619Y284876D01*
X532598Y284747D01*
X533577Y284876D01*
X534490Y285254D01*
X535273Y285855D01*
X535874Y286638D01*
X536252Y287550D01*
X536381Y288529D01*
X536252Y289508D01*
X535874Y290421D01*
X535273Y291204D01*
X534490Y291805D01*
X533577Y292183D01*
X532598Y292312D01*
X532065Y292242D01*
X527199Y297109D01*
X526669Y297462D01*
X526045Y297586D01*
X512950D01*
X512711Y298054D01*
X512924Y298369D01*
X525000D01*
X525624Y298493D01*
X526154Y298847D01*
X532118Y304810D01*
X532598Y304747D01*
X533577Y304876D01*
X534490Y305254D01*
X535273Y305855D01*
X535874Y306638D01*
X536252Y307551D01*
X536381Y308529D01*
X536252Y309508D01*
X535874Y310421D01*
X535273Y311204D01*
X534490Y311805D01*
X533577Y312183D01*
X532598Y312312D01*
X531619Y312183D01*
X530707Y311805D01*
X529924Y311204D01*
X529323Y310421D01*
X528945Y309508D01*
X528914Y309270D01*
X528409D01*
X528378Y309508D01*
X528000Y310421D01*
X527399Y311204D01*
X526616Y311805D01*
X525703Y312183D01*
X524724Y312312D01*
X523745Y312183D01*
X522833Y311805D01*
X522607Y311631D01*
X513124D01*
X512944Y311850D01*
X512829Y312430D01*
X512500Y312922D01*
X512009Y313250D01*
X511429Y313365D01*
X508963D01*
X508378Y313482D01*
D02*
G37*
G36*
X508000Y273781D02*
X507415Y273664D01*
X506524D01*
X505944Y273549D01*
X505452Y273221D01*
X505124Y272729D01*
X505009Y272150D01*
X505124Y271570D01*
X505452Y271078D01*
Y270662D01*
X505124Y270170D01*
X505009Y269590D01*
X505124Y269011D01*
X505452Y268519D01*
X505944Y268191D01*
X506524Y268076D01*
X507278D01*
X507376Y268010D01*
X508000Y267886D01*
X520688D01*
X520693Y267850D01*
X521071Y266937D01*
X521672Y266154D01*
X522455Y265553D01*
X523368Y265175D01*
X524346Y265046D01*
X525325Y265175D01*
X526238Y265553D01*
X527021Y266154D01*
X527622Y266937D01*
X528000Y267850D01*
X528031Y268088D01*
X528536D01*
X528567Y267850D01*
X528945Y266937D01*
X529243Y266549D01*
X526238Y263545D01*
X508000D01*
X507415Y263428D01*
X506524D01*
X505944Y263313D01*
X505452Y262985D01*
X505124Y262493D01*
X505009Y261913D01*
X505124Y261334D01*
X505452Y260842D01*
Y260425D01*
X505124Y259934D01*
X505009Y259354D01*
X505124Y258775D01*
X505367Y258411D01*
X505420Y258075D01*
X505367Y257739D01*
X505124Y257375D01*
X505009Y256795D01*
X505124Y256216D01*
X505452Y255724D01*
Y255307D01*
X505124Y254816D01*
X505009Y254236D01*
X505124Y253657D01*
X505452Y253165D01*
X505944Y252837D01*
X506524Y252721D01*
X507415D01*
X508000Y252605D01*
X522357D01*
X522457Y252105D01*
X522455Y252104D01*
X521672Y251503D01*
X521071Y250720D01*
X520693Y249808D01*
X520564Y248829D01*
X520599Y248566D01*
X520269Y248190D01*
X508000D01*
X507415Y248074D01*
X506524D01*
X505944Y247959D01*
X505452Y247630D01*
X505124Y247139D01*
X505009Y246559D01*
X505124Y245979D01*
X505452Y245488D01*
Y245071D01*
X505124Y244580D01*
X505009Y244000D01*
X505124Y243420D01*
X505452Y242929D01*
X505944Y242600D01*
X506524Y242485D01*
X507415D01*
X508000Y242369D01*
X508585Y242485D01*
X511051D01*
X511631Y242600D01*
X512122Y242929D01*
X512451Y243420D01*
X512566Y244000D01*
X512481Y244428D01*
X512774Y244928D01*
X522831D01*
X523455Y245052D01*
X523595Y245145D01*
X524346Y245046D01*
X525325Y245175D01*
X526238Y245553D01*
X527021Y246154D01*
X527622Y246937D01*
X528000Y247850D01*
X528031Y248088D01*
X528536D01*
X528567Y247850D01*
X528945Y246937D01*
X529546Y246154D01*
X530329Y245553D01*
X531241Y245175D01*
X532220Y245046D01*
X533199Y245175D01*
X534112Y245553D01*
X534895Y246154D01*
X535496Y246937D01*
X535874Y247850D01*
X536003Y248829D01*
X535874Y249808D01*
X535496Y250720D01*
X534895Y251503D01*
X534112Y252104D01*
X533199Y252482D01*
X532220Y252611D01*
X532018Y252584D01*
X529213Y255390D01*
X528683Y255743D01*
X528059Y255868D01*
X528029Y255862D01*
X528000Y255868D01*
X512774D01*
X512481Y256368D01*
X512566Y256795D01*
X512451Y257375D01*
X512208Y257739D01*
X512155Y258075D01*
X512208Y258411D01*
X512451Y258775D01*
X512566Y259354D01*
X512481Y259782D01*
X512774Y260282D01*
X526913D01*
X527538Y260406D01*
X528067Y260760D01*
X532374Y265067D01*
X533199Y265175D01*
X534112Y265553D01*
X534895Y266154D01*
X535496Y266937D01*
X535874Y267850D01*
X536003Y268829D01*
X535874Y269808D01*
X535496Y270720D01*
X534895Y271503D01*
X534112Y272104D01*
X533199Y272482D01*
X532220Y272611D01*
X531241Y272482D01*
X530329Y272104D01*
X529546Y271503D01*
X528945Y270720D01*
X528567Y269808D01*
X528536Y269569D01*
X528031D01*
X528000Y269808D01*
X527622Y270720D01*
X527021Y271503D01*
X526238Y272104D01*
X525325Y272482D01*
X524346Y272611D01*
X523368Y272482D01*
X522455Y272104D01*
X521672Y271503D01*
X521400Y271149D01*
X512701D01*
X512466Y271649D01*
X512566Y272150D01*
X512451Y272729D01*
X512122Y273221D01*
X511631Y273549D01*
X511051Y273664D01*
X508585D01*
X508000Y273781D01*
D02*
G37*
G36*
X352000Y246631D02*
X351060Y246507D01*
X350184Y246145D01*
X349432Y245567D01*
X348855Y244815D01*
X348493Y243940D01*
X348369Y243000D01*
X348493Y242060D01*
X348855Y241184D01*
X349432Y240433D01*
X350184Y239855D01*
X350879Y239568D01*
Y233076D01*
X350486Y232814D01*
X350022Y232119D01*
X349859Y231300D01*
X350022Y230481D01*
X350486Y229786D01*
X351181Y229322D01*
X352000Y229159D01*
X352819Y229322D01*
X353514Y229786D01*
X353978Y230481D01*
X354141Y231300D01*
X353978Y232119D01*
X353514Y232814D01*
X353121Y233076D01*
Y239568D01*
X353816Y239855D01*
X354568Y240433D01*
X355145Y241184D01*
X355507Y242060D01*
X355631Y243000D01*
X355507Y243940D01*
X355145Y244815D01*
X354568Y245567D01*
X353816Y246145D01*
X352940Y246507D01*
X352000Y246631D01*
D02*
G37*
G36*
X282000D02*
X281060Y246507D01*
X280185Y246145D01*
X279433Y245567D01*
X278855Y244815D01*
X278493Y243940D01*
X278369Y243000D01*
X278493Y242060D01*
X278855Y241184D01*
X279433Y240433D01*
X280185Y239855D01*
X281060Y239493D01*
X282000Y239369D01*
X282940Y239493D01*
X283816Y239855D01*
X284567Y240433D01*
X285145Y241184D01*
X285507Y242060D01*
X285631Y243000D01*
X285507Y243940D01*
X285145Y244815D01*
X284567Y245567D01*
X283816Y246145D01*
X282940Y246507D01*
X282000Y246631D01*
D02*
G37*
G36*
X272000D02*
X271060Y246507D01*
X270184Y246145D01*
X269432Y245567D01*
X268855Y244815D01*
X268493Y243940D01*
X268369Y243000D01*
X268493Y242060D01*
X268855Y241184D01*
X269432Y240433D01*
X270184Y239855D01*
X271060Y239493D01*
X272000Y239369D01*
X272940Y239493D01*
X273815Y239855D01*
X274568Y240433D01*
X275145Y241184D01*
X275507Y242060D01*
X275631Y243000D01*
X275507Y243940D01*
X275145Y244815D01*
X274568Y245567D01*
X273815Y246145D01*
X272940Y246507D01*
X272000Y246631D01*
D02*
G37*
G36*
X323769Y223183D02*
X320207D01*
Y216274D01*
X323769D01*
Y223183D01*
D02*
G37*
G36*
X318769Y201726D02*
X315207D01*
Y199917D01*
X315116Y199780D01*
X314961Y199000D01*
X315116Y198220D01*
X315207Y198083D01*
Y194817D01*
X318769D01*
Y198048D01*
X318884Y198220D01*
X319039Y199000D01*
X318884Y199780D01*
X318769Y199952D01*
Y201726D01*
D02*
G37*
G36*
X438000Y251141D02*
X437181Y250978D01*
X436486Y250514D01*
X436022Y249819D01*
X435859Y249000D01*
X436022Y248181D01*
X436486Y247486D01*
X437181Y247022D01*
X438000Y246859D01*
X438639Y246986D01*
X447617Y238008D01*
X447472Y237529D01*
X447215Y237478D01*
X446520Y237014D01*
X446056Y236319D01*
X445893Y235500D01*
X446056Y234681D01*
X446520Y233986D01*
X447215Y233522D01*
X448034Y233359D01*
X448052Y233362D01*
X463807Y217607D01*
X463807Y217607D01*
X464171Y217364D01*
X464600Y217278D01*
X464600Y217279D01*
X467439D01*
X467439Y217278D01*
X467868Y217364D01*
X468232Y217607D01*
X471737Y221112D01*
X475380D01*
X475390Y221106D01*
X475819Y221021D01*
X475933Y221043D01*
X476089Y220939D01*
X476669Y220824D01*
X481197D01*
X481777Y220939D01*
X482268Y221267D01*
X482596Y221759D01*
X482712Y222339D01*
X482596Y222918D01*
X482353Y223282D01*
X482301Y223618D01*
X482353Y223954D01*
X482596Y224318D01*
X482712Y224898D01*
X482596Y225477D01*
X482268Y225969D01*
Y226385D01*
X482596Y226877D01*
X482712Y227457D01*
X482596Y228036D01*
X482353Y228400D01*
X482301Y228736D01*
X482353Y229072D01*
X482596Y229436D01*
X482712Y230016D01*
X482596Y230595D01*
X482268Y231087D01*
Y231504D01*
X482596Y231995D01*
X482712Y232575D01*
X482596Y233155D01*
X482268Y233646D01*
X482153Y233723D01*
X481884Y234220D01*
X482039Y235000D01*
X481884Y235780D01*
X481442Y236442D01*
X480780Y236884D01*
X480000Y237039D01*
X479220Y236884D01*
X478558Y236442D01*
X478116Y235780D01*
X477961Y235000D01*
X478042Y234590D01*
X477647Y234090D01*
X476769D01*
Y240915D01*
X471042D01*
Y229707D01*
X459091D01*
X440084Y248713D01*
X440141Y249000D01*
X439978Y249819D01*
X439514Y250514D01*
X438819Y250978D01*
X438000Y251141D01*
D02*
G37*
G36*
X448000Y227576D02*
X446816Y227420D01*
X445712Y226963D01*
X444764Y226236D01*
X444037Y225288D01*
X443580Y224184D01*
X443424Y223000D01*
X443580Y221816D01*
X444037Y220712D01*
X444764Y219764D01*
X445712Y219037D01*
X446816Y218580D01*
X448000Y218424D01*
X449184Y218580D01*
X450288Y219037D01*
X451236Y219764D01*
X451963Y220712D01*
X452420Y221816D01*
X452576Y223000D01*
X452420Y224184D01*
X451963Y225288D01*
X451236Y226236D01*
X450288Y226963D01*
X449184Y227420D01*
X448000Y227576D01*
D02*
G37*
G36*
X312000Y246631D02*
X311060Y246507D01*
X310185Y246145D01*
X309433Y245567D01*
X308855Y244815D01*
X308493Y243940D01*
X308369Y243000D01*
X308493Y242060D01*
X308855Y241184D01*
X309433Y240433D01*
X310185Y239855D01*
X311060Y239493D01*
X312000Y239369D01*
X312940Y239493D01*
X313815Y239855D01*
X314567Y240433D01*
X315145Y241184D01*
X315507Y242060D01*
X315631Y243000D01*
X315507Y243940D01*
X315145Y244815D01*
X314567Y245567D01*
X313815Y246145D01*
X312940Y246507D01*
X312000Y246631D01*
D02*
G37*
G36*
Y306631D02*
X311060Y306507D01*
X310185Y306145D01*
X309433Y305568D01*
X308855Y304816D01*
X308493Y303940D01*
X308369Y303000D01*
X308493Y302060D01*
X308855Y301185D01*
X309433Y300432D01*
X310185Y299855D01*
X311060Y299493D01*
X312000Y299369D01*
X312940Y299493D01*
X313815Y299855D01*
X314567Y300432D01*
X315145Y301185D01*
X315507Y302060D01*
X315631Y303000D01*
X315507Y303940D01*
X315145Y304816D01*
X314567Y305568D01*
X313815Y306145D01*
X312940Y306507D01*
X312000Y306631D01*
D02*
G37*
G36*
X302000Y319631D02*
X301060Y319507D01*
X300184Y319145D01*
X299432Y318567D01*
X298855Y317815D01*
X298493Y316940D01*
X298369Y316000D01*
X298493Y315060D01*
X298855Y314184D01*
X299432Y313433D01*
X300184Y312855D01*
X300879Y312568D01*
Y306432D01*
X300184Y306145D01*
X299432Y305568D01*
X298855Y304816D01*
X298493Y303940D01*
X298369Y303000D01*
X298493Y302060D01*
X298855Y301185D01*
X299432Y300432D01*
X300184Y299855D01*
X301060Y299493D01*
X302000Y299369D01*
X302940Y299493D01*
X303816Y299855D01*
X304568Y300432D01*
X305145Y301185D01*
X305507Y302060D01*
X305631Y303000D01*
X305507Y303940D01*
X305145Y304816D01*
X304568Y305568D01*
X303816Y306145D01*
X303121Y306432D01*
Y312568D01*
X303816Y312855D01*
X304568Y313433D01*
X305145Y314184D01*
X305507Y315060D01*
X305631Y316000D01*
X305507Y316940D01*
X305145Y317815D01*
X304568Y318567D01*
X303816Y319145D01*
X302940Y319507D01*
X302000Y319631D01*
D02*
G37*
G36*
X322000Y306631D02*
X321060Y306507D01*
X320184Y306145D01*
X319432Y305568D01*
X318855Y304816D01*
X318493Y303940D01*
X318369Y303000D01*
X318493Y302060D01*
X318855Y301185D01*
X319432Y300432D01*
X320184Y299855D01*
X321060Y299493D01*
X322000Y299369D01*
X322940Y299493D01*
X323815Y299855D01*
X324568Y300432D01*
X325145Y301185D01*
X325507Y302060D01*
X325631Y303000D01*
X325507Y303940D01*
X325145Y304816D01*
X324568Y305568D01*
X323815Y306145D01*
X322940Y306507D01*
X322000Y306631D01*
D02*
G37*
G36*
X262000Y319631D02*
X261060Y319507D01*
X260185Y319145D01*
X259433Y318567D01*
X258855Y317815D01*
X258493Y316940D01*
X258369Y316000D01*
X258493Y315060D01*
X258855Y314184D01*
X259433Y313433D01*
X260185Y312855D01*
X260878Y312568D01*
Y306432D01*
X260185Y306145D01*
X259433Y305568D01*
X259121Y305162D01*
X258622Y305332D01*
Y310500D01*
X258536Y310929D01*
X258293Y311293D01*
X258293Y311293D01*
X255600Y313986D01*
Y319600D01*
X248400D01*
Y312400D01*
X254014D01*
X256379Y310035D01*
Y247500D01*
X256378Y247500D01*
X256464Y247071D01*
X256707Y246707D01*
X258780Y244634D01*
X258493Y243940D01*
X258369Y243000D01*
X258493Y242060D01*
X258855Y241184D01*
X259433Y240433D01*
X260185Y239855D01*
X261060Y239493D01*
X262000Y239369D01*
X262940Y239493D01*
X263815Y239855D01*
X264567Y240433D01*
X265145Y241184D01*
X265507Y242060D01*
X265631Y243000D01*
X265507Y243940D01*
X265145Y244815D01*
X264567Y245567D01*
X263815Y246145D01*
X262940Y246507D01*
X262000Y246631D01*
X261060Y246507D01*
X260366Y246220D01*
X258622Y247965D01*
Y300668D01*
X259121Y300838D01*
X259433Y300432D01*
X260185Y299855D01*
X261060Y299493D01*
X262000Y299369D01*
X262940Y299493D01*
X263815Y299855D01*
X264567Y300432D01*
X265145Y301185D01*
X265507Y302060D01*
X265631Y303000D01*
X265507Y303940D01*
X265145Y304816D01*
X264567Y305568D01*
X263815Y306145D01*
X263122Y306432D01*
Y312568D01*
X263815Y312855D01*
X264567Y313433D01*
X265145Y314184D01*
X265507Y315060D01*
X265631Y316000D01*
X265507Y316940D01*
X265145Y317815D01*
X264567Y318567D01*
X263815Y319145D01*
X262940Y319507D01*
X262000Y319631D01*
D02*
G37*
G36*
X292000D02*
X291060Y319507D01*
X290184Y319145D01*
X289433Y318567D01*
X288855Y317815D01*
X288493Y316940D01*
X288369Y316000D01*
X288493Y315060D01*
X288855Y314184D01*
X289433Y313433D01*
X290184Y312855D01*
X290879Y312568D01*
Y306432D01*
X290184Y306145D01*
X289433Y305568D01*
X288855Y304816D01*
X288493Y303940D01*
X288369Y303000D01*
X288493Y302060D01*
X288855Y301185D01*
X289433Y300432D01*
X290184Y299855D01*
X291060Y299493D01*
X292000Y299369D01*
X292940Y299493D01*
X293815Y299855D01*
X294567Y300432D01*
X295145Y301185D01*
X295507Y302060D01*
X295631Y303000D01*
X295507Y303940D01*
X295145Y304816D01*
X294567Y305568D01*
X293815Y306145D01*
X293122Y306432D01*
Y312568D01*
X293815Y312855D01*
X294567Y313433D01*
X295145Y314184D01*
X295507Y315060D01*
X295631Y316000D01*
X295507Y316940D01*
X295145Y317815D01*
X294567Y318567D01*
X293815Y319145D01*
X292940Y319507D01*
X292000Y319631D01*
D02*
G37*
G36*
X402000Y246631D02*
X401060Y246507D01*
X400184Y246145D01*
X399432Y245567D01*
X398855Y244815D01*
X398493Y243940D01*
X398369Y243000D01*
X398493Y242060D01*
X398855Y241184D01*
X399432Y240433D01*
X400184Y239855D01*
X401060Y239493D01*
X402000Y239369D01*
X402940Y239493D01*
X403816Y239855D01*
X404567Y240433D01*
X405145Y241184D01*
X405507Y242060D01*
X405631Y243000D01*
X405507Y243940D01*
X405145Y244815D01*
X404567Y245567D01*
X403816Y246145D01*
X402940Y246507D01*
X402000Y246631D01*
D02*
G37*
G36*
X382000D02*
X381060Y246507D01*
X380185Y246145D01*
X379433Y245567D01*
X378855Y244815D01*
X378493Y243940D01*
X378369Y243000D01*
X378493Y242060D01*
X378855Y241184D01*
X379433Y240433D01*
X380185Y239855D01*
X381060Y239493D01*
X382000Y239369D01*
X382940Y239493D01*
X383816Y239855D01*
X384567Y240433D01*
X385145Y241184D01*
X385507Y242060D01*
X385631Y243000D01*
X385507Y243940D01*
X385145Y244815D01*
X384567Y245567D01*
X383816Y246145D01*
X382940Y246507D01*
X382000Y246631D01*
D02*
G37*
G36*
X282000Y319631D02*
X281060Y319507D01*
X280185Y319145D01*
X279433Y318567D01*
X278855Y317815D01*
X278493Y316940D01*
X278369Y316000D01*
X278493Y315060D01*
X278855Y314184D01*
X279433Y313433D01*
X280185Y312855D01*
X280878Y312568D01*
Y306432D01*
X280185Y306145D01*
X279433Y305568D01*
X278855Y304816D01*
X278493Y303940D01*
X278369Y303000D01*
X278493Y302060D01*
X278855Y301185D01*
X279433Y300432D01*
X280185Y299855D01*
X281060Y299493D01*
X282000Y299369D01*
X282940Y299493D01*
X283816Y299855D01*
X284567Y300432D01*
X285145Y301185D01*
X285507Y302060D01*
X285631Y303000D01*
X285507Y303940D01*
X285145Y304816D01*
X284567Y305568D01*
X283816Y306145D01*
X283121Y306432D01*
Y312568D01*
X283816Y312855D01*
X284567Y313433D01*
X285145Y314184D01*
X285507Y315060D01*
X285631Y316000D01*
X285507Y316940D01*
X285145Y317815D01*
X284567Y318567D01*
X283816Y319145D01*
X282940Y319507D01*
X282000Y319631D01*
D02*
G37*
G36*
X272000D02*
X271060Y319507D01*
X270184Y319145D01*
X269432Y318567D01*
X268855Y317815D01*
X268493Y316940D01*
X268369Y316000D01*
X268493Y315060D01*
X268855Y314184D01*
X269432Y313433D01*
X270184Y312855D01*
X270879Y312568D01*
Y306432D01*
X270184Y306145D01*
X269432Y305568D01*
X268855Y304816D01*
X268493Y303940D01*
X268369Y303000D01*
X268493Y302060D01*
X268855Y301185D01*
X269432Y300432D01*
X270184Y299855D01*
X271060Y299493D01*
X272000Y299369D01*
X272940Y299493D01*
X273815Y299855D01*
X274568Y300432D01*
X275145Y301185D01*
X275507Y302060D01*
X275631Y303000D01*
X275507Y303940D01*
X275145Y304816D01*
X274568Y305568D01*
X273815Y306145D01*
X273122Y306432D01*
Y312568D01*
X273815Y312855D01*
X274568Y313433D01*
X275145Y314184D01*
X275507Y315060D01*
X275631Y316000D01*
X275507Y316940D01*
X275145Y317815D01*
X274568Y318567D01*
X273815Y319145D01*
X272940Y319507D01*
X272000Y319631D01*
D02*
G37*
%LPD*%
D10*
X319488Y209000D02*
D03*
D11*
X311988Y198272D02*
D03*
X316988D02*
D03*
X321988D02*
D03*
X326988D02*
D03*
X311988Y219728D02*
D03*
X316988D02*
D03*
X321988D02*
D03*
X326988D02*
D03*
D12*
X311488Y226244D02*
D03*
Y231756D02*
D03*
X328488Y226244D02*
D03*
Y231756D02*
D03*
X335000Y198000D02*
D03*
Y203512D02*
D03*
X317155Y231756D02*
D03*
Y226244D02*
D03*
X322821D02*
D03*
Y231756D02*
D03*
X342500Y313000D02*
D03*
Y318512D02*
D03*
X335000Y312988D02*
D03*
Y318500D02*
D03*
X474220Y259331D02*
D03*
Y253819D02*
D03*
X473500Y219756D02*
D03*
Y214244D02*
D03*
X474000Y298756D02*
D03*
Y293244D02*
D03*
D13*
X377000Y210000D02*
D03*
Y198779D02*
D03*
D14*
X359874Y200000D02*
D03*
X344126D02*
D03*
D15*
X377000Y232024D02*
D03*
Y221000D02*
D03*
D16*
X361417Y222000D02*
D03*
X338583D02*
D03*
D17*
X371905Y315500D02*
D03*
X365606D02*
D03*
X444047Y235366D02*
D03*
X437748D02*
D03*
D18*
X468000Y299150D02*
D03*
Y292850D02*
D03*
D19*
X479654Y272150D02*
D03*
Y269590D02*
D03*
Y267032D02*
D03*
Y264472D02*
D03*
Y261913D02*
D03*
Y259354D02*
D03*
Y256795D02*
D03*
Y254236D02*
D03*
Y251677D02*
D03*
Y249118D02*
D03*
Y246559D02*
D03*
Y244000D02*
D03*
X508787Y272150D02*
D03*
Y269590D02*
D03*
Y267032D02*
D03*
Y264472D02*
D03*
Y261913D02*
D03*
Y259354D02*
D03*
Y256795D02*
D03*
Y254236D02*
D03*
Y251677D02*
D03*
Y249118D02*
D03*
Y246559D02*
D03*
Y244000D02*
D03*
X478933Y232575D02*
D03*
Y230016D02*
D03*
Y227457D02*
D03*
Y224898D02*
D03*
Y222339D02*
D03*
Y219779D02*
D03*
Y217220D02*
D03*
Y214661D02*
D03*
Y212102D02*
D03*
Y209543D02*
D03*
Y206984D02*
D03*
Y204425D02*
D03*
X508067Y232575D02*
D03*
Y230016D02*
D03*
Y227457D02*
D03*
Y224898D02*
D03*
Y222339D02*
D03*
Y219779D02*
D03*
Y217220D02*
D03*
Y214661D02*
D03*
Y212102D02*
D03*
Y209543D02*
D03*
Y206984D02*
D03*
Y204425D02*
D03*
X480031Y311850D02*
D03*
Y309291D02*
D03*
Y306732D02*
D03*
Y304173D02*
D03*
Y301614D02*
D03*
Y299055D02*
D03*
Y296496D02*
D03*
Y293937D02*
D03*
Y291378D02*
D03*
Y288819D02*
D03*
Y286260D02*
D03*
Y283701D02*
D03*
X509165Y311850D02*
D03*
Y309291D02*
D03*
Y306732D02*
D03*
Y304173D02*
D03*
Y301614D02*
D03*
Y299055D02*
D03*
Y296496D02*
D03*
Y293937D02*
D03*
Y291378D02*
D03*
Y288819D02*
D03*
Y286260D02*
D03*
Y283701D02*
D03*
D20*
X353256Y315500D02*
D03*
X359949D02*
D03*
X424807Y235366D02*
D03*
X431500D02*
D03*
D21*
X444513Y308123D02*
D03*
Y314816D02*
D03*
X437525Y308123D02*
D03*
Y314816D02*
D03*
X430538Y308123D02*
D03*
Y314816D02*
D03*
X423550Y308123D02*
D03*
Y314816D02*
D03*
D22*
X463189Y274000D02*
D03*
X475000D02*
D03*
X462094Y235000D02*
D03*
X473906D02*
D03*
X463095Y314000D02*
D03*
X474905D02*
D03*
D23*
X392000Y297000D02*
X409000Y280000D01*
X362202Y297000D02*
X392000D01*
X356100Y303102D02*
X362202Y297000D01*
X377000Y300800D02*
Y315600D01*
X375000Y298800D02*
X377000Y300800D01*
X366200Y298800D02*
X375000D01*
X362000Y303000D02*
X366200Y298800D01*
X356100Y303102D02*
Y312656D01*
X313966Y234234D02*
X333089D01*
X311488Y231756D02*
X313966Y234234D01*
X333089D02*
X337235Y230088D01*
X352835Y222000D02*
X361417D01*
X344747Y230088D02*
X352835Y222000D01*
X337235Y230088D02*
X344747D01*
X446263Y265000D02*
X462145Y249118D01*
X438323Y265000D02*
X446263D01*
X462145Y249118D02*
X479654D01*
X333500Y254500D02*
X427823D01*
X438323Y265000D01*
X438000Y249000D02*
X438211D01*
X377000Y221000D02*
X394183D01*
X401183Y228000D01*
X416893D01*
X436541Y208352D01*
X465237Y200500D02*
X480536D01*
X457385Y208352D02*
X465237Y200500D01*
X436541Y208352D02*
X457385D01*
X461600Y206400D02*
X475836D01*
X458048Y209952D02*
X461600Y206400D01*
X440013Y209952D02*
X458048D01*
X418500Y231465D02*
X440013Y209952D01*
X476817Y214661D02*
X479720D01*
X480536Y200500D02*
X483183Y203147D01*
Y212925D01*
X481446Y214661D02*
X483183Y212925D01*
X478933Y214661D02*
X481446D01*
X418500Y231465D02*
Y236400D01*
X449000Y275000D02*
X470181Y253819D01*
X455000Y281000D02*
X466850Y292850D01*
X444000Y280000D02*
X449000Y275000D01*
X455000Y281000D01*
X454677D02*
X455000D01*
X446677Y289000D02*
X454677Y281000D01*
X428000Y289000D02*
X446677D01*
X477120Y293364D02*
X477693Y293937D01*
X476945Y293364D02*
X477120D01*
X476825Y293244D02*
X476945Y293364D01*
X474000Y293244D02*
X476825D01*
X473606Y292850D02*
X474000Y293244D01*
X468000Y292850D02*
X473606D01*
X475000Y244000D02*
X479654D01*
X438211Y249000D02*
X458626Y228585D01*
X461766Y211766D02*
X475727D01*
X461000Y211000D02*
X461766Y211766D01*
X447000Y214000D02*
X468551D01*
X475727Y211766D02*
X476064Y212102D01*
X468551Y214000D02*
X471273Y216722D01*
X428432Y232569D02*
X447000Y214000D01*
X466000Y221000D02*
X469324Y224324D01*
X464600Y218400D02*
X467439D01*
X448034Y234966D02*
X464600Y218400D01*
X467439D02*
X471273Y222234D01*
X431000Y242000D02*
X431054D01*
Y240413D02*
Y242000D01*
X428432Y237790D02*
X431054Y240413D01*
X428432Y232569D02*
Y237790D01*
X445244Y298756D02*
X468300D01*
X475727Y216722D02*
X475824Y216625D01*
X471273Y216722D02*
X475727D01*
X418500Y236400D02*
X424367Y242267D01*
X475824Y216625D02*
X475847Y216647D01*
X475824Y216625D02*
Y216625D01*
X480873Y216647D02*
X489400Y225174D01*
X475847Y216647D02*
X480873D01*
X468300Y298756D02*
X470856Y296200D01*
X477104D01*
X474891Y303214D02*
X475850Y304173D01*
X471494Y303214D02*
X474891D01*
X471087Y303621D02*
X471494Y303214D01*
X462379Y303621D02*
X471087D01*
X456400Y309600D02*
X462379Y303621D01*
X476786Y306000D02*
X478092Y307306D01*
X480245D01*
X474000Y306000D02*
X476786D01*
X480245Y307306D02*
X480819Y306732D01*
X475850Y304173D02*
X480819D01*
X466850Y292850D02*
X468000D01*
X409000Y280000D02*
X444000D01*
X353256Y315500D02*
X356100Y312656D01*
X322000Y243000D02*
X333500Y254500D01*
X370000Y230480D02*
Y241000D01*
Y230480D02*
X377000Y223480D01*
X370000Y241000D02*
X372000Y243000D01*
X377000Y221000D02*
Y223480D01*
X352000Y231300D02*
Y243000D01*
X369401Y227401D02*
Y228599D01*
X362000Y236000D02*
X369401Y228599D01*
X362000Y236000D02*
Y243000D01*
X299250Y220998D02*
Y239952D01*
X295000Y216748D02*
X299250Y220998D01*
X369500Y243000D02*
X372000D01*
X337000Y234000D02*
Y239000D01*
X333000Y243000D02*
X337000Y239000D01*
X332000Y243000D02*
X333000D01*
X353000Y202949D02*
X354497Y204447D01*
X353000Y198000D02*
Y202949D01*
X348644Y193644D02*
X353000Y198000D01*
X326025Y193644D02*
X348644D01*
X379892Y204447D02*
X398130Y222685D01*
X354497Y204447D02*
X379892D01*
X398130Y222685D02*
X407000D01*
X322000Y197669D02*
Y199000D01*
Y197669D02*
X326025Y193644D01*
X326988Y198272D02*
X334728D01*
X479147Y206411D02*
X479720Y206984D01*
X475847Y206411D02*
X479147D01*
X475836Y206400D02*
X475847Y206411D01*
X469543Y209543D02*
X479720D01*
X469000Y209000D02*
X469543Y209543D01*
X476064Y212102D02*
X479720D01*
X469324Y224324D02*
X477591D01*
X478267Y225000D01*
X471273Y222234D02*
X475727D01*
X475819Y222142D01*
X475911Y222234D02*
X476996D01*
X475819Y222142D02*
X475911Y222234D01*
X421000Y232500D02*
X423866Y235366D01*
X424367Y241956D02*
Y242267D01*
X343200Y233000D02*
X344000D01*
X342000Y234200D02*
X343200Y233000D01*
X252000Y209000D02*
X294874D01*
X305000Y225268D02*
X311488Y231756D01*
X305000Y218874D02*
Y225268D01*
X295000Y208874D02*
X305000Y218874D01*
X294874Y209000D02*
X295000Y208874D01*
X252000Y216874D02*
X294874D01*
X341000Y303000D02*
X342000D01*
X297900Y259900D02*
X341000Y303000D01*
X297900Y241302D02*
Y259900D01*
Y241302D02*
X299250Y239952D01*
X294874Y216874D02*
X295000Y216748D01*
X252000Y224748D02*
X294874D01*
X296100Y267100D02*
X332000Y303000D01*
X296100Y225722D02*
Y267100D01*
X295000Y224622D02*
X296100Y225722D01*
X294874Y224748D02*
X295000Y224622D01*
X342000Y312500D02*
X342500Y313000D01*
X342000Y303000D02*
Y312500D01*
X332000Y309988D02*
X335000Y312988D01*
X332000Y303000D02*
Y309988D01*
X334728Y198272D02*
X335000Y198000D01*
X325732Y229000D02*
X328488Y231756D01*
X476400Y214244D02*
X476817Y214661D01*
X473500Y214244D02*
X476400D01*
X478267Y225000D02*
X478369Y224898D01*
X474573Y227457D02*
X479720D01*
X473445Y228585D02*
X474573Y227457D01*
X458626Y228585D02*
X473445D01*
X476850Y264182D02*
X480151D01*
X476068Y263400D02*
X476850Y264182D01*
X472923Y263400D02*
X476068D01*
X472904Y263419D02*
X472923Y263400D01*
X469000Y263419D02*
X472904D01*
X469000Y263000D02*
Y263419D01*
X474000Y266000D02*
X475000Y267000D01*
X468000Y270000D02*
Y283000D01*
X471219Y286219D01*
X428808Y311192D02*
X430537Y309463D01*
X406100Y300900D02*
X416392Y311192D01*
X428808D01*
X430537Y308123D02*
Y309463D01*
X316732Y231512D02*
X322488D01*
X316488Y231756D02*
X316732Y231512D01*
X313244Y229000D02*
X325732D01*
X310488Y226244D02*
X313244Y229000D01*
X310488Y221228D02*
Y226244D01*
Y221228D02*
X311988Y219728D01*
X316988D02*
Y225744D01*
X316488Y226244D02*
X316988Y225744D01*
X413184Y314816D02*
X423550D01*
X413000Y315000D02*
X413184Y314816D01*
X509000Y309291D02*
X510484D01*
X444021Y302021D02*
X470424D01*
X441837Y299837D02*
X444021Y302021D01*
X441837Y298486D02*
Y299837D01*
X470424Y302021D02*
X470831Y301614D01*
X441837Y298486D02*
X445000Y295323D01*
Y293000D02*
Y295323D01*
X470831Y301614D02*
X480819D01*
X479618Y225000D02*
X479720Y224898D01*
X324500Y318500D02*
X335000D01*
X322000Y316000D02*
X324500Y318500D01*
X342500Y318512D02*
X350244D01*
X353256Y315500D01*
X410400Y297300D02*
X433200D01*
X476996Y222234D02*
X479720Y222339D01*
X342000Y234200D02*
Y243000D01*
X483200Y261913D02*
X484100Y262813D01*
X480441Y261913D02*
X483200D01*
X439505Y255467D02*
X443424D01*
X407700Y295600D02*
Y298865D01*
X416958Y308123D01*
X423550D01*
X406100Y293400D02*
Y300900D01*
X439098Y297202D02*
Y302708D01*
X444513Y308123D01*
X252000Y316000D02*
X257500Y310500D01*
Y247500D02*
Y310500D01*
Y247500D02*
X262000Y243000D01*
X480819Y291378D02*
X483322D01*
X437525Y308123D02*
X440902Y311500D01*
X437525Y314816D02*
X440594Y317885D01*
X447115D01*
X427469Y317885D02*
X430537Y314816D01*
X409385Y317885D02*
X427469D01*
X406200Y314700D02*
X409385Y317885D01*
X485405Y256795D02*
X489400Y252800D01*
X480441Y256795D02*
X485405D01*
X477411Y230016D02*
X479720D01*
X478077Y251677D02*
X480441D01*
X477700Y251300D02*
X478077Y251677D01*
X468900Y251300D02*
X477700D01*
X477104Y296200D02*
X477400Y296496D01*
X480819D01*
X477517Y254236D02*
X480441D01*
X477100Y253819D02*
X477517Y254236D01*
X474220Y253819D02*
X477100D01*
X477693Y293937D02*
X480819D01*
X338712Y318512D02*
X342500D01*
X338700Y318500D02*
X338712Y318512D01*
X335000Y318500D02*
X338700D01*
X282000Y303000D02*
Y316000D01*
X292000Y303000D02*
Y316000D01*
X262000Y303000D02*
Y316000D01*
X272000Y303000D02*
Y316000D01*
X431500Y235366D02*
X438142D01*
X359949Y315500D02*
X366000D01*
X302000Y303000D02*
Y316000D01*
X391000Y271000D02*
X449200D01*
X407700Y295600D02*
X417400Y285900D01*
X474968Y267032D02*
X480441D01*
X478453Y230016D02*
X479744Y231307D01*
X433200Y297300D02*
X439800Y290700D01*
X439098Y297202D02*
X442000Y294300D01*
X439800Y290700D02*
X442700D01*
X445000Y293000D01*
X489400Y225174D02*
Y252800D01*
X448034Y234966D02*
Y235500D01*
X377000Y315600D02*
X380900Y319500D01*
X447115Y317885D02*
X448700Y316300D01*
X440902Y311500D02*
X446628D01*
X452700Y305428D01*
Y304900D02*
Y305428D01*
X444513Y314816D02*
X445929Y313400D01*
X450600D01*
X453000Y311000D01*
X380900Y319500D02*
X449500D01*
X456400Y312600D01*
Y309600D02*
Y312600D01*
X406100Y293400D02*
X416500Y283000D01*
X449200Y271000D02*
X468900Y251300D01*
X473981Y288819D02*
X480819D01*
X485000Y281000D02*
X486000Y282000D01*
X483322Y291378D02*
X486000Y288700D01*
Y282000D02*
Y288700D01*
X472500Y281000D02*
X485000D01*
X484100Y273100D02*
X485000Y274000D01*
X484100Y262813D02*
Y273100D01*
X470181Y253819D02*
X474220D01*
X450000Y282000D02*
Y283000D01*
X447100Y285900D02*
X450000Y283000D01*
X417400Y285900D02*
X447100D01*
X416500Y283000D02*
X446000D01*
X474968Y267032D02*
X475000Y267000D01*
X480151Y264182D02*
X480441Y264472D01*
X462441Y246559D02*
X480441D01*
X471400Y282100D02*
X472500Y281000D01*
X471219Y286219D02*
X475058D01*
X475099Y286260D01*
X480819D01*
X439400Y262400D02*
X446600D01*
X462441Y246559D01*
X450891Y248000D02*
X457000D01*
X443424Y255467D02*
X450891Y248000D01*
X479744Y231307D02*
X480000Y231563D01*
Y235000D01*
X423866Y235366D02*
X424807D01*
D24*
X508378Y286260D02*
X514260D01*
X507280Y219779D02*
X523779D01*
X507280D02*
Y222339D01*
X508378Y295955D02*
X526045D01*
X508378Y293937D02*
Y295955D01*
X522831Y246559D02*
X525346Y249075D01*
X508000Y254236D02*
X528000D01*
X508000Y261913D02*
X526913D01*
X523500Y209500D02*
X524626D01*
X520984Y206984D02*
X523500Y209500D01*
X507280Y206984D02*
X520984D01*
X525000Y217000D02*
X532500Y209500D01*
X507280Y217000D02*
X525000D01*
X507280Y230016D02*
X524626D01*
X523779Y219779D02*
X533000Y229000D01*
X522831Y246559D02*
X525346Y249075D01*
X528059Y254236D02*
X533220Y249075D01*
X524904Y269517D02*
X525346Y269075D01*
X508000Y269517D02*
X524904D01*
X508000D02*
Y272150D01*
X526913Y261913D02*
X533648Y268648D01*
X508378Y283701D02*
Y286260D01*
X514260D02*
X516776Y288776D01*
X525724D01*
X532411Y289589D02*
X534411D01*
X526045Y295955D02*
X532411Y289589D01*
X511193Y310000D02*
X525724D01*
X510484Y309291D02*
X511193Y310000D01*
X508378Y311850D02*
X509000Y311228D01*
Y309291D02*
Y311228D01*
X524500Y310000D02*
X525724Y308776D01*
X525000Y300000D02*
X533687Y308687D01*
X508378Y300000D02*
X525000D01*
X508378D02*
Y301614D01*
X507280Y204425D02*
Y206984D01*
Y230016D02*
Y232575D01*
X508000Y244000D02*
Y246559D01*
X522831D01*
X507280Y214661D02*
Y217000D01*
D25*
X508000Y254236D02*
Y256795D01*
X480843Y309315D02*
Y317776D01*
X508000Y259354D02*
Y261913D01*
D26*
X272000Y316000D02*
D03*
X262000D02*
D03*
X322000D02*
D03*
X312000D02*
D03*
X302000D02*
D03*
X292000D02*
D03*
X282000D02*
D03*
Y303000D02*
D03*
X292000D02*
D03*
X302000D02*
D03*
X312000D02*
D03*
X322000D02*
D03*
X332000D02*
D03*
X342000D02*
D03*
X352000D02*
D03*
X362000D02*
D03*
X372000D02*
D03*
X382000D02*
D03*
X392000D02*
D03*
X402000Y243000D02*
D03*
X272000Y303000D02*
D03*
X262000D02*
D03*
X392000Y243000D02*
D03*
X382000D02*
D03*
X372000D02*
D03*
X362000D02*
D03*
X352000D02*
D03*
X342000D02*
D03*
X332000D02*
D03*
X322000D02*
D03*
X312000D02*
D03*
X282000D02*
D03*
X302000D02*
D03*
X292000D02*
D03*
X272000D02*
D03*
X262000D02*
D03*
D27*
X252000Y316000D02*
D03*
X402000Y303000D02*
D03*
D28*
X532220Y268829D02*
D03*
X524346D02*
D03*
X532500Y229500D02*
D03*
X524626D02*
D03*
X532598Y308529D02*
D03*
X524724D02*
D03*
X532220Y248829D02*
D03*
X524346D02*
D03*
X532500Y209500D02*
D03*
X524626D02*
D03*
X532598Y288529D02*
D03*
X524724D02*
D03*
X295000Y216748D02*
D03*
Y224622D02*
D03*
Y208874D02*
D03*
Y201000D02*
D03*
X274000Y216748D02*
D03*
Y224622D02*
D03*
Y208874D02*
D03*
Y201000D02*
D03*
X253000Y216748D02*
D03*
Y224622D02*
D03*
Y208874D02*
D03*
Y201000D02*
D03*
D29*
X407000Y222685D02*
D03*
Y203000D02*
D03*
X448000Y203315D02*
D03*
Y223000D02*
D03*
D30*
X551000Y258000D02*
D03*
X235000D02*
D03*
X552000Y312000D02*
D03*
X551000Y202000D02*
D03*
X235000D02*
D03*
Y312000D02*
D03*
D31*
X438000Y249000D02*
D03*
X461000Y211000D02*
D03*
X466000Y221000D02*
D03*
X431000Y242000D02*
D03*
X445244Y298756D02*
D03*
X474000Y306000D02*
D03*
X352000Y231300D02*
D03*
X369401Y227401D02*
D03*
X469000Y209000D02*
D03*
X424367Y242267D02*
D03*
X344000Y233000D02*
D03*
X469000Y263000D02*
D03*
X474000Y266000D02*
D03*
X468000Y270000D02*
D03*
X413000Y315000D02*
D03*
X410400Y297300D02*
D03*
X439400Y262400D02*
D03*
X439505Y255467D02*
D03*
X452700Y304900D02*
D03*
X406200Y314700D02*
D03*
X391000Y271000D02*
D03*
X337000Y234000D02*
D03*
X442000Y294300D02*
D03*
X448034Y235500D02*
D03*
X448700Y316300D02*
D03*
X453000Y311000D02*
D03*
X473981Y288819D02*
D03*
X485000Y274000D02*
D03*
X450000Y282000D02*
D03*
X446000Y283000D02*
D03*
X471400Y282100D02*
D03*
X457000Y248000D02*
D03*
D32*
X353000Y212000D02*
D03*
Y208000D02*
D03*
X361000Y212000D02*
D03*
X357000D02*
D03*
Y208000D02*
D03*
X361000D02*
D03*
X365000D02*
D03*
X428000Y289000D02*
D03*
X475000Y244000D02*
D03*
X473906Y235000D02*
D03*
X477000Y271000D02*
D03*
X323000Y309000D02*
D03*
X373000Y315000D02*
D03*
X442000Y274000D02*
D03*
Y277000D02*
D03*
X426000D02*
D03*
X430000D02*
D03*
X434000D02*
D03*
X463000Y281000D02*
D03*
Y273000D02*
D03*
Y277000D02*
D03*
X409000Y280000D02*
D03*
X357000Y197000D02*
D03*
X361000D02*
D03*
X365000D02*
D03*
X369000D02*
D03*
Y201000D02*
D03*
X365000D02*
D03*
X361000D02*
D03*
X357000D02*
D03*
X421000Y232500D02*
D03*
X322000Y199000D02*
D03*
X317000D02*
D03*
X311000D02*
D03*
X521000Y200000D02*
D03*
X465000Y317000D02*
D03*
Y311000D02*
D03*
Y314000D02*
D03*
X480500Y271000D02*
D03*
X480843Y310500D02*
D03*
X481244Y317000D02*
D03*
X479744Y231307D02*
D03*
X479500Y203000D02*
D03*
X485000Y195000D02*
D03*
X490000D02*
D03*
X495000D02*
D03*
X505000D02*
D03*
X500000D02*
D03*
X485000Y200000D02*
D03*
X490000D02*
D03*
X495000D02*
D03*
X500000D02*
D03*
X505000D02*
D03*
X510000Y195000D02*
D03*
Y200000D02*
D03*
X515000D02*
D03*
X526000D02*
D03*
X531000D02*
D03*
Y195000D02*
D03*
X526000D02*
D03*
X521000D02*
D03*
X515000D02*
D03*
X255000Y250000D02*
D03*
X260000D02*
D03*
Y255000D02*
D03*
X255000D02*
D03*
Y260000D02*
D03*
X260000D02*
D03*
Y265000D02*
D03*
X255000D02*
D03*
Y270000D02*
D03*
X260000D02*
D03*
Y275000D02*
D03*
X255000D02*
D03*
Y280000D02*
D03*
X260000D02*
D03*
Y285000D02*
D03*
X255000D02*
D03*
Y290000D02*
D03*
X260000D02*
D03*
X483500Y283500D02*
D03*
X480000Y235000D02*
D03*
X420000Y252000D02*
D03*
Y248000D02*
D03*
Y244000D02*
D03*
X416000D02*
D03*
Y248000D02*
D03*
Y252000D02*
D03*
D33*
X315158Y211165D02*
D03*
X319488Y206835D02*
D03*
Y211165D02*
D03*
X323819Y206835D02*
D03*
Y211165D02*
D03*
X315158Y206835D02*
D03*
M02*
