G04 Layer_Physical_Order=1*
G04 Layer_Color=255*
%FSLAX25Y25*%
%MOIN*%
G70*
G01*
G75*
%ADD10R,0.02756X0.03543*%
%ADD11R,0.03543X0.02756*%
%ADD12R,0.05709X0.08071*%
%ADD13R,0.09843X0.06693*%
%ADD14R,0.10236X0.03740*%
%ADD15R,0.11417X0.13976*%
%ADD16O,0.06299X0.01772*%
%ADD17R,0.03937X0.03937*%
%ADD18R,0.03937X0.03937*%
%ADD19R,0.04528X0.10630*%
%ADD20R,0.02362X0.05709*%
%ADD21R,0.13583X0.10079*%
%ADD22C,0.01000*%
%ADD23C,0.02000*%
%ADD24C,0.01500*%
%ADD25C,0.06000*%
%ADD26R,0.06000X0.06000*%
%ADD27C,0.07874*%
%ADD28C,0.15748*%
%ADD29C,0.06300*%
%ADD30C,0.02500*%
G36*
X488078Y290735D02*
Y259665D01*
X486331Y257917D01*
X486205D01*
X486205Y257917D01*
X486205Y257917D01*
X482913D01*
X482497Y258195D01*
X481917Y258310D01*
X477390D01*
X476810Y258195D01*
X476319Y257866D01*
X475990Y257375D01*
X475875Y256795D01*
X475974Y256297D01*
X475727Y255797D01*
X471849D01*
Y254940D01*
X469165D01*
X461996Y262109D01*
X462043Y262178D01*
X462186Y262900D01*
X462043Y263622D01*
X461634Y264234D01*
X461022Y264643D01*
X460300Y264786D01*
X459780Y264683D01*
X459362Y264996D01*
X459322Y265063D01*
Y271398D01*
X459622Y271457D01*
X460234Y271866D01*
X460643Y272478D01*
X460786Y273200D01*
X460643Y273922D01*
X460234Y274534D01*
X459622Y274943D01*
X459322Y275002D01*
Y287501D01*
X459822Y287653D01*
X460107Y287225D01*
X460719Y286816D01*
X461441Y286673D01*
X461691Y286723D01*
X470515Y277899D01*
Y268230D01*
X470515Y268229D01*
X470600Y267800D01*
X470843Y267436D01*
X472041Y266238D01*
X472405Y265995D01*
X472834Y265910D01*
X472834Y265910D01*
X476008D01*
X476059Y265850D01*
X476229Y265410D01*
X475990Y265052D01*
X475954Y264873D01*
X474703Y263621D01*
X469976D01*
X469834Y263834D01*
X469222Y264243D01*
X468500Y264386D01*
X467778Y264243D01*
X467166Y263834D01*
X466757Y263222D01*
X466614Y262500D01*
X466757Y261778D01*
X467166Y261166D01*
X467778Y260757D01*
X468500Y260614D01*
X469222Y260757D01*
X469834Y261166D01*
X469976Y261379D01*
X475168D01*
X475168Y261378D01*
X475460Y261437D01*
X475744Y261381D01*
X476087Y261189D01*
X476319Y260842D01*
X476810Y260514D01*
X477390Y260399D01*
X481917D01*
X482497Y260514D01*
X482913Y260792D01*
X483200D01*
X483200Y260792D01*
X483629Y260877D01*
X483993Y261120D01*
X484893Y262020D01*
X484893Y262020D01*
X485136Y262384D01*
X485222Y262813D01*
Y273100D01*
X485222Y273100D01*
X485136Y273529D01*
X484893Y273893D01*
X484893Y273893D01*
X482993Y275793D01*
X482629Y276036D01*
X482200Y276122D01*
X482200Y276121D01*
X480992D01*
X480804Y276309D01*
X480698Y276469D01*
X480538Y276576D01*
X480157Y276957D01*
X479793Y277200D01*
X479364Y277285D01*
X478935Y277200D01*
X478571Y276957D01*
X478418Y276729D01*
X478364Y276692D01*
X477864Y276959D01*
Y279915D01*
X476558D01*
X476422Y280188D01*
X476366Y280415D01*
X476743Y280978D01*
X476886Y281700D01*
X476840Y281932D01*
X476990Y282091D01*
X477280Y282283D01*
X477768Y282186D01*
X482153D01*
X482166Y282166D01*
X482778Y281757D01*
X483500Y281614D01*
X484222Y281757D01*
X484834Y282166D01*
X485243Y282778D01*
X485386Y283500D01*
X485243Y284222D01*
X484834Y284834D01*
X484222Y285243D01*
X484029Y285281D01*
X483947Y285379D01*
X483729Y285851D01*
X483810Y286260D01*
X483695Y286840D01*
X483452Y287203D01*
X483399Y287539D01*
X483452Y287875D01*
X483695Y288239D01*
X483810Y288819D01*
X483695Y289399D01*
X483366Y289890D01*
Y290307D01*
X483695Y290798D01*
X483810Y291378D01*
X483695Y291958D01*
X483452Y292321D01*
X483399Y292657D01*
X483452Y292993D01*
X483695Y293357D01*
X483810Y293937D01*
X483721Y294386D01*
X484156Y294658D01*
X488078Y290735D01*
D02*
G37*
G36*
X382000Y206000D02*
X374000D01*
X365000Y215000D01*
X356000D01*
Y225000D01*
X367443D01*
X367666Y224666D01*
X368278Y224257D01*
X369000Y224114D01*
X369722Y224257D01*
X370334Y224666D01*
X370557Y225000D01*
X382000D01*
Y206000D01*
D02*
G37*
G36*
X344000Y215000D02*
Y209000D01*
X349000Y204000D01*
Y202000D01*
X340898D01*
X338593Y204305D01*
X338229Y204548D01*
X337800Y204633D01*
X337800Y204633D01*
X334000D01*
X333571Y204548D01*
X333207Y204305D01*
X332964Y203941D01*
X332878Y203512D01*
X332964Y203083D01*
X333207Y202719D01*
X333534Y202500D01*
X333539Y202464D01*
X333235Y202000D01*
X332351D01*
Y215649D01*
X331000Y217000D01*
X326000D01*
Y223000D01*
X344000D01*
Y215000D01*
D02*
G37*
G36*
X550613Y320378D02*
X550339Y320351D01*
X548741Y319867D01*
X547269Y319080D01*
X545979Y318021D01*
X544920Y316731D01*
X544133Y315259D01*
X543649Y313661D01*
X543485Y312000D01*
X543649Y310339D01*
X544133Y308741D01*
X544920Y307269D01*
X545979Y305979D01*
X547269Y304920D01*
X548741Y304133D01*
X550339Y303649D01*
X552000Y303485D01*
X553661Y303649D01*
X555259Y304133D01*
X556731Y304920D01*
X558021Y305979D01*
X559080Y307269D01*
X559378Y307828D01*
X559878Y307702D01*
Y259411D01*
X559378Y259387D01*
X559351Y259661D01*
X558867Y261259D01*
X558080Y262731D01*
X557021Y264021D01*
X555731Y265080D01*
X554259Y265867D01*
X552661Y266351D01*
X551000Y266515D01*
X549339Y266351D01*
X547741Y265867D01*
X546269Y265080D01*
X544979Y264021D01*
X543920Y262731D01*
X543133Y261259D01*
X542649Y259661D01*
X542485Y258000D01*
X542649Y256339D01*
X543133Y254741D01*
X543920Y253269D01*
X544979Y251979D01*
X546269Y250920D01*
X547741Y250133D01*
X549339Y249649D01*
X551000Y249485D01*
X552661Y249649D01*
X554259Y250133D01*
X555731Y250920D01*
X557021Y251979D01*
X558080Y253269D01*
X558867Y254741D01*
X559351Y256339D01*
X559378Y256613D01*
X559878Y256589D01*
Y203411D01*
X559378Y203387D01*
X559351Y203661D01*
X558867Y205259D01*
X558080Y206731D01*
X557021Y208021D01*
X555731Y209080D01*
X554259Y209867D01*
X552661Y210351D01*
X551000Y210515D01*
X549339Y210351D01*
X547741Y209867D01*
X546269Y209080D01*
X544979Y208021D01*
X543920Y206731D01*
X543133Y205259D01*
X542649Y203661D01*
X542485Y202000D01*
X542649Y200339D01*
X543133Y198741D01*
X543920Y197269D01*
X544979Y195979D01*
X546269Y194920D01*
X547741Y194133D01*
X549339Y193649D01*
X549613Y193622D01*
X549589Y193122D01*
X389361D01*
X389170Y193584D01*
X407793Y212207D01*
X407793Y212207D01*
X408036Y212571D01*
X408122Y213000D01*
X408121Y213000D01*
Y218256D01*
X408184Y218265D01*
X409288Y218722D01*
X410236Y219449D01*
X410963Y220397D01*
X411420Y221501D01*
X411576Y222685D01*
X411420Y223869D01*
X410963Y224973D01*
X410236Y225921D01*
X409640Y226378D01*
X409809Y226878D01*
X413535D01*
X443244Y197170D01*
X443244Y197170D01*
X443608Y196927D01*
X444037Y196841D01*
X444037Y196841D01*
X450963D01*
X450963Y196841D01*
X451392Y196927D01*
X451756Y197170D01*
X453965Y199378D01*
X480536D01*
X480536Y199378D01*
X480793Y199430D01*
X480965Y199464D01*
X480965Y199464D01*
X481329Y199707D01*
X483976Y202354D01*
X483976Y202354D01*
X484219Y202718D01*
X484304Y203147D01*
Y212925D01*
X484304Y212925D01*
X484219Y213354D01*
X483976Y213718D01*
X482632Y215062D01*
X482596Y215241D01*
X482533Y215337D01*
X482440Y215854D01*
X482621Y216035D01*
X499793Y233207D01*
X499793Y233207D01*
X500036Y233571D01*
X500122Y234000D01*
X500122Y234000D01*
Y244000D01*
X500122Y244000D01*
X500036Y244429D01*
X499793Y244793D01*
X499793Y244793D01*
X488086Y256500D01*
X489993Y258407D01*
X490236Y258771D01*
X490322Y259200D01*
X490322Y259200D01*
Y291200D01*
X490322Y291200D01*
X490236Y291629D01*
X489993Y291993D01*
X489993Y291993D01*
X484697Y297289D01*
X484333Y297532D01*
X483904Y297618D01*
X483904Y297618D01*
X483291D01*
X482875Y297896D01*
X482295Y298011D01*
X477768D01*
X477188Y297896D01*
X476696Y297567D01*
X476532Y297322D01*
X471320D01*
X470372Y298270D01*
Y300074D01*
X470831Y300493D01*
X476772D01*
X477188Y300215D01*
X477768Y300099D01*
X482295D01*
X482875Y300215D01*
X483366Y300543D01*
X483695Y301034D01*
X483810Y301614D01*
X483695Y302194D01*
X483366Y302685D01*
Y303102D01*
X483695Y303593D01*
X483810Y304173D01*
X483695Y304753D01*
X483452Y305117D01*
X483399Y305453D01*
X483452Y305789D01*
X483695Y306153D01*
X483810Y306732D01*
X483695Y307312D01*
X483366Y307803D01*
Y308220D01*
X483695Y308712D01*
X483810Y309291D01*
X483695Y309871D01*
X483452Y310235D01*
X483399Y310571D01*
X483452Y310907D01*
X483695Y311271D01*
X483810Y311850D01*
X483695Y312430D01*
X483366Y312922D01*
X482875Y313250D01*
X482295Y313365D01*
X482219D01*
Y315426D01*
X482578Y315666D01*
X482987Y316278D01*
X483130Y317000D01*
X482987Y317722D01*
X482578Y318334D01*
X481966Y318743D01*
X481766Y318782D01*
X481369Y319047D01*
X480843Y319152D01*
X480316Y319047D01*
X479869Y318749D01*
X479717Y318521D01*
X478294D01*
X478294Y318522D01*
X478269Y318517D01*
X477769Y318927D01*
Y319915D01*
X472042D01*
Y308085D01*
X474535D01*
X474802Y307585D01*
X474715Y307454D01*
X474572Y306732D01*
X474715Y306011D01*
X474937Y305678D01*
X474948Y305641D01*
X474823Y305052D01*
X474810Y305037D01*
X474704Y304966D01*
X474704Y304966D01*
X474509Y304771D01*
X471116D01*
X471116Y304772D01*
X470971Y304743D01*
X464803D01*
X460524Y309022D01*
X457253Y312293D01*
X456889Y312536D01*
X456460Y312622D01*
X456460Y312621D01*
X447081D01*
Y317385D01*
X445757D01*
X445222Y317743D01*
X444500Y317886D01*
X443778Y317743D01*
X443243Y317385D01*
X441944D01*
Y312621D01*
X440094D01*
Y317385D01*
X438758D01*
X438222Y317743D01*
X437500Y317886D01*
X436778Y317743D01*
X436242Y317385D01*
X434957D01*
Y312621D01*
X433106D01*
Y317385D01*
X431757D01*
X431222Y317743D01*
X430500Y317886D01*
X429778Y317743D01*
X429243Y317385D01*
X427969D01*
Y312621D01*
X426119D01*
Y317385D01*
X424758D01*
X424222Y317743D01*
X423500Y317886D01*
X422778Y317743D01*
X422242Y317385D01*
X420982D01*
Y312621D01*
X384500D01*
X384071Y312536D01*
X383707Y312293D01*
X383707Y312293D01*
X376207Y304793D01*
X375964Y304429D01*
X375878Y304000D01*
X375879Y304000D01*
Y302666D01*
X373134Y299921D01*
X366665D01*
X365220Y301366D01*
X365507Y302060D01*
X365631Y303000D01*
X365507Y303940D01*
X365145Y304816D01*
X364567Y305568D01*
X363815Y306145D01*
X362940Y306507D01*
X362000Y306631D01*
X361060Y306507D01*
X360185Y306145D01*
X359433Y305568D01*
X358855Y304816D01*
X358493Y303940D01*
X358369Y303000D01*
X358493Y302060D01*
X358855Y301185D01*
X359433Y300432D01*
X360185Y299855D01*
X361060Y299493D01*
X362000Y299369D01*
X362940Y299493D01*
X363634Y299780D01*
X365407Y298007D01*
X365407Y298007D01*
X365771Y297764D01*
X366200Y297678D01*
X366200Y297678D01*
X373598D01*
X373598Y297678D01*
X374027Y297764D01*
X374391Y298007D01*
X377793Y301409D01*
X377793Y301409D01*
X378036Y301772D01*
X378047Y301829D01*
X378567Y301880D01*
X378855Y301185D01*
X379433Y300432D01*
X380185Y299855D01*
X381060Y299493D01*
X382000Y299369D01*
X382940Y299493D01*
X383816Y299855D01*
X384567Y300432D01*
X385145Y301185D01*
X385507Y302060D01*
X385631Y303000D01*
X385507Y303940D01*
X385145Y304816D01*
X384567Y305568D01*
X383816Y306145D01*
X382940Y306507D01*
X382000Y306631D01*
X381870Y306614D01*
X381648Y307062D01*
X384965Y310379D01*
X420982D01*
Y305555D01*
X421569D01*
X421614Y305500D01*
X421757Y304778D01*
X422166Y304166D01*
X422778Y303757D01*
X423500Y303614D01*
X424222Y303757D01*
X424834Y304166D01*
X425243Y304778D01*
X425386Y305500D01*
X425431Y305555D01*
X426119D01*
Y310379D01*
X427969D01*
Y305555D01*
X428569D01*
X428614Y305500D01*
X428757Y304778D01*
X429166Y304166D01*
X429778Y303757D01*
X430500Y303614D01*
X431222Y303757D01*
X431834Y304166D01*
X432243Y304778D01*
X432386Y305500D01*
X432431Y305555D01*
X433106D01*
Y310379D01*
X434957D01*
Y305555D01*
X435569D01*
X435614Y305500D01*
X435757Y304778D01*
X436166Y304166D01*
X436778Y303757D01*
X437500Y303614D01*
X438222Y303757D01*
X438834Y304166D01*
X439243Y304778D01*
X439386Y305500D01*
X439431Y305555D01*
X440094D01*
Y310379D01*
X441944D01*
Y305555D01*
X442569D01*
X442614Y305500D01*
X442757Y304778D01*
X443166Y304166D01*
X443778Y303757D01*
X443888Y303735D01*
X444065Y303190D01*
X444021Y303143D01*
X443592Y303057D01*
X443228Y302814D01*
X443228Y302814D01*
X438835Y298422D01*
X411876D01*
X411734Y298634D01*
X411122Y299043D01*
X410400Y299186D01*
X409678Y299043D01*
X409066Y298634D01*
X408657Y298022D01*
X408514Y297300D01*
X408657Y296578D01*
X409066Y295966D01*
X409678Y295557D01*
X410400Y295414D01*
X411122Y295557D01*
X411734Y295966D01*
X411876Y296179D01*
X439300D01*
X439300Y296178D01*
X439729Y296264D01*
X440093Y296507D01*
X444486Y300900D01*
X465197D01*
X465628Y300734D01*
Y299812D01*
X465278Y299743D01*
X464666Y299334D01*
X464257Y298722D01*
X464114Y298000D01*
X464257Y297278D01*
X464666Y296666D01*
X465278Y296257D01*
X466000Y296114D01*
X466722Y296257D01*
X467334Y296666D01*
X467409Y296778D01*
X468692D01*
X469748Y295722D01*
X469541Y295222D01*
X465628D01*
Y294366D01*
X460244D01*
X459815Y294280D01*
X459451Y294037D01*
X459451Y294037D01*
X457407Y291993D01*
X457164Y291629D01*
X457162Y291621D01*
X394976D01*
X394834Y291834D01*
X394222Y292243D01*
X393500Y292386D01*
X392778Y292243D01*
X392166Y291834D01*
X391757Y291222D01*
X391614Y290500D01*
X391757Y289778D01*
X392166Y289166D01*
X392778Y288757D01*
X393500Y288614D01*
X394222Y288757D01*
X394834Y289166D01*
X394976Y289378D01*
X457078D01*
Y273525D01*
X457014Y273200D01*
X457078Y272875D01*
Y265161D01*
X456616Y264970D01*
X449793Y271793D01*
X449429Y272036D01*
X449000Y272122D01*
X449000Y272122D01*
X392476D01*
X392334Y272334D01*
X391722Y272743D01*
X391000Y272886D01*
X390278Y272743D01*
X389666Y272334D01*
X389257Y271722D01*
X389114Y271000D01*
X389257Y270278D01*
X389666Y269666D01*
X390278Y269257D01*
X391000Y269114D01*
X391722Y269257D01*
X392334Y269666D01*
X392476Y269879D01*
X421639D01*
X421830Y269416D01*
X418535Y266122D01*
X370141D01*
X343122Y293141D01*
Y299568D01*
X343815Y299855D01*
X344567Y300432D01*
X345145Y301185D01*
X345507Y302060D01*
X345631Y303000D01*
X345507Y303940D01*
X345145Y304816D01*
X344567Y305568D01*
X343815Y306145D01*
X342940Y306507D01*
X342000Y306631D01*
X341060Y306507D01*
X340184Y306145D01*
X339433Y305568D01*
X338855Y304816D01*
X338493Y303940D01*
X338369Y303000D01*
X338493Y302060D01*
X338855Y301185D01*
X339433Y300432D01*
X340184Y299855D01*
X340879Y299568D01*
Y292677D01*
X340878Y292677D01*
X340964Y292247D01*
X341207Y291883D01*
X368883Y264207D01*
X368883Y264207D01*
X369247Y263964D01*
X369677Y263878D01*
X419000D01*
X419000Y263878D01*
X419429Y263964D01*
X419793Y264207D01*
X423815Y268229D01*
X438065D01*
X438301Y267788D01*
X438257Y267722D01*
X438114Y267000D01*
X438257Y266278D01*
X438666Y265666D01*
X439278Y265257D01*
X440000Y265114D01*
X440722Y265257D01*
X441334Y265666D01*
X441476Y265879D01*
X447773D01*
X467885Y245766D01*
X468249Y245523D01*
X468678Y245437D01*
X468678Y245437D01*
X473134D01*
X473401Y244937D01*
X473257Y244722D01*
X473114Y244000D01*
X473257Y243278D01*
X473666Y242666D01*
X474278Y242257D01*
X475000Y242114D01*
X475722Y242257D01*
X476334Y242666D01*
X476450Y242841D01*
X476810Y242600D01*
X477390Y242485D01*
X481917D01*
X482497Y242600D01*
X482989Y242929D01*
X483317Y243420D01*
X483432Y244000D01*
X483317Y244580D01*
X483074Y244943D01*
X483021Y245280D01*
X483074Y245616D01*
X483317Y245979D01*
X483432Y246559D01*
X483317Y247139D01*
X482989Y247630D01*
Y248047D01*
X483317Y248538D01*
X483432Y249118D01*
X483317Y249698D01*
X482989Y250189D01*
Y250606D01*
X483317Y251097D01*
X483432Y251677D01*
X483317Y252257D01*
X483074Y252621D01*
X483021Y252957D01*
X483074Y253293D01*
X483317Y253657D01*
X483432Y254236D01*
X483317Y254816D01*
X483078Y255174D01*
X483249Y255614D01*
X483299Y255674D01*
X485740D01*
X497878Y243535D01*
Y234465D01*
X481931Y218517D01*
X481777Y218620D01*
X481197Y218735D01*
X476669D01*
X476089Y218620D01*
X475651Y218327D01*
X475298Y218257D01*
X474934Y218014D01*
X474691Y217650D01*
X474606Y217220D01*
Y216722D01*
X474606Y216722D01*
X474606Y216722D01*
X474195Y216222D01*
X471128D01*
Y212888D01*
X461766D01*
X461766Y212888D01*
X461380Y212811D01*
X461000Y212886D01*
X460278Y212743D01*
X459666Y212334D01*
X459257Y211722D01*
X459242Y211644D01*
X458764Y211499D01*
X456172Y214091D01*
Y217266D01*
X456634Y217457D01*
X457233Y216857D01*
X457233Y216857D01*
X457597Y216614D01*
X458027Y216528D01*
X458027Y216529D01*
X466689D01*
X466689Y216528D01*
X467118Y216614D01*
X467482Y216857D01*
X471737Y221112D01*
X475380D01*
X475390Y221106D01*
X475391Y221106D01*
X475391Y221106D01*
X475607Y221063D01*
X475819Y221021D01*
X475820Y221021D01*
X475820Y221021D01*
X475933Y221043D01*
X476089Y220939D01*
X476669Y220824D01*
X481197D01*
X481777Y220939D01*
X482268Y221267D01*
X482596Y221759D01*
X482712Y222339D01*
X482596Y222918D01*
X482353Y223282D01*
X482301Y223618D01*
X482353Y223954D01*
X482596Y224318D01*
X482712Y224898D01*
X482596Y225477D01*
X482268Y225969D01*
Y226386D01*
X482596Y226877D01*
X482712Y227457D01*
X482596Y228036D01*
X482353Y228400D01*
X482301Y228736D01*
X482353Y229072D01*
X482596Y229436D01*
X482712Y230016D01*
X482596Y230595D01*
X482353Y230959D01*
X482301Y231295D01*
X482353Y231631D01*
X482596Y231995D01*
X482712Y232575D01*
X482596Y233155D01*
X482268Y233646D01*
X482028Y233806D01*
X481743Y234278D01*
X481886Y235000D01*
X481743Y235722D01*
X481334Y236334D01*
X480722Y236743D01*
X480000Y236886D01*
X479278Y236743D01*
X478666Y236334D01*
X478257Y235722D01*
X478114Y235000D01*
X478195Y234590D01*
X477828Y234090D01*
X476769D01*
Y240915D01*
X471042D01*
Y237426D01*
X470580Y237235D01*
X446874Y260941D01*
X446886Y261000D01*
X446743Y261722D01*
X446334Y262334D01*
X445722Y262743D01*
X445000Y262886D01*
X444278Y262743D01*
X443666Y262334D01*
X443257Y261722D01*
X443114Y261000D01*
X443257Y260278D01*
X443666Y259666D01*
X444278Y259257D01*
X445000Y259114D01*
X445441Y259202D01*
X469420Y235222D01*
Y229229D01*
X469420Y229229D01*
X469506Y228800D01*
X469749Y228436D01*
X471521Y226664D01*
X471521Y226664D01*
X471885Y226421D01*
X472314Y226335D01*
X472315Y226335D01*
X475287D01*
X475338Y226275D01*
X475505Y225846D01*
X475242Y225446D01*
X469324D01*
X469324Y225446D01*
X468895Y225361D01*
X468531Y225117D01*
X468531Y225117D01*
X464535Y221122D01*
X460476D01*
X460334Y221334D01*
X459722Y221743D01*
X459000Y221886D01*
X458278Y221743D01*
X458213Y221699D01*
X457772Y221935D01*
Y223421D01*
X457772Y223421D01*
X457686Y223850D01*
X457443Y224214D01*
X451122Y230536D01*
Y234524D01*
X451334Y234666D01*
X451743Y235278D01*
X451886Y236000D01*
X451743Y236722D01*
X451334Y237334D01*
X450722Y237743D01*
X450000Y237886D01*
X449278Y237743D01*
X448666Y237334D01*
X448257Y236722D01*
X448114Y236000D01*
X448257Y235278D01*
X448666Y234666D01*
X448878Y234524D01*
Y231169D01*
X448417Y230978D01*
X447450Y231944D01*
Y237671D01*
X447365Y238101D01*
X447122Y238464D01*
X447122Y238464D01*
X443122Y242465D01*
Y252524D01*
X443334Y252666D01*
X443743Y253278D01*
X443886Y254000D01*
X443743Y254722D01*
X443334Y255334D01*
X442722Y255743D01*
X442000Y255886D01*
X441278Y255743D01*
X440666Y255334D01*
X440257Y254722D01*
X440114Y254000D01*
X440257Y253278D01*
X440666Y252666D01*
X440878Y252524D01*
Y242000D01*
X440878Y242000D01*
X440964Y241571D01*
X441207Y241207D01*
X445207Y237207D01*
Y231480D01*
X445207Y231480D01*
X445293Y231050D01*
X445536Y230687D01*
X448557Y227665D01*
X448336Y227217D01*
X448000Y227261D01*
X446816Y227105D01*
X445712Y226648D01*
X444764Y225921D01*
X444037Y224973D01*
X443580Y223869D01*
X443424Y222685D01*
X443580Y221501D01*
X444037Y220397D01*
X444764Y219449D01*
X445712Y218722D01*
X446816Y218265D01*
X448000Y218109D01*
X449184Y218265D01*
X450288Y218722D01*
X451236Y219449D01*
X451963Y220397D01*
X452420Y221501D01*
X452576Y222685D01*
X452532Y223021D01*
X452980Y223242D01*
X453928Y222294D01*
Y213627D01*
X453928Y213627D01*
X454014Y213197D01*
X454257Y212833D01*
X461234Y205857D01*
X461234Y205857D01*
X461597Y205614D01*
X462027Y205528D01*
X475018D01*
X475285Y205029D01*
X475270Y205005D01*
X475154Y204425D01*
X475270Y203846D01*
X475598Y203354D01*
X476089Y203026D01*
X476669Y202910D01*
X477632D01*
X477757Y202278D01*
X477862Y202122D01*
X477595Y201622D01*
X453500D01*
X453071Y201536D01*
X452707Y201293D01*
X452707Y201293D01*
X450498Y199084D01*
X444502D01*
X414793Y228793D01*
X414429Y229036D01*
X414000Y229122D01*
X414000Y229121D01*
X384000D01*
X384000Y229122D01*
X383571Y229036D01*
X383207Y228793D01*
X383207Y228793D01*
X380063Y225649D01*
X374937D01*
X371903Y228683D01*
Y239284D01*
X372000Y239369D01*
X372940Y239493D01*
X373815Y239855D01*
X374568Y240433D01*
X375145Y241184D01*
X375507Y242060D01*
X375631Y243000D01*
X375507Y243940D01*
X375145Y244815D01*
X374568Y245567D01*
X373815Y246145D01*
X372940Y246507D01*
X372000Y246631D01*
X371060Y246507D01*
X370184Y246145D01*
X369432Y245567D01*
X368855Y244815D01*
X368493Y243940D01*
X368369Y243000D01*
X368493Y242060D01*
X368855Y241184D01*
X369432Y240433D01*
X369660Y240258D01*
Y230579D01*
X369198Y230388D01*
X363122Y236465D01*
Y239568D01*
X363815Y239855D01*
X364567Y240433D01*
X365145Y241184D01*
X365507Y242060D01*
X365631Y243000D01*
X365507Y243940D01*
X365145Y244815D01*
X364567Y245567D01*
X363815Y246145D01*
X362940Y246507D01*
X362000Y246631D01*
X361060Y246507D01*
X360185Y246145D01*
X359433Y245567D01*
X358855Y244815D01*
X358493Y243940D01*
X358369Y243000D01*
X358493Y242060D01*
X358855Y241184D01*
X359433Y240433D01*
X360185Y239855D01*
X360878Y239568D01*
Y236000D01*
X360878Y236000D01*
X360964Y235571D01*
X361207Y235207D01*
X366364Y230050D01*
X366172Y229588D01*
X355109D01*
Y223631D01*
X354218D01*
X347205Y230645D01*
X347369Y231187D01*
X347722Y231257D01*
X348334Y231666D01*
X348743Y232278D01*
X348886Y233000D01*
X348743Y233722D01*
X348334Y234334D01*
X347722Y234743D01*
X347000Y234886D01*
X346750Y234837D01*
X343122Y238465D01*
Y239568D01*
X343815Y239855D01*
X344567Y240433D01*
X345145Y241184D01*
X345507Y242060D01*
X345631Y243000D01*
X345507Y243940D01*
X345145Y244815D01*
X344567Y245567D01*
X343815Y246145D01*
X342940Y246507D01*
X342000Y246631D01*
X341060Y246507D01*
X340184Y246145D01*
X339433Y245567D01*
X338855Y244815D01*
X338493Y243940D01*
X338369Y243000D01*
X338493Y242060D01*
X338855Y241184D01*
X339433Y240433D01*
X340184Y239855D01*
X340879Y239568D01*
Y238000D01*
X340878Y238000D01*
X340964Y237571D01*
X341207Y237207D01*
X341585Y236829D01*
X341266Y236440D01*
X341166Y236507D01*
X340542Y236631D01*
X332800D01*
X332561Y236584D01*
X332323Y236631D01*
X314732D01*
X314108Y236507D01*
X313579Y236154D01*
X311410Y233985D01*
X311300Y234007D01*
X311136Y234550D01*
X318155Y241569D01*
X318745Y241452D01*
X318855Y241184D01*
X319432Y240433D01*
X320184Y239855D01*
X321060Y239493D01*
X322000Y239369D01*
X322940Y239493D01*
X323815Y239855D01*
X324568Y240433D01*
X325145Y241184D01*
X325507Y242060D01*
X325631Y243000D01*
X325507Y243940D01*
X325220Y244634D01*
X331965Y251378D01*
X342095D01*
X342362Y250879D01*
X342257Y250722D01*
X342114Y250000D01*
X342257Y249278D01*
X342666Y248666D01*
X343278Y248257D01*
X344000Y248114D01*
X344722Y248257D01*
X345334Y248666D01*
X345576Y249028D01*
X409558D01*
X422238Y236348D01*
Y232798D01*
X423154D01*
X423257Y232278D01*
X423666Y231666D01*
X424278Y231257D01*
X425000Y231114D01*
X425722Y231257D01*
X426334Y231666D01*
X426743Y232278D01*
X426846Y232798D01*
X427376D01*
Y237934D01*
X423825D01*
X410816Y250943D01*
X410452Y251186D01*
X410023Y251272D01*
X410023Y251272D01*
X394935D01*
X394699Y251712D01*
X394743Y251778D01*
X394886Y252500D01*
X394743Y253222D01*
X394334Y253834D01*
X393722Y254243D01*
X393000Y254386D01*
X392278Y254243D01*
X391666Y253834D01*
X391524Y253622D01*
X331500D01*
X331500Y253622D01*
X331071Y253536D01*
X330707Y253293D01*
X330707Y253293D01*
X323634Y246220D01*
X323122Y246432D01*
Y283535D01*
X328693Y289107D01*
X328932Y289465D01*
X329234Y289666D01*
X329643Y290278D01*
X329786Y291000D01*
X329643Y291722D01*
X329234Y292334D01*
X329022Y292476D01*
Y300220D01*
X329521Y300364D01*
X330185Y299855D01*
X331060Y299493D01*
X332000Y299369D01*
X332940Y299493D01*
X333816Y299855D01*
X334567Y300432D01*
X335145Y301185D01*
X335507Y302060D01*
X335631Y303000D01*
X335507Y303940D01*
X335145Y304816D01*
X334567Y305568D01*
X333816Y306145D01*
X332940Y306507D01*
X332111Y306616D01*
X331859Y307072D01*
X333166Y308379D01*
X339000D01*
X339000Y308378D01*
X339429Y308464D01*
X339793Y308707D01*
X342108Y311022D01*
X344872D01*
Y314978D01*
X340128D01*
Y312214D01*
X338535Y310622D01*
X337640D01*
X337372Y311010D01*
Y314966D01*
X332628D01*
Y313276D01*
X325307Y305954D01*
X325118Y305671D01*
X324702Y305574D01*
X324568Y305568D01*
X323815Y306145D01*
X322940Y306507D01*
X322000Y306631D01*
X321060Y306507D01*
X320184Y306145D01*
X319432Y305568D01*
X318855Y304816D01*
X318493Y303940D01*
X318369Y303000D01*
X318493Y302060D01*
X318855Y301185D01*
X319432Y300432D01*
X320184Y299855D01*
X321060Y299493D01*
X322000Y299369D01*
X322940Y299493D01*
X323815Y299855D01*
X324479Y300364D01*
X324978Y300220D01*
Y298565D01*
X316250Y289837D01*
X316000Y289886D01*
X315278Y289743D01*
X314666Y289334D01*
X314257Y288722D01*
X314114Y288000D01*
X314163Y287750D01*
X310707Y284293D01*
X310464Y283929D01*
X310378Y283500D01*
X310379Y283500D01*
Y246225D01*
X310185Y246145D01*
X309433Y245567D01*
X308855Y244815D01*
X308493Y243940D01*
X308369Y243000D01*
X308493Y242060D01*
X308855Y241184D01*
X309342Y240550D01*
X296749Y227957D01*
X295979Y228275D01*
X295000Y228404D01*
X294021Y228275D01*
X293109Y227898D01*
X292325Y227296D01*
X291724Y226513D01*
X291458Y225869D01*
X277542D01*
X277276Y226513D01*
X276675Y227296D01*
X275891Y227898D01*
X274979Y228275D01*
X274000Y228404D01*
X273021Y228275D01*
X272109Y227898D01*
X271326Y227296D01*
X270725Y226513D01*
X270458Y225869D01*
X256542D01*
X256276Y226513D01*
X255675Y227296D01*
X254891Y227898D01*
X253979Y228275D01*
X253000Y228404D01*
X252021Y228275D01*
X251109Y227898D01*
X250325Y227296D01*
X249724Y226513D01*
X249346Y225601D01*
X249218Y224622D01*
X249346Y223643D01*
X249724Y222731D01*
X250325Y221948D01*
X251109Y221346D01*
X252021Y220969D01*
X252259Y220937D01*
Y220433D01*
X252021Y220402D01*
X251109Y220024D01*
X250325Y219423D01*
X249724Y218639D01*
X249346Y217727D01*
X249218Y216748D01*
X249346Y215769D01*
X249724Y214857D01*
X250325Y214073D01*
X251109Y213472D01*
X252021Y213094D01*
X252259Y213063D01*
Y212559D01*
X252021Y212527D01*
X251109Y212150D01*
X250325Y211548D01*
X249724Y210765D01*
X249346Y209853D01*
X249218Y208874D01*
X249346Y207895D01*
X249724Y206983D01*
X250325Y206200D01*
X251109Y205598D01*
X252021Y205221D01*
X253000Y205092D01*
X253979Y205221D01*
X254891Y205598D01*
X255675Y206200D01*
X256276Y206983D01*
X256435Y207369D01*
X270565D01*
X270725Y206983D01*
X271326Y206200D01*
X272109Y205598D01*
X273021Y205221D01*
X274000Y205092D01*
X274979Y205221D01*
X275891Y205598D01*
X276675Y206200D01*
X277276Y206983D01*
X277436Y207369D01*
X291565D01*
X291724Y206983D01*
X292325Y206200D01*
X293109Y205598D01*
X294021Y205221D01*
X295000Y205092D01*
X295979Y205221D01*
X296891Y205598D01*
X297674Y206200D01*
X298276Y206983D01*
X298654Y207895D01*
X298782Y208874D01*
X298654Y209853D01*
X298546Y210113D01*
X306153Y217721D01*
X306507Y218250D01*
X306631Y218874D01*
X306631Y218874D01*
Y224592D01*
X308655Y226615D01*
X309117Y226424D01*
Y224266D01*
X310367D01*
Y223183D01*
X310207D01*
Y216274D01*
X313769D01*
Y223183D01*
X312610D01*
Y224266D01*
X313860D01*
Y227878D01*
X314783D01*
Y224266D01*
X315867D01*
Y223183D01*
X315207D01*
Y216274D01*
X318769D01*
Y223183D01*
X318110D01*
Y224266D01*
X319527D01*
Y227878D01*
X325732D01*
X325732Y227878D01*
X326161Y227964D01*
X326525Y228207D01*
X328096Y229778D01*
X330860D01*
Y233369D01*
X332323D01*
X332561Y233416D01*
X332800Y233369D01*
X339866D01*
X343185Y230050D01*
X342994Y229588D01*
X332274D01*
Y223649D01*
X326000D01*
X325541Y223459D01*
X325426Y223183D01*
X325207D01*
Y216274D01*
X328769D01*
Y216351D01*
X330731D01*
X331701Y215380D01*
Y205490D01*
X331628D01*
Y201534D01*
X331908D01*
X332351Y201351D01*
X333235D01*
X333299Y201377D01*
X333367Y201364D01*
X333521Y201469D01*
X333677Y201534D01*
X336372D01*
Y202390D01*
X337335D01*
X339605Y200121D01*
Y196054D01*
X350647D01*
Y203946D01*
X349649D01*
Y204000D01*
X349459Y204459D01*
X344649Y209269D01*
Y214412D01*
X344891D01*
Y227691D01*
X345353Y227882D01*
X352389Y220847D01*
X352918Y220493D01*
X353542Y220369D01*
X355109D01*
Y214412D01*
X355852D01*
X356000Y214351D01*
X364731D01*
X371282Y207800D01*
Y207530D01*
X371552D01*
X373541Y205541D01*
X374000Y205351D01*
X382000D01*
X382459Y205541D01*
X382649Y206000D01*
Y207530D01*
X382718D01*
Y212470D01*
X382649D01*
Y225000D01*
X382631Y225045D01*
X384465Y226878D01*
X404191D01*
X404360Y226378D01*
X403764Y225921D01*
X403037Y224973D01*
X402580Y223869D01*
X402424Y222685D01*
X402580Y221501D01*
X403037Y220397D01*
X403764Y219449D01*
X404712Y218722D01*
X405816Y218265D01*
X405878Y218256D01*
Y213465D01*
X387180Y194766D01*
X329248D01*
X328769Y194817D01*
Y197150D01*
X329992D01*
X330271Y196964D01*
X330700Y196878D01*
X331628D01*
Y196022D01*
X336372D01*
Y199978D01*
X331628D01*
Y199393D01*
X328769D01*
Y201726D01*
X325207D01*
Y196701D01*
X324745Y196510D01*
X323769Y197486D01*
Y198412D01*
X323886Y199000D01*
X323769Y199588D01*
Y201726D01*
X320207D01*
Y199469D01*
X320114Y199000D01*
X320207Y198531D01*
Y194817D01*
X323265D01*
X324499Y193584D01*
X324308Y193122D01*
X236411D01*
X236387Y193622D01*
X236661Y193649D01*
X238259Y194133D01*
X239731Y194920D01*
X241021Y195979D01*
X242080Y197269D01*
X242867Y198741D01*
X243351Y200339D01*
X243515Y202000D01*
X243351Y203661D01*
X242867Y205259D01*
X242080Y206731D01*
X241021Y208021D01*
X239731Y209080D01*
X238259Y209867D01*
X236661Y210351D01*
X235000Y210515D01*
X233339Y210351D01*
X231741Y209867D01*
X230269Y209080D01*
X228979Y208021D01*
X227920Y206731D01*
X227133Y205259D01*
X226649Y203661D01*
X226622Y203387D01*
X226121Y203411D01*
Y256589D01*
X226622Y256613D01*
X226649Y256339D01*
X227133Y254741D01*
X227920Y253269D01*
X228979Y251979D01*
X230269Y250920D01*
X231741Y250133D01*
X233339Y249649D01*
X235000Y249485D01*
X236661Y249649D01*
X238259Y250133D01*
X239731Y250920D01*
X241021Y251979D01*
X242080Y253269D01*
X242867Y254741D01*
X243351Y256339D01*
X243515Y258000D01*
X243351Y259661D01*
X242867Y261259D01*
X242080Y262731D01*
X241021Y264021D01*
X239731Y265080D01*
X238259Y265867D01*
X236661Y266351D01*
X235000Y266515D01*
X233339Y266351D01*
X231741Y265867D01*
X230269Y265080D01*
X228979Y264021D01*
X227920Y262731D01*
X227133Y261259D01*
X226649Y259661D01*
X226622Y259387D01*
X226121Y259411D01*
Y310589D01*
X226622Y310613D01*
X226649Y310339D01*
X227133Y308741D01*
X227920Y307269D01*
X228979Y305979D01*
X230269Y304920D01*
X231741Y304133D01*
X233339Y303649D01*
X235000Y303485D01*
X236661Y303649D01*
X238259Y304133D01*
X239731Y304920D01*
X241021Y305979D01*
X242080Y307269D01*
X242867Y308741D01*
X243351Y310339D01*
X243515Y312000D01*
X243351Y313661D01*
X242867Y315259D01*
X242080Y316731D01*
X241021Y318021D01*
X239731Y319080D01*
X238259Y319867D01*
X236661Y320351D01*
X236387Y320378D01*
X236411Y320879D01*
X332388D01*
X332628Y320478D01*
X332628Y320378D01*
Y319621D01*
X324500D01*
X324071Y319536D01*
X323707Y319293D01*
X323707Y319293D01*
X323634Y319220D01*
X322940Y319507D01*
X322000Y319631D01*
X321060Y319507D01*
X320184Y319145D01*
X319432Y318567D01*
X318855Y317815D01*
X318493Y316940D01*
X318369Y316000D01*
X318493Y315060D01*
X318855Y314184D01*
X319432Y313433D01*
X320184Y312855D01*
X321060Y312493D01*
X322000Y312369D01*
X322940Y312493D01*
X323815Y312855D01*
X324568Y313433D01*
X325145Y314184D01*
X325507Y315060D01*
X325631Y316000D01*
X325515Y316878D01*
X325568Y317068D01*
X325776Y317378D01*
X332628D01*
Y316522D01*
X337372D01*
Y317378D01*
X338700D01*
X338700Y317378D01*
X338759Y317390D01*
X340128D01*
Y316534D01*
X344872D01*
Y317390D01*
X349780D01*
X350688Y316482D01*
Y312931D01*
X354238D01*
X354978Y312191D01*
Y305780D01*
X354479Y305636D01*
X353816Y306145D01*
X352940Y306507D01*
X352000Y306631D01*
X351060Y306507D01*
X350184Y306145D01*
X349432Y305568D01*
X348855Y304816D01*
X348493Y303940D01*
X348369Y303000D01*
X348493Y302060D01*
X348855Y301185D01*
X349432Y300432D01*
X350184Y299855D01*
X351060Y299493D01*
X352000Y299369D01*
X352940Y299493D01*
X353816Y299855D01*
X354479Y300364D01*
X354978Y300220D01*
Y295776D01*
X354766Y295634D01*
X354357Y295022D01*
X354214Y294300D01*
X354357Y293578D01*
X354766Y292966D01*
X355378Y292557D01*
X356100Y292414D01*
X356822Y292557D01*
X357434Y292966D01*
X357843Y293578D01*
X357986Y294300D01*
X357843Y295022D01*
X357434Y295634D01*
X357222Y295776D01*
Y312497D01*
X357296Y312701D01*
X357677Y312931D01*
X362517D01*
Y314378D01*
X364022D01*
Y313128D01*
X367978D01*
Y317872D01*
X364022D01*
Y316621D01*
X362517D01*
Y318069D01*
X357381D01*
Y313619D01*
X356934Y313463D01*
X356880Y313462D01*
X355824Y314518D01*
Y318069D01*
X352274D01*
X351037Y319305D01*
X350673Y319548D01*
X350244Y319633D01*
X350244Y319633D01*
X344872D01*
Y320378D01*
X344872Y320490D01*
X345140Y320879D01*
X550589D01*
X550613Y320378D01*
D02*
G37*
%LPC*%
G36*
X272000Y246631D02*
X271060Y246507D01*
X270184Y246145D01*
X269432Y245567D01*
X268855Y244815D01*
X268493Y243940D01*
X268369Y243000D01*
X268493Y242060D01*
X268855Y241184D01*
X269432Y240433D01*
X270184Y239855D01*
X271060Y239493D01*
X272000Y239369D01*
X272940Y239493D01*
X273815Y239855D01*
X274568Y240433D01*
X275145Y241184D01*
X275507Y242060D01*
X275631Y243000D01*
X275507Y243940D01*
X275145Y244815D01*
X274568Y245567D01*
X273815Y246145D01*
X272940Y246507D01*
X272000Y246631D01*
D02*
G37*
G36*
X282000D02*
X281060Y246507D01*
X280185Y246145D01*
X279433Y245567D01*
X278855Y244815D01*
X278493Y243940D01*
X278369Y243000D01*
X278493Y242060D01*
X278855Y241184D01*
X279433Y240433D01*
X280185Y239855D01*
X281060Y239493D01*
X282000Y239369D01*
X282940Y239493D01*
X283816Y239855D01*
X284567Y240433D01*
X285145Y241184D01*
X285507Y242060D01*
X285631Y243000D01*
X285507Y243940D01*
X285145Y244815D01*
X284567Y245567D01*
X283816Y246145D01*
X282940Y246507D01*
X282000Y246631D01*
D02*
G37*
G36*
X332000D02*
X331060Y246507D01*
X330185Y246145D01*
X329433Y245567D01*
X328855Y244815D01*
X328493Y243940D01*
X328369Y243000D01*
X328493Y242060D01*
X328855Y241184D01*
X329433Y240433D01*
X330185Y239855D01*
X331060Y239493D01*
X332000Y239369D01*
X332940Y239493D01*
X333816Y239855D01*
X334567Y240433D01*
X335145Y241184D01*
X335507Y242060D01*
X335631Y243000D01*
X335507Y243940D01*
X335145Y244815D01*
X334567Y245567D01*
X333816Y246145D01*
X332940Y246507D01*
X332000Y246631D01*
D02*
G37*
G36*
X302000D02*
X301060Y246507D01*
X300184Y246145D01*
X299432Y245567D01*
X298855Y244815D01*
X298493Y243940D01*
X298369Y243000D01*
X298493Y242060D01*
X298855Y241184D01*
X299432Y240433D01*
X300184Y239855D01*
X301060Y239493D01*
X302000Y239369D01*
X302940Y239493D01*
X303816Y239855D01*
X304568Y240433D01*
X305145Y241184D01*
X305507Y242060D01*
X305631Y243000D01*
X305507Y243940D01*
X305145Y244815D01*
X304568Y245567D01*
X303816Y246145D01*
X302940Y246507D01*
X302000Y246631D01*
D02*
G37*
G36*
X292000D02*
X291060Y246507D01*
X290184Y246145D01*
X289433Y245567D01*
X288855Y244815D01*
X288493Y243940D01*
X288369Y243000D01*
X288493Y242060D01*
X288855Y241184D01*
X289433Y240433D01*
X290184Y239855D01*
X291060Y239493D01*
X292000Y239369D01*
X292940Y239493D01*
X293815Y239855D01*
X294567Y240433D01*
X295145Y241184D01*
X295507Y242060D01*
X295631Y243000D01*
X295507Y243940D01*
X295145Y244815D01*
X294567Y245567D01*
X293815Y246145D01*
X292940Y246507D01*
X292000Y246631D01*
D02*
G37*
G36*
X255600Y319600D02*
X248400D01*
Y312400D01*
X250879D01*
Y253000D01*
X250878Y253000D01*
X250964Y252571D01*
X251207Y252207D01*
X258780Y244634D01*
X258493Y243940D01*
X258369Y243000D01*
X258493Y242060D01*
X258855Y241184D01*
X259433Y240433D01*
X260185Y239855D01*
X261060Y239493D01*
X262000Y239369D01*
X262940Y239493D01*
X263815Y239855D01*
X264567Y240433D01*
X265145Y241184D01*
X265507Y242060D01*
X265631Y243000D01*
X265507Y243940D01*
X265145Y244815D01*
X264567Y245567D01*
X263815Y246145D01*
X262940Y246507D01*
X262000Y246631D01*
X261060Y246507D01*
X260366Y246220D01*
X253121Y253465D01*
Y312400D01*
X255600D01*
Y319600D01*
D02*
G37*
G36*
X554000Y237782D02*
X553021Y237653D01*
X552109Y237276D01*
X551326Y236674D01*
X550724Y235891D01*
X550347Y234979D01*
X550218Y234000D01*
X550347Y233021D01*
X550724Y232109D01*
X551326Y231326D01*
X552109Y230724D01*
X553021Y230346D01*
X553259Y230315D01*
Y229811D01*
X553021Y229780D01*
X552109Y229402D01*
X551326Y228801D01*
X550724Y228017D01*
X550347Y227105D01*
X550218Y226126D01*
X550347Y225147D01*
X550724Y224235D01*
X551326Y223451D01*
X552109Y222850D01*
X553021Y222473D01*
X554000Y222344D01*
X554979Y222473D01*
X555891Y222850D01*
X556674Y223451D01*
X557276Y224235D01*
X557654Y225147D01*
X557782Y226126D01*
X557654Y227105D01*
X557276Y228017D01*
X556674Y228801D01*
X555891Y229402D01*
X554979Y229780D01*
X554741Y229811D01*
Y230315D01*
X554979Y230346D01*
X555891Y230724D01*
X556674Y231326D01*
X557276Y232109D01*
X557654Y233021D01*
X557782Y234000D01*
X557654Y234979D01*
X557276Y235891D01*
X556674Y236674D01*
X555891Y237276D01*
X554979Y237653D01*
X554000Y237782D01*
D02*
G37*
G36*
X323769Y223183D02*
X320207D01*
Y216274D01*
X323769D01*
Y223183D01*
D02*
G37*
G36*
X318769Y201726D02*
X315207D01*
Y199469D01*
X315114Y199000D01*
X315207Y198531D01*
Y194817D01*
X318769D01*
Y198412D01*
X318886Y199000D01*
X318769Y199588D01*
Y201726D01*
D02*
G37*
G36*
X434068Y237934D02*
X428932D01*
Y232798D01*
X434068D01*
Y234244D01*
X436266D01*
Y232628D01*
X440222D01*
Y237372D01*
X436266D01*
Y236488D01*
X434068D01*
Y237934D01*
D02*
G37*
G36*
X352000Y246631D02*
X351060Y246507D01*
X350184Y246145D01*
X349432Y245567D01*
X348855Y244815D01*
X348493Y243940D01*
X348369Y243000D01*
X348493Y242060D01*
X348855Y241184D01*
X349432Y240433D01*
X350184Y239855D01*
X350879Y239568D01*
Y232776D01*
X350666Y232634D01*
X350257Y232022D01*
X350114Y231300D01*
X350257Y230578D01*
X350666Y229966D01*
X351278Y229557D01*
X352000Y229414D01*
X352722Y229557D01*
X353334Y229966D01*
X353743Y230578D01*
X353886Y231300D01*
X353743Y232022D01*
X353334Y232634D01*
X353121Y232776D01*
Y239568D01*
X353816Y239855D01*
X354568Y240433D01*
X355145Y241184D01*
X355507Y242060D01*
X355631Y243000D01*
X355507Y243940D01*
X355145Y244815D01*
X354568Y245567D01*
X353816Y246145D01*
X352940Y246507D01*
X352000Y246631D01*
D02*
G37*
G36*
X507280Y234206D02*
X506694Y234090D01*
X505803D01*
X505224Y233974D01*
X504732Y233646D01*
X504404Y233155D01*
X504288Y232575D01*
X504404Y231995D01*
X504647Y231631D01*
X504699Y231295D01*
X504647Y230959D01*
X504404Y230595D01*
X504288Y230016D01*
X504404Y229436D01*
X504732Y228945D01*
X505224Y228616D01*
X505803Y228501D01*
X506694D01*
X507280Y228384D01*
X521029D01*
X521350Y227609D01*
X521951Y226825D01*
X522735Y226224D01*
X523647Y225847D01*
X524626Y225718D01*
X525605Y225847D01*
X526517Y226224D01*
X527301Y226825D01*
X527902Y227609D01*
X528279Y228521D01*
X528311Y228759D01*
X528815D01*
X528847Y228521D01*
X529224Y227609D01*
X529258Y227565D01*
X523104Y221411D01*
X512053D01*
X511761Y221911D01*
X511846Y222339D01*
X511730Y222918D01*
X511402Y223410D01*
X510911Y223738D01*
X510331Y223853D01*
X507865D01*
X507280Y223970D01*
X506694Y223853D01*
X505803D01*
X505224Y223738D01*
X504732Y223410D01*
X504404Y222918D01*
X504288Y222339D01*
X504404Y221759D01*
X504647Y221395D01*
X504699Y221059D01*
X504647Y220723D01*
X504404Y220359D01*
X504288Y219780D01*
X504404Y219200D01*
X504732Y218708D01*
Y218292D01*
X504404Y217800D01*
X504288Y217220D01*
X504404Y216641D01*
X504647Y216277D01*
X504699Y215941D01*
X504647Y215605D01*
X504404Y215241D01*
X504288Y214661D01*
X504404Y214082D01*
X504732Y213590D01*
X505224Y213262D01*
X505803Y213146D01*
X506694D01*
X507280Y213030D01*
X507865Y213146D01*
X510331D01*
X510911Y213262D01*
X511402Y213590D01*
X511730Y214082D01*
X511846Y214661D01*
X511804Y214869D01*
X512201Y215369D01*
X524324D01*
X526276Y213417D01*
X525993Y212993D01*
X525605Y213154D01*
X524626Y213282D01*
X523647Y213154D01*
X522735Y212776D01*
X521951Y212175D01*
X521350Y211391D01*
X520972Y210479D01*
X520844Y209500D01*
X520884Y209191D01*
X520308Y208615D01*
X507280D01*
X506694Y208499D01*
X505803D01*
X505224Y208384D01*
X504732Y208055D01*
X504404Y207564D01*
X504288Y206984D01*
X504404Y206404D01*
X504647Y206041D01*
X504699Y205705D01*
X504647Y205369D01*
X504404Y205005D01*
X504288Y204425D01*
X504404Y203846D01*
X504732Y203354D01*
X505224Y203026D01*
X505803Y202910D01*
X506694D01*
X507280Y202794D01*
X507865Y202910D01*
X510331D01*
X510911Y203026D01*
X511402Y203354D01*
X511730Y203846D01*
X511846Y204425D01*
X511761Y204853D01*
X512053Y205353D01*
X520984D01*
X521608Y205477D01*
X522138Y205831D01*
X522620Y206313D01*
X522735Y206224D01*
X523647Y205847D01*
X524626Y205718D01*
X525605Y205847D01*
X526517Y206224D01*
X527301Y206825D01*
X527902Y207609D01*
X528279Y208521D01*
X528311Y208759D01*
X528815D01*
X528847Y208521D01*
X529224Y207609D01*
X529825Y206825D01*
X530609Y206224D01*
X531521Y205847D01*
X532500Y205718D01*
X533479Y205847D01*
X534391Y206224D01*
X535175Y206825D01*
X535776Y207609D01*
X536154Y208521D01*
X536282Y209500D01*
X536154Y210479D01*
X535776Y211391D01*
X535175Y212175D01*
X534391Y212776D01*
X533479Y213154D01*
X532500Y213282D01*
X531521Y213154D01*
X531261Y213046D01*
X526154Y218154D01*
X525624Y218507D01*
X525538Y218524D01*
X525374Y219067D01*
X532080Y225773D01*
X532500Y225718D01*
X533479Y225847D01*
X534391Y226224D01*
X535175Y226825D01*
X535776Y227609D01*
X536154Y228521D01*
X536282Y229500D01*
X536154Y230479D01*
X535776Y231391D01*
X535175Y232174D01*
X534391Y232776D01*
X533479Y233154D01*
X532500Y233282D01*
X531521Y233154D01*
X530609Y232776D01*
X529825Y232174D01*
X529224Y231391D01*
X528847Y230479D01*
X528815Y230241D01*
X528311D01*
X528279Y230479D01*
X527902Y231391D01*
X527301Y232174D01*
X526517Y232776D01*
X525605Y233154D01*
X524626Y233282D01*
X523647Y233154D01*
X522735Y232776D01*
X521951Y232174D01*
X521547Y231647D01*
X512053D01*
X511761Y232147D01*
X511846Y232575D01*
X511730Y233155D01*
X511402Y233646D01*
X510911Y233974D01*
X510331Y234090D01*
X507865D01*
X507280Y234206D01*
D02*
G37*
G36*
X312000Y306631D02*
X311060Y306507D01*
X310185Y306145D01*
X309433Y305568D01*
X308855Y304816D01*
X308493Y303940D01*
X308369Y303000D01*
X308493Y302060D01*
X308855Y301185D01*
X309433Y300432D01*
X310185Y299855D01*
X311060Y299493D01*
X312000Y299369D01*
X312940Y299493D01*
X313815Y299855D01*
X314567Y300432D01*
X315145Y301185D01*
X315507Y302060D01*
X315631Y303000D01*
X315507Y303940D01*
X315145Y304816D01*
X314567Y305568D01*
X313815Y306145D01*
X312940Y306507D01*
X312000Y306631D01*
D02*
G37*
G36*
X302000D02*
X301060Y306507D01*
X300184Y306145D01*
X299432Y305568D01*
X298855Y304816D01*
X298493Y303940D01*
X298369Y303000D01*
X298493Y302060D01*
X298855Y301185D01*
X299432Y300432D01*
X300184Y299855D01*
X301060Y299493D01*
X302000Y299369D01*
X302940Y299493D01*
X303816Y299855D01*
X304568Y300432D01*
X305145Y301185D01*
X305507Y302060D01*
X305631Y303000D01*
X305507Y303940D01*
X305145Y304816D01*
X304568Y305568D01*
X303816Y306145D01*
X302940Y306507D01*
X302000Y306631D01*
D02*
G37*
G36*
X292000Y319631D02*
X291060Y319507D01*
X290184Y319145D01*
X289433Y318567D01*
X288855Y317815D01*
X288493Y316940D01*
X288369Y316000D01*
X288493Y315060D01*
X288855Y314184D01*
X289433Y313433D01*
X290184Y312855D01*
X290879Y312568D01*
Y306432D01*
X290184Y306145D01*
X289433Y305568D01*
X288855Y304816D01*
X288493Y303940D01*
X288369Y303000D01*
X288493Y302060D01*
X288855Y301185D01*
X289433Y300432D01*
X290184Y299855D01*
X291060Y299493D01*
X292000Y299369D01*
X292940Y299493D01*
X293815Y299855D01*
X294567Y300432D01*
X295145Y301185D01*
X295507Y302060D01*
X295631Y303000D01*
X295507Y303940D01*
X295145Y304816D01*
X294567Y305568D01*
X293815Y306145D01*
X293122Y306432D01*
Y312568D01*
X293815Y312855D01*
X294567Y313433D01*
X295145Y314184D01*
X295507Y315060D01*
X295631Y316000D01*
X295507Y316940D01*
X295145Y317815D01*
X294567Y318567D01*
X293815Y319145D01*
X292940Y319507D01*
X292000Y319631D01*
D02*
G37*
G36*
X392000Y306631D02*
X391060Y306507D01*
X390184Y306145D01*
X389433Y305568D01*
X388855Y304816D01*
X388493Y303940D01*
X388369Y303000D01*
X388493Y302060D01*
X388855Y301185D01*
X389433Y300432D01*
X390184Y299855D01*
X391060Y299493D01*
X392000Y299369D01*
X392940Y299493D01*
X393815Y299855D01*
X394567Y300432D01*
X395145Y301185D01*
X395507Y302060D01*
X395631Y303000D01*
X395507Y303940D01*
X395145Y304816D01*
X394567Y305568D01*
X393815Y306145D01*
X392940Y306507D01*
X392000Y306631D01*
D02*
G37*
G36*
X302000Y319631D02*
X301060Y319507D01*
X300184Y319145D01*
X299432Y318567D01*
X298855Y317815D01*
X298493Y316940D01*
X298369Y316000D01*
X298493Y315060D01*
X298855Y314184D01*
X299432Y313433D01*
X300184Y312855D01*
X301060Y312493D01*
X302000Y312369D01*
X302940Y312493D01*
X303816Y312855D01*
X304568Y313433D01*
X305145Y314184D01*
X305507Y315060D01*
X305631Y316000D01*
X305507Y316940D01*
X305145Y317815D01*
X304568Y318567D01*
X303816Y319145D01*
X302940Y319507D01*
X302000Y319631D01*
D02*
G37*
G36*
X508378Y313482D02*
X507793Y313365D01*
X506902D01*
X506322Y313250D01*
X505830Y312922D01*
X505502Y312430D01*
X505387Y311850D01*
X505502Y311271D01*
X505745Y310907D01*
X505798Y310571D01*
X505745Y310235D01*
X505502Y309871D01*
X505387Y309291D01*
X505502Y308712D01*
X505830Y308220D01*
X506322Y307892D01*
X506902Y307776D01*
X508415D01*
X509000Y307660D01*
X509585Y307776D01*
X509899D01*
X510484Y307660D01*
X511069Y307776D01*
X511429D01*
X512009Y307892D01*
X512500Y308220D01*
X512600Y308369D01*
X520963D01*
X521071Y307551D01*
X521449Y306638D01*
X522050Y305855D01*
X522833Y305254D01*
X523745Y304876D01*
X524724Y304747D01*
X525703Y304876D01*
X526616Y305254D01*
X527399Y305855D01*
X528000Y306638D01*
X528378Y307551D01*
X528409Y307789D01*
X528914D01*
X528945Y307551D01*
X529323Y306638D01*
X529326Y306633D01*
X524324Y301631D01*
X512941D01*
X512829Y302194D01*
X512500Y302685D01*
X512009Y303014D01*
X511429Y303129D01*
X508963D01*
X508378Y303246D01*
X507793Y303129D01*
X506902D01*
X506322Y303014D01*
X505830Y302685D01*
X505502Y302194D01*
X505387Y301614D01*
X505502Y301034D01*
X505830Y300543D01*
Y300126D01*
X505502Y299635D01*
X505387Y299055D01*
X505502Y298475D01*
X505745Y298112D01*
X505798Y297776D01*
X505745Y297440D01*
X505502Y297076D01*
X505387Y296496D01*
X505502Y295916D01*
X505745Y295552D01*
X505798Y295216D01*
X505745Y294881D01*
X505502Y294517D01*
X505387Y293937D01*
X505502Y293357D01*
X505830Y292866D01*
X506322Y292537D01*
X506902Y292422D01*
X507793D01*
X508378Y292306D01*
X508963Y292422D01*
X511429D01*
X512009Y292537D01*
X512500Y292866D01*
X512829Y293357D01*
X512944Y293937D01*
X512944Y293937D01*
X513261Y294324D01*
X525369D01*
X529308Y290385D01*
X528945Y289508D01*
X528914Y289270D01*
X528409D01*
X528378Y289508D01*
X528000Y290421D01*
X527399Y291204D01*
X526616Y291805D01*
X525703Y292183D01*
X524724Y292312D01*
X523745Y292183D01*
X522833Y291805D01*
X522050Y291204D01*
X521449Y290421D01*
X521443Y290407D01*
X516776D01*
X516151Y290283D01*
X515622Y289929D01*
X513584Y287891D01*
X508378D01*
X507793Y287775D01*
X506902D01*
X506322Y287659D01*
X505830Y287331D01*
X505502Y286840D01*
X505387Y286260D01*
X505502Y285680D01*
X505745Y285316D01*
X505798Y284980D01*
X505745Y284644D01*
X505502Y284280D01*
X505387Y283701D01*
X505502Y283121D01*
X505830Y282630D01*
X506322Y282301D01*
X506902Y282186D01*
X507793D01*
X508378Y282069D01*
X508963Y282186D01*
X511429D01*
X512009Y282301D01*
X512500Y282630D01*
X512829Y283121D01*
X512944Y283701D01*
X512859Y284128D01*
X513152Y284629D01*
X514260D01*
X514884Y284753D01*
X515413Y285106D01*
X517451Y287144D01*
X521239D01*
X521449Y286638D01*
X522050Y285855D01*
X522833Y285254D01*
X523745Y284876D01*
X524724Y284747D01*
X525703Y284876D01*
X526616Y285254D01*
X527399Y285855D01*
X528000Y286638D01*
X528378Y287550D01*
X528409Y287789D01*
X528914D01*
X528945Y287550D01*
X529323Y286638D01*
X529924Y285855D01*
X530707Y285254D01*
X531619Y284876D01*
X532598Y284747D01*
X533577Y284876D01*
X534490Y285254D01*
X535273Y285855D01*
X535874Y286638D01*
X536252Y287550D01*
X536381Y288529D01*
X536252Y289508D01*
X535874Y290421D01*
X535273Y291204D01*
X534490Y291805D01*
X533577Y292183D01*
X532598Y292312D01*
X532065Y292242D01*
X527199Y297109D01*
X526669Y297462D01*
X526045Y297586D01*
X512950D01*
X512711Y298054D01*
X512925Y298369D01*
X525000D01*
X525624Y298493D01*
X526154Y298847D01*
X532117Y304810D01*
X532598Y304747D01*
X533577Y304876D01*
X534490Y305254D01*
X535273Y305855D01*
X535874Y306638D01*
X536252Y307551D01*
X536381Y308529D01*
X536252Y309508D01*
X535874Y310421D01*
X535273Y311204D01*
X534490Y311805D01*
X533577Y312183D01*
X532598Y312312D01*
X531619Y312183D01*
X530707Y311805D01*
X529924Y311204D01*
X529323Y310421D01*
X528945Y309508D01*
X528914Y309270D01*
X528409D01*
X528378Y309508D01*
X528000Y310421D01*
X527399Y311204D01*
X526616Y311805D01*
X525703Y312183D01*
X524724Y312312D01*
X523745Y312183D01*
X522833Y311805D01*
X522607Y311631D01*
X513124D01*
X512944Y311850D01*
X512829Y312430D01*
X512500Y312922D01*
X512009Y313250D01*
X511429Y313365D01*
X508963D01*
X508378Y313482D01*
D02*
G37*
G36*
X405600Y306600D02*
X398400D01*
Y299400D01*
X405600D01*
Y306600D01*
D02*
G37*
G36*
X508000Y273781D02*
X507415Y273664D01*
X506524D01*
X505944Y273549D01*
X505452Y273221D01*
X505124Y272729D01*
X505009Y272150D01*
X505124Y271570D01*
X505367Y271206D01*
X505420Y270870D01*
X505367Y270534D01*
X505124Y270170D01*
X505009Y269591D01*
X505124Y269011D01*
X505452Y268519D01*
X505944Y268191D01*
X506524Y268076D01*
X507278D01*
X507376Y268010D01*
X508000Y267886D01*
X520688D01*
X520693Y267850D01*
X521071Y266937D01*
X521672Y266154D01*
X522455Y265553D01*
X523368Y265175D01*
X524346Y265046D01*
X525325Y265175D01*
X526238Y265553D01*
X527021Y266154D01*
X527622Y266937D01*
X528000Y267850D01*
X528031Y268088D01*
X528536D01*
X528567Y267850D01*
X528945Y266937D01*
X529242Y266549D01*
X526238Y263545D01*
X508000D01*
X507415Y263428D01*
X506524D01*
X505944Y263313D01*
X505452Y262985D01*
X505124Y262493D01*
X505009Y261913D01*
X505124Y261334D01*
X505367Y260970D01*
X505420Y260634D01*
X505367Y260298D01*
X505124Y259934D01*
X505009Y259354D01*
X505124Y258775D01*
X505452Y258283D01*
Y257866D01*
X505124Y257375D01*
X505009Y256795D01*
X505124Y256216D01*
X505367Y255852D01*
X505420Y255516D01*
X505367Y255180D01*
X505124Y254816D01*
X505009Y254236D01*
X505124Y253657D01*
X505452Y253165D01*
X505944Y252837D01*
X506524Y252721D01*
X507415D01*
X508000Y252605D01*
X522357D01*
X522457Y252105D01*
X522455Y252104D01*
X521672Y251503D01*
X521071Y250720D01*
X520693Y249808D01*
X520564Y248829D01*
X520599Y248566D01*
X520269Y248190D01*
X508000D01*
X507415Y248074D01*
X506524D01*
X505944Y247959D01*
X505452Y247630D01*
X505124Y247139D01*
X505009Y246559D01*
X505124Y245979D01*
X505367Y245616D01*
X505420Y245280D01*
X505367Y244943D01*
X505124Y244580D01*
X505009Y244000D01*
X505124Y243420D01*
X505452Y242929D01*
X505944Y242600D01*
X506524Y242485D01*
X507415D01*
X508000Y242369D01*
X508585Y242485D01*
X511051D01*
X511631Y242600D01*
X512122Y242929D01*
X512451Y243420D01*
X512566Y244000D01*
X512481Y244428D01*
X512774Y244928D01*
X522831D01*
X523455Y245052D01*
X523595Y245145D01*
X524346Y245046D01*
X525325Y245175D01*
X526238Y245553D01*
X527021Y246154D01*
X527622Y246937D01*
X528000Y247850D01*
X528031Y248088D01*
X528536D01*
X528567Y247850D01*
X528945Y246937D01*
X529546Y246154D01*
X530329Y245553D01*
X531241Y245175D01*
X532220Y245046D01*
X533199Y245175D01*
X534112Y245553D01*
X534895Y246154D01*
X535496Y246937D01*
X535874Y247850D01*
X536003Y248829D01*
X535874Y249808D01*
X535496Y250720D01*
X534895Y251503D01*
X534112Y252104D01*
X533199Y252482D01*
X532220Y252611D01*
X532018Y252584D01*
X529213Y255390D01*
X528683Y255743D01*
X528059Y255868D01*
X512774D01*
X512481Y256368D01*
X512566Y256795D01*
X512451Y257375D01*
X512122Y257866D01*
Y258283D01*
X512451Y258775D01*
X512566Y259354D01*
X512481Y259782D01*
X512774Y260282D01*
X526913D01*
X527538Y260406D01*
X528067Y260760D01*
X532374Y265066D01*
X533199Y265175D01*
X534112Y265553D01*
X534895Y266154D01*
X535496Y266937D01*
X535874Y267850D01*
X536003Y268829D01*
X535874Y269808D01*
X535496Y270720D01*
X534895Y271503D01*
X534112Y272104D01*
X533199Y272482D01*
X532220Y272611D01*
X531241Y272482D01*
X530329Y272104D01*
X529546Y271503D01*
X528945Y270720D01*
X528567Y269808D01*
X528536Y269569D01*
X528031D01*
X528000Y269808D01*
X527622Y270720D01*
X527021Y271503D01*
X526238Y272104D01*
X525325Y272482D01*
X524346Y272611D01*
X523368Y272482D01*
X522455Y272104D01*
X521672Y271503D01*
X521400Y271149D01*
X512702D01*
X512466Y271649D01*
X512566Y272150D01*
X512451Y272729D01*
X512122Y273221D01*
X511631Y273549D01*
X511051Y273664D01*
X508585D01*
X508000Y273781D01*
D02*
G37*
G36*
X402000Y246631D02*
X401060Y246507D01*
X400184Y246145D01*
X399432Y245567D01*
X398855Y244815D01*
X398493Y243940D01*
X398369Y243000D01*
X398493Y242060D01*
X398855Y241184D01*
X399432Y240433D01*
X400184Y239855D01*
X401060Y239493D01*
X402000Y239369D01*
X402940Y239493D01*
X403816Y239855D01*
X404567Y240433D01*
X405145Y241184D01*
X405507Y242060D01*
X405631Y243000D01*
X405507Y243940D01*
X405145Y244815D01*
X404567Y245567D01*
X403816Y246145D01*
X402940Y246507D01*
X402000Y246631D01*
D02*
G37*
G36*
X382000D02*
X381060Y246507D01*
X380185Y246145D01*
X379433Y245567D01*
X378855Y244815D01*
X378493Y243940D01*
X378369Y243000D01*
X378493Y242060D01*
X378855Y241184D01*
X379433Y240433D01*
X380185Y239855D01*
X381060Y239493D01*
X382000Y239369D01*
X382940Y239493D01*
X383816Y239855D01*
X384567Y240433D01*
X385145Y241184D01*
X385507Y242060D01*
X385631Y243000D01*
X385507Y243940D01*
X385145Y244815D01*
X384567Y245567D01*
X383816Y246145D01*
X382940Y246507D01*
X382000Y246631D01*
D02*
G37*
G36*
X554000Y293656D02*
X553021Y293528D01*
X552109Y293150D01*
X551326Y292548D01*
X550724Y291765D01*
X550347Y290853D01*
X550218Y289874D01*
X550347Y288895D01*
X550724Y287983D01*
X551326Y287199D01*
X552109Y286598D01*
X553021Y286221D01*
X554000Y286092D01*
X554979Y286221D01*
X555891Y286598D01*
X556674Y287199D01*
X557276Y287983D01*
X557654Y288895D01*
X557782Y289874D01*
X557654Y290853D01*
X557276Y291765D01*
X556674Y292548D01*
X555891Y293150D01*
X554979Y293528D01*
X554000Y293656D01*
D02*
G37*
G36*
X282000Y319631D02*
X281060Y319507D01*
X280185Y319145D01*
X279433Y318567D01*
X278855Y317815D01*
X278493Y316940D01*
X278369Y316000D01*
X278493Y315060D01*
X278855Y314184D01*
X279433Y313433D01*
X280185Y312855D01*
X280878Y312568D01*
Y306432D01*
X280185Y306145D01*
X279433Y305568D01*
X278855Y304816D01*
X278493Y303940D01*
X278369Y303000D01*
X278493Y302060D01*
X278855Y301185D01*
X279433Y300432D01*
X280185Y299855D01*
X281060Y299493D01*
X282000Y299369D01*
X282940Y299493D01*
X283816Y299855D01*
X284567Y300432D01*
X285145Y301185D01*
X285507Y302060D01*
X285631Y303000D01*
X285507Y303940D01*
X285145Y304816D01*
X284567Y305568D01*
X283816Y306145D01*
X283121Y306432D01*
Y312568D01*
X283816Y312855D01*
X284567Y313433D01*
X285145Y314184D01*
X285507Y315060D01*
X285631Y316000D01*
X285507Y316940D01*
X285145Y317815D01*
X284567Y318567D01*
X283816Y319145D01*
X282940Y319507D01*
X282000Y319631D01*
D02*
G37*
G36*
X272000D02*
X271060Y319507D01*
X270184Y319145D01*
X269432Y318567D01*
X268855Y317815D01*
X268493Y316940D01*
X268369Y316000D01*
X268493Y315060D01*
X268855Y314184D01*
X269432Y313433D01*
X270184Y312855D01*
X270879Y312568D01*
Y306432D01*
X270184Y306145D01*
X269432Y305568D01*
X268855Y304816D01*
X268493Y303940D01*
X268369Y303000D01*
X268493Y302060D01*
X268855Y301185D01*
X269432Y300432D01*
X270184Y299855D01*
X271060Y299493D01*
X272000Y299369D01*
X272940Y299493D01*
X273815Y299855D01*
X274568Y300432D01*
X275145Y301185D01*
X275507Y302060D01*
X275631Y303000D01*
X275507Y303940D01*
X275145Y304816D01*
X274568Y305568D01*
X273815Y306145D01*
X273122Y306432D01*
Y312568D01*
X273815Y312855D01*
X274568Y313433D01*
X275145Y314184D01*
X275507Y315060D01*
X275631Y316000D01*
X275507Y316940D01*
X275145Y317815D01*
X274568Y318567D01*
X273815Y319145D01*
X272940Y319507D01*
X272000Y319631D01*
D02*
G37*
G36*
X262000D02*
X261060Y319507D01*
X260185Y319145D01*
X259433Y318567D01*
X258855Y317815D01*
X258493Y316940D01*
X258369Y316000D01*
X258493Y315060D01*
X258855Y314184D01*
X259433Y313433D01*
X260185Y312855D01*
X260878Y312568D01*
Y306432D01*
X260185Y306145D01*
X259433Y305568D01*
X258855Y304816D01*
X258493Y303940D01*
X258369Y303000D01*
X258493Y302060D01*
X258855Y301185D01*
X259433Y300432D01*
X260185Y299855D01*
X261060Y299493D01*
X262000Y299369D01*
X262940Y299493D01*
X263815Y299855D01*
X264567Y300432D01*
X265145Y301185D01*
X265507Y302060D01*
X265631Y303000D01*
X265507Y303940D01*
X265145Y304816D01*
X264567Y305568D01*
X263815Y306145D01*
X263122Y306432D01*
Y312568D01*
X263815Y312855D01*
X264567Y313433D01*
X265145Y314184D01*
X265507Y315060D01*
X265631Y316000D01*
X265507Y316940D01*
X265145Y317815D01*
X264567Y318567D01*
X263815Y319145D01*
X262940Y319507D01*
X262000Y319631D01*
D02*
G37*
%LPD*%
D10*
X371512Y315500D02*
D03*
X366000D02*
D03*
X438244Y235000D02*
D03*
X443756D02*
D03*
D11*
X468000Y298756D02*
D03*
Y293244D02*
D03*
X311488Y226244D02*
D03*
Y231756D02*
D03*
X328488Y226244D02*
D03*
Y231756D02*
D03*
X334000Y198000D02*
D03*
Y203512D02*
D03*
X317155Y231756D02*
D03*
Y226244D02*
D03*
X322822D02*
D03*
Y231756D02*
D03*
X342500Y313000D02*
D03*
Y318512D02*
D03*
X335000Y312988D02*
D03*
Y318500D02*
D03*
X474220Y259331D02*
D03*
Y253819D02*
D03*
X473500Y219756D02*
D03*
Y214244D02*
D03*
X474000Y298756D02*
D03*
Y293244D02*
D03*
D12*
X377000Y219780D02*
D03*
Y231000D02*
D03*
D13*
X345126Y200000D02*
D03*
X360874D02*
D03*
D14*
X377000Y198976D02*
D03*
Y210000D02*
D03*
D15*
X361417Y222000D02*
D03*
X338583D02*
D03*
D16*
X479654Y272150D02*
D03*
Y269591D02*
D03*
Y267032D02*
D03*
Y264472D02*
D03*
Y261913D02*
D03*
Y259354D02*
D03*
Y256795D02*
D03*
Y254236D02*
D03*
Y251677D02*
D03*
Y249118D02*
D03*
Y246559D02*
D03*
Y244000D02*
D03*
X508787Y272150D02*
D03*
Y269591D02*
D03*
Y267032D02*
D03*
Y264472D02*
D03*
Y261913D02*
D03*
Y259354D02*
D03*
Y256795D02*
D03*
Y254236D02*
D03*
Y251677D02*
D03*
Y249118D02*
D03*
Y246559D02*
D03*
Y244000D02*
D03*
X478933Y232575D02*
D03*
Y230016D02*
D03*
Y227457D02*
D03*
Y224898D02*
D03*
Y222339D02*
D03*
Y219780D02*
D03*
Y217220D02*
D03*
Y214661D02*
D03*
Y212102D02*
D03*
Y209543D02*
D03*
Y206984D02*
D03*
Y204425D02*
D03*
X508067Y232575D02*
D03*
Y230016D02*
D03*
Y227457D02*
D03*
Y224898D02*
D03*
Y222339D02*
D03*
Y219780D02*
D03*
Y217220D02*
D03*
Y214661D02*
D03*
Y212102D02*
D03*
Y209543D02*
D03*
Y206984D02*
D03*
Y204425D02*
D03*
X480031Y311850D02*
D03*
Y309291D02*
D03*
Y306732D02*
D03*
Y304173D02*
D03*
Y301614D02*
D03*
Y299055D02*
D03*
Y296496D02*
D03*
Y293937D02*
D03*
Y291378D02*
D03*
Y288819D02*
D03*
Y286260D02*
D03*
Y283701D02*
D03*
X509165Y311850D02*
D03*
Y309291D02*
D03*
Y306732D02*
D03*
Y304173D02*
D03*
Y301614D02*
D03*
Y299055D02*
D03*
Y296496D02*
D03*
Y293937D02*
D03*
Y291378D02*
D03*
Y288819D02*
D03*
Y286260D02*
D03*
Y283701D02*
D03*
D17*
X353256Y315500D02*
D03*
X359949D02*
D03*
X424807Y235366D02*
D03*
X431500D02*
D03*
D18*
X444513Y308123D02*
D03*
Y314816D02*
D03*
X437525Y308123D02*
D03*
Y314816D02*
D03*
X430538Y308123D02*
D03*
Y314816D02*
D03*
X423550Y308123D02*
D03*
Y314816D02*
D03*
D19*
X463189Y274000D02*
D03*
X475000D02*
D03*
X462094Y235000D02*
D03*
X473906D02*
D03*
X463094Y314000D02*
D03*
X474906D02*
D03*
D20*
X326988Y219728D02*
D03*
X321988D02*
D03*
X316988D02*
D03*
X311988D02*
D03*
X326988Y198272D02*
D03*
X321988D02*
D03*
X316988D02*
D03*
X311988D02*
D03*
D21*
X319488Y209000D02*
D03*
D22*
X442000Y242000D02*
X446329Y237671D01*
X442000Y242000D02*
Y254000D01*
X446329Y231480D02*
Y237671D01*
X450000Y230071D02*
X456650Y223421D01*
X450000Y230071D02*
Y236000D01*
X302000Y227000D02*
X318000Y243000D01*
X302000Y224000D02*
Y227000D01*
X294874Y216874D02*
X302000Y224000D01*
X384500Y311500D02*
X456460D01*
X459731Y308229D01*
X444021Y302021D02*
X470424D01*
X377000Y304000D02*
X384500Y311500D01*
X384000Y228000D02*
X414000D01*
X379000Y223000D02*
X384000Y228000D01*
X379000Y208000D02*
Y223000D01*
X370782Y228218D02*
X377000Y222000D01*
Y221000D02*
Y222000D01*
X369000Y226000D02*
Y229000D01*
X362000Y236000D02*
X369000Y229000D01*
X311488Y220228D02*
X311988Y219728D01*
X414000Y228000D02*
X444037Y197963D01*
X453500Y200500D02*
X480536D01*
X450963Y197963D02*
X453500Y200500D01*
X444037Y197963D02*
X450963D01*
X445000Y261000D02*
Y261229D01*
X440000Y267000D02*
X448237D01*
X423350Y269350D02*
X448150D01*
X419000Y265000D02*
X423350Y269350D01*
X369677Y265000D02*
X419000D01*
X448150Y269350D02*
X452500Y265000D01*
X448237Y267000D02*
X468678Y246559D01*
X445000Y261229D02*
X470542Y235687D01*
X407000Y213000D02*
Y222685D01*
X387644Y193644D02*
X407000Y213000D01*
X326025Y193644D02*
X387644D01*
X321988Y197680D02*
X326025Y193644D01*
X321988Y197680D02*
Y198272D01*
X475497Y304173D02*
X480031D01*
X474973Y303650D02*
X475497Y304173D01*
X471116Y303650D02*
X474973D01*
X475000Y281700D02*
Y283000D01*
X474500Y283500D02*
X475000Y283000D01*
X377000Y302202D02*
Y304000D01*
X366200Y298800D02*
X373598D01*
X377000Y302202D01*
X342000Y292677D02*
Y303000D01*
Y292677D02*
X369677Y265000D01*
X252000Y253000D02*
Y316000D01*
Y253000D02*
X262000Y243000D01*
X470500Y289000D02*
X472266Y290766D01*
X469924Y289000D02*
X470500D01*
X461441Y288559D02*
X471636Y278364D01*
X458200Y264319D02*
Y290500D01*
X369500Y243000D02*
X372000D01*
X362000Y236000D02*
Y243000D01*
X331500Y252500D02*
X393000D01*
X322000Y243000D02*
X331500Y252500D01*
X344000Y250000D02*
X344150Y250150D01*
X425000Y233000D02*
Y234232D01*
X342000Y238000D02*
X347000Y233000D01*
X352000Y231300D02*
Y243000D01*
X457950Y261927D02*
X468577Y251300D01*
X458200Y264319D02*
X468700Y253819D01*
X344150Y250150D02*
X410023D01*
X424807Y235366D01*
X311500Y241122D02*
Y283500D01*
X295000Y224622D02*
X311500Y241122D01*
X318000Y243000D02*
X322000D01*
Y284000D02*
X327900Y289900D01*
X322000Y243000D02*
Y284000D01*
X327900Y291000D02*
Y304698D01*
Y289900D02*
Y291000D01*
X332702Y309500D02*
X339000D01*
X327900Y304698D02*
X332702Y309500D01*
X326100Y298100D02*
Y305161D01*
X333927Y312988D01*
X335000D01*
X316000Y288000D02*
X326100Y298100D01*
X452500Y265000D02*
X468382Y249118D01*
X458200Y291200D02*
X460244Y293244D01*
X466689Y217650D02*
X471273Y222234D01*
X458027Y217650D02*
X466689D01*
X462027Y206650D02*
X478599D01*
X478500Y207558D02*
X478933Y207125D01*
Y206984D02*
Y207125D01*
X478599Y206650D02*
X478933Y206984D01*
X455050Y213627D02*
X462027Y206650D01*
X455050Y213627D02*
Y222758D01*
X446329Y231480D02*
X455050Y222758D01*
X456650Y219027D02*
Y223421D01*
X472314Y227457D02*
X478933D01*
X470542Y229229D02*
X472314Y227457D01*
X470542Y229229D02*
Y235687D01*
X468678Y246559D02*
X479654D01*
X468382Y249118D02*
X479654D01*
X468577Y251300D02*
X477700D01*
X457950Y261927D02*
Y262050D01*
X449000Y271000D02*
X457950Y262050D01*
X468700Y253819D02*
X474220D01*
X468500Y262500D02*
X475168D01*
X393500Y290500D02*
X458200D01*
X474000Y288000D02*
X474819Y288819D01*
X472266Y290766D02*
X476906D01*
X472834Y267032D02*
X479654D01*
X471636Y268229D02*
X472834Y267032D01*
X471636Y268229D02*
Y278364D01*
X391000Y271000D02*
X449000D01*
X458200Y290500D02*
Y291200D01*
X499000Y234000D02*
Y244000D01*
X481647Y216647D02*
X499000Y234000D01*
X486205Y256795D02*
X499000Y244000D01*
X480031Y296496D02*
X483904D01*
X477260Y286260D02*
X480031D01*
X474500Y283500D02*
X477260Y286260D01*
X474819Y288819D02*
X480031D01*
X475168Y262500D02*
X476850Y264182D01*
X479458Y290805D02*
X480031Y291378D01*
X476945Y290805D02*
X479458D01*
X476906Y290766D02*
X476945Y290805D01*
X469924Y289000D02*
X470500Y288424D01*
X480536Y200500D02*
X483183Y203147D01*
Y212925D01*
X481446Y214661D02*
X483183Y212925D01*
X477120Y293364D02*
X477693Y293937D01*
X476945Y293364D02*
X477120D01*
X476825Y293244D02*
X476945Y293364D01*
X474000Y293244D02*
X476825D01*
X473606Y292850D02*
X474000Y293244D01*
X468000Y292850D02*
X473606D01*
X475000Y244000D02*
X479654D01*
X461766Y211766D02*
X475727D01*
X461000Y211000D02*
X461766Y211766D01*
X475727D02*
X476064Y212102D01*
X475727Y216722D02*
X475824Y216625D01*
X475847Y216647D01*
X470856Y296200D02*
X477104D01*
X469000Y209000D02*
X469543Y209543D01*
X469324Y224324D02*
X477591D01*
X478267Y225000D01*
X475911Y222234D02*
X476996D01*
X475819Y222142D02*
X475911Y222234D01*
X339000Y309500D02*
X342500Y313000D01*
X334728Y198272D02*
X335000Y198000D01*
X476400Y214244D02*
X476817Y214661D01*
X473500Y214244D02*
X476400D01*
X478267Y225000D02*
X478369Y224898D01*
X316988Y219728D02*
Y225744D01*
X470424Y302021D02*
X470831Y301614D01*
X479618Y225000D02*
X479720Y224898D01*
X324500Y318500D02*
X335000D01*
X322000Y316000D02*
X324500Y318500D01*
X342500Y318512D02*
X350244D01*
X353256Y315500D01*
X483200Y261913D02*
X484100Y262813D01*
X477700Y251300D02*
X478077Y251677D01*
X477104Y296200D02*
X477400Y296496D01*
X477100Y253819D02*
X477517Y254236D01*
X474220Y253819D02*
X477100D01*
X338712Y318512D02*
X342500D01*
X338700Y318500D02*
X338712Y318512D01*
X335000Y318500D02*
X338700D01*
X282000Y303000D02*
Y316000D01*
X292000Y303000D02*
Y316000D01*
X262000Y303000D02*
Y316000D01*
X272000Y303000D02*
Y316000D01*
X359949Y315500D02*
X366000D01*
X480151Y264182D02*
X480441Y264472D01*
X423866Y235366D02*
X424807D01*
X342000Y238000D02*
Y243000D01*
X479654Y256795D02*
X486205D01*
X479364Y275135D02*
Y276164D01*
X482200Y275000D02*
X484100Y273100D01*
X480528Y275000D02*
X482200D01*
X471273Y222234D02*
X475727D01*
X475819Y222142D01*
X325732Y229000D02*
X328488Y231756D01*
X316488Y231756D02*
X316732Y231512D01*
X313244Y229000D02*
X325732D01*
X377000Y210000D02*
X379000Y208000D01*
X484100Y262813D02*
Y273100D01*
X294874Y209000D02*
X295000Y208874D01*
X294874Y224748D02*
X295000Y224622D01*
X370782Y228218D02*
Y241782D01*
X372000Y243000D01*
X465000Y220000D02*
X469324Y224324D01*
X456650Y219027D02*
X458027Y217650D01*
X459000Y220000D02*
X465000D01*
X471087Y303621D02*
X471116Y303650D01*
X459731Y308229D02*
X464339Y303621D01*
X471087D01*
X362000Y303000D02*
X366200Y298800D01*
X410400Y297300D02*
X439300D01*
X444021Y302021D01*
X477693Y293937D02*
X480031D01*
X476817Y214661D02*
X478933D01*
X477517Y254236D02*
X479654D01*
X480031Y293937D02*
X480819D01*
X479654Y254236D02*
X480441D01*
X478933Y214661D02*
X481446D01*
X477411Y230016D02*
X478453D01*
X478933D01*
X479744Y231307D02*
X480000Y231563D01*
Y235000D01*
X478453Y230016D02*
X479744Y231307D01*
X478933Y230016D02*
X479720D01*
X480031Y288819D02*
X480819D01*
X480031Y301614D02*
X480819D01*
X470831D02*
X480031D01*
Y304173D02*
X480819D01*
X477400Y296496D02*
X480031D01*
X475847Y216647D02*
X481647D01*
X468056Y299000D02*
X470856Y296200D01*
X478933Y212102D02*
X479720D01*
X476064D02*
X478933D01*
Y209543D02*
X479720D01*
X469543D02*
X478933D01*
X476996Y222234D02*
X478934Y222308D01*
X479720Y222339D01*
X479654Y251677D02*
X480441D01*
X478077D02*
X479654D01*
X479364Y276164D02*
X480528Y275000D01*
X476850Y264182D02*
X480151D01*
X431500Y235366D02*
X438142D01*
X509165Y309291D02*
X510484D01*
X509000D02*
X509165D01*
X252000Y224748D02*
X294874D01*
X252000Y216874D02*
X294874D01*
X326988Y198272D02*
X334728D01*
X316732Y231512D02*
X322488D01*
X316488Y226244D02*
X316988Y225744D01*
X310488Y226244D02*
X313244Y229000D01*
X468000Y292850D02*
Y293244D01*
Y298756D02*
X468056Y299000D01*
X438142Y235366D02*
X438244Y235000D01*
X322488Y231512D02*
X322822Y231756D01*
X509165Y293937D02*
Y295200D01*
Y299055D02*
Y301614D01*
X334000Y203512D02*
X337800D01*
X341312Y200000D01*
X345126D01*
X311488Y220228D02*
Y226244D01*
X524626Y229500D02*
Y230016D01*
X478369Y224898D02*
X478933D01*
X316488Y226244D02*
X317155D01*
X477390Y261913D02*
X479654D01*
X508189Y283701D02*
X508378D01*
X508000Y244000D02*
X508787D01*
X507640Y293937D02*
X508378D01*
X506902Y301614D02*
X508378D01*
X505803Y222339D02*
X507280D01*
X506541Y214661D02*
X507280D01*
X330700Y198000D02*
X334000D01*
X316600Y231756D02*
X317155D01*
X316600Y231756D02*
Y231756D01*
X316488Y231756D02*
X316600D01*
X267326Y209000D02*
X267452Y208874D01*
X480031Y309291D02*
X480843D01*
Y309315D01*
X252874Y216874D02*
X253000Y216748D01*
X532220Y268829D02*
X533648D01*
Y268648D02*
Y268829D01*
X533687Y308529D02*
Y308687D01*
X478933Y224898D02*
X479618D01*
Y225000D01*
X475727Y217220D02*
X478933D01*
X475727Y216722D02*
Y217220D01*
X524346Y268829D02*
X525346D01*
Y269075D01*
Y248829D02*
Y249075D01*
X524724Y288529D02*
X525724D01*
Y288776D01*
X524724Y308529D02*
X525724D01*
Y308776D01*
X532220Y248829D02*
X533220D01*
Y249075D01*
X532598Y288529D02*
X534411D01*
Y289589D01*
X474906Y314000D02*
Y314011D01*
X478294Y317400D01*
X480843D01*
Y317776D01*
X532500Y229000D02*
Y229500D01*
Y229000D02*
X533000D01*
X316988Y199000D02*
X317000D01*
X316988Y198272D02*
Y199000D01*
X444500Y316000D02*
X444513D01*
Y314816D02*
Y316000D01*
X437600Y314816D02*
Y316000D01*
X437525Y314816D02*
X437600D01*
X430600D02*
Y316000D01*
X430538Y314816D02*
X430600D01*
X423500Y316000D02*
X423550D01*
Y314816D02*
Y316000D01*
X477000Y270900D02*
Y271000D01*
X475000Y270900D02*
X477000D01*
X475000D02*
Y274000D01*
X483299Y283701D02*
X483500Y283500D01*
X480031Y283701D02*
X483299D01*
X480500Y269591D02*
Y271000D01*
X479654Y269591D02*
X480500D01*
X478933Y204425D02*
X479500D01*
Y203000D02*
Y204425D01*
X483904Y296496D02*
X489200Y291200D01*
Y259200D02*
Y291200D01*
X486795Y256795D02*
X489200Y259200D01*
X460244Y293244D02*
X474000D01*
X480031Y311850D02*
X480800D01*
Y317000D01*
X353256Y315500D02*
X356100Y312656D01*
Y294300D02*
Y312656D01*
X311500Y283500D02*
X316000Y288000D01*
X253000Y208874D02*
X267452D01*
X252000Y209000D02*
X267326D01*
X274000Y208874D02*
X295000D01*
X267452D02*
X274000D01*
X423866Y235366D02*
X425000Y234232D01*
X479654Y269591D02*
Y272150D01*
X480800Y317000D02*
X481244D01*
X477390Y256795D02*
X479654D01*
X486205D02*
X486795D01*
X479654Y261913D02*
X483200D01*
X479654Y264472D02*
X480441D01*
X477390D02*
X479654D01*
X430500Y316000D02*
X430600D01*
X437500D02*
X437600D01*
X508378Y283701D02*
X509165D01*
X508378Y293937D02*
X509165D01*
Y295200D02*
Y296496D01*
X532598Y308529D02*
X533687D01*
X508378Y301614D02*
X509165D01*
X508378Y311850D02*
X509165D01*
X506902D02*
X508378D01*
X506197Y204425D02*
X507280D01*
X508067D01*
X507280Y214661D02*
X508067D01*
Y217220D01*
X507280Y222339D02*
X508067D01*
X507280Y232575D02*
X508067D01*
X505803D02*
X507280D01*
X524346Y248829D02*
X525346D01*
X507691Y256795D02*
X508000D01*
X508787D01*
X507349Y259354D02*
X508000D01*
X508787D01*
X506524Y272150D02*
X508000D01*
X508787D01*
X253000Y224622D02*
X274000D01*
X291422D01*
X334000Y198000D02*
X335000D01*
D23*
X340542Y235000D02*
X353542Y222000D01*
X332800Y235000D02*
X340542D01*
X353542Y222000D02*
X361417D01*
X311488Y231756D02*
X314732Y235000D01*
X332323D01*
X305000Y225268D02*
X311488Y231756D01*
X305000Y218874D02*
Y225268D01*
X507280Y219780D02*
Y222339D01*
X508378Y293937D02*
Y295955D01*
X523500Y209500D02*
X524626D01*
X520984Y206984D02*
X523500Y209500D01*
X525000Y217000D02*
X532500Y209500D01*
X523780Y219780D02*
X533000Y229000D01*
X522831Y246559D02*
X525346Y249075D01*
X508378Y283701D02*
Y286260D01*
X514260D02*
X516776Y288776D01*
X526045Y295955D02*
X532411Y289589D01*
X509000Y309291D02*
Y311228D01*
X508378Y300000D02*
Y301614D01*
X507280Y204425D02*
Y206984D01*
Y230016D02*
Y232575D01*
X508000Y244000D02*
Y246559D01*
X507280Y214661D02*
Y217000D01*
X295000Y208874D02*
X305000Y218874D01*
X252000Y209000D02*
X294874D01*
X508378Y286260D02*
X509165D01*
X516776Y288776D02*
X525724D01*
X509165Y286260D02*
X514260D01*
X532411Y289589D02*
X534411D01*
X508378Y295955D02*
X526045D01*
X508378Y300000D02*
X525000D01*
X533687Y308687D01*
X524500Y310000D02*
X525724D01*
X510484Y309291D02*
X511193Y310000D01*
X524500D02*
X525724Y308776D01*
X508378Y311850D02*
X509000Y311228D01*
X511193Y310000D02*
X524500D01*
X508067Y206984D02*
X520984D01*
X507280D02*
X508067D01*
X507280Y217000D02*
X525000D01*
X507280Y219780D02*
X508067D01*
X523780D01*
X507280Y230016D02*
X508067D01*
X524626D01*
X508000Y246559D02*
X508787D01*
X522831D01*
X528059Y254236D02*
X533220Y249075D01*
X508000Y254236D02*
X508787D01*
X528000D01*
X508787Y261913D02*
X526913D01*
X508000D02*
X508787D01*
X526913D02*
X533648Y268648D01*
X508000Y269517D02*
Y272150D01*
X524904Y269517D02*
X525346Y269075D01*
X508000Y269517D02*
X524904D01*
X528000Y254236D02*
X528059D01*
D24*
X508000D02*
Y256795D01*
Y259354D02*
Y261913D01*
X480843Y309315D02*
Y310500D01*
Y317776D01*
D25*
X282000Y303000D02*
D03*
X292000D02*
D03*
X302000D02*
D03*
X312000D02*
D03*
X322000D02*
D03*
X332000D02*
D03*
X342000D02*
D03*
X352000D02*
D03*
X362000D02*
D03*
X372000D02*
D03*
X382000D02*
D03*
X392000D02*
D03*
X402000Y243000D02*
D03*
X272000Y303000D02*
D03*
X262000D02*
D03*
X392000Y243000D02*
D03*
X382000D02*
D03*
X372000D02*
D03*
X362000D02*
D03*
X352000D02*
D03*
X342000D02*
D03*
X332000D02*
D03*
X322000D02*
D03*
X312000D02*
D03*
X282000D02*
D03*
X302000D02*
D03*
X292000D02*
D03*
X272000D02*
D03*
X262000D02*
D03*
X272000Y316000D02*
D03*
X262000D02*
D03*
X322000D02*
D03*
X312000D02*
D03*
X302000D02*
D03*
X292000D02*
D03*
X282000D02*
D03*
D26*
X402000Y303000D02*
D03*
X252000Y316000D02*
D03*
D27*
X407000Y222685D02*
D03*
Y203000D02*
D03*
X448000D02*
D03*
Y222685D02*
D03*
D28*
X551000Y258000D02*
D03*
X235000D02*
D03*
X552000Y312000D02*
D03*
X551000Y202000D02*
D03*
X235000D02*
D03*
Y312000D02*
D03*
D29*
X524724Y288529D02*
D03*
X532598D02*
D03*
X532500Y209500D02*
D03*
X524626D02*
D03*
X524346Y248829D02*
D03*
X532220D02*
D03*
X532598Y308529D02*
D03*
X524724D02*
D03*
X524626Y229500D02*
D03*
X532500D02*
D03*
X532220Y268829D02*
D03*
X524346D02*
D03*
X253000Y216748D02*
D03*
Y224622D02*
D03*
Y208874D02*
D03*
Y201000D02*
D03*
X274000D02*
D03*
Y208874D02*
D03*
Y224622D02*
D03*
Y216748D02*
D03*
X295000D02*
D03*
Y224622D02*
D03*
Y208874D02*
D03*
Y201000D02*
D03*
X554000Y282000D02*
D03*
Y289874D02*
D03*
Y226126D02*
D03*
Y234000D02*
D03*
D30*
X422000Y280000D02*
D03*
X418000D02*
D03*
X414000D02*
D03*
X410000D02*
D03*
X406000D02*
D03*
X402000D02*
D03*
Y276000D02*
D03*
X406000D02*
D03*
X410000D02*
D03*
X414000D02*
D03*
X418000D02*
D03*
X422000D02*
D03*
X442000Y254000D02*
D03*
X450000Y236000D02*
D03*
X434000Y244000D02*
D03*
X430000D02*
D03*
X426000D02*
D03*
X414000Y256000D02*
D03*
X418000D02*
D03*
X422000D02*
D03*
X426000D02*
D03*
X466000Y298000D02*
D03*
X369000Y226000D02*
D03*
X358000Y257000D02*
D03*
X354000D02*
D03*
X334000D02*
D03*
X379000Y262000D02*
D03*
X375000D02*
D03*
X371000D02*
D03*
X379000Y268000D02*
D03*
X375000D02*
D03*
X371000D02*
D03*
X460000Y203000D02*
D03*
X464000D02*
D03*
X468000D02*
D03*
X472000D02*
D03*
X445000Y261000D02*
D03*
X440000Y267000D02*
D03*
X382000Y196000D02*
D03*
Y200000D02*
D03*
Y204000D02*
D03*
X374000Y196000D02*
D03*
Y200000D02*
D03*
Y204000D02*
D03*
X378000Y196000D02*
D03*
Y200000D02*
D03*
Y204000D02*
D03*
X386000D02*
D03*
Y200000D02*
D03*
Y196000D02*
D03*
X411000Y211000D02*
D03*
Y207000D02*
D03*
Y199000D02*
D03*
Y195000D02*
D03*
X415000D02*
D03*
Y199000D02*
D03*
Y203000D02*
D03*
Y207000D02*
D03*
Y211000D02*
D03*
X419000D02*
D03*
Y207000D02*
D03*
Y203000D02*
D03*
Y199000D02*
D03*
Y195000D02*
D03*
X423000D02*
D03*
Y199000D02*
D03*
Y203000D02*
D03*
Y207000D02*
D03*
Y211000D02*
D03*
X476458Y306732D02*
D03*
X475000Y281700D02*
D03*
X357000Y247000D02*
D03*
X347000D02*
D03*
X337000D02*
D03*
X335000Y285000D02*
D03*
X339000D02*
D03*
X343000D02*
D03*
X326000Y256000D02*
D03*
Y260000D02*
D03*
Y264000D02*
D03*
X308000D02*
D03*
Y260000D02*
D03*
Y256000D02*
D03*
Y252000D02*
D03*
Y248000D02*
D03*
X366000Y280000D02*
D03*
X362000D02*
D03*
X358000D02*
D03*
X470500Y289000D02*
D03*
X467000Y279000D02*
D03*
Y275000D02*
D03*
Y271000D02*
D03*
X500000Y214000D02*
D03*
X496000D02*
D03*
X492000D02*
D03*
X500000Y210000D02*
D03*
X496000D02*
D03*
X492000D02*
D03*
Y206000D02*
D03*
X496000D02*
D03*
X500000D02*
D03*
X464000Y198000D02*
D03*
X468000D02*
D03*
X500000D02*
D03*
X504000D02*
D03*
X476000D02*
D03*
X472000D02*
D03*
X488000D02*
D03*
X461441Y288559D02*
D03*
X408000Y244000D02*
D03*
X412000D02*
D03*
X512000Y198000D02*
D03*
X508000D02*
D03*
X496000D02*
D03*
X492000D02*
D03*
X484000D02*
D03*
X480000D02*
D03*
X460000D02*
D03*
X496500Y242000D02*
D03*
Y239000D02*
D03*
Y236000D02*
D03*
X501500D02*
D03*
Y239000D02*
D03*
Y242000D02*
D03*
X344000Y250000D02*
D03*
X425000Y233000D02*
D03*
X347000D02*
D03*
X352000Y231300D02*
D03*
X460300Y262900D02*
D03*
X458900Y273200D02*
D03*
X393000Y252500D02*
D03*
X327900Y291000D02*
D03*
X468500Y262500D02*
D03*
X474000Y288000D02*
D03*
X393500Y290500D02*
D03*
X437500Y305500D02*
D03*
X444500D02*
D03*
X430500D02*
D03*
X423500D02*
D03*
X316000Y288000D02*
D03*
X475000Y244000D02*
D03*
X473906Y235000D02*
D03*
X461000Y211000D02*
D03*
X477000Y271000D02*
D03*
X469000Y209000D02*
D03*
X322000Y199000D02*
D03*
X317000D02*
D03*
X410400Y297300D02*
D03*
X391000Y271000D02*
D03*
X480843Y310500D02*
D03*
X481244Y317000D02*
D03*
X479744Y231307D02*
D03*
X479500Y203000D02*
D03*
X483500Y283500D02*
D03*
X480000Y235000D02*
D03*
X315157Y206835D02*
D03*
X323819Y211165D02*
D03*
Y206835D02*
D03*
X319488Y211165D02*
D03*
Y206835D02*
D03*
X315157Y211165D02*
D03*
X479364Y275135D02*
D03*
X480500Y271000D02*
D03*
X459000Y220000D02*
D03*
X444500Y316000D02*
D03*
X437500D02*
D03*
X430500D02*
D03*
X423500D02*
D03*
X356100Y294300D02*
D03*
M02*
