G04 Layer_Color=16711935*
%FSLAX25Y25*%
%MOIN*%
G70*
G01*
G75*
%ADD53R,0.04143X0.03356*%
%ADD56R,0.10836X0.04340*%
%ADD59R,0.04537X0.04143*%
%ADD62C,0.06600*%
%ADD63R,0.06600X0.06600*%
%ADD64C,0.06900*%
%ADD65C,0.08474*%
%ADD66C,0.16348*%
%ADD67C,0.01700*%
%ADD68C,0.02300*%
%ADD69C,0.00987*%
%ADD70R,0.22000X0.11000*%
%ADD71R,0.03356X0.04143*%
%ADD72R,0.05915X0.02175*%
%ADD73R,0.05915X0.02962*%
D53*
X426000Y295756D02*
D03*
Y290244D02*
D03*
D56*
X326000Y208512D02*
D03*
Y197488D02*
D03*
D59*
X444500Y308850D02*
D03*
Y315150D02*
D03*
X437500Y308850D02*
D03*
Y315150D02*
D03*
X430500Y308850D02*
D03*
Y315150D02*
D03*
X423600Y308850D02*
D03*
Y315150D02*
D03*
D62*
X272000Y316000D02*
D03*
X262000D02*
D03*
X322000D02*
D03*
X312000D02*
D03*
X302000D02*
D03*
X292000D02*
D03*
X282000D02*
D03*
Y303000D02*
D03*
X292000D02*
D03*
X302000D02*
D03*
X312000D02*
D03*
X322000D02*
D03*
X332000D02*
D03*
X342000D02*
D03*
X352000D02*
D03*
X362000D02*
D03*
X372000D02*
D03*
X382000D02*
D03*
X392000D02*
D03*
X402000Y243000D02*
D03*
X272000Y303000D02*
D03*
X262000D02*
D03*
X392000Y243000D02*
D03*
X382000D02*
D03*
X372000D02*
D03*
X362000D02*
D03*
X352000D02*
D03*
X342000D02*
D03*
X332000D02*
D03*
X322000D02*
D03*
X312000D02*
D03*
X282000D02*
D03*
X302000D02*
D03*
X292000D02*
D03*
X272000D02*
D03*
X262000D02*
D03*
D63*
X252000Y316000D02*
D03*
X402000Y303000D02*
D03*
D64*
X532220Y268829D02*
D03*
X524346D02*
D03*
X532500Y229500D02*
D03*
X524626D02*
D03*
X532598Y308529D02*
D03*
X524724D02*
D03*
X532220Y248829D02*
D03*
X524346D02*
D03*
X532500Y209500D02*
D03*
X524626D02*
D03*
X532598Y288529D02*
D03*
X524724D02*
D03*
X295000Y216748D02*
D03*
Y224622D02*
D03*
Y208874D02*
D03*
Y201000D02*
D03*
X274000Y216748D02*
D03*
Y224622D02*
D03*
Y208874D02*
D03*
Y201000D02*
D03*
X253000Y216748D02*
D03*
Y224622D02*
D03*
Y208874D02*
D03*
Y201000D02*
D03*
D65*
X407000Y222685D02*
D03*
Y203000D02*
D03*
X448000Y203315D02*
D03*
Y223000D02*
D03*
D66*
X551000Y258000D02*
D03*
X235000D02*
D03*
X552000Y312000D02*
D03*
X551000Y202000D02*
D03*
X235000D02*
D03*
Y312000D02*
D03*
D67*
X438000Y249000D02*
D03*
X428000Y289000D02*
D03*
X461000Y211000D02*
D03*
X466000Y221000D02*
D03*
X431000Y242000D02*
D03*
X445244Y298756D02*
D03*
X442000Y274000D02*
D03*
Y277000D02*
D03*
X474000Y306000D02*
D03*
X352000Y231300D02*
D03*
X369401Y227401D02*
D03*
X469000Y209000D02*
D03*
X421000Y232500D02*
D03*
X424367Y242267D02*
D03*
X344000Y233000D02*
D03*
X469000Y263000D02*
D03*
X474000Y266000D02*
D03*
X468000Y270000D02*
D03*
X413000Y315000D02*
D03*
X521000Y200000D02*
D03*
X465000Y317000D02*
D03*
Y311000D02*
D03*
Y314000D02*
D03*
X410400Y297300D02*
D03*
X439400Y262400D02*
D03*
X439505Y255467D02*
D03*
X452700Y304900D02*
D03*
X406200Y314700D02*
D03*
X391000Y271000D02*
D03*
X337000Y234000D02*
D03*
X480500Y271000D02*
D03*
X480843Y310500D02*
D03*
X481244Y317000D02*
D03*
X479744Y231307D02*
D03*
X479500Y203000D02*
D03*
X485000Y195000D02*
D03*
X490000D02*
D03*
X495000D02*
D03*
X505000D02*
D03*
X500000D02*
D03*
X485000Y200000D02*
D03*
X490000D02*
D03*
X495000D02*
D03*
X500000D02*
D03*
X505000D02*
D03*
X510000Y195000D02*
D03*
Y200000D02*
D03*
X515000D02*
D03*
X526000D02*
D03*
X531000D02*
D03*
Y195000D02*
D03*
X526000D02*
D03*
X521000D02*
D03*
X515000D02*
D03*
X255000Y250000D02*
D03*
X260000D02*
D03*
Y255000D02*
D03*
X255000D02*
D03*
Y260000D02*
D03*
X260000D02*
D03*
Y265000D02*
D03*
X255000D02*
D03*
Y270000D02*
D03*
X260000D02*
D03*
Y275000D02*
D03*
X255000D02*
D03*
Y280000D02*
D03*
X260000D02*
D03*
Y285000D02*
D03*
X255000D02*
D03*
Y290000D02*
D03*
X260000D02*
D03*
X442000Y294300D02*
D03*
X448034Y235500D02*
D03*
X448700Y316300D02*
D03*
X453000Y311000D02*
D03*
X473981Y288819D02*
D03*
X483500Y283500D02*
D03*
X485000Y274000D02*
D03*
X450000Y282000D02*
D03*
X446000Y283000D02*
D03*
X471400Y282100D02*
D03*
X457000Y248000D02*
D03*
X480000Y235000D02*
D03*
X420000Y252000D02*
D03*
Y248000D02*
D03*
Y244000D02*
D03*
X416000D02*
D03*
Y248000D02*
D03*
Y252000D02*
D03*
D68*
X353000Y212000D02*
D03*
Y208000D02*
D03*
X361000Y212000D02*
D03*
X357000D02*
D03*
Y208000D02*
D03*
X361000D02*
D03*
X365000D02*
D03*
X475000Y244000D02*
D03*
X473906Y235000D02*
D03*
X477000Y271000D02*
D03*
X323000Y309000D02*
D03*
X373000Y315000D02*
D03*
X426000Y277000D02*
D03*
X430000D02*
D03*
X434000D02*
D03*
X463000Y281000D02*
D03*
Y273000D02*
D03*
Y277000D02*
D03*
X409000Y280000D02*
D03*
X357000Y197000D02*
D03*
X361000D02*
D03*
X365000D02*
D03*
X369000D02*
D03*
Y201000D02*
D03*
X365000D02*
D03*
X361000D02*
D03*
X357000D02*
D03*
X322000Y199000D02*
D03*
X317000D02*
D03*
X311000D02*
D03*
D69*
X315158Y211165D02*
D03*
X319488Y206835D02*
D03*
Y211165D02*
D03*
X323819Y206835D02*
D03*
Y211165D02*
D03*
X315158Y206835D02*
D03*
D70*
X428000Y199500D02*
D03*
Y224500D02*
D03*
D71*
X311244Y197000D02*
D03*
X316756D02*
D03*
D72*
X432984Y287457D02*
D03*
Y290016D02*
D03*
Y292575D02*
D03*
Y284898D02*
D03*
Y282339D02*
D03*
X456016D02*
D03*
Y284898D02*
D03*
Y292575D02*
D03*
Y290016D02*
D03*
Y287457D02*
D03*
Y279780D02*
D03*
Y277220D02*
D03*
Y274661D02*
D03*
Y272102D02*
D03*
Y264425D02*
D03*
Y266984D02*
D03*
Y269543D02*
D03*
X432984D02*
D03*
Y266984D02*
D03*
Y264425D02*
D03*
Y272102D02*
D03*
Y274661D02*
D03*
Y277220D02*
D03*
Y279780D02*
D03*
D73*
X456016Y295528D02*
D03*
Y261472D02*
D03*
X432984D02*
D03*
Y295528D02*
D03*
M02*
