G04 Layer_Color=128*
%FSLAX25Y25*%
%MOIN*%
G70*
G01*
G75*
%ADD10R,0.02756X0.03543*%
%ADD11R,0.03543X0.02756*%
%ADD14R,0.10236X0.03740*%
%ADD31R,0.03937X0.05512*%
%ADD32O,0.02165X0.04508*%
%ADD33O,0.04508X0.02165*%
%ADD34R,0.03543X0.07480*%
%ADD35R,0.12598X0.07480*%
%ADD36R,0.04701X0.02205*%
%ADD37O,0.05512X0.01575*%
D10*
X301512Y256000D02*
D03*
X296000D02*
D03*
X288000D02*
D03*
X282488D02*
D03*
X311244Y272000D02*
D03*
X316756D02*
D03*
X326000D02*
D03*
X331512D02*
D03*
X311244Y197000D02*
D03*
X316756D02*
D03*
X437488D02*
D03*
X443000D02*
D03*
D11*
X546000Y232756D02*
D03*
Y227244D02*
D03*
X346000Y285756D02*
D03*
Y280244D02*
D03*
X378000Y277244D02*
D03*
Y282756D02*
D03*
X423600Y309244D02*
D03*
Y314756D02*
D03*
X454000Y252244D02*
D03*
Y257756D02*
D03*
X430500Y314756D02*
D03*
Y309244D02*
D03*
X437500Y314756D02*
D03*
Y309244D02*
D03*
X444500Y314756D02*
D03*
Y309244D02*
D03*
X350000Y256756D02*
D03*
Y251244D02*
D03*
X344000Y251244D02*
D03*
Y256756D02*
D03*
X338000D02*
D03*
Y251244D02*
D03*
X332000Y251244D02*
D03*
Y256756D02*
D03*
D14*
X326000Y208512D02*
D03*
Y197488D02*
D03*
D31*
X318000Y280000D02*
D03*
X310520D02*
D03*
X314260Y288661D02*
D03*
X333000Y280000D02*
D03*
X325520D02*
D03*
X329260Y288661D02*
D03*
D32*
X369874Y284321D02*
D03*
X366724D02*
D03*
X363575D02*
D03*
X360425D02*
D03*
X357276D02*
D03*
X354126D02*
D03*
Y275679D02*
D03*
X357276D02*
D03*
X360425D02*
D03*
X363575D02*
D03*
X366724D02*
D03*
X369874D02*
D03*
D33*
X353742Y280000D02*
D03*
X370258D02*
D03*
D34*
X301055Y264772D02*
D03*
X292000D02*
D03*
X282945D02*
D03*
D35*
X292000Y288000D02*
D03*
D36*
X431951Y211500D02*
D03*
Y206500D02*
D03*
Y201500D02*
D03*
Y196500D02*
D03*
X412049Y211500D02*
D03*
Y206500D02*
D03*
Y201500D02*
D03*
Y196500D02*
D03*
D37*
X432772Y262969D02*
D03*
Y265528D02*
D03*
Y268087D02*
D03*
Y270646D02*
D03*
Y273205D02*
D03*
Y275764D02*
D03*
Y278323D02*
D03*
Y280882D02*
D03*
Y283441D02*
D03*
Y286000D02*
D03*
Y288559D02*
D03*
Y291118D02*
D03*
Y293677D02*
D03*
Y296236D02*
D03*
X456000Y262969D02*
D03*
Y265528D02*
D03*
Y268087D02*
D03*
Y270646D02*
D03*
Y273205D02*
D03*
Y275764D02*
D03*
Y278323D02*
D03*
Y280882D02*
D03*
Y283441D02*
D03*
Y286000D02*
D03*
Y288559D02*
D03*
Y291118D02*
D03*
Y293677D02*
D03*
Y296236D02*
D03*
M02*
