G04 Layer_Color=16711935*
%FSLAX25Y25*%
%MOIN*%
G70*
G01*
G75*
%ADD54R,0.03356X0.04143*%
%ADD55R,0.04143X0.03356*%
%ADD58R,0.10836X0.04340*%
%ADD64C,0.06600*%
%ADD65R,0.06600X0.06600*%
%ADD66C,0.08474*%
%ADD67C,0.16348*%
%ADD68C,0.06900*%
%ADD69C,0.01200*%
%ADD70C,0.01700*%
%ADD71C,0.01800*%
%ADD72R,0.08000X0.12000*%
%ADD73R,0.04537X0.06112*%
%ADD74O,0.02765X0.05108*%
%ADD75O,0.05108X0.02765*%
%ADD76R,0.04143X0.08080*%
%ADD77R,0.13198X0.08080*%
%ADD78R,0.05301X0.02805*%
%ADD79O,0.06112X0.02175*%
%ADD80R,0.12805X0.17923*%
D54*
X301512Y256000D02*
D03*
X296000D02*
D03*
X288000D02*
D03*
X282488D02*
D03*
X311244Y272000D02*
D03*
X316756D02*
D03*
X326000D02*
D03*
X331512D02*
D03*
X311244Y197000D02*
D03*
X316756D02*
D03*
X437488D02*
D03*
X443000D02*
D03*
D55*
X546000Y232756D02*
D03*
Y227244D02*
D03*
X346000Y285756D02*
D03*
Y280244D02*
D03*
X378000Y277244D02*
D03*
Y282756D02*
D03*
X423600Y309244D02*
D03*
Y314756D02*
D03*
X454000Y252244D02*
D03*
Y257756D02*
D03*
X430500Y314756D02*
D03*
Y309244D02*
D03*
X437500Y314756D02*
D03*
Y309244D02*
D03*
X444500Y314756D02*
D03*
Y309244D02*
D03*
X350000Y256756D02*
D03*
Y251244D02*
D03*
X344000Y251244D02*
D03*
Y256756D02*
D03*
X338000D02*
D03*
Y251244D02*
D03*
X332000Y251244D02*
D03*
Y256756D02*
D03*
D58*
X326000Y208512D02*
D03*
Y197488D02*
D03*
D64*
X282000Y303000D02*
D03*
X292000D02*
D03*
X302000D02*
D03*
X312000D02*
D03*
X322000D02*
D03*
X332000D02*
D03*
X342000D02*
D03*
X352000D02*
D03*
X362000D02*
D03*
X372000D02*
D03*
X382000D02*
D03*
X392000D02*
D03*
X402000Y243000D02*
D03*
X272000Y303000D02*
D03*
X262000D02*
D03*
X392000Y243000D02*
D03*
X382000D02*
D03*
X372000D02*
D03*
X362000D02*
D03*
X352000D02*
D03*
X342000D02*
D03*
X332000D02*
D03*
X322000D02*
D03*
X312000D02*
D03*
X282000D02*
D03*
X302000D02*
D03*
X292000D02*
D03*
X272000D02*
D03*
X262000D02*
D03*
X272000Y316000D02*
D03*
X262000D02*
D03*
X322000D02*
D03*
X312000D02*
D03*
X302000D02*
D03*
X292000D02*
D03*
X282000D02*
D03*
D65*
X402000Y303000D02*
D03*
X252000Y316000D02*
D03*
D66*
X407000Y222685D02*
D03*
Y203000D02*
D03*
X448000D02*
D03*
Y222685D02*
D03*
D67*
X551000Y258000D02*
D03*
X235000D02*
D03*
X552000Y312000D02*
D03*
X551000Y202000D02*
D03*
X235000D02*
D03*
Y312000D02*
D03*
D68*
X524724Y288529D02*
D03*
X532598D02*
D03*
X532500Y209500D02*
D03*
X524626D02*
D03*
X524346Y248829D02*
D03*
X532220D02*
D03*
X532598Y308529D02*
D03*
X524724D02*
D03*
X524626Y229500D02*
D03*
X532500D02*
D03*
X532220Y268829D02*
D03*
X524346D02*
D03*
X253000Y216748D02*
D03*
Y224622D02*
D03*
Y208874D02*
D03*
Y201000D02*
D03*
X274000D02*
D03*
Y208874D02*
D03*
Y224622D02*
D03*
Y216748D02*
D03*
X295000D02*
D03*
Y224622D02*
D03*
Y208874D02*
D03*
Y201000D02*
D03*
X554000Y282000D02*
D03*
Y289874D02*
D03*
Y226126D02*
D03*
Y234000D02*
D03*
D69*
X422000Y280000D02*
D03*
X418000D02*
D03*
X414000D02*
D03*
X410000D02*
D03*
X406000D02*
D03*
X402000D02*
D03*
Y276000D02*
D03*
X406000D02*
D03*
X410000D02*
D03*
X414000D02*
D03*
X418000D02*
D03*
X422000D02*
D03*
X442000Y254000D02*
D03*
X450000Y236000D02*
D03*
X434000Y244000D02*
D03*
X430000D02*
D03*
X426000D02*
D03*
X414000Y256000D02*
D03*
X418000D02*
D03*
X422000D02*
D03*
X426000D02*
D03*
X466000Y298000D02*
D03*
X369000Y226000D02*
D03*
X358000Y257000D02*
D03*
X354000D02*
D03*
X334000D02*
D03*
X379000Y262000D02*
D03*
X375000D02*
D03*
X371000D02*
D03*
X379000Y268000D02*
D03*
X375000D02*
D03*
X371000D02*
D03*
X460000Y203000D02*
D03*
X464000D02*
D03*
X468000D02*
D03*
X472000D02*
D03*
X445000Y261000D02*
D03*
X440000Y267000D02*
D03*
X382000Y196000D02*
D03*
Y200000D02*
D03*
Y204000D02*
D03*
X374000Y196000D02*
D03*
Y200000D02*
D03*
Y204000D02*
D03*
X378000Y196000D02*
D03*
Y200000D02*
D03*
Y204000D02*
D03*
X386000D02*
D03*
Y200000D02*
D03*
Y196000D02*
D03*
X411000Y211000D02*
D03*
Y207000D02*
D03*
Y199000D02*
D03*
Y195000D02*
D03*
X415000D02*
D03*
Y199000D02*
D03*
Y203000D02*
D03*
Y207000D02*
D03*
Y211000D02*
D03*
X419000D02*
D03*
Y207000D02*
D03*
Y203000D02*
D03*
Y199000D02*
D03*
Y195000D02*
D03*
X423000D02*
D03*
Y199000D02*
D03*
Y203000D02*
D03*
Y207000D02*
D03*
Y211000D02*
D03*
X476458Y306732D02*
D03*
X475000Y281700D02*
D03*
X357000Y247000D02*
D03*
X347000D02*
D03*
X337000D02*
D03*
X335000Y285000D02*
D03*
X339000D02*
D03*
X343000D02*
D03*
X326000Y256000D02*
D03*
Y260000D02*
D03*
Y264000D02*
D03*
X308000D02*
D03*
Y260000D02*
D03*
Y256000D02*
D03*
Y252000D02*
D03*
Y248000D02*
D03*
X366000Y280000D02*
D03*
X362000D02*
D03*
X358000D02*
D03*
X470500Y289000D02*
D03*
X467000Y279000D02*
D03*
Y275000D02*
D03*
Y271000D02*
D03*
X500000Y214000D02*
D03*
X496000D02*
D03*
X492000D02*
D03*
X500000Y210000D02*
D03*
X496000D02*
D03*
X492000D02*
D03*
Y206000D02*
D03*
X496000D02*
D03*
X500000D02*
D03*
X464000Y198000D02*
D03*
X468000D02*
D03*
X500000D02*
D03*
X504000D02*
D03*
X476000D02*
D03*
X472000D02*
D03*
X488000D02*
D03*
X461441Y288559D02*
D03*
X408000Y244000D02*
D03*
X412000D02*
D03*
X512000Y198000D02*
D03*
X508000D02*
D03*
X496000D02*
D03*
X492000D02*
D03*
X484000D02*
D03*
X480000D02*
D03*
X460000D02*
D03*
X496500Y242000D02*
D03*
Y239000D02*
D03*
Y236000D02*
D03*
X501500D02*
D03*
Y239000D02*
D03*
Y242000D02*
D03*
X344000Y250000D02*
D03*
X425000Y233000D02*
D03*
X347000D02*
D03*
X352000Y231300D02*
D03*
X460300Y262900D02*
D03*
X458900Y273200D02*
D03*
X327900Y291000D02*
D03*
X468500Y262500D02*
D03*
X474000Y288000D02*
D03*
X316000D02*
D03*
X475000Y244000D02*
D03*
X473906Y235000D02*
D03*
X461000Y211000D02*
D03*
X477000Y271000D02*
D03*
X469000Y209000D02*
D03*
X322000Y199000D02*
D03*
X317000D02*
D03*
X410400Y297300D02*
D03*
X391000Y271000D02*
D03*
X480843Y310500D02*
D03*
X481244Y317000D02*
D03*
X479744Y231307D02*
D03*
X479500Y203000D02*
D03*
X483500Y283500D02*
D03*
X480000Y235000D02*
D03*
X315157Y206835D02*
D03*
X323819Y211165D02*
D03*
Y206835D02*
D03*
X319488Y211165D02*
D03*
Y206835D02*
D03*
X315157Y211165D02*
D03*
X479364Y275135D02*
D03*
X480500Y271000D02*
D03*
X459000Y220000D02*
D03*
X444500Y316000D02*
D03*
X437500D02*
D03*
X430500D02*
D03*
X423500D02*
D03*
X356100Y294300D02*
D03*
D70*
X393000Y252500D02*
D03*
D71*
X393500Y290500D02*
D03*
X437500Y305500D02*
D03*
X444500D02*
D03*
X430500D02*
D03*
X423500D02*
D03*
D72*
X439000Y207000D02*
D03*
Y227000D02*
D03*
D73*
X318000Y280000D02*
D03*
X310520D02*
D03*
X314260Y288661D02*
D03*
X333000Y280000D02*
D03*
X325520D02*
D03*
X329260Y288661D02*
D03*
D74*
X369874Y284321D02*
D03*
X366724D02*
D03*
X363575D02*
D03*
X360425D02*
D03*
X357276D02*
D03*
X354126D02*
D03*
Y275679D02*
D03*
X357276D02*
D03*
X360425D02*
D03*
X363575D02*
D03*
X366724D02*
D03*
X369874D02*
D03*
D75*
X353742Y280000D02*
D03*
X370258D02*
D03*
D76*
X301055Y264772D02*
D03*
X292000D02*
D03*
X282945D02*
D03*
D77*
X292000Y288000D02*
D03*
D78*
X431951Y211500D02*
D03*
Y206500D02*
D03*
Y201500D02*
D03*
Y196500D02*
D03*
X412049Y211500D02*
D03*
Y206500D02*
D03*
Y201500D02*
D03*
Y196500D02*
D03*
D79*
X432772Y262969D02*
D03*
Y265528D02*
D03*
Y268087D02*
D03*
Y270646D02*
D03*
Y273205D02*
D03*
Y275764D02*
D03*
Y278323D02*
D03*
Y280882D02*
D03*
Y283441D02*
D03*
Y286000D02*
D03*
Y288559D02*
D03*
Y291118D02*
D03*
Y293677D02*
D03*
Y296236D02*
D03*
X456000Y262969D02*
D03*
Y265528D02*
D03*
Y268087D02*
D03*
Y270646D02*
D03*
Y273205D02*
D03*
Y275764D02*
D03*
Y278323D02*
D03*
Y280882D02*
D03*
Y283441D02*
D03*
Y286000D02*
D03*
Y288559D02*
D03*
Y291118D02*
D03*
Y293677D02*
D03*
Y296236D02*
D03*
D80*
X419047Y204000D02*
D03*
M02*
