G04 Layer_Color=32896*
%FSLAX25Y25*%
%MOIN*%
G70*
G01*
G75*
%ADD39C,0.00984*%
%ADD40C,0.02362*%
%ADD41C,0.00800*%
%ADD42C,0.00787*%
%ADD45C,0.00600*%
D39*
X322626Y280000D02*
G03*
X322626Y280000I-492J0D01*
G01*
X352650Y288075D02*
G03*
X352650Y288075I-492J0D01*
G01*
X305484Y264772D02*
G03*
X305484Y264772I-492J0D01*
G01*
X337626Y280000D02*
G03*
X337626Y280000I-492J0D01*
G01*
X426492Y211500D02*
G03*
X426492Y211500I-492J0D01*
G01*
X433264Y260016D02*
G03*
X433264Y260016I-492J0D01*
G01*
D40*
X442220Y264248D02*
G03*
X442220Y264248I-1181J0D01*
G01*
D41*
X445001Y209000D02*
X448000D01*
Y210500D01*
X447500Y210999D01*
X447000D01*
X446500Y210500D01*
Y209000D01*
Y210500D01*
X446001Y210999D01*
X445501D01*
X445001Y210500D01*
Y209000D01*
X446500Y211999D02*
Y213998D01*
X445001Y228000D02*
X448000D01*
Y229500D01*
X447500Y229999D01*
X447000D01*
X446500Y229500D01*
Y228000D01*
Y229500D01*
X446001Y229999D01*
X445501D01*
X445001Y229500D01*
Y228000D01*
X446500Y230999D02*
Y232998D01*
X445501Y231999D02*
X447500D01*
D42*
X547378Y229803D02*
Y230197D01*
X544622Y229803D02*
Y230197D01*
X298559Y257378D02*
X298953D01*
X298559Y254622D02*
X298953D01*
X320362Y284280D02*
Y287283D01*
X317803D02*
X320362D01*
X308157Y284280D02*
Y287283D01*
X310717D01*
X285047Y257378D02*
X285441D01*
X285047Y254622D02*
X285441D01*
X313803Y273378D02*
X314197D01*
X313803Y270622D02*
X314197D01*
X344622Y282803D02*
Y283197D01*
X347378Y282803D02*
Y283197D01*
X328559Y273378D02*
X328953D01*
X328559Y270622D02*
X328953D01*
X379378Y279803D02*
Y280197D01*
X376622Y279803D02*
Y280197D01*
X278811Y269693D02*
X305189D01*
X278811Y283079D02*
X305189D01*
Y269693D02*
Y283079D01*
X278811Y269693D02*
Y283079D01*
X335362Y284280D02*
Y287283D01*
X332803D02*
X335362D01*
X323157Y284280D02*
Y287283D01*
X325717D01*
X422222Y311803D02*
Y312197D01*
X424978Y311803D02*
Y312197D01*
X313803Y198378D02*
X314197D01*
X313803Y195622D02*
X314197D01*
X321276Y200835D02*
Y205165D01*
X330724Y200835D02*
Y205165D01*
X455378Y254803D02*
Y255197D01*
X452622Y254803D02*
Y255197D01*
X431878Y311803D02*
Y312197D01*
X429122Y311803D02*
Y312197D01*
X438878Y311803D02*
Y312197D01*
X436122Y311803D02*
Y312197D01*
X445878Y311803D02*
Y312197D01*
X443122Y311803D02*
Y312197D01*
X351378Y253803D02*
Y254197D01*
X348622Y253803D02*
Y254197D01*
X342622Y253803D02*
Y254197D01*
X345378Y253803D02*
Y254197D01*
X339378Y253803D02*
Y254197D01*
X336622Y253803D02*
Y254197D01*
X333378Y253803D02*
Y254197D01*
X330622Y253803D02*
Y254197D01*
X428299Y194157D02*
Y213843D01*
X415701Y194157D02*
Y213843D01*
X428299D01*
X415701Y194157D02*
X428299D01*
X450803Y198378D02*
X451197D01*
X450803Y195622D02*
X451197D01*
X437102Y260311D02*
Y298894D01*
X451669Y260311D02*
Y298894D01*
X437102Y260311D02*
X451669D01*
X437102Y298894D02*
X451669D01*
D45*
X549000Y227756D02*
X550999D01*
Y228756D01*
X550666Y229089D01*
X550000D01*
X549667Y228756D01*
Y227756D01*
Y228422D02*
X549000Y229089D01*
Y229755D02*
Y230422D01*
Y230088D01*
X550999D01*
X550666Y229755D01*
X550999Y231421D02*
Y232754D01*
X550666D01*
X549333Y231421D01*
X549000D01*
X308999Y264000D02*
X307333D01*
X307000Y264333D01*
Y265000D01*
X307333Y265333D01*
X308999D01*
X307000Y266999D02*
X308999D01*
X308000Y265999D01*
Y267332D01*
X356999Y288000D02*
X355333D01*
X355000Y288333D01*
Y289000D01*
X355333Y289333D01*
X356999D01*
X356666Y289999D02*
X356999Y290333D01*
Y290999D01*
X356666Y291332D01*
X356333D01*
X356000Y290999D01*
Y290666D01*
Y290999D01*
X355666Y291332D01*
X355333D01*
X355000Y290999D01*
Y290333D01*
X355333Y289999D01*
X316000Y264000D02*
X317999D01*
Y265000D01*
X317666Y265333D01*
X317000D01*
X316666Y265000D01*
Y264000D01*
Y264666D02*
X316000Y265333D01*
Y267332D02*
Y265999D01*
X317333Y267332D01*
X317666D01*
X317999Y266999D01*
Y266333D01*
X317666Y265999D01*
Y267999D02*
X317999Y268332D01*
Y268998D01*
X317666Y269332D01*
X316333D01*
X316000Y268998D01*
Y268332D01*
X316333Y267999D01*
X317666D01*
X324000Y264000D02*
X325999D01*
Y265000D01*
X325666Y265333D01*
X325000D01*
X324666Y265000D01*
Y264000D01*
Y264666D02*
X324000Y265333D01*
Y265999D02*
Y266666D01*
Y266333D01*
X325999D01*
X325666Y265999D01*
X324333Y267666D02*
X324000Y267999D01*
Y268665D01*
X324333Y268998D01*
X325666D01*
X325999Y268665D01*
Y267999D01*
X325666Y267666D01*
X325333D01*
X325000Y267999D01*
Y268998D01*
X308333Y290333D02*
X309666D01*
X309999Y290000D01*
Y289333D01*
X309666Y289000D01*
X308333D01*
X308000Y289333D01*
Y290000D01*
X308666Y289666D02*
X308000Y290333D01*
Y290000D02*
X308333Y290333D01*
X309666Y290999D02*
X309999Y291333D01*
Y291999D01*
X309666Y292332D01*
X309333D01*
X309000Y291999D01*
Y291666D01*
Y291999D01*
X308666Y292332D01*
X308333D01*
X308000Y291999D01*
Y291333D01*
X308333Y290999D01*
X323333Y290333D02*
X324666D01*
X324999Y290000D01*
Y289333D01*
X324666Y289000D01*
X323333D01*
X323000Y289333D01*
Y290000D01*
X323666Y289666D02*
X323000Y290333D01*
Y290000D02*
X323333Y290333D01*
X323000Y292332D02*
Y290999D01*
X324333Y292332D01*
X324666D01*
X324999Y291999D01*
Y291333D01*
X324666Y290999D01*
X346666Y290333D02*
X346999Y290000D01*
Y289333D01*
X346666Y289000D01*
X345333D01*
X345000Y289333D01*
Y290000D01*
X345333Y290333D01*
X345000Y290999D02*
Y291666D01*
Y291333D01*
X346999D01*
X346666Y290999D01*
X345000Y293665D02*
X346999D01*
X346000Y292666D01*
Y293998D01*
X378666Y287333D02*
X378999Y287000D01*
Y286333D01*
X378666Y286000D01*
X377333D01*
X377000Y286333D01*
Y287000D01*
X377333Y287333D01*
X377000Y287999D02*
Y288666D01*
Y288333D01*
X378999D01*
X378666Y287999D01*
Y289666D02*
X378999Y289999D01*
Y290665D01*
X378666Y290998D01*
X378333D01*
X378000Y290665D01*
Y290332D01*
Y290665D01*
X377666Y290998D01*
X377333D01*
X377000Y290665D01*
Y289999D01*
X377333Y289666D01*
X299666Y249333D02*
X299999Y249000D01*
Y248333D01*
X299666Y248000D01*
X298333D01*
X298000Y248333D01*
Y249000D01*
X298333Y249333D01*
X298000Y249999D02*
Y250666D01*
Y250333D01*
X299999D01*
X299666Y249999D01*
X298000Y252998D02*
Y251665D01*
X299333Y252998D01*
X299666D01*
X299999Y252665D01*
Y251999D01*
X299666Y251665D01*
X286666Y250333D02*
X286999Y250000D01*
Y249333D01*
X286666Y249000D01*
X285333D01*
X285000Y249333D01*
Y250000D01*
X285333Y250333D01*
X285000Y250999D02*
Y251666D01*
Y251333D01*
X286999D01*
X286666Y250999D01*
X285000Y252665D02*
Y253332D01*
Y252999D01*
X286999D01*
X286666Y252665D01*
X313000Y201000D02*
X314999D01*
Y202000D01*
X314666Y202333D01*
X314000D01*
X313666Y202000D01*
Y201000D01*
Y201666D02*
X313000Y202333D01*
X313333Y202999D02*
X313000Y203333D01*
Y203999D01*
X313333Y204332D01*
X314666D01*
X314999Y203999D01*
Y203333D01*
X314666Y202999D01*
X314333D01*
X314000Y203333D01*
Y204332D01*
X326666Y213333D02*
X326999Y213000D01*
Y212333D01*
X326666Y212000D01*
X325333D01*
X325000Y212333D01*
Y213000D01*
X325333Y213333D01*
X326999Y213999D02*
Y215332D01*
X326666D01*
X325333Y213999D01*
X325000D01*
X433999Y255000D02*
X432333D01*
X432000Y255333D01*
Y256000D01*
X432333Y256333D01*
X433999D01*
X432000Y256999D02*
Y257666D01*
Y257333D01*
X433999D01*
X433666Y256999D01*
X443000Y300000D02*
X444999D01*
Y301000D01*
X444666Y301333D01*
X444000D01*
X443666Y301000D01*
Y300000D01*
Y300666D02*
X443000Y301333D01*
X444999Y303332D02*
X444666Y302666D01*
X444000Y301999D01*
X443333D01*
X443000Y302333D01*
Y302999D01*
X443333Y303332D01*
X443666D01*
X444000Y302999D01*
Y301999D01*
X436000Y300000D02*
X437999D01*
Y301000D01*
X437666Y301333D01*
X437000D01*
X436666Y301000D01*
Y300000D01*
Y300666D02*
X436000Y301333D01*
X437999Y303332D02*
Y301999D01*
X437000D01*
X437333Y302666D01*
Y302999D01*
X437000Y303332D01*
X436333D01*
X436000Y302999D01*
Y302333D01*
X436333Y301999D01*
X429000Y300000D02*
X430999D01*
Y301000D01*
X430666Y301333D01*
X430000D01*
X429666Y301000D01*
Y300000D01*
Y300666D02*
X429000Y301333D01*
Y302999D02*
X430999D01*
X430000Y301999D01*
Y303332D01*
X422000Y300000D02*
X423999D01*
Y301000D01*
X423666Y301333D01*
X423000D01*
X422666Y301000D01*
Y300000D01*
Y300666D02*
X422000Y301333D01*
X423666Y301999D02*
X423999Y302333D01*
Y302999D01*
X423666Y303332D01*
X423333D01*
X423000Y302999D01*
Y302666D01*
Y302999D01*
X422666Y303332D01*
X422333D01*
X422000Y302999D01*
Y302333D01*
X422333Y301999D01*
X450666Y254333D02*
X450999Y254000D01*
Y253333D01*
X450666Y253000D01*
X449333D01*
X449000Y253333D01*
Y254000D01*
X449333Y254333D01*
X450999Y256332D02*
Y254999D01*
X450000D01*
X450333Y255666D01*
Y255999D01*
X450000Y256332D01*
X449333D01*
X449000Y255999D01*
Y255333D01*
X449333Y254999D01*
X332666Y261333D02*
X332999Y261000D01*
Y260333D01*
X332666Y260000D01*
X331333D01*
X331000Y260333D01*
Y261000D01*
X331333Y261333D01*
X331000Y261999D02*
Y262666D01*
Y262333D01*
X332999D01*
X332666Y261999D01*
Y263666D02*
X332999Y263999D01*
Y264665D01*
X332666Y264998D01*
X331333D01*
X331000Y264665D01*
Y263999D01*
X331333Y263666D01*
X332666D01*
X343000Y260000D02*
X344999D01*
Y261000D01*
X344666Y261333D01*
X344000D01*
X343666Y261000D01*
Y260000D01*
Y260666D02*
X343000Y261333D01*
Y261999D02*
Y262666D01*
Y262333D01*
X344999D01*
X344666Y261999D01*
X343000Y264998D02*
Y263666D01*
X344333Y264998D01*
X344666D01*
X344999Y264665D01*
Y263999D01*
X344666Y263666D01*
X337000Y260000D02*
X338999D01*
Y261000D01*
X338666Y261333D01*
X338000D01*
X337666Y261000D01*
Y260000D01*
Y260666D02*
X337000Y261333D01*
Y261999D02*
Y262666D01*
Y262333D01*
X338999D01*
X338666Y261999D01*
X338999Y264998D02*
Y263666D01*
X338000D01*
X338333Y264332D01*
Y264665D01*
X338000Y264998D01*
X337333D01*
X337000Y264665D01*
Y263999D01*
X337333Y263666D01*
X349000Y260000D02*
X350999D01*
Y261000D01*
X350666Y261333D01*
X350000D01*
X349666Y261000D01*
Y260000D01*
Y260666D02*
X349000Y261333D01*
Y261999D02*
Y262666D01*
Y262333D01*
X350999D01*
X350666Y261999D01*
X350999Y264998D02*
X350666Y264332D01*
X350000Y263666D01*
X349333D01*
X349000Y263999D01*
Y264665D01*
X349333Y264998D01*
X349666D01*
X350000Y264665D01*
Y263666D01*
X416333Y217333D02*
X417666D01*
X417999Y217000D01*
Y216333D01*
X417666Y216000D01*
X416333D01*
X416000Y216333D01*
Y217000D01*
X416666Y216666D02*
X416000Y217333D01*
Y217000D02*
X416333Y217333D01*
X416000Y217999D02*
Y218666D01*
Y218333D01*
X417999D01*
X417666Y217999D01*
X446244Y198000D02*
Y196001D01*
X447244D01*
X447577Y196334D01*
Y197000D01*
X447244Y197334D01*
X446244D01*
X446910D02*
X447577Y198000D01*
X448243D02*
X448910D01*
X448577D01*
Y196001D01*
X448243Y196334D01*
X449909D02*
X450243Y196001D01*
X450909D01*
X451242Y196334D01*
Y196667D01*
X450909Y197000D01*
X451242Y197334D01*
Y197667D01*
X450909Y198000D01*
X450243D01*
X449909Y197667D01*
Y197334D01*
X450243Y197000D01*
X449909Y196667D01*
Y196334D01*
X450243Y197000D02*
X450909D01*
M02*
