G04 Layer_Color=8421504*
%FSLAX25Y25*%
%MOIN*%
G70*
G01*
G75*
%ADD10R,0.02756X0.03543*%
%ADD11R,0.03543X0.02756*%
%ADD12R,0.05709X0.08071*%
%ADD13R,0.09843X0.06693*%
%ADD14R,0.10236X0.03740*%
%ADD15R,0.11417X0.13976*%
%ADD16O,0.06299X0.01772*%
%ADD17R,0.03937X0.03937*%
%ADD18R,0.03937X0.03937*%
%ADD19R,0.04528X0.10630*%
%ADD20R,0.02362X0.05709*%
%ADD21R,0.13583X0.10079*%
D10*
X371512Y315500D02*
D03*
X366000D02*
D03*
X438244Y235000D02*
D03*
X443756D02*
D03*
D11*
X468000Y298756D02*
D03*
Y293244D02*
D03*
X311488Y226244D02*
D03*
Y231756D02*
D03*
X328488Y226244D02*
D03*
Y231756D02*
D03*
X334000Y198000D02*
D03*
Y203512D02*
D03*
X317155Y231756D02*
D03*
Y226244D02*
D03*
X322822D02*
D03*
Y231756D02*
D03*
X342500Y313000D02*
D03*
Y318512D02*
D03*
X335000Y312988D02*
D03*
Y318500D02*
D03*
X474220Y259331D02*
D03*
Y253819D02*
D03*
X473500Y219756D02*
D03*
Y214244D02*
D03*
X474000Y298756D02*
D03*
Y293244D02*
D03*
D12*
X377000Y219780D02*
D03*
Y231000D02*
D03*
D13*
X345126Y200000D02*
D03*
X360874D02*
D03*
D14*
X377000Y198976D02*
D03*
Y210000D02*
D03*
D15*
X361417Y222000D02*
D03*
X338583D02*
D03*
D16*
X479654Y272150D02*
D03*
Y269591D02*
D03*
Y267032D02*
D03*
Y264472D02*
D03*
Y261913D02*
D03*
Y259354D02*
D03*
Y256795D02*
D03*
Y254236D02*
D03*
Y251677D02*
D03*
Y249118D02*
D03*
Y246559D02*
D03*
Y244000D02*
D03*
X508787Y272150D02*
D03*
Y269591D02*
D03*
Y267032D02*
D03*
Y264472D02*
D03*
Y261913D02*
D03*
Y259354D02*
D03*
Y256795D02*
D03*
Y254236D02*
D03*
Y251677D02*
D03*
Y249118D02*
D03*
Y246559D02*
D03*
Y244000D02*
D03*
X478933Y232575D02*
D03*
Y230016D02*
D03*
Y227457D02*
D03*
Y224898D02*
D03*
Y222339D02*
D03*
Y219780D02*
D03*
Y217220D02*
D03*
Y214661D02*
D03*
Y212102D02*
D03*
Y209543D02*
D03*
Y206984D02*
D03*
Y204425D02*
D03*
X508067Y232575D02*
D03*
Y230016D02*
D03*
Y227457D02*
D03*
Y224898D02*
D03*
Y222339D02*
D03*
Y219780D02*
D03*
Y217220D02*
D03*
Y214661D02*
D03*
Y212102D02*
D03*
Y209543D02*
D03*
Y206984D02*
D03*
Y204425D02*
D03*
X480031Y311850D02*
D03*
Y309291D02*
D03*
Y306732D02*
D03*
Y304173D02*
D03*
Y301614D02*
D03*
Y299055D02*
D03*
Y296496D02*
D03*
Y293937D02*
D03*
Y291378D02*
D03*
Y288819D02*
D03*
Y286260D02*
D03*
Y283701D02*
D03*
X509165Y311850D02*
D03*
Y309291D02*
D03*
Y306732D02*
D03*
Y304173D02*
D03*
Y301614D02*
D03*
Y299055D02*
D03*
Y296496D02*
D03*
Y293937D02*
D03*
Y291378D02*
D03*
Y288819D02*
D03*
Y286260D02*
D03*
Y283701D02*
D03*
D17*
X353256Y315500D02*
D03*
X359949D02*
D03*
X424807Y235366D02*
D03*
X431500D02*
D03*
D18*
X444513Y308123D02*
D03*
Y314816D02*
D03*
X437525Y308123D02*
D03*
Y314816D02*
D03*
X430538Y308123D02*
D03*
Y314816D02*
D03*
X423550Y308123D02*
D03*
Y314816D02*
D03*
D19*
X463189Y274000D02*
D03*
X475000D02*
D03*
X462094Y235000D02*
D03*
X473906D02*
D03*
X463094Y314000D02*
D03*
X474906D02*
D03*
D20*
X326988Y219728D02*
D03*
X321988D02*
D03*
X316988D02*
D03*
X311988D02*
D03*
X326988Y198272D02*
D03*
X321988D02*
D03*
X316988D02*
D03*
X311988D02*
D03*
D21*
X319488Y209000D02*
D03*
M02*
