G04 Layer_Color=8388736*
%FSLAX25Y25*%
%MOIN*%
G70*
G01*
G75*
%ADD20R,0.03937X0.03937*%
%ADD21R,0.03937X0.03937*%
%ADD51R,0.14183X0.10679*%
%ADD52R,0.02962X0.06309*%
%ADD53R,0.04143X0.03356*%
%ADD54R,0.06309X0.08671*%
%ADD55R,0.10443X0.07293*%
%ADD56R,0.10836X0.04340*%
%ADD57R,0.12017X0.14576*%
%ADD58R,0.04143X0.04537*%
%ADD59R,0.04537X0.04143*%
%ADD60O,0.06899X0.02372*%
%ADD61R,0.05128X0.11230*%
%ADD62C,0.06600*%
%ADD63R,0.06600X0.06600*%
%ADD64C,0.06900*%
%ADD65C,0.08474*%
%ADD66C,0.16348*%
%ADD67C,0.01700*%
%ADD68C,0.02300*%
%ADD69C,0.00987*%
D20*
X353256Y315500D02*
D03*
X359949D02*
D03*
X424807Y235366D02*
D03*
X431500D02*
D03*
D21*
X444513Y308123D02*
D03*
Y314816D02*
D03*
X437525Y308123D02*
D03*
Y314816D02*
D03*
X430538Y308123D02*
D03*
Y314816D02*
D03*
X423550Y308123D02*
D03*
Y314816D02*
D03*
D51*
X319488Y209000D02*
D03*
D52*
X311988Y198272D02*
D03*
X316988D02*
D03*
X321988D02*
D03*
X326988D02*
D03*
X311988Y219728D02*
D03*
X316988D02*
D03*
X321988D02*
D03*
X326988D02*
D03*
D53*
X311488Y226244D02*
D03*
Y231756D02*
D03*
X328488Y226244D02*
D03*
Y231756D02*
D03*
X335000Y198000D02*
D03*
Y203512D02*
D03*
X317155Y231756D02*
D03*
Y226244D02*
D03*
X322821D02*
D03*
Y231756D02*
D03*
X342500Y313000D02*
D03*
Y318512D02*
D03*
X335000Y312988D02*
D03*
Y318500D02*
D03*
X474220Y259331D02*
D03*
Y253819D02*
D03*
X473500Y219756D02*
D03*
Y214244D02*
D03*
X474000Y298756D02*
D03*
Y293244D02*
D03*
D54*
X377000Y210000D02*
D03*
Y198779D02*
D03*
D55*
X359874Y200000D02*
D03*
X344126D02*
D03*
D56*
X377000Y232024D02*
D03*
Y221000D02*
D03*
D57*
X361417Y222000D02*
D03*
X338583D02*
D03*
D58*
X371905Y315500D02*
D03*
X365606D02*
D03*
X444047Y235366D02*
D03*
X437748D02*
D03*
D59*
X468000Y299150D02*
D03*
Y292850D02*
D03*
D60*
X479654Y272150D02*
D03*
Y269590D02*
D03*
Y267032D02*
D03*
Y264472D02*
D03*
Y261913D02*
D03*
Y259354D02*
D03*
Y256795D02*
D03*
Y254236D02*
D03*
Y251677D02*
D03*
Y249118D02*
D03*
Y246559D02*
D03*
Y244000D02*
D03*
X508787Y272150D02*
D03*
Y269590D02*
D03*
Y267032D02*
D03*
Y264472D02*
D03*
Y261913D02*
D03*
Y259354D02*
D03*
Y256795D02*
D03*
Y254236D02*
D03*
Y251677D02*
D03*
Y249118D02*
D03*
Y246559D02*
D03*
Y244000D02*
D03*
X478933Y232575D02*
D03*
Y230016D02*
D03*
Y227457D02*
D03*
Y224898D02*
D03*
Y222339D02*
D03*
Y219779D02*
D03*
Y217220D02*
D03*
Y214661D02*
D03*
Y212102D02*
D03*
Y209543D02*
D03*
Y206984D02*
D03*
Y204425D02*
D03*
X508067Y232575D02*
D03*
Y230016D02*
D03*
Y227457D02*
D03*
Y224898D02*
D03*
Y222339D02*
D03*
Y219779D02*
D03*
Y217220D02*
D03*
Y214661D02*
D03*
Y212102D02*
D03*
Y209543D02*
D03*
Y206984D02*
D03*
Y204425D02*
D03*
X480031Y311850D02*
D03*
Y309291D02*
D03*
Y306732D02*
D03*
Y304173D02*
D03*
Y301614D02*
D03*
Y299055D02*
D03*
Y296496D02*
D03*
Y293937D02*
D03*
Y291378D02*
D03*
Y288819D02*
D03*
Y286260D02*
D03*
Y283701D02*
D03*
X509165Y311850D02*
D03*
Y309291D02*
D03*
Y306732D02*
D03*
Y304173D02*
D03*
Y301614D02*
D03*
Y299055D02*
D03*
Y296496D02*
D03*
Y293937D02*
D03*
Y291378D02*
D03*
Y288819D02*
D03*
Y286260D02*
D03*
Y283701D02*
D03*
D61*
X463189Y274000D02*
D03*
X475000D02*
D03*
X462094Y235000D02*
D03*
X473906D02*
D03*
X463095Y314000D02*
D03*
X474905D02*
D03*
D62*
X272000Y316000D02*
D03*
X262000D02*
D03*
X322000D02*
D03*
X312000D02*
D03*
X302000D02*
D03*
X292000D02*
D03*
X282000D02*
D03*
Y303000D02*
D03*
X292000D02*
D03*
X302000D02*
D03*
X312000D02*
D03*
X322000D02*
D03*
X332000D02*
D03*
X342000D02*
D03*
X352000D02*
D03*
X362000D02*
D03*
X372000D02*
D03*
X382000D02*
D03*
X392000D02*
D03*
X402000Y243000D02*
D03*
X272000Y303000D02*
D03*
X262000D02*
D03*
X392000Y243000D02*
D03*
X382000D02*
D03*
X372000D02*
D03*
X362000D02*
D03*
X352000D02*
D03*
X342000D02*
D03*
X332000D02*
D03*
X322000D02*
D03*
X312000D02*
D03*
X282000D02*
D03*
X302000D02*
D03*
X292000D02*
D03*
X272000D02*
D03*
X262000D02*
D03*
D63*
X252000Y316000D02*
D03*
X402000Y303000D02*
D03*
D64*
X532220Y268829D02*
D03*
X524346D02*
D03*
X532500Y229500D02*
D03*
X524626D02*
D03*
X532598Y308529D02*
D03*
X524724D02*
D03*
X532220Y248829D02*
D03*
X524346D02*
D03*
X532500Y209500D02*
D03*
X524626D02*
D03*
X532598Y288529D02*
D03*
X524724D02*
D03*
X295000Y216748D02*
D03*
Y224622D02*
D03*
Y208874D02*
D03*
Y201000D02*
D03*
X274000Y216748D02*
D03*
Y224622D02*
D03*
Y208874D02*
D03*
Y201000D02*
D03*
X253000Y216748D02*
D03*
Y224622D02*
D03*
Y208874D02*
D03*
Y201000D02*
D03*
D65*
X407000Y222685D02*
D03*
Y203000D02*
D03*
X448000Y203315D02*
D03*
Y223000D02*
D03*
D66*
X551000Y258000D02*
D03*
X235000D02*
D03*
X552000Y312000D02*
D03*
X551000Y202000D02*
D03*
X235000D02*
D03*
Y312000D02*
D03*
D67*
X438000Y249000D02*
D03*
X428000Y289000D02*
D03*
X461000Y211000D02*
D03*
X466000Y221000D02*
D03*
X431000Y242000D02*
D03*
X445244Y298756D02*
D03*
X442000Y274000D02*
D03*
Y277000D02*
D03*
X474000Y306000D02*
D03*
X352000Y231300D02*
D03*
X369401Y227401D02*
D03*
X469000Y209000D02*
D03*
X421000Y232500D02*
D03*
X424367Y242267D02*
D03*
X344000Y233000D02*
D03*
X469000Y263000D02*
D03*
X474000Y266000D02*
D03*
X468000Y270000D02*
D03*
X413000Y315000D02*
D03*
X521000Y200000D02*
D03*
X465000Y317000D02*
D03*
Y311000D02*
D03*
Y314000D02*
D03*
X410400Y297300D02*
D03*
X439400Y262400D02*
D03*
X439505Y255467D02*
D03*
X452700Y304900D02*
D03*
X406200Y314700D02*
D03*
X391000Y271000D02*
D03*
X337000Y234000D02*
D03*
X480500Y271000D02*
D03*
X480843Y310500D02*
D03*
X481244Y317000D02*
D03*
X479744Y231307D02*
D03*
X479500Y203000D02*
D03*
X485000Y195000D02*
D03*
X490000D02*
D03*
X495000D02*
D03*
X505000D02*
D03*
X500000D02*
D03*
X485000Y200000D02*
D03*
X490000D02*
D03*
X495000D02*
D03*
X500000D02*
D03*
X505000D02*
D03*
X510000Y195000D02*
D03*
Y200000D02*
D03*
X515000D02*
D03*
X526000D02*
D03*
X531000D02*
D03*
Y195000D02*
D03*
X526000D02*
D03*
X521000D02*
D03*
X515000D02*
D03*
X255000Y250000D02*
D03*
X260000D02*
D03*
Y255000D02*
D03*
X255000D02*
D03*
Y260000D02*
D03*
X260000D02*
D03*
Y265000D02*
D03*
X255000D02*
D03*
Y270000D02*
D03*
X260000D02*
D03*
Y275000D02*
D03*
X255000D02*
D03*
Y280000D02*
D03*
X260000D02*
D03*
Y285000D02*
D03*
X255000D02*
D03*
Y290000D02*
D03*
X260000D02*
D03*
X442000Y294300D02*
D03*
X448034Y235500D02*
D03*
X448700Y316300D02*
D03*
X453000Y311000D02*
D03*
X473981Y288819D02*
D03*
X483500Y283500D02*
D03*
X485000Y274000D02*
D03*
X450000Y282000D02*
D03*
X446000Y283000D02*
D03*
X471400Y282100D02*
D03*
X457000Y248000D02*
D03*
X480000Y235000D02*
D03*
X420000Y252000D02*
D03*
Y248000D02*
D03*
Y244000D02*
D03*
X416000D02*
D03*
Y248000D02*
D03*
Y252000D02*
D03*
D68*
X353000Y212000D02*
D03*
Y208000D02*
D03*
X361000Y212000D02*
D03*
X357000D02*
D03*
Y208000D02*
D03*
X361000D02*
D03*
X365000D02*
D03*
X475000Y244000D02*
D03*
X473906Y235000D02*
D03*
X477000Y271000D02*
D03*
X323000Y309000D02*
D03*
X373000Y315000D02*
D03*
X426000Y277000D02*
D03*
X430000D02*
D03*
X434000D02*
D03*
X463000Y281000D02*
D03*
Y273000D02*
D03*
Y277000D02*
D03*
X409000Y280000D02*
D03*
X357000Y197000D02*
D03*
X361000D02*
D03*
X365000D02*
D03*
X369000D02*
D03*
Y201000D02*
D03*
X365000D02*
D03*
X361000D02*
D03*
X357000D02*
D03*
X322000Y199000D02*
D03*
X317000D02*
D03*
X311000D02*
D03*
D69*
X315158Y211165D02*
D03*
X319488Y206835D02*
D03*
Y211165D02*
D03*
X323819Y206835D02*
D03*
Y211165D02*
D03*
X315158Y206835D02*
D03*
M02*
